/* XPM */
static char *fef6314d385846f59de96a5f39c68b92COlK7thleu2OIExu[] = {
/* columns rows colors chars-per-pixel */
"64 64 243 2 ",
"   c #3C3923",
".  c #4B4A37",
"X  c #524C3A",
"o  c #58553D",
"O  c #4C4932",
"+  c #645B3C",
"@  c #6C613D",
"#  c #494C44",
"$  c #535442",
"%  c #5C5A44",
"&  c #53554B",
"*  c #5B5C4B",
"=  c #595747",
"-  c #474E52",
";  c #4D5758",
":  c #5B5D55",
">  c #565C5A",
",  c #4E574E",
"<  c #645D4A",
"1  c #645B43",
"2  c #5D625B",
"3  c #5D6253",
"4  c #5D6043",
"5  c #64624D",
"6  c #6B644C",
"7  c #6C674B",
"8  c #72664C",
"9  c #776B4C",
"0  c #646454",
"q  c #6A6654",
"w  c #6C6955",
"e  c #65645B",
"r  c #656A5C",
"t  c #6C6C5C",
"y  c #6A665A",
"u  c #716652",
"i  c #746B55",
"p  c #746D5B",
"a  c #7A6E5C",
"s  c #776D57",
"d  c #6E735C",
"f  c #7B7354",
"g  c #74725C",
"h  c #7C735C",
"j  c #777558",
"k  c #7E744D",
"l  c #5B6567",
"z  c #646A64",
"x  c #6C6C64",
"c  c #656C6C",
"v  c #696D6A",
"b  c #646562",
"n  c #746E63",
"m  c #6D7265",
"M  c #6D736B",
"N  c #747464",
"B  c #7B7563",
"V  c #7C7A65",
"C  c #73746B",
"Z  c #7A766B",
"A  c #757A6C",
"S  c #7C7B6C",
"D  c #767864",
"F  c #697575",
"G  c #757B74",
"H  c #7B7D74",
"J  c #747C7B",
"K  c #7C7E79",
"L  c #757674",
"P  c #686F70",
"I  c #525E64",
"U  c #837553",
"Y  c #84765E",
"T  c #837B5C",
"R  c #897C58",
"E  c #827047",
"W  c #827662",
"Q  c #847B64",
"!  c #8A7D64",
"~  c #837D6B",
"^  c #877B69",
"/  c #827E73",
"(  c #907E67",
")  c #7D816D",
"_  c #7F8366",
"`  c #7D8374",
"'  c #74817B",
"]  c #7B837B",
"[  c #7E8A7B",
"{  c #86825E",
"}  c #848165",
"|  c #8B8264",
" . c #84826C",
".. c #8B836B",
"X. c #8D8A6D",
"o. c #8A8968",
"O. c #91856C",
"+. c #938B6C",
"@. c #948968",
"#. c #99926D",
"$. c #848473",
"%. c #8A8573",
"&. c #868A74",
"*. c #8C8B74",
"=. c #83857B",
"-. c #8B867C",
";. c #848A7C",
":. c #8C8B7B",
">. c #938C74",
",. c #998D75",
"<. c #938C7A",
"1. c #998E7A",
"2. c #918774",
"3. c #8D917C",
"4. c #8C9176",
"5. c #959274",
"6. c #9B9374",
"7. c #9B9975",
"8. c #94927C",
"9. c #9A947C",
"0. c #9D9A7C",
"q. c #949A7B",
"w. c #A39B7C",
"e. c #A39778",
"r. c #A59A6E",
"t. c #A4A17D",
"y. c #A9A37E",
"u. c #B5A877",
"i. c #9FA07C",
"p. c #757E80",
"a. c #6E7F81",
"s. c #7C8583",
"d. c #7B8986",
"f. c #7E8E90",
"g. c #848B83",
"h. c #8B8D83",
"j. c #888A87",
"k. c #938E82",
"l. c #908C86",
"z. c #859184",
"x. c #8C9383",
"c. c #8C938B",
"v. c #8A968B",
"b. c #949483",
"n. c #9B9582",
"m. c #959984",
"M. c #9C9B84",
"N. c #93958A",
"B. c #9A968A",
"V. c #949A8C",
"C. c #9C9B8B",
"Z. c #8D9592",
"A. c #8B9993",
"S. c #959C93",
"D. c #9B9D92",
"F. c #959A96",
"G. c #A39C83",
"H. c #A39D8B",
"J. c #A69C86",
"K. c #A39E92",
"L. c #A09D98",
"P. c #9CA28C",
"I. c #9CA287",
"U. c #8DA19C",
"Y. c #9DA395",
"T. c #9CA39B",
"R. c #99A499",
"E. c #A4A384",
"W. c #AAA484",
"Q. c #A4A28C",
"!. c #AAA48B",
"~. c #A4A88C",
"^. c #ACAA8C",
"/. c #ACAA85",
"(. c #B3AD8C",
"). c #B2A786",
"_. c #B5B18E",
"`. c #A4A493",
"'. c #AAA593",
"]. c #A5A993",
"[. c #ACAB94",
"{. c #A3A59B",
"}. c #A4AA9B",
"|. c #ABAB9B",
" X c #ABA79A",
".X c #B2AC94",
"XX c #B2AD9C",
"oX c #B4A993",
"OX c #AEB19B",
"+X c #ACB194",
"@X c #B4B394",
"#X c #BBB594",
"$X c #BCB994",
"%X c #B4B29C",
"&X c #BAB59B",
"*X c #BCBB9C",
"=X c #B4B89A",
"-X c #9BA5A3",
";X c #99A8A4",
":X c #ABADA2",
">X c #A4AAA4",
",X c #B2ADA2",
"<X c #ADB2A4",
"1X c #ABB3AB",
"2X c #B3B4A3",
"3X c #BAB5A3",
"4X c #BCBBA4",
"5X c #B4B6AA",
"6X c #B5BAAC",
"7X c #BCBCAC",
"8X c #B7B8A8",
"9X c #B8BDB4",
"0X c #AAB4B7",
"qX c #C2BE9C",
"wX c #C2BA95",
"eX c #CEBF8F",
"rX c #C2BDA7",
"tX c #C2BEB1",
"yX c #BFC2A8",
"uX c #BDC1B5",
"iX c #C7C39A",
"pX c #C3C3A5",
"aX c #CAC6A3",
"sX c #C4C3AB",
"dX c #CCCBAD",
"fX c #CAC8A7",
"gX c #D2CCA5",
"hX c #D4D3AE",
"jX c #C3C5B3",
"kX c #CBCCB3",
"lX c #C6C9BA",
"zX c #D0CFB5",
"xX c #CFD1B7",
"cX c #D3D4B4",
"vX c #D8D8B9",
"bX c #CFD1AC",
"nX c #B7C0C4",
"mX c #C9CDC5",
"MX c #CED2C3",
"NX c #D8D9C5",
"BX c #CFDDDD",
"VX c #DFE2C7",
"CX c #E3E8D6",
/* pixels */
"<X}.Y.>X9X1XT.>X}.<X6XR.* =.A N 2 & $ $ $ * o O = % $ 5 t g w t m V ;.8.o.5.<.*.:.Y.S.b.n.C 2 l ;.] F &.`.P.x -X-X6X9X1X1X1X1XyX",
"8XOX6XOX|.2X8X8X4XyXkXyX;.x.$.:.C A G :.q.3.$.$.&.x.&.x.}.=XpX*Xr V 9.G.5.5.0.w.G.Q.n.~.3Xx.N.-.N.H l g.`.P.v {.9X<X{.8XjXlXuX1X",
"OXuXuXsXjX:X<X%X].+X8XpXN.x.;.` m ;.` A x.4.` q.[ :.` ;.].~.OXuXM S e.o.+.o.,.8./.#Xw.^..X!.G.4.'.m.L `.|.%XN 8X4X:.M ].sXjXlX6X",
"2XuXkXuXjX9X5X2X2X2XOX^.&.:.$.r 0 :.Z t *.$.$.m.x.V.=.;.<XbXCXvXA S w.w.w.w.G.W.W.E.W..X&X3XG.Q %.&.Z -.n.*.l |.[.|.c.[.*XjX7X9X",
"lXkXkXaXrX7XOXOX%XuXkXqXZ L 0 % 0 N m 2 x m r 8.t $.) Z x &.3.:.l 0 |  .>. .V V N B ..>.$.8.&.y : x v b C L v :X].'.C.;.V.uX:XlX",
"fXvX/.!.hXfXsX4XyXcXvXsX=.` K ] h.G s.F G H h.`.h.v.s.g.J s.] U.9Xg.m x t b e 3 , t -.H : j.b.8.h.h.c.S.L.:Xh.C.C._.>.:.aXcX7XkX",
"pXcXq.~.vXVXvXzXcXxXlXyX` <.8.b.:.;.F ] N.3.C.%XH.C.;.}.>X>X<XMXCXN.m V O.H Q ..| ,.).[.%.|.%X&X&X[.|.yX4X4Xb.B.`.W.0.+.e.rX4XOX",
"pX@Xb.].bXxXpX*X*X^.yX=X$.b.>.S D m l A :.n  .~.M.S H 4XlXMXxXVXVXg.r C Z m N A x  .M.8.t [.#X^.[.M.n.[.`.N.v T.4X'.%XQ.+X=XyXP.",
"G x.D.Y.`.N.:.] N t G j.F.R.d.] g.] A.h.&.:.h.m.=.) P.bXdXaXbXP.;. .D r 2 0 e z : Z  .S t b.m.$., 2 v x J P I l K c l G =.L C M ",
"-X}.`.[.jX{.[.[.C :.M.n.R.<Xm.b.x.H g.3.H.].[.[.q.i.M.hXaXhXhX) B Q.Q.M.n...H.q.V q.[.(.^.3X@X].- h.C.{.|.D.s.K T.j.c N.V.:XT.R.",
"3X%XM. .%XY.=X$X%.n.'.'.'.~.%X^.t...V..XQ.[.*X4X~.g d _.yXbX*X= ~ Q.~.'.M.%.'.h V >.!.H.'.G.>.E.t [.).~.'.b.h.|.8X3Xe <.Q.OX'.|.",
"E.^.!.n.M.H.@XG.H  .5.E.yX[.+XW.y.9.8.7.5.#.5.>.>.&.m 0 q.I.~.& %.qX!.@X.. .9.X a <.!.%Xy.5. .[.~ E.5.6.G.~ 9.M.0.9.: H.^.[..XQ.",
"C B p H C H N t G ;.M.I.^.y./.+X/.Y.x.%.$.x.3.A.m.V.N.N.` P.4Xr q y._.9.f Q o.1 ,.+.0.).t.y.!.^.: C b b : v v 2 > > ; t D ;. .` ",
"C.c.H M G S.C.&.s.8.~.4Xr.@._.qX+XR.P.~.=XsXyXkXkXpXpX4X5.X.4XD o h X. .V 4.N *.E.&.m 9.W.y.wX3.b !.!.[.v K.D.Z.c.j.f.s.{.S.N.5X",
"5X:Xl.K %.0.w.0.` %.5.0.5.q.7.$Xt.m.P.aXcXbXbXvXvXiXiX*X .5.bX&.* 3 m S m N 3 D $.t 3 H $.t t , # j #.0.C '..XH.|.5X8X|.sX9.*.%X",
"<.>.h.F.$.:.V M Z.M S ) ].8XY.I.4.v.P.7.y.t.@XiX$XI.5.P.M V  .&.F m A ) ] ] ] z ' [ > l l ; - ; ; - I c l `.'.B..XXXrX#XaXQ.q >.",
"K.`.l.Z.p.a.a.s.f.s.] g.V.V.V.P.V.U.R.U.P.}.9X;X[ X.3.[ 3.[ [ z.v.x.V.m.q.[ [ 4.g.;.b C b L =.h./ v g.k.z l.5XB.G.,.w.aXcX] ;.'.",
"6X8XB.c.F j.g.J J z.3.q.` q.0.0.7.^.E.E.W.7.1Xz.k _ _ &.j j k _ _ { _ _ _ { o.4.m.M.h.a %.H.|.~.D.|.&X%Xv H.rX#X$X_.$XeXfXN.K.XX",
"2X8X3XA.H >.h.J ' $.o.w.&.E._.$X$X$X$X$XiX@XP.$.o.X.#.E.].~.+Xt.i.7.i.+X/./.~.q.w.M.=.+..XqX4X.X).wXvXaXe l.sXdXgXgXwX_.fXN.D.tX",
"B >.n.-XE.6.`.v.:.:.q._.4.5.7.r.w.^.q.t.7.i.q.$.o.X.o.{ } o.x.I.q.o._ 3.I.q.q.m.4.A L h +.9.M.9...X.9.^ - P H.w.H.%.Z / $.J ;. .",
"P g.A.F.+XW./.>.&.I.^.$Xm.m.R.V.;.V.v.v.A.v.T.;XR.;.A z.R.d.[ d.[ v.d.[ v.d.' R.v.] x.A ~ K v b l l > c F P p.J J d.c l l d.F c ",
"v.N.D.j.sX=X_.q.I.&XwX$XQ.P.OXP.V.q.q.M.P.q.i.(.^.N._ P.q.3.&.V.[ [ 4.[ z.3.I.x.3.V.}.;.-.D.B.N.=.-.N.h.s.p.l.k.:.H z g.g.%.L c.",
"{. XQ.S.*X&X@X3.b.&X*X$XQ.I.[.OXM.4.q.^.~.8.7.^.q.:.I.P.Y.Y.C.~.].v.[ [ v.x.P.Y.].~.OX;.G.!.9.1.n.w.`.B.K.J. X'.J.~ m !. X'.n.`.",
"4X4XG.N.=X*X(.5.4.+X@X).m.M.t..X5.| i.(.W.w./.].I.o.I./.=X+X~.+X~.V.z.q.I.I./.%X+X@X+Xx.9.w.6.+.| 5.!.J.J.J.oXwX). .S J.#X#X!.%X",
"0.9.:.;.N.E.E.I.;.M.E.E.nXP.7.r.5.0.5.5.>.q.w.6.5.r m.*X*X+X&X=XI.~.+Xt.+X*X=X*X@X*X+Xx.V N O.,.a s U R ,.+.G.w.| =.p.-.W W O.| ",
"h.g.f.A.U.D.S.F.Y.T.S.1XBX>XT.m.3.].R.:X`.V.&.;.m.S I.iX*X=X@X$X$XiXt.7.t.t.$X$X=X_.qXm.C v y C l./ ~ / b.B.K L ' J d.g.s.d.c.c.",
"] x.g.T.9X5X<X%X<XOX}.1XOX}.<XY.m.^.[.@XE.q.P.M.4._ I.gXbX*X=X^.+X=X$Xy././.iXbXiX=X^.:.B.B.-.L.L.D.{.L.L.5Xh.K x.:.S.`.].C.'.8X",
"Z 8.b.rXqXqX#X&X@X=X5X1XE.4XfXT.:.^.^.W.+.#.7.w.4.` +XvXgX$XiXyX=X$X$XiXhXiXhXbX$XqX=X$.b.n.=.L.,X,X3X,X X3Xb.-.n.V.{.,X4X4XsXkX",
"H C.&.T @.r.u.).).7.|.T.0.~.[.A.F h 5.Q.0.q.&.2. .) &.6.o.@.7.0.I.5.5.e.t.5.5.#.>.&.5. .G.H.H.G.K.oXoX'.!.rXm.m.H. X5XfXsXkXcXbX",
";.h.S D &./.E.9.2X6XlX;XA.z.v.T.U.A.>X>XT.;X>XF.U.;Xv.' ] z.[ A.v.v.V.x.;.` G G J C M m p Q / W W ( u h ^ 5.p `.4XrXaXcXkXvXVXcX",
"h.'.1X9XuXmX6X:X XV.b.H.:X>XS.S.;XT.R.S.V.U.Y.T.R.;XR.U.U.A.A.R.}.V.` v b v M A v 0 b H ;.K b > e C C h.G S M ^.pXfXqXcXzXNXvXfX",
"=.M.uXMXMXVXmX5XE.~ M.w.`.{.{.D.z.;.` S ` &.n.m.8.Y.].Y.>X}.|.<XyXm.Q e l m ^ ~ >.| B J.(. X|.N.b.Q..X&X|.2Xb.'.rXhXkXvXNXVXNXzX",
"/ n.kXMX7XxXNXlXw.:.Q.y.w.`..X'.8.*.*.>.C.8.0.*.*.9.7.8.S.q.}.uXyX4.V | S B %.B Q | +.9.H.#X&X6.!.(.$XaXdXcX[.OXvXNXhXgXgXhXvX_.",
"$.>.w.(.J.e.w.w.w.-.v.).W.0.%X%X^.^.Q.!.!.M.9.9.9.*.| T  .M.%XkXyX4.j @.! | O.%.+.Q O.@.| e.r.T w.#X*XeXpXcX~.H.hXiXiXeXgXiXgXJ.",
"h 2.| 7 i 9  .<.Q.=.D.y.W.0.oX%X!.G._.qX#X).y._.(.W.5.R U M.yXxXxXD.t i i W s Q M...p s i 2.G.B | | 6.r.X.5.A =.(.(.w.{ | 2.e.w.",
"g.D.g.D.uXN.h.l.S.c.x.W.!.q.).w.@.R { 6.).).e.qX(.#.U R #.E.y.8XkX` v ; > > > z z F M C 5 k.B.-.x.` }.`.V.] ' j.S.T.A.] G K g.j.",
"n.@XQ.N.nXF.( ^ | B n 9.e.O.! @.@.R U E E E E E E + + E k f U #.0.A > : : , / / 1.k.oXH.n b.J.'.'.$.&XzXkX2X].D. X3X,XZ.Y.,X2X|.",
"'.7X3XC.p.-XF.j.h.Z.c.K Z Y U 8 U U R 6 X o B : o + 1 6 % 5 o 4 5 H v e b v G.J.w.J.J.<.. 5 ..>.n.S 0.6.w.^ ..n.J.J.oX-.2XlX6X`.",
"oXlX5XK.L / B.l.L K B.s.Z.B.L Z 2.n.G.8.>.%.k.<...B B p Z C./ L H N i v G.!.!.[.J.J.,./ # & y a ~ C H C / n -.k.k.J.1./ '.3X,XK.",
"XX,X,X,X-.~ K.l.l.-.k.-.H.K.-.%.w.).J.H.e.G.G.9.%.h ~ Z  .K.F.j.-.V a n '.'.XXJ.,.w.oX^ < W 2.2.S $.:.B.l./ :X9XmXmX:Xl.K.rXoXJ.",
"rXrX&X3X-./ K.n.l.2.n.J.1.,.^ / K.oX!.J.J.!.K.J.k.k.9.$.>.XX>XF.%.t ~ Z 2.1.1.>.1.O.e.,.s ( e.).J.XX!.oX<.2.%X7XNXkXXXl.J.tXrX3X",
",XoXoXoX/ n ( W ^ Y U Y ( ( x W ! e.<.>.^ ,.1.1.>.>.>.a b.`.H.D.h.q / Z ^ ! ,.H.'.'.e.<.8 @.J.J.%.^ e.#Xk.<.W.#.W.wX|.B.J.!.XXwX",
"/ / l.l.c./ / ~ -.%.n.<.~ l.j.l.-.-.g.Z -.H C ` ;.G S g H.!.,.>.B.b B S ! ..>.^ ,.J.e.n.y O.J.3X'.C.G.@X`.%.:.:.%.^ -.:./ Z k.K.",
"n / %.%.j.-.l./ / k.n.<.k.n.h.l.<.9.1.^ 5.<.<.n.1.n.Q.:.8.oXJ.J.H.^ n p ~ n <.8.2.( ,.1.p ..J.oXD.K..XrX<.Q m.E.<.$.W >./ k.>.1.",
"1 ! O.W W / ..-.:.>.W./.J.J.w.B.H.'.H.V ! T R h 9 U X.D V } Z B s t 2 & # # # & . = q : y Y e.,./ Z V Q N | h h 6 s a ( N ~ ~ H ",
"i %.2.Y ~ ^ ..O.<.<.K.!.n.J.H.!.H.!.Q.) x.:.b.:.S =.;.$.;.] ;.3.0 ;.;.H Z  .2 & : - v x | ,.9.f h $.&.:.N.N.A Z $.$.~ $.$.<.k.v.",
"s %.9.%.W f ! >.2.J.,XrX5X'.'.XX&X|.'.Q 8.8.8.8.-.*.8.$.*.5...M.] q.&.:.q.8.* % a e Z S l.J.!.| R o.&.~ %.<.8.S  .H.H.w.J.XXE.!.",
"g 5 1 8 h ! ( 9.>.G.tXtXtXtX7XjXlX8XoXQ *.>.`.C.G.M.&.:.C.0.n.m.V I.:.8.N.m.* 7 ^ W ^ B ,.J..X6.O.+.R | R Q T u h !.!.!.!.!.).W.",
"/ H N * C ..! ( ~ M.rXtXtXtXtXmXrX5XXX%.'.!.<X'.'.H.G.'.1X XJ.b.w I.3.3.8.I.d   O X X < 7 8 i i g j i j 7 i j 5 S  ... .O...6.<.",
";X0XF.c.N.n.C.C.x K.&XtX7XtX5XJ.1.H.H.W [.oXE.H.H.1.+.9.}.`.C.:.D Q.}.n.Y.R.b.$ * % $ % w V i N V S  .` y  .;.x.:.k.8.h.8.N h.N.",
"h.k.:.:.n.B.J.`.Z Q.3X3X'.tX,XJ.w.w.E.0 OXXXw.w.~.w.Q.^.M.,.m.3.q ~.'.Q.Q.|.*.s 2.%.u B 5.X.X.4.9.b.M.V._ q.<.N.N.9.G.w.7.g m.*.",
"8 h h 7 u j i Y g M.w.G.1.,.2.J.G.G.M.< 5.9.>.%.^ >.<. .2.%.Q h X t.XX[..X[.h i >.^ f W b.M.9.B.Q.Q.~.P.} 2.*.1.8.n.~.!.@X$.%.Y ",
"B A t w ;.&.] ] S.T.F.h.N.-.N B.N.:.V.>Xc.h.;.=.b.x.H = H / Z N o X.[.[.Q.G.N 8 ( ! f Q B.J.n.<.C.`.}.Q.V 2.8.>.B.XX5X%X3X&.M ` ",
"1X|.B.t H.H.C.J.B.'.,X XH.n.S Q.H.C.[.2X>X X`.`.'.C.^ =.C.G.n.w.j 0.Q.].'.[.%.i W R 9 f Q h >.m.*.:.C.m.V 0.Q.8.>.H.5X|.oXS b.].",
"xXtX Xs !.'.'.!.w.^.XXn.J.<.q ..0.m.1.2.~ H.`.{.Y.b.%.&.>.G.W.!.8.q y < q y < = % < X . + % 4 w w w j D 7 q.B.C.'.H.|.3X'.t <.XX",
"XX4X Xe 6.w.!.oX(.(.[.%X4X8.i w.G.H.<.T j O.Q.H.`.C.%.W `.|.XX%X[.$ h i j Y } B !  .4 . t  .` )  .x.v.=.q 9.Q. X9X9X3X.X.Xg Q w.",
"8 <  .y N W ..T f 9 h %.%.~ i G.G.J.8X3XH.5.9.n.&.b.-.^ {.8X,X'.M.r 1.>.<.,.,...,.,.f O 7 V  .V 0 A S i t Q g B u Q Q T h 1 7 f ",
"v.;.x.T.N.F.{.T.;.N N.b.V.:.q 6.H.W.[.XX>XC.b.C.$.`  .~ 9.H.2X,X%.q G.6.O.>.9.+.2.>.Y O . X o $ = 0 w =.S.b.S ;.t N.S.v.A.R.}.T.",
"N.%.*.M.`.`.`.'.n.h  XK.8.$.5 9.6.O.R Q @.1 1 1 q V $.<.jX8X#X=X&.w 9.,.<.1.>.,.,.*.s O j &.:.&.$. .%.%.8.Q Q %.t C. X:XV.N.N.D.",
":.Y.x.2.B.H.`.C.<.5 V s s ) D h 5 + 5 + + o i f 7 s W q <.n.-.&.i = y < s p < i s < %   % Q g s w i h i Q *.$.a o ! V.H.m.3.x.Z ",
"D.L.{.N.8.8.C.N.%.w M.N.D.T.D.m.M.M.P.P.b.d [.|.m.*.P.g.] D )  .)  .r * & & & . # $ . . o o . 5 w w t r r w t r o f ~ %.~  .) z.",
"$.>.!.~.2XH.J.C.h.5 H.H.H.[.`.|.|.XX'.H.<.D 7X7X|.b.C.P.`.].m.P.C.Y.T.<.9.8.Z m N p m d A ` 3 C =.Z ) ;.x.g.;.D = 7 h ~ -.n.$.b.",
"i Q >.1.%.n.B.`.n.3 1.n.n.n.9.n.1.1.%.>.~ S ,X}.C.k.[.n.b.H.Q. X[.H.{.N.n.V V S S S V V S A 0 $.:.;.:.&. .:.S t 5 i < 5 ^ :.$.%.",
"V <.^ u 6 a s Z a % a < + 8 i u W u s  .Q w <.Q / ^ <.V W a %.N.:.n.B.m.b.S S ` S S N Z S ) 0 B B a j w 6 q s < < V ~ ^ h h ! V "
};
