/* XPM */
static char *result[] = {
/* columns rows colors chars-per-pixel */
"64 64 86 1 ",
"  c #2D2917",
". c #2F2A19",
"X c #322D1B",
"o c #35311E",
"O c #4A452F",
"+ c #4D4731",
"@ c #4F4933",
"# c #524C35",
"$ c #584F32",
"% c #554F38",
"& c #5A5036",
"* c #565139",
"= c #5B543C",
"- c #5F593F",
"; c #60553D",
": c #635B3E",
"> c #5D5640",
", c #5F5942",
"< c #615743",
"1 c #635C43",
"2 c #695E43",
"3 c #645E49",
"4 c #695D48",
"5 c #676046",
"6 c #6B6346",
"7 c #67614A",
"8 c #6D654A",
"9 c #6F684D",
"0 c #726546",
"q c #72654B",
"w c #726B4C",
"e c #786F4E",
"r c #7A714F",
"t c #6C6551",
"y c #6E6852",
"u c #746C52",
"i c #796E53",
"p c #746D58",
"a c #796E5A",
"s c #767054",
"d c #7C7354",
"f c #7F7855",
"g c #7E7559",
"h c #7F785C",
"j c #7F7460",
"k c #807656",
"l c #827956",
"z c #897E54",
"x c #81765A",
"c c #837B5C",
"v c #887F5D",
"b c #817561",
"n c #847D61",
"m c #887D64",
"M c #897E6A",
"N c #8E8256",
"B c #87805F",
"V c #8A815E",
"C c #91865C",
"Z c #94895E",
"A c #988C5F",
"S c #878062",
"D c #8C8463",
"F c #8F8866",
"G c #8D856A",
"H c #8F8968",
"J c #908763",
"K c #958B64",
"L c #998E65",
"P c #958C6A",
"I c #998F6A",
"U c #9B9066",
"Y c #97906D",
"T c #9C926C",
"R c #968D71",
"E c #969070",
"W c #9D9472",
"Q c #9F9875",
"! c #9F9779",
"~ c #9F987A",
"^ c #A0956E",
"/ c #A09773",
"( c #A29975",
") c #A09779",
"_ c #A49B7A",
"` c #A49E80",
/* pixels */
"=;====<;=<4434t433889yy8t333433,,,4>>133332333433381<<<1>=<;;=<1",
"060424424qqqqqiq20e066y74222wt1=><<&1224;124<2<<<q4qq3224144022q",
"xaxmgaxMGMxbnbngtxGGmmGmi0ixMRGxypuaxjaaha9saxjaabbbMGbhagbxxxxa",
";4pttyypapptyt3t,typ4tp7;$;$>pt3<3<33334775-yqpttyyppaauu8up<;4<",
"X.....Xo...XX.  .o..... XXXX.X  ..XXX...  X     .XX..XXoXXXooooo",
"#@+++++#@@+#%%@%@****%@+@@++@@+@@##%@@@@@##+OO@@@@#######@%&&&%&",
"=>#%%%%%>>===%&>==-=-=--===##****===%%>&**=*****=&*=;=&**%*=>,>>",
"&&>%>==*>,===>=<,*=*-=,,<>=====*==<>=>>>-*====-*==;*=1=,=>=13,1<",
",,,,,,,,,3,=17115--,5-,535,,----*1131,->,:-::-,:5:-:,:-53,3,1311",
"55575557877555555:,58788587755::3588556551:66565-:-:555:53758665",
"999997999yy889688865y8w85999886:698t8995:666666::66:6686889u9869",
"9899999999899w6688899yyu999y998568896966890566:666886686560w0900",
"008899u98989999986599yuu9899698898969689990655566666668866608660",
"9008uww699uusyu9869wuswyw9uwwswiw9w98w090www6ww66696668966666600",
"wuwsww99uuuusdu9wsi9wswwwisdsdssswuwww6600wwwww66w9esswsrw0w6www",
"dswwuwussssussussusrsuiwwsdsssssdws9ww0w09wwwww6099eswsfrwwwwwew",
"fdsewwesghadggdsgddipeiisdgssssgersuuwweee0wwe0e9eeridghduee0ise",
"hfdrrrddgghghhffgiidgsfhghdddlhgsshgxdei0rrwsdswerrrdcjhdfdeedhl",
"sfdsrrwsdgckgdsdssdfgfdxhhnnfnhnchhjgfdddeerddsrrsrfkxlchffdsghx",
"fBcffiefcglddfsdsfdnnncnSSSjlnSnjhnngflxr0edfdddrsfrsxfffggsrfgl",
"ccclfrrdrkkdiddfShSjnScSSGSjhchSncchxddsrwkkfeesffffddkkfxkrdkkf",
"vVclrdrdsggdfgfhhhjnclmncSSnnShjhhdfgdddlrrklreefdfrdddddfddrsdk",
"cclkrrkdfghgdxlgnjSSBcnjhBSSnncSjcclchdgffldxseeruwrdrrddgfdsflc",
"SclfddkkchlcncccSSnhcccchnccjcnSnnnclglldlllkddkfrrrdrefdglldgcc",
"SSnllclhlhccccnmhSjBcchlccdcchlccgcvcccxccldkkfdkislfrrdxgfcllcc",
"GGDcccclccnnlncxhjhBclcVDcgnchcnclcVcSclcclzdklclffllkfdhlcllmSG",
"HGSmcccllcccmFScBhhSSSSDGSncBclcBSSSDSccclllcclvncclddllnccccSGG",
"DGDGFmccccBcvDSmncSDGDDGGGSSBcffBDFSDDVclkflkclzSccccllBScVcBSDB",
"BVSGDccVVBVBccSSncSGPGDSGSDGccBlzSGDDSVcllvlllBcSVDcVllccBBBcSDS",
"VBVSDVDDJDDFDVSSGcBDHDJSDSVBcBDVcSSvJmDScBccclVVDDVVVllBcBVSBBVD",
"DVcDJDVDFFGGSSzVVBBSHPGDDFDVVVDGcVSFVcJDSDBllBDBBDVVVBVVVVDBVDDD",
"JFDDFFPJPHPJPJDDDFVGFFHGFFGDDVJJcNJPDNmFDDDVzzNFDPJIPFJFVDDDDJJK",
"HPPHHPRIERRHPPJDFDFJFFFFPJJJVDJJSVDDJPJJJPDJzcDKKPKKPFPFDDGFFDJP",
"PHRIIPPIEYERPPKJDJJKDFFFFJLPKDVJJJFJPKVFJVFVVDDKPPKCJPPFJKHPPFPP",
"PRREEIIRIFI!RRIPJKFJVDHPPPPJKFDJKJYKKKKJIPIPKPJPPJJKPPPFPPPHHPPR",
"PRWRIWIIIPPIRIRPJPZKDKPPPIWPJPKPPKIPKKKYIIIITIPIIPKIPWYPEPPFPPIT",
"QWRWITIKPPPE!RWJPJPPIPRIPPRTIIIPITPIPKTTWITWWWEPIPPTWWEWERIFPEWW",
"KPRIIILIYWI!W!!PKZKPWW~WIWWTTWTTIIJIKYT/TTW(!WWTEPJJHIIEEPPPIERI",
"TTYIIIITYW!!WWIKZZKPTWWWWW!TW/PIPTKTTQQTQ/Q!RIWWWPPPPIPIWRIPPRWT",
"TTTUPPTUYTQ~(WIIKKZKKPRQTITPUIKIITYITT(__!WWEWTRWPFPPPJRWEITYIII",
"!TIIPKIUWWQQWWWIKKKCLII^ILTKLLKIW(((_)_)/(WW!WIWWPJKPLJIWYRTIYTT",
"T(UKLKYKITWRPWTIKLKZZKIIUKIKLQ/W)__(___//W/W)WIIIIKKTPPTTYIIPT!T",
"WWULZAALLW/IWWITTKLLLLIWYYTYI(!)!QT(()W()II/(RKKTIIIITUTTIIITQTT",
"!TIKKLZLLUTIPIIWQTI//I^/QTQ/W))___(/(WW/^LI/IIPWTQ/QTTUTWTTTT~(W",
"/ULLLZKL/T/IT^UTITI/((((/(_((_`_(__(/(_(IL^UTTI(TTT^U/QU/W/UTQQQ",
"ULLLAKKLIQ//QTLTYI////W/Q(__Q(_`!!)(!((/ILLL^TITIYIT////T^UYWQ/^",
"IYLALKLUWW(/((/^/UTWWW/(/(^^T(((TT_(((TILLLLITULLI^^!//LL/UU^ULI",
"UULZKLIQ(_W/)(^((/^/RI^I^((UT^/(TYTTILILLLALITIKLII^!IU^T(//ULLL",
"LTKLTTTWWQYY^(T/TT/QTW^IT/(^^^/()I^TTLLLLLIUIIIAKLII^UI^^/^/^LLL",
"IUL^TULLTTWT/(TTWW/UYQTIT//(^_/W/LWTKWIILLLU^ILLLI^IIII/_^^LLLAL",
"LLLLTTTKIYWQ//^TKLUYT_/T/T^^^/TT^LLLLT//^TI/UT^LIITL^^/(^^^ULAAL",
"ZLLLTTQTTTYT/T^QLLIK/T//TUTULTIKTTLKKIL^W///UUU^ITTWI///_^L^LLAL",
"TUTTTWTTTTU/^^ULUUIQW!T/_^^^QTUKKTTUmL^^//U/UUUMUT//^///(WWWTILU",
"TUITTIQT((!TYTTUTIIT(T/^ITT^TTQULT^TKIU^ITLULL^TT!___((///WWTLL^",
"ILPTIIYTQ/ULUUYUIKLI/T^IT/^((/(_)T/^TIII/UIIUU^^W((WU^^IIIIITULL",
"LLIIPIIYT/YLT^YUUIKT/IIQ________^^))/W////IWULA^W((IUUITTTTTT^LL",
"NJKLKKKKTQLLTWLUILILII/(__((____/////^^ITIIILLzUUUUKUUL^LPI^/ITL",
"KKJJCKKKQTLUKLIT^TTTT^^__^^(_/____(/)/TTUUIII^AUUUUUUUKKKKLLI^LL",
"KKCCZJKKKYLYTT^TU^^(/T^T^///((/___/())/_//TILL^^LKLALTUUAZLIUULT",
"LZCCJKKIKZU^TUUIIUT/UUU^U/^^T(_(/)/)/T^^/IUU^LMUAKZAKLUULL^^^UUT",
"LKZCJJLILLYTTUULLPLT^LUUUUU^^^/^^^/(^TLTUTLKALLLvLAAAUUUZZUUUULL",
"JCNVKKLTLLLLY/TKLKITL^UUTYIUIIIIITTTIIAUUvALvALLAAZLAAAZzZAULZLJ",
"CCNKJKPTLIKYLIKU^LTU^^ULLT/IILIITKLLUTUUAKKALALLAALANZZANAAzZLJZ",
"CCNAKCLITLKQTIKIIUIU^UU^UULLLLLTIKU^U^UUALLALUTLALAKZANzzAZzAAUz"
};
