/* XPM */
static char *result[] = {
/* columns rows colors chars-per-pixel */
"64 64 66 1 ",
"  c #2F302F",
". c #31302F",
"X c #343332",
"o c #393735",
"O c #3B3936",
"+ c #3D3C39",
"@ c #413E3C",
"# c #43413E",
"$ c #454545",
"% c #494644",
"& c #464847",
"* c #4E4A45",
"= c #44474A",
"- c #47494A",
"; c #4C4C4C",
": c #514D47",
"> c #514E4C",
", c #4E504F",
"< c #54514E",
"1 c #59534F",
"2 c #4D4E51",
"3 c #504F51",
"4 c #4E5153",
"5 c #555453",
"6 c #5A5653",
"7 c #575856",
"8 c #5C5956",
"9 c #555759",
"0 c #57595A",
"q c #5C5C5A",
"w c #605753",
"e c #615B56",
"r c #625E5A",
"t c #685F5B",
"y c #5F605E",
"u c #64615E",
"i c #69625E",
"p c #5D5F60",
"a c #615F60",
"s c #5E6161",
"d c #646362",
"f c #6A6663",
"g c #666867",
"h c #6C6965",
"j c #666769",
"k c #696768",
"l c #67696A",
"z c #6C6B6A",
"x c #716B66",
"c c #726D6A",
"v c #74716E",
"b c #79726E",
"n c #716F70",
"m c #767470",
"M c #797673",
"N c #7F7973",
"B c #787778",
"V c #7C7E7E",
"C c #858584",
"Z c #8A8986",
"A c #8D8C8A",
"S c #918E8C",
"D c #94918E",
"F c #969391",
"G c #999593",
"H c #9C9896",
/* pixels */
"O:r8qeeaeafttatfe<8ueweui<,87y8uuw878u16rr8qrrr6>66rr6<<5541$-bF",
"@<rrw6wafttatqihuy57e78yuy8yiq77811888uuw<<e8er6$<66q>188rt85qbD",
"+1rr8>6rteratuiiu858uuy5yy8yuu67yy8uyu8183$;5r6&$;11rer65qr8rebD",
".>ui876e88rrudttuu58wu1177y8que66818u88e8e--;7&-93>6rr6558e<18bS",
" @7uq8e63;>qdquu8y6yww65q7176qu67578ey888e667e-;9956e8556885<6xS",
"X$uuqe1w5;58duriy81uy88u6176<55571y78e81e63>ru6;58e163>;<qyeeqxD",
"X$rdqur636uuuuqryy5uwuq7<,76665<171y71<586-$57<;;76>6;;>5qy<86hD",
"+6tuqqr868euurfuuy5wee6557877yuu16yyyy757q;49,,1-;6>66>-<r6566MH",
"o<ufueee5errqufuuyyuuw88ppqrquhu7yiy777788<4yq6<,,611>;2;q56q8MF",
"O58iiiw86rieudhuguyuiu1yq98uufhuuuuui8uuiy787y,;;<875;-5675<55MG",
"#576u1w1>eiuidfduiuii8879q78qhhuyuuuq678iu5,;17---7e855<8qq>*5bG",
"#<77w16e6iiru75quh15iu7yq777yifr8uiuuqy66u7,,,64597ee8r5567>$>bF",
"+777868w11ieudljhxuuuu7qq9ddfdqduiiuffy6786q5,775775527257re>5bF",
"O1uuq>15;<irignpvxuuiuqrrqrddduduuuiuyyyq8yu7,49798q755;,qq568vG",
"O1ihq458,8rfhzjqixhihierqqqquqddiyyyggig7yuyq99duq7q7555<5q<6qMF",
"O<ixuq7i6quruhzshxxxhw7ptrqddqudiiyyyuguuyyy0sps67777,<474,7euNH",
"O<dhfuu659qyufhfchdxfeqquduuuujfddgdqqdhdrqqsdq77qqq65666;58q8ND",
".<uhuqiq5dgdudfrhfffiidqdddfddzldqqddquhtrqqsrq9qrq7q5q66ruewqvA",
"X,hhhhuq9dcffzhhxfhiifddgdhdddkfd00sqqqyruq7q0qqqq76q7q9qur86rzA",
"X<uupu772rhddczzhudfiuydzjzzffffy0qdqqdyq9q7qqqdqddq0q68;36eerzD",
"O>uy422240kjfdnzcfdiiiidfdzddddfyssdjdsuqdqqq7pqqdr80qq590,4quvD",
"O<hzdqpppazzzfnzdddhfhfdddzdduygzgdzjddhudsqqqrdqqrqq054p94459cD",
"+<udsdss0dnzkfzksyyfixiddddzzsjjjzzzBzffrdqydpddudaq8422007447vD",
"+<ddgdy05rczzfhjsdyudhirsdjjdljsddzcjjsddfddapqdddq99p959qqq4yvG",
"+;dhuud7;4djdjjflzjdffa6azzdspsssdddjsdjqddd0adqddjq429q4,48qqMF",
"X-uuueuq949ddpjfjzzdhhapjjjspyyssssdfdkjpjjdpfdsyddy0459,455qrcZ",
"o-qyuq8r99qpdjzdjnzdhhddffdp90sydsjjppjjsddsddrrduduq99p9577qqzC",
"X,sq7qw85qq0dazdddddzzfddad0p0dpjdssddddqqssqsuqdddusqpssqquq9nS",
"X,80q77wqq99qefdzjhdzczfqsfzdzsdjspqdpdq8q0qyuddfdddzjdjdsdddqBA",
"+1uqr5<qq8861rqfhzhhzfddfjfcfduydssdjduddyyqqdhzfdddddzzzddduumS",
"#6uud77qaaq668padfdzzzhrdzzcfauduufdjftznhdyudzzududgdhvzdddddzA",
"o:dfiqqsfaq9q89pdzgdnzcfdnzcdduq8uffatddzdqsdhdddrdsqsdddsddduzD",
"o*fdr,qyur0q790dddxhnzdzzzddy7qqddfuyufdddqpdduuyy78udsd7qrkdpcF",
"@>75;9y7qqq996qpyrihzhsduqyqr0qqqduyrtddfdysdsyyfyq7u7u76;>rtfhS",
"X:52977qq775q6qrqqudczduuu7rsqqdsyuu868udgddjjdudddd871u85>>8rfA",
".>2577779898qpaqdddufduquyqdq9sdduqqq66qydhgzBzddduuu661>5e<<1hS",
"@17q578yqq97q6qruudduqqrqqqudyquufgyq68rqeduudrdudiuq18:<<q116zA",
"X%5q770qqqq7q0qqquduuuyyuqqrdyyqq7uuuuurreu7qe1qrqruwuw15<8818cD",
".$;9079qs0qq0qq76qqq7q78ydqyueq677rqs5<86q775qe68iee8iw16<<-,8vZ",
" $5q7qqqyqpqq9q-<77q77q9qsuy8e5766uqq-<8qr576er8rueweuw:;;<&&<bS",
".%quqqq7qaqq0pqqqq566qqqq0qdq5<7e7r725qurq7q8886euueuee11<6:#;hD",
"o#eweew780q7qqqrqqq7qdtrrq0ru8666<56779q8qqq78ee6eieeie<8<e1--uD",
"@:w8w1w88q676qqrurqquurrqr9rreq659qq775886q78e86ee8euie6u6u8&;gS",
"@:wwweeu6rq6qqqre57qru7qq6qr88q65qquqq86rreur68178yeuiuwu:we,,xD",
"O*8uiuu8<6w6der865qidq78859888q65q0ar566r8wrweuuiyyiwi88q<1uy7xD",
"O*uuiie11r8rreqrw68id79786e86863<68q668667eu1ue8u1eiiu166<1w76vD",
"+:iuueu6<e8rrtr8857udu778qr6586366867we657rr6e86818euir886w886bD",
"#6uuuuu85>6rrre86;;eurqqe8r658w566rrq68<7r8rqqeeeyu8wiee7u8w18hZ",
"O:uwtuw15q7tquir6229teq8rq8eaw1<1y888<77y78iyieeueeee81ere18e77Z",
".:8urw16446rertr663-5aae888rr6w31118:8euyeeeeiew888ee17178y881gZ",
"X#8e8w61$,88re3www330a09686669<111yeeeier8<88eeewe118w5778ee1<hZ",
"o#eere<1$56wrrrtw139q3553661w931688<1eeir88e1e8eee8w85188e7e,exD",
"+1eee1<623;1eteww1<6p961e811w6311e8<1weeee8818e8eey16::11yeu81cD",
"#:eu1:6139q5wwwetw6a6pw688<36w33681e11ew8e8e8ee8e61:11<1::1ee7uZ",
"o#eiw1ew9366etteww66666<989666w68w1eeeeee88e81eie1e11818<,1877hZ",
"X#eu18wr9356eitewr16669216639qawww8uieie11181ee#11816158656eu1hZ",
"X$ee68tttarrrttew659888w6655<68weuuww1ui1811ee1w111186;<<<<yiexA",
"X#weeeirrreaaattw6539waw65656erwrrw16w1iw81eeee18u111,*51u5611bZ",
"X%re8rafareatfhae<>58rw6e8655euuww8uu1uiew1ewwwe11<<>$$<uw55:8bC",
"+$8ewartr88etxxet8w66waaae8eruu1e8uiu1wwweee111eee1<;6,,::1557xZ",
".%e80aaaqqrrdfertt89rrqqpe8qui8quy8wuee11:1i1euue1*&&<<1,&*,58iV",
"X*er86edrrfarart8878qrrq898p1wuu8w8uue6<e16ieee8e:,,,&-<,*,:68hC",
"o:tq336iddftxitrrrqq8tra8788yuiw1uuui6<<11eu8euiwq55u7:61,:71exS",
"+1a3;36f6rhftare8776qdtdaq057uheeu85u86<11uiwuiii<<7iiu6578u17mD"
};
