/* XPM */
static char *result[] = {
/* columns rows colors chars-per-pixel */
"64 64 91 1 ",
"  c #1D0E0F",
". c #1E0F11",
"X c #1E1314",
"o c #1E1B1B",
"O c #250F0F",
"+ c #210F10",
"@ c #241314",
"# c #2B1414",
"$ c #261718",
"% c #2D1718",
"& c #241B1C",
"* c #2C1B1C",
"= c #331516",
"- c #3B1717",
"; c #371817",
": c #3C1817",
"> c #351718",
", c #391718",
"< c #341B1C",
"1 c #3C1B1C",
"2 c #2B201F",
"3 c #36201F",
"4 c #241F20",
"5 c #2B1F21",
"6 c #341E21",
"7 c #3D1E20",
"8 c #242224",
"9 c #2C2324",
"0 c #2E2628",
"q c #2D2A2B",
"w c #332324",
"e c #3C2224",
"r c #362827",
"t c #3A2827",
"y c #332728",
"u c #3C2629",
"i c #342B2C",
"p c #3B2B2C",
"a c #39302F",
"s c #2F2F31",
"d c #352E31",
"f c #3B2E31",
"g c #2F3032",
"h c #353233",
"j c #3B3334",
"k c #373739",
"l c #3C3739",
"z c #37383A",
"x c #3D3A3B",
"c c #421D1D",
"v c #481E1D",
"b c #46201F",
"n c #4A201F",
"m c #421F21",
"M c #442224",
"N c #4B2425",
"B c #4D2827",
"V c #452629",
"C c #4A2628",
"Z c #452A2C",
"A c #4C2A2C",
"S c #512626",
"D c #542927",
"F c #512728",
"G c #532B2C",
"H c #592E2D",
"J c #432E31",
"K c #4B2E31",
"L c #532E31",
"P c #582F30",
"I c #433234",
"U c #4C3234",
"Y c #433639",
"T c #4B3739",
"R c #433B3C",
"E c #4B3A3C",
"W c #543134",
"Q c #5B3334",
"! c #543639",
"~ c #5D3639",
"^ c #523A3B",
"/ c #5C393B",
"( c #613535",
") c #623738",
"_ c #633B3C",
"` c #443E40",
"' c #4C3F41",
"] c #663E40",
"[ c #454142",
"{ c #494243",
"} c #4C4949",
/* pixels */
"r9wpr3rpaZJrtpI^UUZIT^!!!U^UreaZZJZUTZZZpuZAAt9prtaptrwuJw2ptw2r",
"c1:bM1;bMBBtNbnBnSDbbbNNBnS31bnBn:vnDnnnncSDSbON1nBnb;1Mb;1bBpwM",
"M1cbMb:bNGGVBnnNbnn31bnDnbn13nBBn1nnBnnbnbSNSn#nbnBNb:bMb1cccu;M",
"cccMbb11NDPVBnSNBnnbbBDDDDB:bDDDBNSSDDHHDDDDSN#nBNDb1c3MbMbvcj3M",
"#;1:1;==;bB3;====######=#=#@%bbnbMDBDDDDBnnnSNOb1c1:==;1:::;;p6c",
"20i999rrwptrtaRjjlYjjlxljhljrjJapwprIatttiate2X233y0ry999yrwriip",
"euZVwrIUUWAAVNBABBEZJUZMVVVBZGVAGGBPWaKZUUU^WUZUUKUGUIt9VZUUITUU",
"PHPGeZGGGGGBNNDDNnb3DnNDGDPQHHHQ(~Q_PZbBDGDPGGGDBGGGGDAeGPGGGBBG",
"BGPGuAAGPAGDGDDBBvnMGGSnHPPGGS((((Q(WVBGGGGPPGPPGGGPLGBeGPGVBAPP",
"MDQPuAGG~GPPGHHGDnDMNHGDHHPPDD((_(((PVABGHGHGGPGQGG~GGZuPQBbDBPQ",
"<3BMrw<<<%#@@%><%#;2#;31==;<1;33333;3&@#@@@@@X@O@@*<><wtMBV<3<;3",
"aajYjRjjRIp0aR[[x[RjR'`'`RRRkjIJIxRljajljhaajjxhljRRjlRlYjaapjhj",
"eMVBZC11bct<MM3bBABnAABAPWAA*1vcc1cccnnBVMvc1bVtBAAM1eAACVM3MueZ",
":11bc11:-c3<nNbDPD31BDBDDDDBy:vcvccccvnvnbcc-ct#1Nc;:1:cbb1:c1<B",
"1c1bb11;;c3%BPGHGWGAP/_Q_((B*:vcnnvvcnvnnbBc:c;<Mcc;:11bc11c1e*N",
"NM1Mc1cc-c3<BHPQGPPDHQQQQQPb%vvcnnnvvvnSDnbvcc;#mvccc131bcbnbw=C",
"@@+@@@@@@=<*<<*<**#$$@%$@$@&2X##;<e7<<>13:<==<0&$@@O@@@@@++#><*<",
"jkhhgkjjjJfpIYIIIIRjYYERR'`RRhIfIIIjljIlljjYRYlljjjljjlghhkkijhi",
"<etu0tZCAVZCNccc1cj3cVCMMNm71MMNVMc11<VMMMVVVVCAAZABCVt0uew6<7uy",
"eMmV9tMCAAGACBBNMcj<cMcbMm1c1mMBBBNN1*MMMbNVMMBAGGAABCy9VMMmeV<1",
"M>;79pNCCCBCGBBBNCjeccNNNMmc1cNFBCNNe<GGBGBLGBGGAABCCNtyM==MVV1w",
"7>=1wtNCCCCBm:,:cct*:bMbMcc;:cNNNcNc;<CBGVMCNBNFABBNBMt91<>eMM;=",
"@&&X89@@*<6yuw9yr9xq8&9055wfyyrrttppji9tpiutyuuww***@@94X&X@$%@X",
"hjhqiijjjjIYhfT''EjpjIRRYlYxjIUYEE^^EYY{ETTTE{`hjjjljjiiihjjxxjh",
">>><<>>171CZ$7mmcc:>:1117c7p*mNNCmMNNNMBNABNBZ&1<1<17>><<>>7pi<t",
"1MMe<M77eMCU&7NmMNNmm1mNNmmi<1NmcMNBNmNNGGNNBI$eMV71e1M<uVMNI$1A",
":1M7<mNMMMAE&7BNNCCm1111MmVy<:mNccFGGGGGPGSNBT&1VCmMMMm11MmcU&7V",
"7Me1:mm7e1<w4O111711>>%%>#<9<m,1,:MACCVMNVNNNJ&<Mb1ecMe>13MCT&1V",
"99&&0yiyyihxxiiiiihlxhkhkqgq8hddhjd0iqqiijijqqg90iyiiy09&*0wq8*9",
"fIlxz```{[`RRR```EjjIJJITIIJIYIIYRYY`h`{ERRRR`[R{R{{{``zkljfahii",
"71MeoJVCZZZVAVVVVVw6Mm1NNmNNNBNBBBFCV5KZCMMcMMVAVZZZVVJ&eb17<6#>",
">1V1&IALGBBACVMNVNuwcmmmmNCBBMNNCCNmJ9VMMVCMBNABBGGGLAI&1V1>><>=",
"17M75JLWLKZABCCCBMuem1mNNBGMGAAGGGGNKyVNCCCCLBGGKVKPWLJ57M717717",
"<<1=9fMmCMMM71717<901:cc7m111111116>y96177<77mMmmMMVMMf9=11<>6>>",
"iiiydsiyiyyyifjljxxxlklllRjfhiididq0q59iyiddppdyqyydyysd0iii0055",
"JKUJpfJEETEYYYJVVZVuueuVJVpZfjIJJJJUKJKfpZJJZJlfETTEEJfpJUJKJYpJ",
"VCKCGZmLLLAC77cmMNmv1=,mNmmm57MmmmNVMm7VmCCm7mi>AALLLVKGCKNVMIec",
"ALAmWWLLLQLLM7cmmmmMc:1mNmvM5eCMmVCCMummNmCNZmy7WLQLLCLWmALGMf6m",
"LLLVWQLPLWP~M6mCBCDGZNNBBSSC*VBAFBGBVNNCCCCNNNyu)LWLQLPWVLLGNjwm",
"eee7mVZGACVC77m617M71>><<11>&$<<67667u6666676666AMCAKCVM7e671t*;",
"dljjjlIfffdfpjIjjYxhxlxklkjdhzlkkkkkx[xxxzzxx`fifijffIlldlldi`i0",
"puZKfTKAJKZmKKLMZAuwAVVuMVVZZZVZVVMejipVZVeuuZZKMZAKKKTJKJJJ^YII",
"m,,muUAMMNMcCP~KMWf7VAMMMMMmeMMVNNNmUp>BCZMNmNKNmNBMVCKpV:cCLCAA",
"m1=1iUCVVVNNL~]QL]peAAACVVM7VCCCVVMNIfVGLLBZVALCmmVMVVKi1,mVLAAW",
"mc:1tJBCMMBBGWQGWQrVLGGZVCMm7VCVNCCmZyL~~LCCALGNBMm1CCVu1:7CWAAC",
"<*5%wu<6*<<*<<6w3w&*<****<*%%*>#***$99eue<*ww6***65%66iy**66w<6<",
"RR```''R'{x[[[`[`xhkkRxllYxhkf``{{`'RxR`xR{}}`xxY`R`T`xllRR'jpi9",
"ZKMKWQKCGWwVVVZuVueeeuVVZA7ejMCKAVZKMVZZ7meMVVxuKCZKZJu76eKKVey6",
"KKK~]]Q]]'uGACLKAKCMVJKL!!KVYKWWLKWLZKUWKAKKKU`KWLKKKKuuZKWWAMy6",
"AAKW~WKP~W7AAGAAAAKCWLLW/WKJheKKKJKVVKULKAZAKKYKKKAWKJ77MVZKV796",
"meMMmmmCFZ6mNCCCmCVmVZKKZVMe5%67V177777mmm71c7d6MMVKm77667777>5%",
"diiydy6ydy556ifjjIiyq99000508$4$999959yw9yyw55q5ihidiy505ddddpq5",
"ddjdqyippfdidkddfi5qkddfhdq005jdddidyqfjjfjljjffYRIIjddddkfjjdii",
"><6*4MmCCKmCMmmmm77$6mVVAVVVumm66Mmm1+6mVNNMNmNCCGLLGmJ5676Vuu66",
"6uKe5KmmL'WWKCZNAmV5>CCCAAAMVKKCBKCm7<MGZCLNV7KKCLQLNmK57UJZJJZ7",
"eKKV5VmmGPWLKKANAmm67mVAAVVKWWLLCZmM7>7mmVN77mmMZGGCmmm5uU!JVuu7",
"$%%5X==mmCmm7mVCm7>$6,,mmVZCLLCGMMm7=.+==>>===>>77mm7#@X$55666$+",
"4844qqy06yd605505548$444y65yiyiii099588w&59955095d5550qq4444444o",
"dkdyqshhgdddq5kffffdfddkkkjfy5f`jfdiieppiyifjdddgddsdddyddfddy65",
"m7777@%66%#>56VVAVJVVKVKK7uVe%MAZm==17771==1117+6%6675#7677m7775",
"KAKKKV67771757mmmVKKKKUK!V7Vp%mLKm71mVVm71MM7mu6mVZJAVJUUKKLVVV5",
"KLUKKKWZ77,757Am17CmmMCKK>7mw#mAZmcmmGZMM1mMmmf6AKZVK'UKKL''KKV6",
"7766777>=#=75>7761777>mM7>>16@mmvc1c1Mm77,=1116576777m7677mmu7u5",
"0d50ddkds555$@@@%$$...X$$@++*.%65$&$$**%$$6pd644550ddd50ddlljfIf"
};
