/* XPM */
static char *result[] = {
/* columns rows colors chars-per-pixel */
"64 64 101 2 ",
"   c #5A4533",
".  c #5E4936",
"X  c #624D39",
"o  c #65503D",
"O  c #68533F",
"+  c #6B5641",
"@  c #6E5A45",
"#  c #715C45",
"$  c #725E49",
"%  c #76624C",
"&  c #7A654D",
"*  c #766653",
"=  c #7A6750",
"-  c #7D6B54",
";  c #7F6F59",
":  c #816E56",
">  c #806E5A",
",  c #847057",
"<  c #85735D",
"1  c #89745D",
"2  c #867561",
"3  c #8A7764",
"4  c #877863",
"5  c #8C7B64",
"6  c #917D67",
"7  c #937F68",
"8  c #8E816C",
"9  c #958167",
"0  c #988067",
"q  c #94836C",
"w  c #99856D",
"e  c #9B896F",
"r  c #968672",
"t  c #988771",
"y  c #958971",
"u  c #9C8B73",
"i  c #9D8D79",
"p  c #9E9076",
"a  c #9E917B",
"s  c #A08770",
"d  c #A18D75",
"f  c #A28E7A",
"g  c #A49176",
"h  c #A89076",
"j  c #A3937C",
"k  c #AA957D",
"l  c #A6997F",
"z  c #AB997F",
"x  c #A59582",
"c  c #AA9782",
"v  c #A69983",
"b  c #AB9B84",
"n  c #A79788",
"m  c #AD9D8A",
"M  c #B29D85",
"N  c #B89E86",
"B  c #B29E8A",
"V  c #ADA186",
"C  c #AEA28A",
"Z  c #B3A186",
"A  c #B3A38C",
"S  c #B9A58D",
"D  c #B5A98E",
"F  c #BAAA8E",
"G  c #AFA291",
"H  c #B4A592",
"J  c #B9A693",
"K  c #B6AA93",
"L  c #BBAB94",
"P  c #B6A798",
"I  c #BDA79B",
"U  c #B6AA99",
"Y  c #BCAD9A",
"T  c #BCB196",
"R  c #BDB19B",
"E  c #BEB99E",
"W  c #BFAEA0",
"Q  c #BFB3A1",
"!  c #C1AD96",
"~  c #C1AE9B",
"^  c #C2B197",
"/  c #C2B39D",
"(  c #C9B59E",
")  c #C4B99E",
"_  c #C8B99F",
"`  c #C3B5A2",
"'  c #C9B7A3",
"]  c #C5B9A3",
"[  c #CABBA5",
"{  c #C4B7A8",
"}  c #C7BBA9",
"|  c #CABCA9",
" . c #D0BDAB",
".. c #C6C0A5",
"X. c #CDC1A6",
"o. c #CCC1AC",
"O. c #D2C3AE",
"+. c #CDC1B0",
"@. c #D1C5B2",
"#. c #D4C8B2",
"$. c #D9CCBA",
/* pixels */
"L F L / R Y / ~ ~ b J J k A b k L { M v B x x c x v J ! J R C A Y U ` K k A J / ` / ' ` ' E U { } ! ^ L A k L Z S A J ( L S ( ' ",
"b S B J S D Y L J ( ~ B m A B z L L m f e j A Y I U m 7 1 B A J D D C V V L H K E ) L E ~ Y ` / ! F Y I S M F S ! (  .F F S F L ",
"S ~ B A X.) Y ! / ' | Y L J S M S Y F z s d B k m j , O $ S L c c A V D A A J L K ` L / / _ / J Z A L ^ J L K A S z M S Z S ^ L ",
"^ ' J J / ` ^ ( ^ L T T ! Y / S D F F z k d e 0 0 1 : $ O f M e m L D A I Y A C L J L I [ ' / I b ~ ~ J Y ^ Y J k q u J F I ^ ' ",
"b s k B ~ ~ ^ / ' F F E F D T D V b F F Z 9 - ; - - & - & , 1 w L ] ' Y E L S ` ~ ` ~ ~ ^ ' ' ` ~ ( / ~  .~ / ~ k 0 0 J Y Y F S ",
"z k j z J ( ' [ Y L ' ) T g g u j Z S h 8 - @ % = @ O % & & 1 z A T [ T / L J ~ Y { / Y / [ } L ~ ~ J [ #./  .l h f h S Y Y S S ",
"! F S Z M L [ ' / Y ' ^ j 5 5 9 q z e , 1 1 % % % @ @ O % , z L K Y T F L R Y ^ T ' ^ T o.' U Y Y F / | O.' ' 5 u u u M B L S J ",
"! F S J L A J L L Y T D 5 4 q y 8 g F F F y ; - - 1 % % = w ^ / S A L T U / C L A ` / ' [ ' J S D A L ' #. .' ' S t d j M M M S ",
"c J ' Y U Y / ~ ! S l k q 4 q q y M F T T M s g d g : 0 k k R A C L Y T K H C A h m f S b Y A Z F J / I | T J ^ Y k u M A L k V ",
"A ' ..A H H b A ~ L c D b q t i b L F D L ` D b S e 0 Z ! ^ Y ~ L / L L L J ' F k B M ! S L B m D z A H J S x x A e 1 k S ! / T ",
"[ ' ' K R Y / ' / Y U ` T K A L C C k A T A b A N k M M L ( { [ ` @.L F T A T S g k | ( L ~ I m U ! U H L A { x M 7 7 I A L / / ",
"S / { R R J ^ ! ` Y Y Y / K ` ~ b u j A A A A D A C D J Y L } ' I | ^ f Q S Y T Z V / J L A J / Y Y H m C D n x c b b A J ( Z z ",
"J ! ' } | T ' Y J U Y R ' K / D v j M S S ) D D A A b V D F ( ~ A ` J D L b J K Z J Y F S L / [ ` Y L ~ m J x m P D M M S Y S J ",
"~ U ' / T J Z U J C R ] } U T T j a A L L Y ^ F S D v m ~ [ X._ / / / L A z M c S L J B D L ' } Y ~ ~ [ J T H U / I Y J S S L / ",
"T T ] ` T R Y K C L ` Y Y C { ` J J / J ` } Y Y L L Y R ` / ( L ` ' Y ' ) L M f k B J B D v L Y A A ` ` B J J U / { [ ` ! J Y ~ ",
"Y L ` / Y Y T K A T / R Q T ) ' ` / ' L ] E ] / Y J S L L Y L L J ~ l H F A h $ 4 A L c i m ^ U I I H ~ J A [ ~ / { / Y J L Y L ",
"Y T R [ ' L U ^ R Y / / ' D A ^ T Q [ ` } ` R T ] Q A B R K Z v m A f P / L A t 5 f P @.m D L c Y | Y A Y m J Y ` ! ` ` ~ A A H ",
"K V L T ) Z L ) / ^ L E E i A } ` Y L ^ K C U R T K S J ' { ^ ^ ^ D C R ' Y ' A z ! Y } ^ b k g b S Y ' J m Y ` [ I ~ ~ ~ J J ~ ",
"D D D K D A Z F L Y L U A l K T / ^ l Z x i n D ( T m B Y L L F R D ! / ^ J Y ` L ! ^ ] $./ d f H c I [ / m H ` ' T ` | { / H L ",
"Q b Y ` D C g u u J ( Y ^ F L R ] ] D z x j i ^ ) K A I L ! ! Y / L A M L Y ^ | / ~ J ` $.E m m H ` Y ~ ~ m H K ` ` ~ ' / ^ Y I ",
"Y b / / T V u a j j Y Y ' L J | X.[ ..' A v l L T R Y R ` ^ L ' ' [ J ` ^ R } ' ( / J U Q $.] Y J Q ` J I U J U R ` ` U Y K D L ",
"S j L S C v i v l p L ' L / Y ^ E ) ] T ` U S Y Y T ^ R ` / ' ` ^ | J Y E T { | ' / J ~ / } { R W  .~ ~ / L A m ' I S D b k A S ",
"A K Y F b i i y u i F D Z L ( T Y Y ' T K K L L A / K A Q } ' / } [ | W Y Y Y Y J J / ' | o.R ' R U U Y ' L A B A H J J b v P H ",
"D C / L k i a r p Z D A m A K T F Y [ R T T T C C Y l l J ` ' v  .O.' ` Y / L { T Y / E o.` T / ` | [ ` W H H c J W J B B J K Y ",
"K m U A m p u t b Z D A M D L L ^ Y / } ` T A D c j u C Z K / ] o.O.{ J X./ ^ ~ J Q { [ ] ' I I ~ ` J J ~ N c B / ` L S m B Y ` ",
"Y D H b v x j g Z F L F A Y S S L / ^ | ..Q K l v u i C L A R Y ' ' ` Y [ ' ` W U } ' [ ^ ] ` ' / / T ! ~ N 7 P } { ~ Y Y A J A ",
"L D m J T Y J Z V D D F K Y S ~ K T ' [ o.U T C m D x D Z Z g H / } ^ Y R ^ ' Q ` } o.o.Y ' ] } ` / S !  .S = 7 ~ / { ! A S Y K ",
"D Y J Y S K D L C v l l D K J Y Y [ ] / Y T S M v v b K t : $ A | Q } ) L ` L Y U U ` R / ~ ~ ` H ~ Y I N 1 X = d B ` Y A I / J ",
") S U K b z b b x H b b Y Y / / ' } ` / Y R Y U J b k q - o # B | I ] / L ' ( [ ` { o.} J ^ J J / | { ^ b = . + : s A B I H Y ` ",
"K V J D v b c F H +.E L Q ^ ^ Y ' ..{ ] / R { R D M l : * % + t / A / ] o.| / R Q H R | K m m v Q | I H c @   X % w M f C S U T ",
"C l B v V T U K { R U T E ^ / E Y [ R ` ' ^ Z C c b b w & $ @ i ] L R ' ` { ] Y W { R R A A ` H m ` ` G g 5 O o & f Y i H J D K ",
"J c l B C K K E U T } ) ` } } { T / T T T m p u q d g g g e f A G E H ' _ E Q { ` W J H G H I L H x ` | A S s % d A A m K C U K ",
"G I b D D K K T Y T L L T X.} ^ / E [ o.D Z l 8 2 q u e f B J T ^ U } | ) ' ] Q ` U K L L v T J K L L J J m 7 q J M Y ' ^ Y Y D ",
"E Y J T D L R ) T T L T ( ) } Y ] { [ ] L l i y 4 1 1 5 f b U ` o.' ] ` ' Y Y } L I / T L J ` Y L J B R U ~ c 7 c ~ J / T Y / Y ",
"L Y K C T D ^ ) F S T L ' o.E U T [ X.) K V p 9 2 1 1 e z T ` ) T D Q R { W Y @.T K Y Y Y T ` K m n H W ` / ` I b Y U U J F S ! ",
"^ ^ ` K D K K K D L / ) } o.` ) _ X.] ' ) K v 8 t 8 e u g L U U ) T U K R ` } E E ' U H H H K T I H n G W Y I / I m Y ' S A z Z ",
"M ! ^ ^ C L Y K T T E [ ` ` Q | ..o.[ X.{ T m w u 8 q q S R C J Y K R C / R } ) W ` ' ` Y W { ` ~ J K A P W P P W v J U L A S S ",
"S ^ ' [ / T L H L L R / ) } ] | ] o.O.' T L F a e a j k Y | U D D D Q m ` 8 * C Q } ` { +.| Q ` T U Y Y W H G G W Y P Y R J M N ",
"_ m T _ T J Y J E U T ` o.} R R } @.$.#.L V T b m S V F ' [ ^ E L D T W L 5 ; R #.} ` Q ' ` Q ` R R Q Y J H m H U Y G I H J L F ",
"/ Y T ( K K Y Y T Y T ` ` ` Y K E ....o.b j T L F Y ^ [ | } / ' #./ ^ ] o.| { ` } R E Y Q ] R L R U Y H m K A m Y J H L m K / ' ",
"' ^ / L K K T K E R Y E Y | T H R #.O.) V l C V R ` R R { o.o.o.o.' T ' ` Q U W { E ` ` ` } ' D C / n H D Y ! b S Y J A B / } } ",
"^ T ' ^ T L L T Y ` } ` R | ) E | | T V b b T U K R R R T L ^ } T ` } ' ` T ` R R { Q Q ~ U c 5 u Y U J A L c S D k H I S F L ^ ",
"R / T _ L D K [ / K ` ..` ..) } ` } [ L K | } E E Y R ` ` / V [ D R ' o.{ U | ] Y A A Y L U x i x G m U J J ! L M A Y U A U A F ",
"/ ! l A b b K R E ) ) } ` Q ' { ` o.} ..' | Q R E ] D T R [ R ' L S L E ` Y | ^ ' L L J A I n M m n U U ~ K D D / K K K P Y m j ",
"/ F b A K ` T R Y T T E E o.} { E / ` ] ` Y D K U K T L E E L R ^ c T Y ` ] o.E A C l B i f x m A H n n A Y k c L I J ] I J K Y ",
"! ^ ( ( ^ / ) { { ' U } | +.} ..Q ` ) Y } ) A A A K D A T D D R E b T U T ] } } Q H m n x x i i x n n x Y L A m b L m / H L L L ",
"J S T ^ ` ..Q Q U T L T [ @.` ' | o.` ` ` ] C U K L U R ..] T ` S J Q E Q ` ` ` Y J A m H m m x x n H P / M V } a g B b H U H C ",
"a f k T E T T T b v m b D ] E ] ] o.] ..] ` Y L D K C C T A K ] C Y Q } ` Q U K C U Y C m U Y n n n K Q T L Y L j q t c L T K c ",
"J Y ^ L / T Y D b v x a v x C ] E E ] ) T Y U R R G n V ` U D ) V V U Q U V K K U R G K P U G V a m G ` ] T J l w c j u c L Y A ",
"S T Y J [ ^ A A a a i i a a ` Q E E ..) E ` Q D C K C C R T K T b l v R U v P Q { ` K H n m m U v R U R ' K B d j b K m j D L U ",
"! L L S Y J m H l 4 2 8 y V T K E E T K L R U Q U G C G E | K K v K K G C C J Q Q Q R K j u x C Y Y T U K S d e m D D A Z Y z A ",
"A S ! Y / L v v C V C a V G T T E T C C V R T R Q x C V U T ` ` v D C A g j Y R Y G P G C C D v U R J E K j , j k z M J J K Y D ",
"' ( Y Y L J j f m b A Y A V U ) T A l V C U K E U K G G E Q { } m G v C l j T ' R Q K l V C R G G U R J v p v Z j j v V J C L ! ",
"[ ~ Y S J / A a v K V v A T U D D C C D ) Q ' C T U U K E K K o.V Q m C m m Y ` Q H U J b C K V K Y R b v e t D A c b V J U / ) ",
"/ L S J / / A j v D V l D K D V A C R R L T H K { T K U E T Q o.K R K A c A m m Y K H H C n C C U Q a 9 4 0 w u b l j a m S ( _ ",
"[ ' J Y / T ^ b C K D Y Y U D Z V F Q T T U n Q ] U R V T U K o.Y H A V i c u u y K C b G C G K K R l j g q u v j q j p b S / / ",
" .^ [ K / D T C K U ..Q T T U D K ] } / o.T K K U G Q V K T K [ T T D Z y e 5 1 f b Y R D K A T C b C j v c j a f q 7 c Y L Y ' ",
"/ ( [ / / T T K T E U E E U E E Q ` ] E { G K K U K R H T E o...L / V l ; - < 5 n D T ] R U R { D Z K C v v 2 y j u j U { ' ( / ",
"Q [ ( ^ ^ U { E R E Q U ..Q R Q E L / L Q D C D K C R ` R K Y @.{ ] T V p p l V H U T R T R Q U / T v V t u 1 y p l S / | ' ( / ",
"[ ^ T ' K E Q R R } Q ..o.] U T L L K K T U D m K b H K K Y R Q R E G T D U E Q K U J Y T R R R { Q K D v a y u y j D [ | | ' ( ",
"' ( ( S A Y Q R L J L L E T G D J D c M H L L A C x m Y U Y / T L F U ^ T U E [ ] T b K L I K R ) / C H D e d g j b D K ` ' / ' ",
"| [ J g A ^ E ' A s g L ..Q E E / ! g f k B v c c D K T Y E ^ F L D T T T E [ ) ^ Y H R Y Y Y D m L C K m m b k k j x k M Y ^ ' ",
"^ J S ! B I B J ! 0 u M T K R K Y ! M j n B x m x a A T ^ T L D L F T F T E Y b v m J ' ' T J A b C J K c k z z M S ~ ' ' F V A ",
"K J T R | ^ J B S A ! J B A D m J L m B n H H m u i m [ / ) L Z U E ^ L J K m b K R ` ^ | E J Y ~ J / l z S M Z M M F ' ^ J L ! "
};
