/* XPM */
static char *result[] = {
/* columns rows colors chars-per-pixel */
"64 64 245 2 ",
"   c #1B1F29",
".  c #1D2735",
"X  c #2B262C",
"o  c #35272C",
"O  c #2B2B36",
"+  c #332C34",
"@  c #372D36",
"#  c #2D313C",
"$  c #33323C",
"%  c #3C343D",
"&  c #373337",
"*  c #241D22",
"=  c #442D32",
"-  c #472F37",
";  c #43343C",
":  c #4C393D",
">  c #493438",
",  c #5B3335",
"<  c #52353A",
"1  c #57383B",
"2  c #512B2E",
"3  c #68322D",
"4  c #64393B",
"5  c #6A3837",
"6  c #773B38",
"7  c #6C2F2B",
"8  c #79413E",
"9  c #1C2F43",
"0  c #2A3748",
"q  c #353643",
"w  c #3A3643",
"e  c #353945",
"r  c #3D3A45",
"t  c #353B4B",
"y  c #3C3D4B",
"u  c #35374A",
"i  c #393E52",
"p  c #2C394F",
"a  c #433642",
"s  c #443B44",
"d  c #4B3B44",
"f  c #443D4B",
"g  c #4B3D4B",
"h  c #4C3641",
"j  c #543C43",
"k  c #5C3D44",
"l  c #533E4A",
"z  c #573843",
"x  c #473F51",
"c  c #633D43",
"v  c #6D3E44",
"b  c #773E41",
"n  c #3B414E",
"m  c #2E4259",
"M  c #3D4254",
"N  c #384559",
"B  c #2D404F",
"V  c #3A4B62",
"C  c #44424D",
"Z  c #4C424D",
"A  c #4F4147",
"S  c #5C4246",
"D  c #53434C",
"F  c #5C444B",
"G  c #57454A",
"H  c #444353",
"J  c #4C4554",
"K  c #4C4955",
"L  c #43465A",
"P  c #444A5B",
"I  c #4B4B5C",
"U  c #464858",
"Y  c #534553",
"T  c #5C4553",
"R  c #544A55",
"E  c #5B4A55",
"W  c #544C5B",
"Q  c #5B4D5B",
"!  c #564658",
"~  c #55515E",
"^  c #5C515D",
"/  c #4C515F",
"(  c #634244",
")  c #6B4345",
"_  c #63454B",
"`  c #6A454C",
"'  c #64494D",
"]  c #6D4A4D",
"[  c #6F4847",
"{  c #734444",
"}  c #7C4444",
"|  c #734A4C",
" . c #7B4B4C",
".. c #784749",
"X. c #7E514D",
"o. c #634551",
"O. c #644B54",
"+. c #6C4C53",
"@. c #624D5A",
"#. c #6B4E5B",
"$. c #6C4551",
"%. c #734C53",
"&. c #7B4D52",
"*. c #734D59",
"=. c #64525D",
"-. c #6B535C",
";. c #6A5257",
":. c #735155",
">. c #7D5254",
",. c #73535B",
"<. c #7B555B",
"1. c #74595D",
"2. c #7C5A5E",
"3. c #63524F",
"4. c #474E62",
"5. c #534E62",
"6. c #5C4E62",
"7. c #4C5263",
"8. c #4C546A",
"9. c #465268",
"0. c #545364",
"q. c #5C5463",
"w. c #54566A",
"e. c #5C5569",
"r. c #545A6D",
"t. c #5D5B6C",
"y. c #5E5A65",
"u. c #4B5A72",
"i. c #5A5C73",
"p. c #635463",
"a. c #6B5562",
"s. c #645965",
"d. c #6C5A64",
"f. c #645B6B",
"g. c #6C5C6A",
"h. c #6A5769",
"j. c #735562",
"k. c #745A64",
"l. c #7C5C64",
"z. c #735D6A",
"x. c #7B5D6A",
"c. c #7A5561",
"v. c #685E73",
"b. c #6B586A",
"n. c #5B6478",
"m. c #4F6177",
"M. c #6C616E",
"N. c #66636E",
"B. c #7B6166",
"V. c #74626C",
"C. c #7C626C",
"Z. c #7D696C",
"A. c #646272",
"S. c #6C6373",
"D. c #68677A",
"F. c #736473",
"G. c #7B6572",
"H. c #746974",
"J. c #7C6975",
"K. c #796B7A",
"L. c #7A727F",
"P. c #863C37",
"I. c #983F33",
"U. c #8A433C",
"Y. c #98463D",
"T. c #A84A3B",
"R. c #844C4D",
"E. c #8B4D4B",
"W. c #854645",
"Q. c #974D47",
"!. c #86524E",
"~. c #99534D",
"^. c #834E53",
"/. c #845354",
"(. c #8B5453",
"). c #84555B",
"_. c #845A5D",
"`. c #8B5B5C",
"'. c #8B5758",
"]. c #945554",
"[. c #945B5C",
"{. c #995957",
"}. c #904C50",
"|. c #A6574D",
" X c #A35E5B",
".X c #A75C54",
"XX c #AE5549",
"oX c #9D615D",
"OX c #A4625D",
"+X c #AA625A",
"@X c #B6655A",
"#X c #845C63",
"$X c #8B5D63",
"%X c #835E69",
"&X c #885A66",
"*X c #935D63",
"=X c #995D62",
"-X c #8C6165",
";X c #84646C",
":X c #8B646B",
">X c #88666A",
",X c #936363",
"<X c #9B6465",
"1X c #93656A",
"2X c #93696C",
"3X c #9C6B6C",
"4X c #9B6668",
"5X c #846672",
"6X c #836A73",
"7X c #8B6C74",
"8X c #876B77",
"9X c #936C72",
"0X c #9C6D73",
"qX c #936B76",
"wX c #8B737C",
"eX c #99757A",
"rX c #9F716E",
"tX c #A36463",
"yX c #A36C6C",
"uX c #A96967",
"iX c #B36D68",
"pX c #B6726C",
"aX c #A76D71",
"sX c #AD7474",
"dX c #A4757B",
"fX c #A77679",
"gX c #B67977",
"hX c #AE716B",
"jX c #CE7A71",
"kX c #BB837D",
"lX c #CB817A",
"zX c #5E6A80",
"xX c #766E81",
"cX c #797283",
"vX c #6B7185",
"bX c #897582",
"nX c #977A84",
"mX c #A47C83",
"MX c #B47F82",
"NX c #92828E",
"BX c #A98388",
"VX c #B78789",
"CX c #AA8B92",
"ZX c #B49198",
"AX c #C9908E",
/* pixels */
"P t N B t M # w O O $ > 1 : w G k R I n H 7.K y r Z s s f r a r q # t M y # u P P P H y H J J n y y t 4.t t p N P I H Z B N e N ",
"9XeX:XY :.2X;X,.j ( /. .F C % o @ f s.H # & C U H + u r e + f O O x d Y K C E Z C R @.a.T -.k.C e O & % r H # N e % A E Y E :X#X",
"<.B.l.a.=.c.1.+.G S [ [ ' D C D Z Y D Y D R J J Q g J K H y H x i x ; s n s d d C C Z Z Y Y R C w w w d g a y f w + d G D J 2.c.",
"D *.>.#X&Xo.) %.k ; { 5 4 = C | [ 4 [ } } } ..W.W.5 7 5 b k S _ l k ; y m.=./.!.X.(.'.1 R.) } 8 6 6 ` ].E.].tX[.[.O.'.[.[.[.*X$X",
"=.c.2.<.:.;.' S > o 1 , < ; w S S g A g G T D ) ( < : k $.C g 5.A.0.f i 9.4.J D T _ ( > : : j : j l g O.' E +.o.$.^ S *.<.c.&Xc.",
"<X<X*X*X-X).( c 6 U.2 7 3 3 < 2 5 6 8 6 , ; = = o o = > Z S F ] <.;.*.D s ; % ; % + + X X + # q y R j F l T g H l.<XuXuX<XtX/.>X",
"*XqX&X:X,Xl.z c , , 2 2 2 2 < , 1 c c < > g > o o ; s & w : j D @.D : f f f + y J R W E E W ^ K N 0.J W f Z f t % % 2.;X`.*.*.l.",
"9.9.u.u.S.t.x d S 3 , 8 > : 4 ) ( c %.E ` ..} ..8 ( $.& > S G _ _ D D F D +.& % C 3XuXhXgXVXgXoXR Y J Y g E W G 7X>XqXNX7X~ V u.",
"H B P u.e.K y a 1 , , , l D D F F F F E E ' S S k k D a d d d d d D K E C d f M H a.*.x.6X6X2.-.~ K s d : K P ;XZ.H.C.K.>X=.7.w.",
"eX0.E a.@.j.^ D G ) :.O.+.-.^ E ] [ (.'.'.'.;.| | $.) [ | D w f n y t & Y 4X*X^.].~. X:XC.9Xl.@.B.C.^ ,.tX=X'.'.[.B.;X<X-X1X0XrX",
"6Xq.E a.z.=.R K F $.,.;.j.l.g.=.:.;.1.+.X.'.-.F _ ,.F O.@.R # @ y y n n I #.&.| :.>.{ +.a.2.;.D T =.W _ 2.)._.<./.] B.1X-X<.&X#X",
"yXsXrX:X2XrX<X`.>.3.' R #.:.2.+.*.,.^ ~ R R D Z a.K.P $ w s ; % y J E E E T +.Q P n C +.<.] k.7.-.,.,.j.c.%Xe.s.R A ;X;.qXM.>XaX",
"[ [ :.] ' [ ) 8 ' k c A 1 ) 5 4 [ ( S > = X o @ S ^ $ X & o X X X o o @ o - @ ; + * = 1 : G D # 1 2 S j < 1 s X O $ S > F C S | ",
"^ Z ;.] T J A A 1 d E ( ) G 1 c = : ) 4 E A j d J o.' E D j & d k = o { } { d }.E.!.U.U.5 s d j ; A ' D +   + H X X X $ o $ ~ G ",
"k.q.g.@.#.a.s.-.+.=.N._.<.K.-.+.Y -.{.(.H.^ _ E M.#X-XN.w.J H 4.H C U O.T E Y [ /.'. . .1 C R @.E ^ =.k.R e H 8.M e N P n N N.B.",
"Z.>X7X2Xd.C.7X$XrXeXwXgXrXrX3X2X7Xt.p.s.-.:.l.C.2.eXAXhXuXOX].^.K F !.!.'.'...` :X:X2X1X1X3X2.V.fXdXNX9XqXbXD.7X3X7XqX6X;Xr.wXeX",
"X...R.&.1.`.`.].pXpXsXjXjXjXpXpXoX^ l._.(. .E.-XL.eXpXuX+X{.R.W.1 6 6 8 8 W.4 c _.'.-X*X[.,X_.k.2XL.kXbXeXwXz.3X).2X&X2.;.W <.<.",
"E Z u I ~ M.M.cXcXcXxXNXxXA.>X#X-X-X1X>X1.@.<.l.C.d.d.j.-.`.;XB.2X<X<X`.O.%.2.-X_.#XB.f.nXnXS.bXNXkXwXn.t.cXK.G.F.F.W Q s.q.S =.",
"E g # + Y g.f.H.t./ r.n.t.p.hXOX+X|.XXXX X;. .(.!./.).'.5X/.~.}.{.].{.'.] E.{.[.].[.oX2.BXBXK.nXBXeX9X8XwXeXmXeX1X$Xk.p.o.o.S F ",
"G E Y o.h.z.wX7XM.L.L.D.N.N.d.a.M.V.k.1.1.0.w.=.E +.+.k.;X,.! x.2X9X2X7X;X2.;.'.!.`.`.2.;X-.l.;XC.>X>X:Xk.:X3X0X2X#X#X@.e J w O ",
"4 %.$.+.@.<.yXMX7XZ.eXB.2X_.$Xl.P R J U Z f W E { E. . .*X].O.C.fXeX2XeXfX#X3..XuX+XtXOX-X_ OXOXE.OXOXoX<.1XuXyX1X3X*X<.g T k % ",
"z w E O.@.j.a.5XD.N.S.N.s.q.A.f.7.M L 4.P P H M J D o.D S.K.d.d.d.Z.B.k.^ -.E ] _._.1.H.S.M.H.s.M.t.~ s.C.V.C.C.2.-.H ;.Z S k $.",
"W.z 2.'./.<X*X;X=.R R E E K P s s r q q w d R. .} /.R.R.*.-.[.tX<XyXyX-XR [ W.) >.)./.:XdXfXrX4X9XH.P `.OXOXtX+XOX{.-.E.{ } W.W.",
"D g C ~ E Y F Z T ^ =.q.~ 0.n.C r t f y M H #.#X2.@.;.o.p.=.:.#X+.Y f.M.^ -.-.-.-.B.M.n.A.N.B.=.~ q.A.C.G.V.z.d.N.M.w.q.q.I 0.R ",
"F ; D ' F R ' } W.E.{.{._.K S.t.^ C K f w u u i t e y } .X X|..X|.].E W.|.~.Q.OXOXl.D.S.=.-.z.Q W 7XVXMXMXsXsXyX^ n.m.n.n.m.r.C ",
"u.8.C C n 7.K _ [ X._.oX2./ I 0.7.H r f t t e q q q C ` ] <.| $._ E y : %.<.#.:.:.i.t.W w.0.^ Q 7.q.;Xj.a.a.V.f.P r.n.7.0.0.i.t.",
"2.0.+ @ % E : C C ~ w.C ~ / e # e @.' ` g + % f R d f R #.-.W e   0 e % Z s =.W d C a : Z 1.^.'.T *.j.h.K g i 9.C $ t.E 1 Z E +.",
"=.f.q.^ w.^ ~ J Z t.y.n U 0.n # n B.x.y.W % ; w H J W 0.d.^ M n w s H J H M 5.5.P 7.R w.0.~ D T H Y Q t.p.@.E 7.N m.zXw.y.n./ Q ",
"gXfXgXyXgXgXyXfX2X-X).V.`.,X>X/./.(.*.Q %X:X9X#X$.E A.6Xj.=.B.'. XOXa.,.2.;.2.B.Z.^ k.0X$X#X*.a.E ].~.}.+X.X|.`.4.7.~ ;.k.l.=.fX",
"2X2.k.z.j.;Xj._./.>.2.>X`.X./.} } } #.p.*.' 2././.l C -XoX .>.8 W.+.M.3.` 1.1.+.3.m.A.1.@.=.Q ^ W E ) [ X.>X| k.P w.4.~ M.x.R 6X",
"'.;XJ Q s.! o.p.=.=.A.N.s.Q E  .} ....&.(.| J ;.1.*.$X+.+.1 1 5 6 | | !.8 =.;X-X| X.!.<X2.l.1.rXhX<X,XJ.M D.P H 0.t.N 0.7XkXfX2X",
"{ ' $ a d ; _ @.[ | 1.+.:.:X-.W.W.} W.&.'.%.s O.;.=.a.$.<.~ ' E.} ].E.} | A 2.B.8 1 8 } 4 @ X G S S S Z # + @ & % > $ 1 | | :.2.",
"eXeXqX%Xk.T k F ( k : C T F o.l F :.k + ; o = < j ; g @.) $.+.[ 8 o = 4 c 1 4  .!.* 4 { ,.j *. .a.Q #.%Xj.x.o.s 1.*.).>X#X8X! ZX",
"BXmX;X8X7Xh.&.E.].'.o.-.gXuXtXhXaXfXqXg D G ` ).&.o.2.jXsXpXpXuXuX;.%XpXuXyXyXsXaX$.].`.4X`.aX=Xv.0.a.v.v.v.5.e.g.Q f.j.j.6XQ NX",
"K.H.q.Q v.z.a.j.h.p.@.a.,.*.@.O.F Q 5.4.K y 5.W 5.f.K.bXbXS.F.h.d.0.h.g.b.G.s.W b.&X&X1X1X1XqX6.v.v j.p.qX&X*X0XeXmXnXH.wXG.H.bX",
"G.V.! O.5X:X#Xg.*XtXuX|.Q.Q.] ] <X`.&.....| Q &X%Xx.j.j.e.I ,.S j j j d H c 2 j %XaXuXsXaXsXsX&Xc...} &.mXmXmXmXmXmXmXnXZXCXnXnX",
"I q.K.v.wXwX7X8X1X:XqX&X'./.;.R :.d.p.T @.T K E K 0.Q E h.v.S.q.P L x J L W J i e.q.f.g.z.J.G.G.G.x.h.0.cXxXxXG.e.w.e.v.D.v.e.e.",
"5.7XVXwXZXZXCXdXx.8XMXkXgXiXiXhXOXq.C :.j.#.,.#.T ,.).`.4X4XaX=X! p.q.p.p.f.b.4.d.x.2X8XBXmXmXnXmXmX5Xi.K.F.v.j.O.p.0.e.v.6.5.6.",
"w f Y W f.g.G.qX5XxXVXAXgXyX4X0X#Xw.I -.@.E E W 0.Y E W bX8X#.Y Z g f W q.0.5.w.W W q.6.D.i.A.S.6.w.f.zXi.i.v.8.0.D.f.x S.v.6.q ",
"<.*.@.@ l 6.a.x.G.K.*X).*.w.T F Z _ &.:.C R ] ` @.-.F a E Q j.J #.z @ J O.Y g nXqX:XE j.qX5.x.4Xl 6.5XmXK.@.%XF.F.8Xs.g qXyX*X+ ",
"f Z K e y I @._.%XF.&X*X*.x : ' Y D Y J K =.>.>.s.B.p.K J K 6.i H 6.A.y J H M q.p.W W Q R f 0.v.U y.=.=./ 8.w.8.9.i.r.p i y w . ",
"  % : R Z D W A.v.v.i.zXI x.9Xz.k.s e.f.w.S.L.vXw.7XV.eX8XJ c v c -._.b %.O.>.:X*X2X:Xj.E *X,X7X1X<X:XW L.8XA.L.nXCXwXw.a.C ; O ",
"f H f ^ I R Q ` < = a x u 6X1X$XkXk  .*.p.p.c.O.Y *X`.:X).g 5 7 3 3 3 2 , E ).^. .).&.#.0.%Xo.#.k.k.d.~ =.d.nX8XA.cXzXD.H.^ g % ",
"VXVXVXAXAXAXZXBX#.g l l x l ' z K R @.6.6.R 6.f.r.vX0.H 5.M M x [ } R.1 l %.&.D #.p.^ Q L q g l F H 8.vXL.L.bXF.I E p.J.;XG.h.6X",
";X5Xx.x.6X>X7X%.c v P.6 7 6 P.6 ..5X#X ...v &.).p.t.r : D s x 4.{.Y.T.Y.U.~.{.F 6XO.: ; . + 1 5 { O.i.H.6X7X8Xg.9.o.j.d.6X8X! p.",
"wX7XY s s E W =.p.Q v.E k a l #.t.a.-.;.z.v.z.j.v.t.K W J I e.w.~ ' g a y t i 7.p.E 5.W E #.o.*.-.C.z.p._.$X>X9XwX7X&X6XbXwXwX6X",
">Xl.r x %.#.#.5.% 1 ..) W.] <.].].E.~.|.{.l E.pX{.{./.]./.| ].*X'.$X#X^.h.J a.c.1X*X&X5X,.=X'.).:XgXgX>X9XVXVXmX9XdXaXH.ZXCXBX:X",
"+ j d.C.p.g.H.0.=.#Xc.&.{ v #.2.%Xp.=._.2.e.> %._ +.,._.k.P 6.h.Q q.W p.v.w.t.W e.5.K t.l o.l o.a.f.-.x.H.N.r.S.V.w.a.Q T g s d ",
"< -XVXVXAXVXdX2XsX1X0Xk.!.E.}.E.{.{./.<.tX,X'.^.] Z 4.J.0XeXfX&Xr K r ,X0XrXsXsX2X$.S rX,XyX4X3XdX#X,XAXAXaX*.uXgXO.4XtX].^.W.b ",
"u x e.8.A.V.z.j.oXQ.Q.E..X~.{. X~.].^.' !.} .. .&.: I p.x.7X%Xa.n M P -X:XaX2XqX5XS : ;Xl.C.;Xk.x.6.-.eX:X5XG.j.a./ A.d.6.l a h ",
"tXuXtXhXuXuXuX[.X.x.j.h.a.&Xc.#Xd.W x.1.*.k 1 , ; y W -.Q W =.W r | X...#X-X3X_.g o.>.%.| ) &.D Y a.:XqXeXnXnX= gXAXlXkXVXgXO.*X",
"4X1X1X,X1X1X~.~.XXT.T.P.3 XXQ.Q.&X} T.Y.P.P.P.P.2 o o : 1 d ' d S XXQ.Q.~.iXiX{.| hX4X3X3X<XaX;.wX9XdXaXVXMXnXZ `.MXdX:XeXx.7.:X",
"r f 0.Y M K Z 0.z.j.2.d f.x.b.x.t.H.1.*.o.Q l h f H 7.s.@.5.I Z g a l g l 5.D.5.7.` ` @.0.#.o.e.w.t.D.i.w.q.f.r.i.e.w.~ k.E H y ",
"> g w.l a ; 6.8.u P n.G v b j.l < Y k.{ v l w 3 6 #.+.~.W.z 8 Y.U.k < 2 < a - = l E.6 v c ~.+X*.D ] +.D.0.g.B.=.6.E 0.f.[.tX,.a ",
"2.k.l.1.,.l.G.K $ X i.N.& E e.R 3.R y.] O.A.5.z F K a.,.d.D.' #Xj.5.g h H P X $ x *.a.e.0.c.z.i.t.H.N.zXw.^ s.r.~ J.;XC.;XeXG.K ",
"fXkXiXiX<XyXgX*XC.7._ ).-X5XG.K.cXD.a.o.d.z.a.a.i.g yXyXhXpXOXuX$X6.6.x Y ! l D *.+XtXOX XpXuXO.VXAXAXVXAXAXVX2XjXlXjXjXlXAX0X+ ",
"R z.;.K @.^ >.b b Y 6 P.P.Q.I.Y.P.1 W...4 b ^.^.x.3.@X@XXX@X@X@X=X<. .b v b } &.:.{.[.~.{.sXyX>XBXMXmXZXVXBXdXl._.2.d.a.k.-.^ / ",
"[.{.) A  .$.o.M.F.bX8Xx.8XG.k.x.-.i.5.e.t.5.6.*.z.V.(.,X4XcXB.`.:Xt.d.+.+.vXY v.6X5Xl.#.7.zX2XgX@X.X{.E.&.1.O.' l s B N V.a.9XyX",
"4.H e n C C ;.j.=XiXiX}.{.$X4., , d 1 1 , < T /.#.i :.+X@XoXOXT.].L M L J N L M -.$X<XJ u 9.R =.&.}.Q.6 s _ S F M m V N N 4.A.i.",
"p 0 B n s d y r a l g 9 Y Y i e w e r $ h J L i N B M O.1.R N 8.M V V i N V V N P q.N m p p t Z H m y I 4.p N j.] Y H p B 0 N 4.",
"0 0 # . # + . $ q t 0 p w 5 P.} 5 U.k r j $.K p t H _ ,X:XW V u.M t M N N 8.7.7.y.V.u.9.M g 1 4 J m Z R.<.N p J ` %.o.0 N m m p ",
"M B q 0 W Z 0 e t y p M s 7 5 7 3 3 q % 1 g B y ; q s c 5 T m.H r H 4.4.P t i r n B $ > s y U C H M + > > & t p p 0 q t p 0 9 9 ",
" .%.K # G D q 0.q.W ;.`.U.P.` /.E.oX<.X.+X} 1 B.N.7X>..X|.tX6XW.^.:XwXqX%X:.#.2.] F !.(.e.N NX+X.X(.R F F Y.T.Q.W.Q.~.1 9 0 T : ",
"Z Z '.`././.F w $ ' (.8 6 U.c.>X'.<XOXOXoX+.S hXOX+X@X.X@XtXS.&.` ) c &.&.,.p.=.:.^ k.k.=.~ :.*XC.@.R D ^ ^ -.1.1.p.J.W f s W Z "
};
