/* XPM */
static char *result[] = {
/* columns rows colors chars-per-pixel */
"64 64 122 2 ",
"   c #2E2314",
".  c #312616",
"X  c #322718",
"o  c #372B1A",
"O  c #392E1C",
"+  c #3D311F",
"@  c #3D3222",
"#  c #413623",
"$  c #443926",
"%  c #453A29",
"&  c #4A3F2D",
"*  c #4C412E",
"=  c #4E4331",
"-  c #524633",
";  c #554A36",
":  c #594D36",
">  c #564B39",
",  c #5A4E3A",
"<  c #5D523E",
"1  c #61543E",
"2  c #5E5341",
"3  c #625642",
"4  c #655945",
"5  c #695A45",
"6  c #675B49",
"7  c #6B5D49",
"8  c #6C614D",
"9  c #72634E",
"0  c #736551",
"q  c #756954",
"w  c #796A55",
"e  c #7C6D5A",
"r  c #7E715A",
"t  c #806F5A",
"y  c #82735D",
"u  c #847561",
"i  c #867964",
"p  c #8A7B66",
"a  c #8D7E6A",
"s  c #8D816B",
"d  c #958167",
"f  c #93836C",
"g  c #9C876F",
"h  c #94886E",
"j  c #8E8270",
"k  c #948571",
"l  c #998773",
"z  c #958973",
"x  c #9B8B75",
"c  c #9B8E7A",
"v  c #9A9177",
"b  c #9D927C",
"n  c #A18D75",
"m  c #A18F79",
"M  c #A49277",
"N  c #AA9977",
"B  c #A3947D",
"V  c #A9967D",
"C  c #A5997E",
"Z  c #AB987E",
"A  c #9E9581",
"S  c #9F9A86",
"D  c #A49682",
"F  c #A99782",
"G  c #A59A84",
"H  c #AB9B85",
"J  c #A69C89",
"K  c #AB9E8A",
"L  c #B19E85",
"P  c #B19F8A",
"I  c #AC9E90",
"U  c #ACA086",
"Y  c #A6A18C",
"T  c #ADA28D",
"R  c #B3A186",
"E  c #B3A38D",
"W  c #B9A68D",
"Q  c #B6A98E",
"!  c #BAA98F",
"~  c #ADA491",
"^  c #AEA994",
"/  c #ACAA99",
"(  c #B3A592",
")  c #B9A793",
"_  c #B5A994",
"`  c #BAAB94",
"'  c #B3A698",
"]  c #B5AB99",
"[  c #BBAD9A",
"{  c #BDB096",
"}  c #B6B19C",
"|  c #BDB19C",
" . c #B5ADA1",
".. c #BCAFA1",
"X. c #B7B2A2",
"o. c #BDB4A1",
"O. c #BEB9A4",
"+. c #BEB5A9",
"@. c #BFBBA9",
"#. c #C1AF95",
"$. c #C0AF9A",
"%. c #C1B196",
"&. c #C2B39D",
"*. c #C8B69D",
"=. c #C2B89E",
"-. c #C0AEA0",
";. c #C3B5A2",
":. c #C9B6A2",
">. c #C4B9A4",
",. c #CABBA4",
"<. c #C3B6A9",
"1. c #C4BCAA",
"2. c #CABDAA",
"3. c #C7C2AD",
"4. c #CBC1AC",
"5. c #D1C4AE",
"6. c #C7C3B4",
"7. c #CDC4B2",
"8. c #D3C5B3",
"9. c #D3C8B2",
"0. c #D3C9B9",
"q. c #DBD1BE",
/* pixels */
"` W ` &.%.| $.[ $.K W ( F P L V ) ,.P H P D D F D F ( $.[ $.P E { ` >.! V W ) o.| &.*.;.;.=.[ :.<.#.W E | | [ R Q ( [ *.` #.#.:.",
"L W P ` Q E ` ( W &.[ H H E P V ` ` P x l m P #.-.[ #.F P P K W ) ( E U U ) ( [ { [ { O.$.$.;.:.[ ! W H [ ;.! E [ ) [ ` ! W ` #.",
"W [ K E =.W _ E %.;.[ ] P W F P P ` E M a n #.#.$.( L F ` ` P R H U C _ ( [ W ` ;.) Q | { =.#.` W W P m _ ,.;.` ` ` %.) ` ` %.` ",
"%.:.) ) _ E K T | ;.~ ;.L W L L R W H B y a #.#.#.W P #.$.` ( H H C V F ` ] D T | ` ( { ;.&.[ ` ` [ W P | ,.O.| #.! ) { ;.` =.:.",
"Z n V P K F b D _ | _ _ H V R V R H T L V W ` Q H L H V Q Z C V W U _ ( W ( J T [ ` _ ` ,.,.{ { &.&.W _ O.3.=.| _ ` W W ` ] [ W ",
"Z M c G F G T ~ ~ O.>.| E F R B W E Q U H G M C m l Z V Z H C l L U H K E [ E T &.%.[ [ ,.3.,.,.4.,.! { >.,.2.[ L | ) E $.;.[ E ",
"#.#.R F T ~ ( ] T O.&.&.W ! E C C n c B b G E R #.H c x x C m f V C U _ ` _ W _ &.&.$.[ _ | 4.4.2.=.%.` _ | | M h c C T W | ) ! ",
"#.` ` E K ~ ^ ] ] | ;.&.Q Q G x q s z c B D D U W B V C v H C h x C Y E U _ E E *.,.[ [ Q ( =.=.>.>.` Q T T J b x M H W _ W Z ! ",
"H ) :._ J ~ } X.X.] Q H R E B a < w i h G b C T G s B k v x s j k a x G U { E &.=.[ ) ) ` =.=.&.| 4.| ;.} ` G b ( E ) ( | [ Z U ",
"E ,.2.( T T K ] | _ T E U C b x i r i C v B h C z k G x p i z c k k x G J U E { ` ( | | _ S J >.3.3.4.>.=.>.E F ) ) _ &.) [ %.%.",
",.:.>.` [ E J T ^ _ J G B B h f a d d C w 8 8 8 < y h p y 9 z k f v b c _ E W ` ( ) &.| v b U _ >.>.4.2.4.>.[ W y N _ ( K E &.&.",
") &.*.[ [ ( ( _ _ _ E Q C G b l B h 1 , # # O o O # < , 3 > 2 i b J ~ _ | T ` ) ( E O.T b S G W =.| %.>.,.| | Q T E ( J T ` W V ",
"W ) ,.) ) ) [ _ ] E R V C B U R x = # + @ * @ O     . $ - 3 6 p b T P m D D T ( K D G _ T G C ` ,.=.| >.;.| _ _ W E | ` H [ ! ) ",
"[ [ $.$.E H _ ` | ] _ T U Q Q %.G O . .   @ * = 2 = + X O + + O 3 w i w w D b D E _ _ T ] [ [ [ &.>.>.%.O.| E J G U ) Q ) &.[ &.",
"{ | %.&._ G ( | ] _ _ [ ( E %.x 8 % > $ @ = 3 < 6 2 > ; ; # O . & , 0 p y H K E [ o.[ _ &.>.;.| >.>.<.1.[ %._ F G C J W ` -.&.$.",
"[ { [ F E K F J T T ( T W a M x u w i 4 > 7 3 ; 8 q 9 ; 4 , * . * 7 7 9 u l J ` _ ] W _ _ &.;.,.>.| O.| } _ T K F B V J _ [ ;.) ",
"[ { %.M C ( T b B E ( _ _ T | | B b 9 5 < * % * - < 3 ; < q < + 3 , 0 0 y B c C _ ` _ ( ` | ` >.| _ [ ] _ | T G G B b K E K P ( ",
"_ U ` T G E T b J _ ] _ E _ ;.T M < = 7 5 1 ; < : 4 9 - # * $ @ - 2 0 r d x f Q _ E Q ( | X.>.| ( Q | | | &.E E P K ( >.O.E ( #.",
"! Q U H E T J G T ~ T ^ _ ~ _ G D 4 < < , : , 5 4 < ; * + X o $ * * ; 2 e y s 2.3._ ` [ _ ;.2.[ ` | ~ T ` [ ) D )  .T } ;.[ ) ) ",
">.H [ ;.O.^ K G G G A D ~ T A q 8 9 , : - , : 5 ; > : 2 < ; o % - = : 4 r d U &.} O.O.&.| | &.{ } >.| _ V c E J A ~ ~ ] | &.[ [ ",
"{ V #.>.2._ J G A b J D ^ ] z 2 1 9 , 3 < 1 5 9 8 4 1 7 2 > - & ; = 3 q c V F J U | 3.&._ ` W [ >.>.,.*.[ %.>.Q J _ T B | } _ ) ",
"W M E [ [ | ] Y b G T / ~ J S a 4 4 3 9 0 w 5 9 7 9 < , , % = = 2 2 7 u b J E T H W 1.[ ` E T { | >.4.2.[ | | ` { { >.J U _ | ! ",
"E _ &.$._ E _ ^ J ~ ] ^ c b S z 9 7 4 6 9 i y 5 - 3 > & & ; > 2 4 4 6 s G ] ,._ ( J ` ` | { _ &.>.;.&.[ %.W [ >.| Y _ T F J W U ",
"Q T &.[ E E _ | _ X.G A k j A S a w 5 6 7 u e 3 - > , = > 6 4 2 8 6 6 z T [ | ] ( ( ( K %.&._ ) [ ) Q _ ) ` _ O.| U ( b s s C T ",
"` E ] _ E T E | ~ J S J k p A J c 0 4 8 e 7 0 h : $ > 2 2 2 2 6 3 2 9 D T ] } [ _ ( K D _ [ ) [ _ ` | | _ ` ] O.T C J b h f E W ",
"| T K E T T ( | K c J c z c A K } D q 8 e p f x - - 6 6 ; 2 3 2 4 8 i v b _ _ _ _ ( o.G ] [ O.} _ | &.{ ` ` _ | | J U D b G [ E ",
"_ ( J ~ _ _ [ ` ( l c A G ~ J ] 0.7.f i D F D 7 9 e q 6 8 0 0 8 0 r i j A K ( _ T T T D ~ } 1.>.&.,.=.Q T { _ ` Q T C R W W E R ",
"W ) ~ I F E G H G a A J G G ] o.[ [ M e p k k r s x y 4 e w r r w q q i k c z c b b J K ] o.,.O.>.>.| { ` | =.| | { B { { ` K T ",
"O.( _ J D J B n k k ^ ~ ~ K 1.;.F c k y y l u a a i r q w w u f f p p v c y p A T T _ { 7.| 2.4.9.8.>.[ { } | >.4.| x U [ _ [ &.",
"_ E [ ( T R H B a A _ K I J ~ | Q T E ] _ T k u 6 6 u c c b H H F U H T J x b T E _ E } ;.,.9.9.9.4.;.` [ D G [ { _ G h E E _ | ",
"E F _ T T [ F n l D [ T ~ Y } | X.O.O.| T S k t 8 0 q z v z H U Z J K T E B T _ T R T | 1.,.9.5.9.2.( G b b c G _ ~ J E Q P Q _ ",
"W K K W P ( C l n H I / } X.o.1.;._ | X.~ J z r 4 9 9 h k s c V H U E H J C T H T D D ] | | 9.8.2.;._ ] } X.o.O.O.} o.} T K [ ` ",
"' ' ' ] ) H C V H ) / X.[ ..<.o.[ [ ;.X.] ~ D a 8 7 i M z D D D G F K T H E K G B J Y ~ } ]  .] ] 1.| } 7.6.1.O.| [ } | _ ` { _ ",
") ( [ ] ( K C T W ../ I ] ] [ [ X.o.[ [ ' [ K F J T J s z D G D G T H G D D D T ~ ( ] T ] X.;.X.1.@.>.) ~ ] 1.6.| ~ Y _ _ W %.[ ",
"` ` ) ~ ) K L ( ~ ] ~ G G ~ T T ) O.<...' ( K G J T U G G b G G K ` K F ~ ~ K K ~ ~ ] ^ | _ X.[ 3.O.q.5.A K ]  ._ Y T T H W W ` ",
"[ [ $.( ( ( C G ] >.;.~ o.2.[ T ^ 1.+. .~ I ' ] E W ( J U G D c D K K J T K Y Y T } X.X.} >.' ] } ] | *.b K ( ] ~ _ ] T F H L R ",
"L ` $.[ K K F c [ [ ]  .} <.;.....] ] S Y ] _ ~ I K K D c D K D x v b T ~ ~ Y A J K  .X.X.1.3.6.) J J ~ ~ ] ~ ] ~ Q ^ ( T H R W ",
"W %.;.&.K W T F ) ~ ) ;.} ] O.] ' Y ] ~ ~ ( K D K G J D A ~ K J D A A ~ ] Y A c M J T } o.1.q.1.^ ] ~ / ;.o.~ _ _ _ } _ J B Z L ",
"&.;.| ;.&.[ ) ) [ [ [ ] ] ..]  .~ K _ ~ J K ~ T K J ~ K J K I K T / } ( T J Y G G T E T | 0.1.X./ _ ~ ] ] ~ Y _ _ _ ( K K P W #.",
";.[ o.` [ [ ( E [ ;.<.[ ( [ [ ] ..~ ( J J J K ( E ~ ~ I Y D T T ^ } X.~ G A Y ( T ~ ] ( ] [ ] } ( _ _ T  .G ~ ] ( K E ( P ) ` *.",
";.[ ;.[ ` ( ` ) >...) >.[ [ [ ] [ ] ~ D I I K K ( ^ ] ~ G ~ ^ Y } ] ~ T b v G Y T Q _ T _ ] _ _ ~ _ ( K ] / I K Y T _ _ ( ;.<.2.",
"&.[ ..[ ` _ ) _ [ E ' -.<.<.[ ] [ ( ( H J I ' I D S ~ ~ T T Y Y } { ~ ~ D C T ^ T _ X.] ~ Q _ T ( } E K ( K G K ^ ~ K ~ E W Q | ",
"#.[ ` ( ) ~ ( ' J F [ K ( ;.[ ] ( ~ ( ~ T ' ' K D G / ' ~ Y T T _ ' ( ( K T ~ _ ) D K E E _ T _ ~ E ( K ~ J I J G ( ( T T T J ) ",
"#.( ( ) ' ' ~ G c K ( _ G / ] ..;.| ' ' _ ) ..) ( ~ ~ ( ~ G K ~ ( D T ( T T _ _ _ J b G T T T _ ( _ ( ) ~ D I I T J T F ) ~ J F ",
"&.` ' E ( [ G x b b K _ ' ~ ( [ <.2.[ ..[ ;.] ] _ ( } ( J G ~ T ~ T ~ ( E E T T _ Y b G _ | _ T ~ ] J T ( K K ~ ( Q H U Q ` ` $.",
"#.$.$.) ( P D x K M B ( ] [ ( 2.2.2.~ 2.[ o.]  .^ ( ` E G ~ T K J ~ ~ } T ~ T T ~ J D K ~ T _ _ ~ _ K ~ E ( ~ ( ~ E [ $.` ) V ) ",
"E ) #.#.$.( J c K J H E [ ..<.2.[ [ ' ..K ' ..;.X.X./ ~ Y G S G L K T >.T } @.^ S I G S D A G ~ J K I ) _ ( T E ( [ ) H K D V H ",
"( E H [ ` ( K D D F D K ] ] [ P ' ..-.[ ~ I ] ' ~ ~ ] O.] ~ J K T T T / _ ^ 1.} ~ S S b c G b _ ] T J T J K E E ) _ ( P ) ` #.H ",
"[ ` $.) ) ( E P E E F J K ( ( ) [ [ [ ' ( ' ) ( ) I X.;.~ ] _ ( _ T _ T X.X./ K ~ ~ Y b D T T ^ ~ ~ U T G U T T [ _ H W W ( &.P ",
"W [ ) ( [ ) P ~ K D D K K K _ [ F G ( I ( ( ' ) [ ~ ~ K b G K _ [ T _ ^ } [ <.X.~ T Y A Y ^ T } ( G { _ T ( _ { %.U ! ` E E [ ) ",
"[ ` ) E ( ( G J D A D K H W ) { P F K K I ) ' P ' J D ( G B T ~ ( ~ _ ^ ^ ( Y ~ ~ ^ ^ U T ~ _ | ] A _ _ _ T ] _ ` W [ _ E E ! { ",
"W ! ) _ ( ( G K D D ~ D E [ [ [ ` ( T Y ..' K ~ D K c S G D Y ( _ _ _ ~ ~ ] ~ } T ~ ] T T ~ ] { ~ T G G _ _ _ ] _ E ` ` E ( %.E ",
":.$.) [ ` ( J K G G K K E ] ) ( ] ( D ~ ' P K ~ J I A D K A J ~ [ X.O.[ ~ ( ^ ~ ~ ( ~ _ _ _ _ _ | ~ ^ T ~ T Y ` _ ` Q W W J W #.",
",.$.' [ ( ` ~ K J G K K G K K T E T E ( ) P ~ ) ~ ( D ~ K D J _ _ ] ..E ( _ ~ ( ' ] } ` ` [ | &.| | ] [ ] } ] [ %.| _ W ( K %.*.",
"&.$...' ( ) ~ K K D K K D K D ) ( ( I K I ) [ [ ) ) ( ..( T ~ ^ ( ( ] E _ W ` ` _ [ ( &.| ;.;.&.[ [ } 1.1.} _ [ &.| ! ) | E :.;.",
">.[ [ ' ~ _ ( ( I K K D D E P F ~ ( ] K P K T ~ ~ ) P P ~ G T ( ~ T Q J E U ` | [ ;.| &.| ;.;.;.| _ | ;.} ] 1.| ) _ _ #.| W =.&.",
",.( ( P ( ~ ) ] ] I I K E K K E ( E _ _ ( ( ( E _ E _ _ ( _ _ K K ~ } _ { T V ` ` $.[ | | ;.| | ` { ;.| _ ~ _ 2.%.` ( E [ ` [ ;.",
"%.) I ( ' [ T K ' K E ( I E P ( ( E U _ ( ( F K T T ( ` Q P [ [ _ _ _ Q _ Q ) T -.;.[ } ` Q ( P C ) | _ _ ( Q :.[ ) ) [ O.&.*.=.",
"..:._ [ $.) ) ~ K ) ] [ E ( P ( K F H I G D J T D C E ( K K ( [ T U T | [ ( ;.( | &.[ | [ &.) ( E E W ) W ] &.` %.E ` | ,.;.*.$.",
",.#.) [ ) <.[ [ ) ` _ ( ( E ( ) P K F P K K K L m F _ T T E T T E _ ] =.[ [ ` | %.| ;.%.` _ E E ) ! _ E W ` ;._ ` ! [ :.2.2.:.:.",
":.&.=.E L $.,.&.) P K F ) K H ) ) F m F P ( P K K E ) ;.` Q _ U Q { { %.{ ` | ,.>.| E ) E E C ) ! E D F F V L W E ) &.-.;.2.:.:.",
",.,.` n P &.$.>.' F D D E ) B K P #.m n F P K K K ( ` | ) | { R Q Q Q { | &.,.=.&.` E &.` #.` H M L R [ V n V L M B H P E #.&.<.",
"$.W W #.P ) P ) ) V D F ( ) P V $.$.F D H P F L V M E | | { ! W ` Q ! ` %.=.[ G G E ) :.>.[ ( H V K ` Q F L N Z L W #.:.*.` L P ",
") ) #.$.2.#.) P W E #.( K P W K W $.L P H I ( K k c K >.;.=._ E { | | ! ) _ K F _ -.-.=.2.$.) [ %._ $.D P P L W L L #.=.&.) #.%."
};
