/* XPM */
static char *result[] = {
/* columns rows colors chars-per-pixel */
"64 64 44 1 ",
"  c #948E75",
". c #938E7A",
"X c #979174",
"o c #9A9376",
"O c #96927C",
"+ c #9A957C",
"@ c #9E987E",
"# c #A19B7D",
"$ c #979482",
"% c #9A9682",
"& c #9D9A84",
"* c #9A9789",
"= c #9E9C8B",
"- c #9E9E91",
"; c #A19C84",
": c #A29E8B",
"> c #A19F91",
", c #A5A086",
"< c #A4A18E",
"1 c #A8A48E",
"2 c #A4A393",
"3 c #A9A595",
"4 c #ABA896",
"5 c #A6A59A",
"6 c #A9A79A",
"7 c #A7A89D",
"8 c #ABA99C",
"9 c #B1AD9E",
"0 c #A7A7A0",
"q c #A7A9A1",
"w c #ACACA3",
"e c #ADAEA9",
"r c #B0AFA4",
"t c #B0AFAA",
"y c #AFB0A7",
"u c #AFB0AB",
"i c #B1B1A6",
"p c #B2B3AB",
"a c #B4B6B1",
"s c #B6B8B4",
"d c #B9BAB5",
"f c #BBBCB9",
"g c #BFC0BE",
"h c #C0C1BD",
/* pixels */
"%%o=-=-5725785=<<25783,122<&:&:32==88r93:<<26661;:::::#X#+#.;::;",
"*% *---0->22>5-22>5343;:<252-&>52%=23413:>:&:231;::>:1##o###%::%",
"==.O=-232<<->82=>>5333::<27<&&>3527731;<>&=*=::<;:::1:;#o#;;1>::",
":*%O%*:22:<:<22:::>33311=&<=@&>2<7ww78:3>::%%&:<:1:11:1:;:8863>1",
":=**$*::=>::>2:2>368::11<:::+&:&:600432322>;;;:;;:<:;163>3rtr338",
":=*$%%%*55222564:49tr11:<2&O%;&&:58r>:>>>3::*:*33;:&;<321:>r8933",
"=-***-=278>5>3268568396835:O&-;=>>403>5>2:2>*=>:1:13:::::;>w>933",
"%-------7q>:682355>:>>wt875=>>-==>0885656>;:>->::2;;>646>>>6tww>",
"2=2---52ww728r6252:5w268505222-=O26q88006433w684333<22270>0ewtw>",
"55-5q57qwy723q6362>5pqw6>w07772:666w5rew6>:r66r2==1<21<=>0>50889",
"75557qqyyuwq5wq8w828awer6wwq752%<3r00rw8:>:3223=*<1*-2<*>8wr643>",
"6>788yywyw3wwr83366weeeppwqw8q5$&:8640>2885::2=>=322=2-=>>>3>3>3",
":2:<8yy77q7wwriw5>3wueepr4981i2<22532555r8r3:>2>=5===225<;:;:;;:",
"<::3733<77wyptw86366euwq87irip78q3833254>339:>2*=5>==253<%;<;#;:",
"23:873227wwwparwtrp86p888iipipw8837232::>3>3852=>>76wqpi7&;1;;#;",
":3%22378qewwedwpprwtww838piiwyyuw8r332:;3:>152>::>:2weadp833,;:;",
"22<::=7yuueussipp99r5588wpi889wu26w59>>>1:;352>==3368wufww33:;;,",
"2<&&&&:7yyeweprr98q806rrua948ipy80eet813:;::705;253qwafdww83:;#1",
":<&+++%:6wi6q0367266r86rwdsy9ipaeetar84>1;:;25522266wippwrw61::1",
":%+O++@:788386:3327wprppapdausfaeettr8w81#1>52>3667337776q8323<2",
"&&@X+@@+&27<22:6wewyspiddffwuwuaette0>>>:X;6>:*38rr822276wr6::3:",
"=<#oXo@&@21:>5:2eqestrpppadddsywq5>:4>>44;,44*%:3334<<326866:;:>",
":<@XXX,@&:2-20<>eepppiieyiffupiatw63>w>333334:;;:<;;<&=55065:;&=",
"&&Oo@&2<22-28844wew8iiiisppauuudwttw666834333>;13<<<3:&85766::&&",
"2%%&,22-2-&272680qe58rtraidaawqw3<887626r911::;><+262<;2q5>05:%:",
"=%O+=:,-22-55w325eaw3688trdaawpu7:39933;491>:;#;22332::=q0>3>5>*",
"<+ X=&=-==,27pw30trt44883rppeeeew38983333>31:>:;<&&22*<<w09>-555",
">OX O+&==O+#<83-55wtr4w8;99retq0wr89993693;;:>:>2;;22<27w5632277",
"=@@oo@$%@OO#=,<<5wwtt033>r>rrtw0ew8888:1:#,#=<2=3=++%<<25173==:=",
":;o@+@@@&O=1<<3700werr133589rtreer86rr391#;122375=O%++&->2w522=:",
"&#@+++%&+@#@<3;1>>9635993089ttpawpr8rrt91##;777qq5=:@&<35277-2<&",
"><@@&&&&@@&,741339r8wr9rr68>trpappprpapr3;#188qe722=@&>&2<455532",
"333;==;&:::334633weeq4<78iww9iipqwssssw291199965>==-&,4122=-3252",
":35:$%=%;314>:63:8w8772398ppaaafdaffaw884449r9855:%%@,3722:-7555",
":>33&.%=>63r636658757028iiyppsdhffhpprr6341493593;&;<&-222==---2",
"<>>::&;1331333qqww-22=&28iyyyisddfhpprrr4,;433>42:@&&&<5-<-==-<<",
"1::;#:3:333886eepp63==:348pdpisi8sspir9r8<39732>&;&&;:225-=&<==&",
":;;;O23333266355qpw53==528iiiip88ppastw8w8343<32:=O$+>:2-==&-=O%",
":;;%*:3448rr8w2>28w52==231944iay4wrpaprtw96r71662&..%<22--=@$,==",
">;@O%;:449aawwritpr72552<,49w882<7r9iiparrw863655=O$*=:-27--,5=<",
"5:%$$=:88rr656dadpiw6872;&::888w8yuyfipaw888w6663=%+&=&<-2<21722",
"3>=>->>386r2:3rrpdaw8w22;&:383wiyqqwpppyyww8tt3>22<:<:<<,,,27727",
":>55>>522r933366wrrwwq35;;1837wwyeuqyspdprr80t3>-==&<<<2-,,:7774",
"&&:55>52:2;2216wrwratu66<14888wwwuaadfpppriq65rr7<733<,35:&14271",
";%&2>>>:<;&:13775wwaaai9328w387yeuafsfpi83r93:8s8378811842&48547",
"&;255>2272<<1122-qepppw6327323qwwwuwwwr81788w:3wyq2281377y<37727",
"<266r66784<;;2735qeueap73222<3yfyysuaw84:3w8r143ww83412:33:22222",
"44w8w68w83:@;78qwqwtssp6q7-=:27wwpdww84118www669w652788372&==-:1",
"27y7q37834<@<3<7q5-quaq772-=&:227wq7<33267qw748i6>2:333373:%=2=<",
"::77q-quyu843<1w755qqq77==<*@:433w72382125523,3iw65;443273,<<<<2",
"=<1wuyuuupy881383757553:*-:%--3112225qw7255q7:386332369873<37225",
":==2ueeupiyyy318y7--5--==55=--2&35-3<qw822-233388668r32w72<23<=-",
"=*=:yuyfawyyy<19y22--75-*--=-=--2--55yeq255*>389iw35r63q87743:=-",
"3==5qq9pawwwi3,yy21-=&---2-552<4823778qw255=5wr28y0566w8y8583222",
"22=:55<7uywyd8148852-=&>75&---:238i88368233<5ww25ta546q87872==::",
"5-==575pyqyaiyw18w2-=@&=--==-18278i88262-2226w85:w0::6222<=&&<:2",
":2-&22:r825qyr832842=@;=&&:>537531788<3<:>6::365>8w>3w8>:%&%<&&:",
"2--=:2:2::25pi32<&:>=%&<&+@O&<45<2<38<4<:>>:;>>250tr36r>@%%O++o;",
"2--==>3222=3qw63<:<=*+*:;%O@:23322333;<&;;;:&:>2380>;20>&&*X XO&",
"25->==>522*=<632=<====&++o@&>2>22221,;+@;&;:;;;>>>>;:>::%%&+++oO",
"05=5>:;>*==&:632=<===<;+o@o@2<<>54<,<1,<;133::::::;:>1>;%$&;==%=",
"52>=;&=::;:2506ry722<&&oooXo;2<<w72:<3<349r91>1::;*=>:;#oo*:2:=;",
"=%+:%%=:>&:=>6wwyw273:&;@o@&;<37w7422<13999r>r8>1>:>::;Oo X;:3>&",
">*o&$$*>>3385526383732:,&@@@&<378474531<>>>3>811>>>4:$$o+o+#3>2&"
};
