/* XPM */
static char *result[] = {
/* columns rows colors chars-per-pixel */
"64 64 242 2 ",
"   c #080907",
".  c #0E120A",
"X  c #0C1305",
"o  c #11150C",
"O  c #151B0D",
"+  c #191D0E",
"@  c #111906",
"#  c #161A11",
"$  c #1A1E13",
"%  c #141611",
"&  c #16210B",
"*  c #1A230C",
"=  c #1D2B0B",
"-  c #1C2313",
";  c #1E2A13",
":  c #1D2218",
">  c #172310",
",  c #232C0D",
"<  c #25290E",
"1  c #24320D",
"2  c #2D3B0D",
"3  c #29350C",
"4  c #222614",
"5  c #232C14",
"6  c #22261B",
"7  c #252C1B",
"8  c #292E1B",
"9  c #282C14",
"0  c #253214",
"q  c #2A3415",
"w  c #2D3B15",
"e  c #26311B",
"r  c #2B341B",
"t  c #2D3A1B",
"y  c #273A15",
"u  c #313D15",
"i  c #323C1C",
"p  c #31351E",
"a  c #323D0D",
"s  c #282D21",
"d  c #2C3322",
"f  c #2F3922",
"g  c #2F3829",
"h  c #313622",
"j  c #333C23",
"k  c #393E24",
"l  c #353D29",
"z  c #393F29",
"x  c #383F30",
"c  c #2F4018",
"v  c #344314",
"b  c #3B4B15",
"n  c #35431C",
"m  c #3A451D",
"M  c #3C4B1C",
"N  c #374816",
"B  c #3E511C",
"V  c #384A0D",
"C  c #364323",
"Z  c #3A4524",
"A  c #3C4A23",
"S  c #36432A",
"D  c #3B442B",
"F  c #3E4B2B",
"G  c #374923",
"H  c #3E5127",
"J  c #3E4930",
"K  c #3D4632",
"L  c #414D1D",
"P  c #424D15",
"I  c #44541D",
"U  c #49551D",
"Y  c #4B5B1D",
"T  c #46591A",
"R  c #505F1C",
"E  c #52621C",
"W  c #5A6C14",
"Q  c #4F641E",
"!  c #424D24",
"~  c #424D2B",
"^  c #474A25",
"/  c #445324",
"(  c #495525",
")  c #465924",
"_  c #4C5B24",
"`  c #45532B",
"'  c #4A552C",
"]  c #46592B",
"[  c #4C5B2B",
"{  c #525E24",
"}  c #515D2B",
"|  c #5C5B2E",
" . c #434C32",
".. c #444B37",
"X. c #455332",
"o. c #495533",
"O. c #4D5B34",
"+. c #4B553B",
"@. c #4D5A39",
"#. c #475735",
"$. c #525D33",
"%. c #525D3B",
"&. c #5A5E36",
"*. c #605B34",
"=. c #4E6124",
"-. c #4E612C",
";. c #526325",
":. c #5A6C26",
">. c #53632C",
",. c #59662C",
"<. c #556A2C",
"1. c #5B6B2C",
"2. c #566926",
"3. c #5E722C",
"4. c #5E7225",
"5. c #4E6135",
"6. c #546434",
"7. c #5A6534",
"8. c #566934",
"9. c #5B6B33",
"0. c #53633B",
"q. c #5A653B",
"w. c #566939",
"e. c #5B6C3B",
"r. c #5E7234",
"t. c #5E713B",
"y. c #606E29",
"u. c #62742C",
"i. c #647A2D",
"p. c #6A7D2B",
"a. c #657924",
"s. c #616D33",
"d. c #626E3C",
"f. c #666732",
"g. c #627334",
"h. c #697535",
"j. c #657A34",
"k. c #6A7B35",
"l. c #63733B",
"z. c #6A753D",
"x. c #65793B",
"c. c #6A7A3C",
"v. c #717D3B",
"b. c #707837",
"n. c #4E5A41",
"m. c #535C42",
"M. c #556441",
"N. c #5A6642",
"B. c #566A41",
"V. c #5C6C43",
"C. c #5D684B",
"Z. c #5D7143",
"A. c #5E724A",
"S. c #626D44",
"D. c #616D4D",
"F. c #637443",
"G. c #697643",
"H. c #667A43",
"J. c #6B7C44",
"K. c #65744B",
"L. c #66794A",
"P. c #6B7C4B",
"I. c #6A744E",
"U. c #727D45",
"Y. c #717D4B",
"T. c #636C50",
"R. c #6C7C53",
"E. c #687753",
"W. c #727C52",
"Q. c #737B57",
"!. c #6C812C",
"~. c #6D8236",
"^. c #6D823B",
"/. c #72843B",
"(. c #74893D",
"). c #7A8C3C",
"_. c #768737",
"`. c #7D933C",
"'. c #72862F",
"]. c #6E8243",
"[. c #6E834A",
"{. c #728344",
"}. c #748A44",
"|. c #7A8C44",
" X c #73834B",
".X c #7A844D",
"XX c #75894B",
"oX c #7C8C4B",
"OX c #7B8545",
"+X c #7C9243",
"@X c #7C914C",
"#X c #6E8252",
"$X c #6E815A",
"%X c #738552",
"&X c #7B8B53",
"*X c #788858",
"=X c #7D9253",
"-X c #7E9459",
";X c #7E9365",
":X c #7B8A62",
">X c #83963A",
",X c #90A43F",
"<X c #818C4E",
"1X c #839543",
"2X c #899B44",
"3X c #82944C",
"4X c #849A4B",
"5X c #8B9C4C",
"6X c #879947",
"7X c #828C59",
"8X c #849352",
"9X c #859A53",
"0X c #899C54",
"qX c #84945B",
"wX c #859A5A",
"eX c #8B9C5C",
"rX c #8A9457",
"tX c #919B58",
"yX c #909D4E",
"uX c #8BA149",
"iX c #93A54A",
"pX c #8DA257",
"aX c #95A758",
"sX c #9FB75F",
"dX c #A4B65B",
"fX c #869866",
"gX c #929C6B",
"hX c #949A76",
"jX c #8BA269",
"kX c #96A765",
"lX c #9DB166",
"zX c #9AAD75",
"xX c #A3AE68",
"cX c #A5B668",
"vX c #A5B576",
"bX c #ABB576",
"nX c #B0C374",
"mX c #C4D57C",
"MX c #B6C893",
"NX c #B6C886",
"BX c #C7D482",
"VX c #CFE099",
/* pixels */
"1 k bXyXi t y 5 W.mXs.  o g./.*X~ e 0.S ~ F qXkX) B 0   [ k.G r t 6 @.+.e S / , n ` 5 0.G [ F A / ` < r.r.e [ ] G = 1 O.q.#.C n ",
"v @.q.u.6.A u / +.{.yXb 5 U.0XtXg.! ~ w D %.w.6.F b 5 % V.-.C G 3 C [ X.Z ~ ] t ` H ` ;XZ.B w - A y 5 r C . O Z -.b ) D D i @.N ",
"A.Z.h $.S X.0.Q.0.4 =.2.b ` D l ^ / V.` l @.@.q.# @ - : K S : 7 ) @.[ C 0 ` H > 7 # : 0.-.m r * t * - j c 1 5 +.j i e t / c t F ",
"@.H.[ j ' ~ ` F.J.8.v w F L.7.F 8X{.( 0 - : o - ; 0 C ` H ) O.w G -.8.t r B.d D A y * e >.k.6.M ) R m * O N 1 0 & w t e n n i A ",
") N r c.g.Z 9.) q  .8.) Q.] F  .G n 5 + i * O +.C B pX3X[ B.0.F w w R.-X-.~.P ~ X.j n e r h.b 7 k ~ Z ] n F F t n ; 7 #.n A I 8.",
"w r >. X;.;./ 9 } j M r.V.O.V.) -.A $XP.e.8.X.*X) 0 +.w.H.j F A 6.r n.0.F ~ l.x.) S.M.H 7X2Xp.T n A 5 O f 5.S e f F t H t A _ ) ",
"/ ;.G c.Z.V.} >.M 7 V.l.' *XL.' x.M C.~ l.M m w 0 Z @ d S s o s 6 O   - V O 7 Z.L.cX{.n 7.s.v >.U 8.6.) v G A F C r * w x.-.` e.",
"8 kX) r D ` = K.eX) fX1.`  X8.&Xk.u.m D r.) 0.>.[ n u * r M 8 $ M.j w i ;.v 7 ` C O.' / ( _ M Z [ F n u.:.8.$.~ <.H 5 6 #X[ n M ",
"` rX2.n ! 0.~ G.5X&X` O.y Z C E.#.8.s.~ ~ %X` Z h. XoXG.F.x.q.X.e Z X.6.i 1XrX%X! F.) M N.|.a.>./ ! 1.v ^ .XrX%.Z X.u t e Z 5 #.",
"b M w M _ D 7 M w Z g.[ i d./ L w $.} XX0Xd.@.L w P.qXI.l 7 @.#.` G Z &X_ 7.k 8 6 J >.P.A.S.D ^.!.e.$.r.C K q.] n M u 4 . e n - ",
"K.6.A .X0X&XK J.>.e i $.x.I < k ` C J.J.3X5X( D -   O r ` C R.e.[ 9.x.S.J.Z v q +.5 C 0.H e O f P.6.i ^ t e H Z H <.~.w.F - H C ",
"D.8.h T.9.8.A.V.[ l.>.b >.=.A l x.O.l./ o.^ s.~ A ! ( ` h C [ 9.' 7.~ d #.V.0.S 6.H t 5.e.t t ) [ l.:.R T ) t t =X9X}.` w.-.C 5.",
": 7 n C d H 7 6 6 7.e.m F.8.}. .D d X.d N.>.aX.X$.Y.6.` ] n L.J.P.F.l.D . # r o #.l.D ` S.G Z aXpX0.i aXuXj.>.t V.@.e O #.-.A N ",
"w #.0.t T.G y C 7XmXoXo % c.<XrX) 0 #.D D l *XaX_ ) 4   5.^.G 5 , : X.n.d %.XXI A ! s Q.l.[ f ! h.-.- 7.F.- F -.O.y n M v n C C ",
"F.V.n 7 C.0.R.K.C..XqXM < q.v.kX8XgXwXoX Xv , w X.@.D O K O.@.n y G M S d 6 d o.O.` ` gXpX/.M L.].H.[ v r   . 7 X.n $.g.u O.t.V.",
"5 O + X s K  .- $ % Z 8. Xv.U Z d D.e.6.G.[ y N v 4 i q > S fXr.w d 6.M.K./ 7 m.M ` v ! ` -X}.] 0.n A -.=.t A 3 w e * ! - 0 f #.",
"s @./ G ; O j D ] i @.f +.6.g.2.[ d.( $.).9.9Xc.1X`.|.D 9 # s 6.' T.G.,.} I /.~ F.lX[ - y @.r t S #.w / $.` $.) E.wX<.y c ] n : ",
"e P.-. .N.C > #.H.L.fX/.G * O.^.J.wXkXJ.6.XXc.l. XXXM.C #   -  XxX*.b._.l.O. XO.6. XF - G.[ A v c 8.b [ k.j.XX-.X.B.H.C %X[.$X0 ",
". - C ` j i - O e # +.V.@.; A.7.O.b k ..% +.0.F./ t.L [ g J &Xx.gX| k 8 .   q.9.u ) ( ( ` ! V.>.wX3XXX%X^.].O.[ q Z ] / O.5.n 7 ",
"7 @ f B.h #.C > X . d A E M C ( _ } r h C * 5 G.x.! ` o.d d A.G } o.z.1.6   K r F K.6.' F ) Z  ...e.j f F / v 7.Y -.~.k.w.) H G ",
"Z.C & > 7 6 $X[ r ] [ ' o.X.Z l.k.J.%.' l.b :.c.XXI w i w p i } G.U.d.rXp Z [ ; d fX|.I.&X;.F X.g.b @ i P.).U.A X.o.z.[ 5.G 5 ..",
"` n # +.C.D ..` 9 ..e.>.Z 7X[ 5 n Z p C.q.-.s.g.r } U m ^ } p i 9 $ t ^ G 8.wX[ r k @.@.! ( s.7.h.p.{.{.| tX+.N.u.p [ 6.@X6.- S ",
"#XA n.n.S G +.e.` s 7 X.n j d V.Z n # ~ ` r 9 3X(.} ( m $.{.u._ {.^ @.( ! * 7 C ] w S.).<.' U.I R.).J.Z.A :.b zXcX{.c.&Xr.r.@.; ",
"7 ; : g O.H : 7 $ S f o - = ..fX].;X5.d.2.u x F.5X_.6XP.i ,.oXq.~ $.U.(.} ) T C X.8.G.8.;.|.pX=.] o.O.U m [ p ~ ~ _ ^.wXl.5.<.f ",
"F 0 w +.q.V.M.f 7 l  .- e C.[.} l %X].t A ) m 8 C ( y.d.` 9.z.Z 9 - S ' G.~ m ( ;.z S F $.[.F 5.b u #.~ 5 X.{.` O.-X&XS $ m.t %.",
"X..X8.H.:.k.G F.^.g.{.>.m C.%XD E.8.aX0X9.Z [ 7   4 ^ %.*X6.9.qX6.! 0 . C.g.w 7.c.F.w 7 $ n = ; r & D >.h.{.k.@.R.e.V.M $ - b ( ",
"7 K ` 0.r.@XD l j Z &X{.e.[ w Z fX9.lXdX].l.}.G.w +.0.x.t.%.A K.D l.g.w p D K C.[ #Xx.G   m 3.t.O.,.1.oXoX^.:.D d +., Z 0.C ` J.",
"8.C pX[ 0.F. XM q.c.~ 7 $.oXr.-.7 t _ A n +.@.5X/.G r t  .:XJ.#.V.{.' [ + $ O F o.L.Z.K.%  .-.q.%.R.q.l.c.N.F.fXl ( -.>.G / / [.",
"}.[ #.D ] w.J.9.N.l.9.X.9 s S 0.7.~ w S f o 0.}. Xj >.i o 8 F l p m Z x.t.e.G 0 * 7 - 9 N.pXe.L.D : o 8 F w ` ( r.kX~ A X.l.( V.",
"-.l.u 5 %.F.N l.[ _ :.|.g.r 3 A MXzXp @.I - +.<.! F.l.1.* ; l.} kX[ I Z K XXl.F.>.} w 9 l %.~ D / e 6.n C r l S.{.A $.(.J.8.%X( ",
") e.>.L j v.E 8.' {.l.w 9 i _ u S.I.4 j j l $.].t.C u [ u.g.z.c.( ' M A C 6.g.Z ~ } _ #.K.Z t e G Z B.n 0 ( & l D t.q.t.-.d C :.",
"(.e.@.[ m.l.p.}.o.( ! S.} 5 + . p @.n y J e 0 f j u.2.l.6.~ ;.b $._.U X. X>.B R.%X` r ` 6.Z./ 4 0.) G H F.) 8.qX=XZ  .l.w.-.v ~.",
"6.x.! 0 [ u 1.7.|.c.C l.h.L m G 5 X.Z.F.#.F V.wXl.6X_.U r.w.7.g._ ^ q.M A u.g.6.X.].x. X[ <.Y M f ] H ' 7.7 F %.0.Z m N 5 9 2 A ",
"~.{.9.[ 0.;.1.}.XX2XO.- F.{.@Xl.! >.D ~ x.@Xr.J.e.7.V v ! [.t.g.1.6./.a._ 7.8.3.b n O.e.e.(.>.- 6 5.6.1.'.} # A n 9 b I 2 O.~.Y ",
"7.^ .X#.m.3X>.$.i s.E.7 D L.g.>.! ( p ( _ s.h 6 zXcX) d.pX{.J.e.kXiXf.k.[ f M _ >.u J.j.>.7.9XS.G.7.( 6.8.u.,.U [ :.I G.u.A J.k.",
"r r [ r 6 6.A e y A +.F o r c.9.&X;.q ! 9 m 9 * &.e.H [ G.[ sXxX1Xp.:.XX/  XuX).9.7.c.&.9.'.|._.3.b 5 ~ / g.xX,X} G >Xs.` #.V.[ ",
"t.H :.v f.} 8.8.! 6.M.*X=.O.1.8.}.5X/ V F.gX&.v.P , t G F kX Xs.} i e.G.~ h $.} C ^ ( } ,.g.I _ 6.n e 8.! e Z yXaXX.0.F 5 X.[ 9.",
"k.~.1X7.Y.9.! ).O.( i Z w.G.[ A k.5XgX0X9.} 0. X1.Q Z j r F.I 2 , * ` q } { 6.X.C.9Xe.|.6X8.j.~ G 5.) M 1 O 9 Z @.] 1 0.#.u g.! ",
"' %X9.8Xl *Xq.S. Xi # ~ [.` N m.8X).l._ ` 1.I Z T k.aX_.P  .c.w.%X} q.U I.0.[ [ ! S.- 5 ; 7 j ~ @X0X` } =.L.9Xg.O.A Z.fXzX) L.XX",
"Y P <  . .6.>.I y.1.* r ..8 D F ;.i >.iX).Y L 2.{ 4 &.U.Z D h.Z 0.l.(.E ' / V i 4X2.) v c v 9.q.&X=X:.` ` ` 8.@.[.Z e 0.Z.+.F -.",
"k.>.i n.L.) j.k.! >.M u Z vXj.$.J.k.s.,.v.yXG.8Xy.u $ s.b i $.{.} :.).>.F.9XR ;.0XG.@.$.u.^.{.h.A w >.' s.8.; % e.9.` e >.D ) 1.",
"<.XX>.Y.XX=._ ]./ r.M y.~ bXnXq.Z ! r { _ d.' j g.aXS.{.).oX0.S .X6Xc.<XM F i { ).J.5 c.a.i.) $.9.9.F.#.` V.#.: E.3X=X7.|.].I E ",
"M }.i q.6.) [ <.(.3.u } D I.hX&.! - 9 q.6.b e 5 ~ l.F.6.$.o.[.5 ` {.9 D [ w.) G *XN.S %X_.j.m J x.q.T.e.<.w @.6.~ =.b G.>X_.B ) ",
"[ L.@ X 8 0.w.%XlXg.+ d.k.>.,.K.C $ P.g.=.[ i {.) @Xw.' e @ D A 3 , = 6 % C [ m 9.aXS.8 7.O.~  X X;XA 3.^.8.-XZ.%.) i.c.+X~.<.Z.",
"t D t * 8 e.B.j P.@X8.jXaXU.e.cXa.U ..N.6.e.v [ m 8.s.m B m ` P.G 6.k.] d 0 6 q.^ *X7XJ.eXl.kX;.6.J 8.<.oXzXfXfXl.H.qXF.i n ' l.",
"R.w +.*Xn fXzX[ I {.c.n 7.3 m. X:.Y v N i $.c.}.]..X/.e.@.F Z k K.$.U v S G ; 7 k i q 7XVXXXS D M K.MX@XqXqX .Q.4X~.} T.$.$.v.jX",
"9X>.~ P.` l x.XX,.P.[.5.<.(.6.F _ a o.0X_ ! K.7Xs.t >._.;.XX{ + 7 w.` G.].` #.M.Q.F.0.qXNX8XX ` t.[.jXXXH w.g.1.>.` [ l.rXOX$.^ ",
"pX:.' # s < eX(./ n [ L } ( Z F ,._ w [ A _ 9 q u p m ^ / ( ( 1.d 6.~ @.t.#.g @.r ~ # 7 U.,.M e.8.e V.XX].zX7.1X~.rX'.p.l.aX>.' ",
"t.x.j.) 7.) e.|.a.1.! v.j.( Z 8Xp.>XQ L w &.k.c.a.y.U.G.j f.g.! :  .F.] 8 j N./ X.] n O.L.<.F E.%XS d D e.J.t.XXd.Y.3X5Xq.xXc.m ",
"Z O.`  X|.=.Z $.].{ Y.BXcX.Xk j | y.l.kX^.rXv.h.).v.f.^ eXl..XxX_.i h = n.L.Z V.j ` -.] @.r e  .` d e - m M G.9X} Z $.c.7.kX1./ ",
"O.t ; : h $ F F @.A kXbX<XxXoX~ ,.d $.[ q.xXeX6.S.` | u X.n  .m.U.f.- F @.e.>./ @ @ q r y O D A.g $XZ.; ! 9.$.u < F n :.} ! 9 - ",
"n w @.t 0 @ 5 r = u w k r J.&X5X8X@.U.u.q m u _ ` K.8Xq.+ < O # l.6.6.qXQ.#.>.;.V a & 5 XX].A +.jX5.y C l.c.I v & 9 >.XX>.b u . ",
"#.) 7 F w.C m.] L u Y u.V 1 + ,.1.T {.{.' lX6X_.eXt k P.w.5 Z O 4 H.#Xe.C.1.T k._.9.w o X.o.r 8 %XH.2.9.-.pX,.7.! d.,.qX].,.[ K ",
"#.] M t.0.` d 0.~ : X.J.y.u $ X. X! [ 9.' 7X.XD J.} r 6.Y G p @.n 0 &X) 8 6.) 8.( :.{ L w.Z.F 7 O n .XNX=.P ' G.{ | 9 L + 6 $.D ",
"q n -Xt.D 0 r e w B.A m ^ >.+ O t * $.~ t 5 0 X 5 6.q e.>.U.x.Y.XXw V.@X>.u 2 c.a.W a.} D m K.&Xo.G 0.Y.aX).m } y.2X>Xp.c.) n 8 ",
"M >.H.K.5._ ;./ ].F.Z m e.} ;.u [ >.*   t w v m [ ' 1.( _ ( u p ' ].[ J.J.y.E {.6X>X>X{ <.^.>.pX|.c.m O j <XiX5X6XaXyXg.C 6.v 1.",
"j._ i ~ L eXeX1.c.d.` fX9X) g.i.t.5.o.! I u V.kXuXm 5Xb.`.uXc./.` J.&.{.;.v.6X4 Y.BXdX1X=.a.{ 7.c.3.u.M y F 0.S 1.u D q.q n -.vX",
"q.p y n N.h.1.~ 4 %.D m.S.nX|.i.b r +._ E } k s.c.~ l.,.Z X.l.j.*XlX1X7.8X,.aXZ 6 J.U. X(.1./ t F.;.C j 5 F M.H [ O.` [.r.l.=.:.",
"H F &XB d $.F.i K.u.b = % &.W.} x.1.@./.a.2.b 4 >.) 7.9.' i c.:.Z z.2X' dX>Xh.< 7 E.J.i 6.6.4 ` L.0.A.#.Z B.[.8.} l.[ @. .` t P.",
":.M i G -.A u._ $.J.G.! d 8 - +.l.9.@.l.p.[ u.[ G.;.p q ' j.].(.c.u.g.:.} f.y.,.v [ s.; - @.c w ) X.;X@Xq.;XkX[ 0.+X1.Z S jX/ >.",
"u.= V ;.0.Y.y.m & - r 5.e.0.Z ; ( / G  X2XiXp.;.+.`.E h.p.8Xr.V.&Xs.cX1X~ aXiX<X{.9.) b n V.t.t ' , g ~ ~ q.` &X%Xc F.8.V.;XJ.r.",
"pX;.b b ].NX|.+XV = O >.j.n ; ; [ x.J V.} 2Xa.) ~ } 1.5XdXg.D n _ ) OX+X( } a.>X_ A ' F ~ p @.6.6X) 8 j r A C E.$X=.1.7.n _ vXkX",
"*Xl.[ [ -.>.K.[.=.6.m L =.) y l 6.e.J.{ O.} h.[ j q w n n n w =.! >.! p } >.} ' [ B 0 ) ;.w 5 ~.-.w.^.2.v r.) C t.x.e.r.9.>.>.8.",
"d D i ]./ #.r K e 7.{.) XX3.].r ~ k A 9 ' M {.6.>.oXr.7.G c %X}.XX{.8.r $ * r 4 ] r.n / %Xn n }.k.w.] `.`.^.) e [.H C D ~ ` Z ` "
};
