/* XPM */
static char *result[] = {
/* columns rows colors chars-per-pixel */
"64 64 42 1 ",
"  c #2C2C2D",
". c #302F2F",
"X c #31312F",
"o c #2D2F32",
"O c #302F31",
"+ c #2E3132",
"@ c #343434",
"# c #3A3635",
"$ c #373837",
"% c #3C3936",
"& c #343639",
"* c #383738",
"= c #36393A",
"- c #3D3C3B",
"; c #413B36",
": c #423E3B",
"> c #483F3B",
", c #3F403E",
"< c #44413D",
"1 c #49433E",
"2 c #3D3F40",
"3 c #413F40",
"4 c #3E4142",
"5 c #444442",
"6 c #4A4643",
"7 c #474846",
"8 c #4B4946",
"9 c #454748",
"0 c #494748",
"q c #464849",
"w c #4C4B4A",
"e c #514A45",
"r c #524E4B",
"t c #4F514F",
"y c #54514D",
"u c #59544E",
"i c #4E4F50",
"p c #504F50",
"a c #4F5050",
"s c #535251",
"d c #595653",
"f c #5B5B5B",
/* pixels */
"611<511e5eee6eee<<,11<586,$<,5<<6<<%<6%,18<<<61<#-;11:#%--%- @<6",
"6666::>5e66e63ee8<,,<<<185,<86<<<<<,,111:##<<18% #::>%%><66:*<<6",
"1861<#:1536666ee8<-<<66-<7<586;%<<1<111,<#oX%6%  @%%155-*<5<1<6,",
"8868<:-<>>66e06e66=<11<=<4<<<7<,,<,<1<<<1<Xo$<o+2##;16::%6<%%<<<",
"7758<<<;*@#50566<5,11<%,5,%<%11<,,,<1<8<<1,-,1@@22%:1>%#,<<%#%<8",
"67887<;<#@=>e06e65=8<1<5,,,;%,%,,,1,5<<,1<#@<1,@-2<%%*$@%5<11<58",
"6867<61<*-66e55667-<11<-%X,,%,%,,,,1,,,#1%  ,,#@@-;%:$@@$5<%<<<5",
",588551<:<6866r67<-<11<%%,<,<<65,,1<<,,$,<+=,@X#o@;#::@O%1,%,,,,",
"515e611<*11648r887<661<,775<<8r7#111<<,,<<,,,1,,$$%%%#@&$<*<<<<5",
"56<8e11<:1e67ey88868r1<554-06ry8111ww,<1t1,,,<#@@#1,%Xo%-,=%-%<7",
"w1-<1<>;#1e1ew888e1e81<,-4,<6yy811ww<,,<1<, @,,o X<<1%%%<6,#X$65",
"7<-;<;;1<e818,=58r<=88,<7-,-68r61ww171<,<7,$X+,$$,,51<<,%-<@ @67",
"7<,,<-<<%>e680swuu6786-55-000788ww1twe8,,<1,,,,,,,,,=$-$,,1<#%85",
"we87<@%%X%16ets9uy6ee8,67<0w8778w1ww187<,<17,+,4,=,<<%=&@<<,;<8e",
"7eye6&*<$<18rua9eueere<0<35706r81w<7ttt1<177444w7<,<,=%%$=<$,1<5",
"eeey85-e<<867yy7ruuur1:78566050wtw17<www7774444w,%,<<$$%,=@,1<81",
"w1tet77<-,507eyrdrwse1558w6r06wpt8ww558y8074qw4-,<65-*5-:@=<1<6w",
"eeeee<w<=0t77rr6rrrre807wwwww8sp745q767we<,6775-,5<=3-<:;511<<86",
"teeetye,-wdwrsyyu8reerw0wwwww0rr75475567665-4<5755,<<-<<301<:68r",
"177w55,,&6yw7usyr8ree860wsdsrrwr545q55w7<-5-55<75w7555-,#$-1<618",
"7785=&+=&2wti0dsdw88ee8wrwswww7wqqqtaw77777<5*77677=655*44@=<66w",
"5=tyw44490yssids0wryeyy7qryww77tswwaa00r0075657756555--=42=&=4-7",
"527w7wiq5wdssrsrq70eeye0wqwatqiiswsdfswr0657q9606w65,=&&442==-40",
"77qtww75*6spswypww97eye1qwwt0aiqw0ssaw08wrw0560wqw4424---5-5257w",
"59ww778-&=qwwwiwiaawrre-wiaii4wi90qwtqwt50ww59077wr7&&-5-&*<644<",
"wyw866662&4ww0iwwsswry05iiwq444qqqwq0wai9qw00w060ww742=2&&==<675",
"yt575<:6-259wwpqisawrr0wwww444q7w9iwqqii9ww9000006w85=492*<-,575",
"wq755<<--534wwpiiwwwysrr09w9450qiw990000759q9701ww77q44995577-57",
"68<4,,:>352236wwswrwpdsw70rsww70s055wwq7<5,4770rrw0wwtwiw77w8<77",
"6r666-$<53>;;36wtsussr8wrrrdrw0777qqww78706567trr778wwssswww788<",
"6e887<-7075:3550ww7ssry7wsssr0677wrwrw6ydr077rssw6wwtwyddqw00rr7",
"7wy7e14qw7>43:-9wurwsdswwsdsww86<6rr76rwp777wwwr70805w7w0q0y0076",
"<7yw6$,56655-3597wyrsswytyw75,5508r670r88859ww88w6,<7wq0:<6w00w6",
",,<=@,7,<544--57908rdr7w75655545007656www859qq5587547<0<:@%<6r52",
"4=$$=4,54<--52:00<6rdyw786,675577767<:<6wttwtt07w870<=;>:%*#<1:-",
"<,$$,,,,,--337567wr7w07<76674,7t77665::<5wtwsftw8w876<%>$%1##-*-",
"<%=<=,<555--5355888776<665,67q558ww75::5<6w78860ww866:1##$1%%%%,",
"5%=4,=<55454-455<0w8777775568875<<7776166<6,5<;<6<11:1;;,%,1<%,<",
"=-=,4,459445545-=66<<,<,7045<6<,-<177*%<<<-<-<<:<e11<11#;X%X$,%,",
"%,=5,55,55955-5X%--6-<,46777<1--:-674@&<6<-=<<1<6111<11;X##  @%,",
"5555<<5<5759475654---555<447<%%,<<<,@=576<55:<:<1e11111%<X<X X,<",
",611<11,:5---555<75-500<56577<-:;%%-<44<<<54<<1<<11111<#<<1% X$,",
"%<1:>><<35:-:355065<676655=61<6<*=65-=-5<<,<<<<:1<111e1<<<1<o&<%",
"$%:<<<1<:15>7535<%:666<<5<<6<<<-%46755<:61<61::-,1118r<11%<1$@$%",
"<,<61111#:::6555:-5e8<,<<*:<<<5%-6557*%:6<16<116w17e1r1<1#>1<$%5",
"87888111;1:56111<::8w<==<:5::<-*%,>5::1%-:11<11<1,1881<%<X;<<,,5",
"6788811<%1>5665:<%<6875,:<6:%<-*-;::-11;*<66:6-:<,,11e<<<,;<1%,%",
"588866<<%%:66111%@@185<5<<0%->>;;365<::%-6,<<<1<11<<111<<1><<<5<",
"t<1<6e1%%5-016e63OO*66535<<5e>;*->>1<#<11<<1111<111<1;;111<<<<1<",
"871<1>#:&&55<1e33::O-595>:>13;:*%;;<%;111<11111<<<<<1#;<,<<<<;11",
"1%<11>;; #>:6>;>>:@*393:-:::3-:;:%<<><111<#<1111<1<<<<#<#<<<,#,1",
"1,1113%% *:>6166>;#35--*=-:;>-*#;><%%1111<<<<1;1<<;<<#,<<1<<X,,<",
"1<111;;%O2O;>11>>>;:52:;>3;;>*##;3>#;;11<1<<#11;1<<;;#X<<111<,<;",
"<111;#;%233*>>>1>>;3>33;>>#*>>##:>;5;;11<1<<1<1<1<;X#;#;XX<<1<<#",
"%<11;>1;2*:;>111>3::333;:3::*3>;:>;<111111<<;;111#1;#<;;#X#<#<#<",
"X<<1;>>1**;>>ee1>3#;::;O*3*:33631>151111;,#<;<1X;;<;1;#<<<<11<##",
":>>6:>ee8063e311>;:233>>:::*%;>>>1151;11;;;;11;<%;;;<<X%X<X111<,",
"5>>>>3e36366e6ee>;**:3e3:;3*;55116:>;>>e<;<<111;<<;<;#X%<1#;11<<",
"3ee>>38e8e>6eeue>;*%>33333:=:3561>:6<>1e1;11;1;;<;%#X  ,<1;;X<<<",
";6333ee33333err>63>::>3e33>1666:1:681::>1111;;;11;;%X;@XX##,;#<<",
"*-5:30w8e3r3ee3360>-651<e33518<561<1611%##<111111;   ,#,,XX##<XX",
"3>553;3e33y3663e::-<566<3>56:160<<<68<:%1#;1<111<##X@@ %XXXX<<,<",
"11e<@*;eeeeeu3ee06<5<6605-:5<8e1:668e:%%,;11<<111<,%e1X<<XX<;1<1",
"88e#@*3e:eyeeee>:<-:58687:5*:7r<16<%61%%<<1e11u11##<111<%<<1;<11"
};
