/* XPM */
static char *result[] = {
/* columns rows colors chars-per-pixel */
"64 64 206 2 ",
"   c #523A33",
".  c #74493E",
"X  c #6D443B",
"o  c #764E44",
"O  c #7B594E",
"+  c #684E48",
"@  c #6C615C",
"#  c #7B655C",
"$  c #75655F",
"%  c #696868",
"&  c #7D6C64",
"*  c #7D6F6B",
"=  c #766A65",
"-  c #7D726D",
";  c #74716E",
":  c #716F70",
">  c #717275",
",  c #7B7372",
"<  c #7A7A7C",
"1  c #75767A",
"2  c #6F7279",
"3  c #835A4D",
"4  c #855B4A",
"5  c #915948",
"6  c #865E50",
"7  c #96604D",
"8  c #836155",
"9  c #83665B",
"0  c #8A665A",
"q  c #83695E",
"w  c #8B6A5C",
"e  c #896253",
"r  c #93695B",
"t  c #846C63",
"y  c #8C6E63",
"u  c #836F68",
"i  c #916F61",
"p  c #8C7266",
"a  c #82746D",
"s  c #8B756B",
"d  c #8C796D",
"f  c #847469",
"g  c #947465",
"h  c #927769",
"j  c #937B6D",
"k  c #9D7B6C",
"l  c #9E7467",
"z  c #857974",
"x  c #8C7C73",
"c  c #847D7C",
"v  c #8B7E78",
"b  c #877771",
"n  c #937E73",
"m  c #9B7D71",
"M  c #907F79",
"N  c #A17563",
"B  c #84817F",
"V  c #8B827C",
"C  c #8A8077",
"Z  c #938175",
"A  c #9A8274",
"S  c #93847B",
"D  c #9B857B",
"F  c #9B8A7D",
"G  c #95887E",
"H  c #A38374",
"J  c #A48B7D",
"K  c #AA8B7E",
"L  c #A5867A",
"P  c #7B7E82",
"I  c #767B81",
"U  c #817F82",
"Y  c #7D8183",
"T  c #7F8289",
"R  c #848384",
"E  c #8B8584",
"W  c #8C8987",
"Q  c #83868A",
"!  c #8A878A",
"~  c #868A8C",
"^  c #8C8C8D",
"/  c #928684",
"(  c #948B84",
")  c #9B8C83",
"_  c #948D8B",
"`  c #998D8A",
"'  c #9C8784",
"]  c #8D908E",
"[  c #9E9186",
"{  c #93918E",
"}  c #9C938B",
"|  c #969086",
" . c #8C8D92",
".. c #888D94",
"X. c #918E91",
"o. c #8E9293",
"O. c #8C9299",
"+. c #939394",
"@. c #999594",
"#. c #9C9A96",
"$. c #959699",
"%. c #99979A",
"&. c #96999C",
"*. c #9C9B9B",
"=. c #979996",
"-. c #A48C82",
";. c #AB8E83",
":. c #A39284",
">. c #A99283",
",. c #A4958B",
"<. c #AA968A",
"1. c #A5998D",
"2. c #AB9A8C",
"3. c #AB9885",
"4. c #B29688",
"5. c #A49793",
"6. c #A49B93",
"7. c #AA9D93",
"8. c #A19E9C",
"9. c #A99F9C",
"0. c #B49C93",
"q. c #9EA19D",
"w. c #ACA295",
"e. c #A3A19E",
"r. c #ACA39C",
"t. c #B3A595",
"y. c #B3A69B",
"u. c #BBAA9C",
"i. c #B4A69C",
"p. c #959AA2",
"a. c #9D9DA2",
"s. c #A19EA2",
"d. c #9EA2A4",
"f. c #9BA2AA",
"g. c #9FA5B0",
"h. c #A4A3A4",
"j. c #A9A6A4",
"k. c #A6A8A5",
"l. c #ABA9A6",
"z. c #A5A5AA",
"x. c #A9A6A9",
"c. c #A6A9AC",
"v. c #ACABAC",
"b. c #B5ABA4",
"n. c #BCADA5",
"m. c #B1AEAC",
"M. c #B7ABA6",
"N. c #AFB1AE",
"B. c #BFB1A3",
"V. c #B2B1AE",
"C. c #BDB3AB",
"Z. c #A5AAB0",
"A. c #ACADB2",
"S. c #A7ABB6",
"D. c #B1AEB2",
"F. c #AEB1B4",
"G. c #AEB2B9",
"H. c #B4B3B4",
"J. c #B9B6B5",
"K. c #B7B9B7",
"L. c #BABAB7",
"P. c #B4B5BA",
"I. c #B9B6BA",
"U. c #B6B9BC",
"Y. c #BBBBBC",
"T. c #C5B5A9",
"R. c #C5BCB4",
"E. c #C1BEBD",
"W. c #C4B7B3",
"Q. c #BDC0BF",
"!. c #C1C1BE",
"~. c #D2C4B7",
"^. c #AEB6C1",
"/. c #B4B7C1",
"(. c #B5BAC2",
"). c #BCBDC2",
"_. c #C0BFC3",
"`. c #BEC1C4",
"'. c #BDC2CA",
"]. c #C3C3C4",
"[. c #C9C5C5",
"{. c #C7C9C7",
"}. c #C4C5CA",
"|. c #C9C7CA",
" X c #C6C9CC",
".X c #CBCBCD",
"XX c #CCC9C7",
"oX c #D6CBC5",
"OX c #C3C7D0",
"+X c #C6C9D2",
"@X c #CBCDD2",
"#X c #D0CED2",
"$X c #CED1D3",
"%X c #CED2DA",
"&X c #D3D3D5",
"*X c #DCDAD6",
"=X c #D3D5D9",
"-X c #D6D9DB",
";X c #DADBDD",
":X c #D6D8D7",
">X c #DED2C9",
",X c #E2DFDF",
"<X c #D5DCE0",
"1X c #DEE1E3",
"2X c #E2E3E4",
"3X c #E4E5E8",
/* pixels */
"h.e.b.k.j.#.e.e.e.e.v.L.[.XX.X[.j.Y.|.D.#.@.W q.e.r.e.e.q.e.l.} e.l.k.k.j.j.e.V.J.m.e.#.e.N.V.e.r.l.].l.H.]..XF.Y.H.*.L.I.8.r.e.",
"e.e.e.e.j.=.#.{ e.l.H.{.|..XXXL.j.J.|.J.e.#.{ #.} #.q.q.e.r.r.{ e.e.l.l.e.m.V.J.J.V.e.#.r.e.e.e.h.N.P.z.*.q.Y.{.}.{.Y.{.H.e.h.e.",
"r.e.e.v.v.6.{ #.e.L.{.{.|.|.[.].I.XX@X.X!.!.J.r.e.q.e.w.j.e.q.#.e.q.q.v.v.l.v.L.L.V.l.e.k.=.] #.=.d.%.z.o.R q.L.Y.@X@X].V.h.e.h.",
"#.e.j.J.V.#.e.l.m.L..X&X$X]. X.X.X-X=X&X$X&XQ.l.w.#.q.#.h.*.=.q.q.K.c.k.e.N.J.V.J.l.k.l.q.=.< Q &.] =.^ R Y ^ K.K.]..XY.l.e.#.#.",
"e.e.m.m.N.N.H.Q._.].@X.X#X]..X@X@X}._._.L.V.V.V.=.#.h.e.e.*.#.q.&.a.c.c.F.}.$XN.v.v.v.l.q.d.] T o.~ =.B ~ Q ] Q.`.$X{.J.k.#.#.k.",
"k.e.e.V.V.V.J.V.m.H.{.]..X|.].]._._.P.v.k.V.Q.N.#.{ 8.e.e.q.#.e.F.G.N.F.H.H.H.e.k.k.V.V.k.k.] R ~ +.k.~ ..] Y N.].-X{.N.h.+.=.l.",
"e.e.l.V.V.N.V.l.l.H.|.[.].].}.I.H.c.l.v.*.H.J.].e.#.8.e.l.e.*.k.k.d.] < ~ c.q.q.k.k.k.N.e.] o.o.~ o.q.^ O.O.Y l.v.).H.k.h.#.8.e.",
"l.k.v.N.V.m.V.j.H.L.L._.I.I.x.h.%.k.A.A.k.K.N.!.k.8.l.l.k.*.e.h.q.o.I 2 > d.x.=.#.e.q.k.+.] Y W ] T ] ] ] d.q.N.k.Y.J.v.h.*.6.e.",
"l.r.K.J.V.V.J.Y.m.V.L.L.v.h.$.h.j.A.[.`.v.K.V.L.z.h.k.k.q.*.*.&.&.~ 2 2 < &.#.d.q.#.=.q.o.W Y Y ] ~ N.k.b.K.q.e.h.).Y.J.l.q.*.r.",
"l.v.j.j.v.V.V.N.l.j.l.m.k.8.*.v.H._.Y.{.{.].V.V.s.*.h.d.e.#.=.^ o.+.Y 2 P $.F.q.o.o.+.q.o.Q < Y ~ ] q.N.C.V.e.N.F.U.J.V.l.e.k.l.",
"e.l.e.e.r.j.V.V.m.v.m.m.j.*.l.A.h.v.Y.].Y.h.j.v.8.#.*.h.h.&. .~ o.#. .Q Q Q d.&.d.x.#.+.] Y % 2 T Y ] q.k.H.r.N.H.Y.K.j.e.h.e.6.",
"j.l.l.e.e.l.b.v.l.m.V.V.j.e.j.V.v.l.V.J.J.J.V.v.8.h.k.k.h.o.^ Q o.&...Q +.~ ).f.H.Y.d.o...Y % Y o.Y T N.d.K.q.N.N.K.H.h.l.e.e.l.",
"l.l.l.e.V.l.b.v.v.J.V.J.j.j.l.V.J.L.J.J.Y.L.V.V.v.A.*.*.e.k.h.h.S.G.c.&.a.d.).F.U.F.z.z.%. .% T q.=.Y &.F.Q.q.k.v.U.Y.Y.J.j.8.6.",
"e.e.m.V.V.v.N.J.V.L.L.Y.V.L.].].].].!.|.@X.X].Y.(.G.a.d.x.+.W #.h.} q.N.G.'.@X/.U.`.F.d.G.v.% ] `.S.T &.d.G.`.`.V.L.Y.[.L.V.m.v.",
"q.q.r.K.L.v.m.L.L.].).v.8.d.l.A.A.v.F.G.U.v.L.!.U.$.*.k.W [ 1.Z p j F 2.3.F ' ` ) m.P.%.&.g.Y o.'.f.S.S.d.S.}.K.N.V.F.!.L.H.j.j.",
"e.q.r.l.J.H.L.[.Y.z.p.c.v.G.f.+./.G.p.p.a.P.J.b.j.6.M.R.T.R.b.3.h J t.3.O 0 9 y m :.v.k.+.o.Y ~ Q.d.d.&.o.=.q.] e.V.V.L.H.m.e.8.",
"w.q.e.l.K.!.H.{ 6.@.P.'.(.H.J.r.,.5.r.v.b.8.9.y.t.w.y.D 1.S t j Z C C J 1.t.t.u.w.e.( z.G.).p.~ c.d.d.c.q.Z.c.F.`.Q.H.J.N.h.*.e.",
"e.e.e.r.Q.N.] F A t.b.H.c.y.T.>.X O M b 7.) b :.<.w.1.. o o X o # . X Z [ 7.7.w.} + u g z X.Q I o.f.d.Z.O.d.Z.q.N.q.] #.N.=.#.#.",
"e.e.e.V.G.(.c.&   3.u.T.y.u.T.M.J j S F 2.7.a #.( 1.:.p A :.Z x 3.A A 1.1.1.1.u.e.u ` 5.` ) } : > &.o.k.$.&.z.k.d.k.#.d.v.h.e.N.",
"r.k.m.Q.R q.F.) u F 7.7.w.2.:.:.) S ( } S n x n [ G # Z n b f ` C h Z 2.Z F b s t q p 9 3 3 6 z ; % I T =.c.c.k.d.k.k.N.e.j.V.j.",
"j.v.l.K.~ ..d.E v t u S D ) ' G 6.,.V V Z D s p [ [ F C q 9 # W #., & ( <.A A s h Z A h w t y j.] V R o.c.N.K.F.v.].{.Y.V.N.V.j.",
"r.e.l.K.H.d.*.n s s s x ( 7.6.1.#.G 6.( } } F | [ | 3.t.:.) 7.(.U.G.G.S.e.p 1.6.} :.( = ; ; B ^ q.| ; 1 p.F.[.U.Q..X$XY.H.J.v.j.",
"k.l.v.Y.H.*.OXp.R V v S M ) j.G S s & f d p Z F | Z :.1.<.q 2.L.^.(.S.S.w.2.1.<.1.l.7.- a a v ( | G C V Y d.).K.`.$X-XY.v.N.e.e.",
"N.K.L.v.m.*.).a.v b ( 9.j.` ( [ 7.} ( C z b G C F F Z F ( ( :.l.G.(.(.S.t.t.7.6.6.h.#.7.[ -.:.) z & w Z y * $.f.K.L.[.).L.V.r.v.",
"`.k.Y.J.l.e.Y.k.9 h h g k H g h j k } q 8 8 p 8 w Z Z q d p s p ( z d D 7.1.#.8.} 1.1.w.S b a & v Z 6 e i 2.y.r.h.x.).Y.H.D.x.h.",
"k.R K.l.j.#.V.F.# g A A J :.J A D s 7.Z p j d i h F Z Z j j d d Z A A >.Z Z 1.1.7.,.) | x Z 5.s t L 7.n.C.5.' M < d.].).P.Y.].8.",
"v.=.h.^ e.#.N.H.+.1.t.( V C | ^ - - Z Z [ d p Z d V Z F G :.<.s.@.t.u.i.#.n <.F.a.z i 0 9 e 0 6 3 3 9 n.y.n 4 3 O < U.Y.)._._.j.",
"=.Y =.+.h.q.k.d.O.z ; @ @ @ ( R $ $ = t # 6 e # | ] =.N.H.+.J b.r.9.r.e.s.*._ _ 6.<.h h 1.2.,.) G ) F ,.) j.` @.6.( o.).].).J.M.",
"K.`.{.k.H.H.`. XA.a.^ z S Z ( W & - - & & t z { q.F.Y._._.).P.@.-.8.@.E /.I.P.a.s.s.8.#.=.=.P.z.8.^ g.'.D._.z.p.f.s.+.S.I.].x.|.",
"`.Y.].A.`.U.`..Xh.A.F.$ - V | - & = = , R *.U.`.U.Q.J.].P.Y.OXz.).).I.U P.P.|.P.).(.'.^./.'.%X_.@X@X].*X.X! Q p.s.z.X.X.z.P._ E.",
"].Y.{.).].].].{.c.K.+XA.=.c ~ , - - ( B &.G.`.Y.J.].L.].P.P.).! +X).A.X.%X].x.X.@X@X).).].+X@X}.}.@X*X2X<XP.a.a.).D.` U v.#XH.].",
"Y.H.].].@X.X$X@XP.U.=X<X-XZ.< ^ +.U.'.`.F.v.Y.].l.v.E.Y.L._.].X.@X].X.% a.@XA.D.@X&X@X X].#X@X#X<X%X%X@X#XD./._.#XOXP.X.D.I.l.J.",
"E.j.Y.].+X|.|.Y.P.F. X{.).P.$.c.a.z.Y.U.v.v.`.v.a.m.E.E.|.%X#X*.).).s.U I..X_.;X;X,X_._._.;X;X#X_._._._.OX!  .D.OX}.P.! x.m.8.J.",
"].].Y.K.).{.].K.A.H. X@X]._.h.D.P.H.).P.@X X%X=X=X<X=X|.|.].). .z.H.s.c J.D.D.x._.*X=X=X#X_.#X_._.^.S.U s.X.U S.P.P.s.s.A.s.m.#X",
"&X.XY._.@X|..X].P.P.Y.U.F.v.*.s.a.P.J.m.L.L.!.*X;X&X|.].].(.A.P $.D.s.* * b u z W.#X#X*X;X#X_._.9.S.g.U g.p.g._.}.G.$.s.D.s.[.=X",
".X.X!.`.$X.X=X.XH.H.(.F.c.A.s.U E H.x.r.D.l.!.&XXX#X@X.X].P.A.U  .Z.X./ 9.T.T.b.U 9._._._.I.x.U s._.S.D.P.X.z.@X).h.$.=.P.s.XX&X",
".X!.L.J.Y.I.].Y.a.A.).d.s.Z.x.! %.v.L.H.L.@X2X;X=X:X:X&XD.D.P.$.s.8.* -.i.T.oXoX~.;.U T.D.x.x.9.x._.%. .A.$.s._.).s.8.U 8.D.&X*X",
"E..XJ.v.U.P.P.A.+.z.G.$.a.A.D. .&.].L.F.L.Y.#X;X&X-X-X.XY.I.Y.! %.' M 5.M.u.T.R.>X>Xu.U 9.D.x.U x.^.z.z.S.s.^._.OXA.%.s.D.E.{.].",
"[.].J.l.I.).).P.a.A.P.Z.x.(.).X.&.).|.].$X!.1X2X2X3X:X.X).I.x.5.XXT.x.i.T.T.T.R.~.W.n.n.5.D._.x.S.D.x.s.D.z./.+X+X_.v.v.D._.J.m.",
".X&X#X].(./.).).A.H./.p././.).$.p.A.Y.].Q.K.&X:X2X=X:X.XI.).M.,.4.U m l k N U -.4.U 0.5.4.9.D.D._.D.D._.D.! /._.%X_.8.s.Y.E.E.#X",
"V.XX.X!.Y.P.).}.A./.).g./._./.s.z.v.v.U.G.v.$X`.$X;X:X.X].Y.0.m T.n.l r N 7 7 7 7 7 N 4.0._._.x.D.G.S.).a.U G._.+X_.a.D._.E.m.W.",
"V.[.`.Y.H.P.G.P.s.D./.s.s._.P.z.z.A.v.).K.P.$X{..X.X{.Y.Y.P.s.u.T.0.0.<.T.0.4.U 4.4.u.~._._.M.x.s.g.S.(.S.s.S.OX).^.s.D._.I.m.D.",
"=X#X[.`.).P.z.G.p.z.(.! +.P.P.s.h.h.z.Y.`.`.-X$X.X.X&XY.v.x.@.U -.5 e l ;.m 4.;.4.4.;.4._.x.x.A././.)._.S.s.OX%X_.G.S.D._._.H.Y.",
"E..X].Y.H.A.P.A.S./.OXP.s./.).A.c.c.P.P.}.{.$X@X`.[.[.).Y.H.s.` y 0 l i ;.N 0.0.0.T.U M.x.M.D.D._._./._./.s.OX@X%X%XD.D.|.|.Y.Y.",
".X@X.X|.I.A.A.P.z.S.S.s.z.).).v.P.P.I.].`.J.@X@XY.J.I.I.P._.A.S._ M ;.m ;.;.4.N k l m _._.D.D./._././._.H.Z.}.@X@X+XP.P.|.|.)._.",
"L.H.|._.I.G.z.c.s.D.(.s.A.}.}.A.D.A.I.).`.`.@X.X]._.].P./._./.D.D.U 4.m T._.W.U l 4.U _.D.S._.z./.x.x./.a.> A.}.OX|.D.I._.}.J.I.",
"P.k.I.).I.P.A.Z.a.S./.S.(._._.A.P.).v._.)..X;X;X#X@X_.).D.D.s.p.D.U U _.,XW._.D.9.W.%._.s.s.S.D./.S./.@X/...A.OX#XOXx.H.Y.].x.h.",
"P.h.D._.D.Z.H.D.z.D.D.H.D.P.).c.P.).I.P.D.I..X.X_.D.A.P.x.D.Z.s._.x.U _.W.D.x.a.s.x.U _.D.s.z.x.D.D.x./.z.X.z.@X@X}.A.h.H.E.P.I.",
"E.D.].).L.P.F.A.D.A.P.Y.P.).).z.P.H.F.A.z.s.U.U.H.k.%.a.a.H.z.p.D.x.U s.x.x.A.p.%.D.X._.A.s.A.A.x.z.D./.s...S._.OX_.x.k.D.E.I.I.",
"x.v.].Y.Y.Y.A.k.a.z.).P.P.).).z.F.A.v.v.%.z.}.}.P.F.$.%.a.z.z.a./.s.U A.S.p.s.X.! x.! ).A.s.S.s.s.S././.z.a.P.)._.).m.h.m.L.v.h.",
"x.m.H.Y.I.I.c.%.x.A.U.).P.I.(.s.x.Z.c.A.z.k.G.'.).P.A.c.a.a.z.x.D.s.U A.x.z.s.$.X.s.! ).D.a.A.z.S.x.D.A.s.*.s.P.].E.v.l.H.L.H.h.",
"x.m.I.I.I.I.x.a.h.P.L.).}.).H.@.z.A.c.z.A.P.(.`.).`.P.a.a.z.h.z./.x.U x.x.s.s.+.X.s.X._.I.s.Z.a.s.x.A.x.D.c.v.W.Y.I.m.v.H.J.m.h.",
"H.H.I.I._.K.v.L.z.v.U.).(.A.c.X.$.a.h.k.c.c.G.U.z.d.%.%.X.a.l.A.D.9.U %.x.9.s.s.s.*.*._.).A.A.z.s.s.%.x.S.D.H.I.Y.L.V.v.H.J.l.h.",
"l.v.J.P.P.l.D.x.x.k.H.F.P.A.P.%.$.z.a.z.k.A.F.P.z.k.%.%.s.*.a.a.s.A.` X.D.x.*.s.x.5.@.D.P.c.a.a.$.z.z.s.x.s.j.v.L.J.l.v.m.D.m.x.",
"h.m.x.v.v.x.s.h.v.h.Y.P.P.A.P.*.a.s.*.h.c.P.G.H.D.v.s.%.s.a.a.a.%.D.%.s.v.x.s.x.s.s.s.v.a.a.a.A.$.a.s.s.D.s.D.D.J.V.l.j.D.H.v.s.",
"s.l.j.x.x.*.*.#.8.%.z.F.A.v.c.X.*.a.&.*.z.F.F.A.e.#.=. .#.$.%.&.a.S.s.D.D.x.s.8.%.s.c.D.a.%.a.z.g.z.z.z.A.A.M.I.V.J.H.8.e.j.s.*.",
"h.j.A.l.v.s.@.=.*.s.A.A.A.A.D.$.$.+.a.%.z.a.*.c.*.+.#.%.s.%.a.%.s.s.a./.D.s.X.X.$.%.%.s.h.*.%.a.A.z.z.A.m.J.H.m.J.N.l.e.q.v.x.e.",
"h.j.v.x.D.D.s.x.s.c.H.D.z.c.P.%.#.*.$.$.$.+.$.h.&.%.a.h.h.z.d.%.D.D.5.I.D.8.s.s.*.8.*.j.h.h.=.*.j.*.a.h.H.m.l.j.l.v.h.e.l.A.h.h.",
"s.8.j.v.v.h.j.v.m.j.D.Z.s.s.A.%.a.l.A.p.$.$.+.x.#.v.A.v.k.v.a.%.x.A.%./.P.s.%.%.*.*.h.v.v.s.*.h.c.a.z.h.v.D.v.v.V.V.r.q.x.H.c.x.",
"h.8.h.h.H.x.*.*.x.s.H.J.I.P.I.s.s.A.D.h.&.$.^ a.#.d.h.h.h.c.h.a.z.z.%.D.D.v.*.` *.s.8.v.c.s.8.x.Z.s.z.A.A.j.x.l.V.V.N.e.j.A.x.8.",
"q.8.h.h.v.j.*.k.h.x.J.J.E.Y.I.z.s.*.x.h.%.#.] e.z.l.v.F.h.l.a.a.A.v.$.x.D.j.*.@.e.8.*.v.h.h.e.h.x.v.c.c.v.x.k.v.V.V.m.l.v.x.s.*.",
"e.h.*.8.j.8._ #.e.j.m.m.J.I.m.s.s.e.8.@.o.$.X.e.h.#.#.e.*.#.#.p.A.z.x.D.v.8.*.*.m.l.e.h.h.8.k.h.v.v.D.D.D.H.H.m.J.H.v.D.H.z.*.#.",
"r.e.#.+.*.@.{ #.e.j.v.8.h.I.J.x.%.8.m.v.$.+.{ q.*.8.#.#.@.+.@.X.v.s.x.H.h.6.8.8.j.#.#.#.#.#.*.e.s.s.j.8.H.Y.L.x.m.x.%.I.l.&.*.@.",
"e.e.j.j.k.e.{ 8.j.e.e.m.I.].].H.9.l.XXL.=.*.8.e.#.l.l.e.@.*.8.=.c.8.8.x.s.l.#.s.h.j.8.#.#.8.9.j.j.j.D.v.Y.|._.s.v.x.=.v.h._ *.j."
};
