/* XPM */
static char *result[] = {
/* columns rows colors chars-per-pixel */
"64 64 42 1 ",
"  c #574A45",
". c #5A4D47",
"X c #574D49",
"o c #5A4E49",
"O c #5E524C",
"+ c #5F5450",
"@ c #62554E",
"# c #68574D",
"$ c #66584F",
"% c #69584E",
"& c #645651",
"* c #685751",
"= c #665952",
"- c #6B5C55",
"; c #665C58",
": c #6C5E59",
"> c #705E57",
", c #705F59",
"< c #6E6057",
"1 c #6E615A",
"2 c #716057",
"3 c #73645C",
"4 c #78675E",
"5 c #76685F",
"6 c #79685F",
"7 c #756660",
"8 c #786761",
"9 c #766961",
"0 c #7B6B63",
"q c #7E6F68",
"w c #7F7067",
"e c #7F7169",
"r c #806E65",
"t c #817066",
"y c #83736A",
"u c #88776D",
"i c #87786F",
"p c #8A796F",
"a c #887770",
"s c #877870",
"d c #8C7B71",
"f c #928077",
/* pixels */
"33::<398q0073733===-OOO@:-133338,::373@@@:-=@$-1---1-3311--11113",
"3333339543737973==-1=O.XO:73,3,7,:-=3::-=<*@@1--=-39339311*<3331",
"=:--:39883333933==13=XX O3888733-,,34:1=<1=@$-&=%330652:<::333:=",
"=&--:13583:=3973=1531@&=-333883::>3383@=52@=<<*-*368533:-1>33:=@",
"O@%*<3111:11:333>353*:32:315733,:3=-13333<3631-**<3643:2::312<*@",
"@--:131:3171111<:763:3323:3733,2313q332:2q63*=-*@<983:>33>333:*O",
"@::213113371::311331123:32953333-354q3%:>r6632,*=1q83273363333*@",
"@*:333335177:-<1-31=$-:2<<232<:>:30681=3qw95333>=17732-*33-3,:&.",
"O&531579719737931111==-353368:*36:235<33ttt63>>3368885<<3323>>@.",
".@<==1799q9979679=:739133333333335633053336q2:33qq599333362:>2#o",
".@==117q99q979953;158q313335333346q68863336r2$33365531@3232-23%@",
"O&1=137973117909==388w315933532334346686q33631236tq63*@@2>232*@#",
"o*-=1799713733331159503333<38332<%-33359645893326q38323*13,3>@#@",
"=@--117177733804:1<13333333<&13:-<:-33333433333563333334333,-*@=",
"$*=-1171;:3578443-$13--:1:=@=&==$11:<1<<33,,3432333263436323<*=:",
"-*@=13:;&-8373403q00t9:@==:-:=-=<<-3313<343>2222%$2446666332<-*%",
"%%==1311+=1519155eiudq353<1===11-::-:::<383663422*:322234642->%>",
"===3<371<+1191117iyudw773-+O+&@&@->3-<-13333qqrt3323>::*3442->>>",
"<-137933;+=1ww991eywse3=O=+===O=&-:2--11356246063333:@<=664>--->",
"131:99731O+151wqeeiww01OXO==+O=<-*::%:1<2343rrqrr4,2-$$O2634-#>4",
"91119777;++;19eewwffew<+XOO=:=-$*32<::::22<0uytyaut0361@2606,,34",
"1;7993791;=19weeeweiiq=XO+==11:*@-:3:333855yypdupyttqrt60602-343",
"1<799119997999weewffe3=XO+73113:--*3122586wdpudddrtq0rq36r03433@",
"1+1977711799999qeeefe1<OX;7771:::-332336riduudddddiu8528>>34q73&",
";;37;1771779999qwwiie11;O;137,-:::31:-253tdwudddddud1366:46q331;",
";;137;;77179w5qw9wyiq11+OO178,,--:<--:<3<39iuyddytdt=2026yq9371;",
"+;377;7;9999qwq9wwiie91<+119803--:<-<--<--qtttppq0uy**3368:-;=1=",
";;731777;799qee9wwyiq91O;397371--<<1-:<211twrryyttut23>2tq@*:=;1",
"+319777171779ee75w9331=O=111573--2%-<11134wtqt6ttyt0342riw@1==17",
"+;;77977111799q119w9q1<====1193--<3:<=1-36rrttqtdfuq646tyy351=;1",
";+7777777;97755531weww1++O+3553:<1<2-3133rtyrq4rpppq666ttw551@-1",
"7;;;977;19979951517iyee+O+O11933<<-232373rryu624urrrq036tq90<+=;",
";;;99191155999990955iie1++.&131<-<<3<22366qpp64tttt6666yw68q3=-1",
"+;;1999999195595www19e01OOO.:<1<:=--<-%3856tyt4rtyttrrtpyq23%@=7",
";;;9999191951w9950w11091OOOOOO<<1:=----5533qtr6r6twt6rrut0303,13",
"=<1;9999971999wetwwwwwq<O+OO.@<<11:--<=<2338rq66666t432qyq343r71",
"59911959977979eewq3qyq9<===+.OO+<21-<-23<<3rtt4rq6tt63>6rq438r3:",
"=1q999199917w9w91333wwq-==&+OO1+*:3=-%:3<<36yt6r6qpt6223qr84rq83",
"OO5199555999w99w1<13www91=&+=<1=-33-:->32<36t06tt6pt4>>238426032",
"$O;;997;;595999wq3339w709;==+=11-32<*<23>36043qtw6tq4-#%*32*%:3:",
"O.==559119e591113533qi971OOOOO==-3=-::22>6q644rt6w022<#@=3:#@#-*",
"OX=<15991199971;91315wq3-OO O=O<1@*:>>2-26q66rttt66<53%$$11$##--",
"..=<19991911999;1311963:=X..o$=1<=:3>%%->6r66t06424-23<$=-3211:=",
"@@=<15957911911;17=;533--+..$<=<-:-*-%-%>2664446<<<<4242<:-2----",
"=O;111551799775111-<353-O+OOO&&--*--**--22243432%-<<3342<*<3:<32",
"1=<155117117931111=@1651+oOX@&--<*:*-%#--2--2>-222<44322--32:<:3",
"1111111977379771--=$23w0:+ *1::,<1:@@@@-%<%-2%>2426r4423<--%$$O=",
"15;;99111999971111<<-2qq:OX===70573*-32----<>--%%24445<*-@$Oo OO",
"311<131391119ww96933<-063===*;708q88007,*3:2:&=---344>-%#ooo@@@$",
"3<=<113191<11eeetq95=-653--@=*:88888q7,:3,>-&#=*%%%<>3>>#@O#***>",
"<===<=;<111110wwwy95<=91-=&@:=389q33:;3;*#>-**-&*=$-:222:*#--:13",
"$11=+++;1;+=1513qy83<=51=O@@&-7878,-&+-7:*>:*--&=%$%%-32>-:-22::",
"1<<+=++1<1;+11313eq5q933&oo+&*:88q777;:88q053:#*-*%@*--:----2332",
"<+$$<1;111<;11135989qt8:&OX&*:-7qqq7878q8838007,1*-:%*--*%%-3342",
"$+$=;113517115w133908q9&@o&*-,377q8783783,583,3::O=*=*-<*%@--<-=",
"<+$+=<<79977w9913338057&o.&;-:::77:733,333333,,:$$@@*=*=$=$==%--",
":&&=-113111777317178987,&o+:3,:33771773,,,,:-:1=*$=@&=@=*-*@O@--",
"3-:--::-1+<39777:33177733,,33:7377888778833-*-=*-:*@@O@==$--o@%#",
":23<-11==+<13373133:8773333733:,3,788888783*::-&-*<-=@$*=$&@.@=$",
":-:3111-1<1<1171137317:173338323:7787773:,3>:--==--*:*:*@@@&O-*:",
":--<11:1&@-21=11*:::::-:::::33:>,,8877,,---:1=;<<1=-:-:-=&=&@-:,",
"-3<<=111:-&1<===@&===;&=:-&-::>>3,,7877,:-:::==1-;==--:<-<==-=:1",
":73:=17887>3331:&O&==&&&-&::::,,337,8,,><-=-====-1=::113:=-=1=-<",
"1111-:7988738833:&&@+&O&*@-:33,3337-:,->-1:=+====111-33<<-==111-"
};
