/* XPM */
static char *_4f23b46f0fd4e04fcf67782e5f16acfSWPAVOTenVyuffV2[] = {
/* columns rows colors chars-per-pixel */
"64 64 195 2 ",
"   c #57342D",
".  c #5F372E",
"X  c #553530",
"o  c #593731",
"O  c #5C3C36",
"+  c #5D3D39",
"@  c #60372E",
"#  c #653A2F",
"$  c #623730",
"%  c #643D35",
"&  c #6A3E33",
"*  c #623E38",
"=  c #6A3F38",
"-  c #5E423C",
";  c #674035",
":  c #6C4235",
">  c #64433C",
",  c #6C453D",
"<  c #6D493F",
"1  c #734335",
"2  c #7B4737",
"3  c #7F4836",
"4  c #73463B",
"5  c #78473A",
"6  c #75493E",
"7  c #7B4B3D",
"8  c #654641",
"9  c #6B4741",
"0  c #664A44",
"q  c #6C4A44",
"w  c #674E49",
"e  c #6C4E49",
"r  c #724740",
"t  c #734C44",
"y  c #7A4D43",
"u  c #734F48",
"i  c #7A4F48",
"p  c #6D524C",
"a  c #765146",
"s  c #7C5145",
"d  c #74534B",
"f  c #7C544B",
"g  c #76594F",
"h  c #7C594E",
"j  c #6F5550",
"k  c #735651",
"l  c #7C5750",
"z  c #755953",
"x  c #7C5B53",
"c  c #765D5B",
"v  c #7C5F59",
"b  c #7E6156",
"n  c #7D615A",
"m  c #834937",
"M  c #834D3C",
"N  c #8A4E3B",
"B  c #934E39",
"V  c #83503F",
"C  c #8B513E",
"Z  c #92523E",
"A  c #814E41",
"S  c #835244",
"D  c #8A5444",
"F  c #8F5947",
"G  c #83564A",
"H  c #89574A",
"J  c #84594D",
"K  c #8A5A4C",
"L  c #915441",
"P  c #9B5541",
"I  c #925846",
"U  c #985844",
"Y  c #925D4C",
"T  c #815751",
"R  c #835C53",
"E  c #8A5E52",
"W  c #855F58",
"Q  c #905F50",
"!  c #91604F",
"~  c #836156",
"^  c #8B6155",
"/  c #81635A",
"(  c #82645B",
")  c #85645A",
"_  c #856459",
"`  c #86675E",
"'  c #84645A",
"]  c #89675F",
"[  c #8C655A",
"{  c #85695C",
"}  c #86695E",
"|  c #886A5E",
" . c #8B695D",
".. c #936353",
"X. c #91665B",
"o. c #936B5D",
"O. c #996C5E",
"+. c #836660",
"@. c #886561",
"#. c #866A61",
"$. c #896A62",
"%. c #8B6E63",
"&. c #8D6E63",
"*. c #8D6C64",
"=. c #8B6C63",
"-. c #8A6E6A",
";. c #936D62",
":. c #9A6D63",
">. c #916E68",
",. c #8D7166",
"<. c #8E7369",
"1. c #8D736B",
"2. c #917167",
"3. c #947266",
"4. c #9A7365",
"5. c #91766B",
"6. c #95776C",
"7. c #94756B",
"8. c #9B756A",
"9. c #95796F",
"0. c #96796E",
"q. c #94786E",
"w. c #997A6F",
"e. c #9C786E",
"r. c #9C7A6D",
"t. c #8E7770",
"y. c #957770",
"u. c #987771",
"i. c #937970",
"p. c #957A70",
"a. c #977A71",
"s. c #967D75",
"d. c #957B72",
"f. c #9B7B72",
"g. c #9A7D72",
"h. c #9A7E75",
"j. c #987E75",
"k. c #9B7C73",
"l. c #977F79",
"z. c #9F7F79",
"x. c #A2766B",
"c. c #A27C6E",
"v. c #A27E73",
"b. c #A07F79",
"n. c #9B8177",
"m. c #998076",
"M. c #9D8177",
"N. c #9C8175",
"B. c #9B8179",
"V. c #9D8379",
"C. c #9E857C",
"Z. c #9D837B",
"A. c #A08477",
"S. c #A48274",
"D. c #AC8575",
"F. c #A1827A",
"G. c #A1877A",
"H. c #A3847B",
"J. c #A3847A",
"K. c #A98679",
"L. c #A58A7D",
"P. c #A9887B",
"I. c #AA8C7E",
"U. c #AC8B7D",
"Y. c #B08D7E",
"T. c #B0907E",
"R. c #9F8880",
"E. c #A28680",
"W. c #A48D85",
"Q. c #A48B83",
"!. c #AE8E87",
"~. c #AB8D83",
"^. c #B48F82",
"/. c #AD9185",
"(. c #AD938B",
"). c #B29284",
"_. c #B99687",
"`. c #BC9A87",
"'. c #B19388",
"]. c #B4968B",
"[. c #B89588",
"{. c #B5998C",
"}. c #BB9B8C",
"|. c #AF9991",
" X c #B59B92",
".X c #BB9D92",
"XX c #BDA195",
"oX c #BDA29A",
"OX c #C29E8B",
"+X c #C1A294",
"@X c #C4A699",
"#X c #C7A89B",
"$X c #CAAE9F",
"%X c #C5AAA2",
"&X c #D5BBAB",
/* pixels */
"W.k.V.j.s.Z.z.j.y.a.j.y.H.H.k.n.j.u.y.F.!.[.P.e.=.=.( n v z f d g x v ~ R &.2.w.7.n.I.A.9.$.$.$.( ) ) / ` ` { $.9.d.m.q.s.5.1.n.",
"d - > 9 * % 9 u 9 9 u 9 , , t u q 9 O 9 '.*.q > - > + O o O o o * + O O o + O > - n k.g u s u u t i t e 9 9 9 > 0 p 0 w w 0 - b ",
"q 8 > - > 9 q t q r t 9 9 : q 4 , , % , F.e q 8 8 8 > > * * 8 * > * - O * > ; > O x ( q f d f d 8 W a p w w 0 q e p w p p p 0 n ",
"z e r t r r 4 r t t t t y 7 4 1 5 4 % > B.x e 8 8 8 - 8 > = r = : > > * * , 9 : * W @.t e e d a w d w w j w w w e k z z j p p n ",
"x q 4 r i i 5 4 4 t 4 i y 7 7 3 7 t r t j.x d q 9 9 r , r 9 4 9 , > r = , r r = = x +.e q p p p k u w p p p d k e k k k j p w n ",
"z t y t t i i i t r r y y 7 S A 5 7 r y M.x l u r t r t t i t r , , t 9 9 t t t % z ` p a d d d k w p j p k z k d k d k p p p c ",
"p t , 9 4 r i i y 4 y 6 y 7 6 5 1 5 1 $ K.z f f u q 8 u r u 9 8 r 8 u i i t t i t v #.p z z x z d w j j p k z k k k p j p e w c ",
"n > > > > 9 , , r 4 t a 6 t t 6 d e t d .Xj.c n W x k j k k k w k 9 w k d c k f t $.Q.c n n z c z e k k z a k k z z c z e w w 1.",
"Q.R.W.E.W.Q.R.R.B.j.s.H.(.Q.n.V.!.Q.P./.].~.S.F.k.9.w.j.f.2.*.] 7.Q.d.i.q.N.q.1.q.j.~.L.F.N.M.d.t.s.s.s.s.Z.R.R.l.d.a.B.Z.l.Z.W.",
"l l T u u l l f f u t f Q.d f a i t t r r q > , , : ; , r r : 4 i 7.q q < e > q s f r , u r t a u u u t e a.+.a 9 * - q f l x x ",
"t t i f r u i t t = , q Z.h f u r u 9 , > , 9 q u 9 * * t 9 , 4 f 9.< $ $ = , d h f t 6 5 t t 5 4 4 r = 9 *.v 9 > > 8 q f t u u ",
"i i f G S s u i y , 9 t J.i u d f f T 9 s f s f G q : : i r 9 4 J k.t 4 = 5 5 f t h f t 5 5 i i 5 4 y r d &.n r q e t d T J i i ",
"G A i G S G i u i d t u f.t t q q f G t J E f f R t 4 r f t r t J 9.a u > 5 s R E W g t i t u u i t t t e =.x e q q q l T G i f ",
"i i i f f i i i f t t t a.d u f l l u t G K J J E 9 4 t s f i i ..r.s f t r f R E W d e u t u f i u u i u &.n q q q u d i f f f ",
"h u i i G f i t u t 9 , j.r q 9 a k u 9 f T f > a > 4 y G s s s E D., q t t 0 a J d t a , r d k d u t 9 * $.W u u q a t u t r y ",
"u t p u u u u q q t e n .Xx f u u f d e a d e 9 9 , t s a t a b ,.@XU.G.d.&.R a d z x x z z d d n z u u u z.@.8 0 q w 9 8 9 * O ",
"1.y.i.Q. X|.|.(.(.{.|..X.X X.X@X@XXX}.'.~./.I.]._.}./.U.`.`.T.T.).T.`.).`.T.I./.T.T.I./.L.{.{./././.{.(.(.{.~.d.m.t.t.1.s.d.1.1.",
"e u d R  X5.k d l x l h T E E o.^ h s 6 s h a x d 3.J f G s s J J s a e a e 6 s < > > < > < 7.f u G t i f g a 6 a d u t a q u u ",
"q d u u 7.8 q f u s u f l d u d > > O , , - - 0 0 b t , > < > > 0 < 8 8 - > > 0 0 > > 9 0 8 ( J S H y A D 7 ; ; , r q , t q t u ",
"u i i u v q u l i u f h f q , r > O + + O - 8 0 6  .s , y f a t 6 e a a a a q 6 a a t a a p ` d f K y A V : . O > 4 4 t i u t q ",
"s i r a n l l h u u f T d u 9 , q 9 > X - > e a q  .f s 6 7 1 : ; ; 1 7 7 6 6 s 7 V 7 7 y 7 7.G i 7 s 7 S 4 ; ; 4 t , y G S i u ",
"u t u a x x W l f G l l x W d < 6 t > * e q G g q | ^ V 7 6 7 5 : 1 7 V 6 6 6 7 S V S S S A L.R r s D 7 C : ; ; 4 y y G i i u r ",
"6 7 r > x l W W ~ W x R W W g a d f f f W T x h > x K D H S D F D s D s 7 7 4 7 S m V M m y I.h 6 f G S V 7 : 5 7 A A 7 7 A G r ",
"a r q p n u t d d f u u a u q 0 q q a a a g > > O {  .S K D K K D ! K s f f s 7 f f G D D G ).G.a t s 7 : 6 5 4 : 4 4 4 , 4 7 y ",
").).'.~.I./.&.` ]  .$.5.5.7.6.r.r.,.| { { { ~ (  .S.`.OX}.}.Y.OX#X$XXX}.`.U.S.U.S.N.q.3.N.N.S.I.}.].~.].)./.!.F.j.6.5.1.*.*.L.).",
"x z ~ f f ^ _ [ ^ [ K  .r.^ ! F ! D K F D C V 3 S 7 7 F I I L N ).).3.J b g h J 0 < G a < q q q f z g d q &.L.R G G W W i f W T ",
"e r s s s J E o.X._ [ h g , < 7 M M V 7 7 G y D H D I S V C P m o.f > J f r 6 s > - f h d e a t t d f u 8 k @.G y 5 6 i 4 i G d ",
"9 d f S f K K ^ :.X.[ E h t < 7 2 6 2 6 7 y A F V S S 7 S N Z N ! g < d a d q y 6 < e f g a d d e d u l d z ) G G y 5 t r i h u ",
"p u h f K K ^ O.:.[ [ f h 7 1 1 2 6 3 7 3 7 A S 7 S 7 m C A L N ! W a s 9 t a 9 p a e a E g e p 0 e d b R v g J J D f i y G i u ",
"e e z d d f f ~ W R E h h y 6 7 M V V 7 M S A F S V N m D N L N ..[ x a f f a > > 0 e d x R g p e 0 w d x z x R J S i r y t y u ",
"f h R f u q a d f f K g ~ 7 7 V D C M N D D D Z D D C C N m Z m J  .[ g f a d e > e e p g g f d d g z g W n c E T 4 : y y , 6 i ",
"d d d f u a a f T h z  .L.f 7 V V C C Z U L Z B Z D C 7 3 & N D ^ [ ^ h g g a q < q a a p f W ) x ) ~ _  .a.f.] ) x a f d a a d ",
"].!. X@X X/.Q.~.Q.!.XX#X%X}.b.x.O.O.4.c.S.D.D.Y.T.T.T.U.)._.}.+X#X+X}.}.}.`._.).).).}.'._.'.].).T.].XX@XoX%X#X}.~.J.(.|.(.Q.E.(.",
"E f R [ ;.X.[ X.E X.:.:.x.x.:...X.S.K.N.8.x.x.c.c.c.S.c.r.8.8.2.r.c.e.2.4.U.&XS.W ^ ^ K J ^ ..K S D J J h f u , : ; M.W.n d W [ ",
"H H G T K H E [ Q E E H F D F D 3 c.e 6 7 6 4 y S 7 6 t 6 , r , , t s G 6 < +X~ 6 < < a s J J J s D 7 s 6 < > 0 < < 3.-.r T T E ",
"T H E E H H E E K H S A A D D I V O.a s J a 4 i H s f u f f h g , , f s f s U.^ s y 7 6 t s f f G G S y i s u 0 9 9 ,.-.u W E H ",
"G G J S s S G D A y M y S V N F H  .s f G i 7 M A S y y y t 7 6 , 6 S H J t S.K s V V V V 7 7 s S S M 7 7 D d p a : ,.-.t T J y ",
"i i G i 7 y s S y y 7 A S S V L S 3.J s J G M 7 3 S S 7 3 y 4 1 6 s V H x f r.J K S V V V V s 7 S 7 7 7 M G E k w , i.s.q f s 6 ",
"u u f i 6 6 7 S s S S S G D D C D S.~ 6 G i y m & M D s D S y 7 7 6 s E K h N.G S 7 7 7 2 7 G S h G s s s s 6 a , % s.i.  8 0 e ",
"v W ] u a a x h J G t G J S V V s T.4.; 6 r 4 s A G h h h s a f f e t h s a T. .6 6 f s s f h J f g s d T J ( b / &.{.(.k k z k ",
"-.F.f.6.y.a.w.6.9.r.I.r.7.3.r.c.U.XX#XN.X.3.X.h R R R [  .4.K.K.K.S.U.K.S.S.@X@X^./.~.S.S.S.4.3.4.r.6.g K @.>.6.y.y.j.B.-.$.+.+.",
"t f 9 9 t u u t r r 3.r r t t < 7 7 : : 1 5 1 3 3 7 1 1 y ^ XXo.! E ..^ f 4 G E G T W E K ! ! K G D d $ $ $ , u t u 8 9 8 * 8 r ",
"d d f l d s f i s t =., 6 7 7 2 7 3 3 3 M M m V V N 1 V S T L.s S f J K K f s E E T J E E K ..! H K d % : 9 r i f d u 0 8 8 8 u ",
"t u u f u 7 s s s q _ , 5 6 7 7 3 m 3 7 m m 3 M M C M N D K 3.7 F D J J K E h T T G h t D ! ..! K E f @ , r t i u t 9 q r q u 8 ",
"t t u g i 7 s f s t ( t : 1 1 1 7 3 3 7 2 7 7 7 1 M 3 5 M G 3.i V D K y s Q ..^ W K K u K ^ E K J E g $ , 4 u i t y t r u q 8 r ",
"t u q d e t s f G 6 ) t : 1 1 : 7 1 1 5 1 6 7 7 1 6 7 5 1 f S.f D J K J 5 s K ~ W x T h K K D K G K g % , u G i y t u u 9 r u u ",
"q q > t q r 6 6 r > { a 7 7 5 7 7 6 5 7 6 7 4 6 y s f s s u K.s D D J K 4 s G f f f T J ! H 7 D S J p $ r u u 9 r 9 r 8 = > 8 9 ",
"` -.=.$.{ ) ] ` =.1.G.&.[ { ~ h h E ~ ^ E J h ~ ~ [  . . .4.}.e._ ^ [ _ R J ^ R E J J  .o.&. . .;.F.L.9.5.6.f.1.*.*.$.$.$.$.#.$.",
").z.f.z.L.~.Q.~.(.!. X{.|..X X!.).U.S.4.c.L.S.K.).~.).}.}.+X+XOX[.Y.D.S.c.S.r.4.O.D.}.A.8.b.j.y.L.z.f.~.H.b.b.u.j.u.u.>.>.@.>.!.",
"5.h i u T x l f f v l h f T i l h s 7 3 J o.t t t r 7 7 < 6 t t u f s 6 6 t 6 t s G r.q , r t r , , 4 t r r 4 r y t y y r r r [ ",
"~ x G T f d d f f ) W s 6 G G f S G G D ^ 3.6 r , u f q < a 0 e 9 e s a < a a f f i [ 9 , 5 4 4 4 = r t i t t y y r r = r t r d ",
"d ~ W T J g f f h z h u T T E J K f a f J [ 4 r , q a * > 6 a 8 > , 6 s t V V h e 6 ` r , : 5 r r 4 9 t i T i t r 5 & 5 t r 9 u ",
"d z W J G R ^ g R W d d f J K D h 6 s ^ J R t q q t 7 * * < s y t t 7 4 , 6 7 t t r  .r r , , r y t r u t t r 4 5 7 1 t t 9 u d ",
"h h g f s f T W R x a a f G K S s s 7 F S x u 6 t r , ; ; : t 6 4 : ; < , , 0 d t 4 ) q t t 4 t i G f G A y i A t i 6 6 i t u d ",
"h r e t t s f x g a s 7 a 6 y 7 7 D C C 7 { , q t r 4 ; < : < ; : & # : ; % r t : 4  .q , 9 q e t t t u i i t t i t i u t 9 , k ",
"Q.r.7.f.9.5.,.=.&.&. . .( ( _ R [ [ X.o.3.I.r.7.&._ W J ^ _  .R f J J a s f v _ ~ r.'.L.&.&.,.$.` / +.$.] $.&.*.&. .$.=.` +.2.J.",
"e.4.4.w.~.!./.H.~.].~.(.].!.~.{././.]..X+X+X+X@XXX X/.I./.I.L.M.w.S.K.]./.).^.+X[.}._.).Y./.W.v.b.b.v.v.a.z.a.e.7.1.&.*.*.+.@.W ",
"G y t 7 i W B.g d d p d d a d f.s 6 t a d s f D J t 8 > d q , < , 9 , S.4.K ^ E ^ ^ K f J ) 6 J W T W W T T l x W W R T x W T l ",
"i u s S f W r.~ f k d d k z d 7.6 q > ; p e s G K J h J z W J J f f f  .8.E R z x x x x d b s [ W R R T f T z T W E W x l l W f ",
"f y s s 7 T N.J x l z d l l f 7.7 , 4 % > 0 f f D K ^ ^ K J J G J ! K  .8.^ x R g p p z d b h E W R h x J J W l h T R l l i l R ",
"t y V s y T q.x z a d a d f l  .6 1 2 : ; > a s f J J f s J J J J ! K X.r.x x R x f d ~ x v S E E R G T G G W l l d f s u i f R ",
"r u 7 7 s ^ d.g f d t a t u h ] f 6 7 6 , 0 a G d > > 0 < < t 6 7 < 7 x.K.R W x T x x v x ~ G [ T h T G h f z f d a l f t 4 r r ",
", a < 4 a h d.x t t 6 q q r i $.) : s s < , a s < + - > > - % % : ; # &.f.h l f f f f f v { u z x f f l u s d p e 9 9 > < , , > ",
"1.1.1.1.d.m.W.B.1.1.1.q.k.9.9.L.~.f.7.&.) ~ _ ~ _ ( b b b b f b b g J 7.f.R W W ( ) n ` =.M.1.$.#.+.#.$.$.{ #.-.1.-.-.=.1.1.=.,."
};
