/* XPM */
static char *result[] = {
/* columns rows colors chars-per-pixel */
"64 64 100 2 ",
"   c #262116",
".  c #342D1F",
"X  c #342E21",
"o  c #353025",
"O  c #3B3325",
"+  c #3C3629",
"@  c #3D3A2C",
"#  c #423727",
"$  c #413827",
"%  c #423B2C",
"&  c #493E2D",
"*  c #443F32",
"=  c #47402F",
"-  c #4A412E",
";  c #464132",
":  c #4C4535",
">  c #4C4638",
",  c #4E493B",
"<  c #504637",
"1  c #524937",
"2  c #534C3C",
"3  c #584C3C",
"4  c #57503F",
"5  c #59513E",
"6  c #544E40",
"7  c #565243",
"8  c #5B5444",
"9  c #5E5847",
"0  c #5C5749",
"q  c #5E594A",
"w  c #615846",
"e  c #635D4C",
"r  c #655F51",
"t  c #666153",
"y  c #6A6353",
"u  c #6E6857",
"i  c #6D6759",
"p  c #6E695A",
"a  c #736D5D",
"s  c #76705D",
"d  c #7C755D",
"f  c #746E61",
"g  c #757264",
"h  c #7A7664",
"j  c #7E7A66",
"k  c #79756B",
"l  c #7D796A",
"z  c #847D67",
"x  c #817D6B",
"c  c #938C6F",
"v  c #858173",
"b  c #898576",
"n  c #8D8976",
"m  c #8D8A7B",
"M  c #928D74",
"N  c #928E7D",
"B  c #969175",
"V  c #999375",
"C  c #96927C",
"Z  c #9A957C",
"A  c #9E997E",
"S  c #A19A7F",
"D  c #8F8E82",
"F  c #969483",
"G  c #9A9682",
"H  c #9D9A84",
"J  c #96968A",
"K  c #9A9789",
"L  c #9E9C8B",
"P  c #9E9E91",
"I  c #A19C85",
"U  c #A19E8C",
"Y  c #A19F91",
"T  c #9FA093",
"R  c #A5A087",
"E  c #A4A18D",
"W  c #A8A38E",
"Q  c #A4A293",
"!  c #A9A595",
"~  c #ABA896",
"^  c #A6A59A",
"/  c #A9A79A",
"(  c #A7A89D",
")  c #ABA99C",
"_  c #B0AC9E",
"`  c #A4A7A0",
"'  c #A7A8A1",
"]  c #ACACA3",
"[  c #ADAEA9",
"{  c #B0AFA4",
"}  c #B0AFA9",
"|  c #AEB1A7",
" . c #AFB0AB",
".. c #B2B1A6",
"X. c #B2B2AB",
"o. c #B5B6B1",
"O. c #B7B9B4",
"+. c #B9B9B5",
"@. c #BDBDBA",
"#. c #C0BFBB",
/* pixels */
"G G B H P L P ^ ^ Y Q ^ ) Q L U U Q ^ ( / E E E E Q E H U H R Q Q K H ) ) ] ~ ) U U U Q ^ ^ ) W I U U U I U S B V A Z C I U U I ",
"G G N K T J Q ^ U Y Q ^ Y ^ L Q Q U ^ ! ) ! I U U Q ^ Q U K P ! Q K L Q ~ ! W ! U Y I I Y Y Q W I I U U U W S A S V S Z Z U U Z ",
"K K M F L P Q ^ Q U Y U Y ) Q K P P ^ / ! ! R I U Q ^ E H H Y ! Q Q ( ^ ! E A E U G K H U I Q Q I I U U W E I A B A I I U U U U ",
"E G G N F H U Q Y I E Y Y Q Q U U L Y Q W W W E L H U L Z G U Q E ^ ] ] ) ~ E ! Y U U F F G I I U E U U E I E I I I / ) _ Y Y U ",
"U H J J C G L L L U U Y Y Y U Q Y E ) ) I E E E E U U U C H L H K ^ ) ) ! Q Q Q Q Y U U I U U I U U E I U Q / Q Y ! ] { { Y / ~ ",
"Y K J F G G G K Q ^ Y Q Q ! / / U ! ) { { ! E U Q U Z Z Z I I G U ^ ) ] E L Q P Y ! Y I F K H Q U I I H I W ! E U U Y { ) _ ~ / ",
"U P J K K P L P ` ) Y Q Y Q Y / ^ / ) / ! ) / ) ! ^ L N G L K H Y Y ^ ) Q U ^ Q Y U Y U K L U U E U E E U I U U I U Y ] Y / ! Y ",
"K L P P P P P P ( ( U U ! ) Y Q ) Y Y U U Q ) X.) ^ ^ L Q Y U L G Y ' ( ) Q ( Q Q Y U U P P Y Y I Q U I U ^ / ^ Y Y Y ) ] ] _ Y ",
"Y L Y Y T T T T ] ] ^ Q ) ] ^ Y ^ Q L ^ ] Q ! ) ^ ^ ^ T T T T L G Q ^ ( / ) ' ` / / Q ! ] ^ ) ! ! Q ! E Q T ! ( ) ^ ^ ' ] ] _ Y ",
"^ ^ P ^ ^ ( ( ( ] ] ( T Q ] / Q ( P Y Q  .( ] ! T ] ( ^ ( ( E U ^ ) / ( Y ] } ' ^ Y U _ ) / ] U L U E L Q Q E L Y ^ ` Y ' / / ) ",
"( Q ^ ^ ( ( ( ]  .X.] ) ^ ] ) ) ] ( ! ) o.'  .] / ] ] ( ( ^ T G U Q ] / { { { ^ U U U Q Y Q Q U G U E G L ^ U G Y ^ ^ ] ^ ! ! ! ",
") Y ^ / ^ [ | ] ] ] Q ] ] ] ) ! ! ! ! ] [ [  .X.X.] ) ] ( ( ! C H U / / Y ` Y ^ ) _ ! I U Q H Q L Q Q Q L U P L U U ! ! Y ! U Y ",
"U U U U ( ) | ( ( ' ( ' ] { ] ] ^ U ! ' [ [ X.] ) ) ) ) W | E T Y Q ! Q Q ^ Y ^ ] ) { Y U Y Y Y L Q P K K Q Q Q I I I I U S I I ",
"U U E Q ( ! ~ E ^ ( ] ] } { ] ) ( ! / / ] [ ] ] ) / ..| _ X.) ) ) ! ) ^ Q Y ! ^ ! Y ! ) U Y Q K K ^ Y I L Y ^ ^ U G U I I S G I ",
"Q ! U ) ^ ! T Q ( ] ] ] X.o.] ] } ] X.) ' } ( ^ ~ | | X...X.| ( ) Q ) Q ! Q I I U Y ! W ^ ^ Y L Y Y ^ ^ ] ] X.{ ) L I E I S S I ",
"E Q G U E ^ / ( ' ] ] ] ] O.] [ { { ] { ] ] ) ~ ) ...._ ) ] ]  .] / ] ! Q Q U I U Y U ! ! Y Y U L U U ! ] ] X.o.o.) ! W R I U I ",
"E Q E L U L / ] [ X.[ [ O.O.{ } { { ) ] ^ Y { / ] X...) ~ ) ]  .Y ^ { Y / Y U W W U I ! Y ! U U U Y Q ) ) ]  .O.] ] ! W U I I I ",
"Q Q H A H G T ( { [ ] ] o.} { { { ! ) ) ' ^ ] {  .o.) ! ~ ..|  .^ ' [ [ } / W Y I I I I ' ` Q K Y ! Q ] ] o.O.O.] ' ) Q U I S U ",
"L U H Z Z Z Z E ^ ] ] ^ ) ^ ! ) ! Q ^ ) { ) / ) ] o.X. .] ..X.o.} [  . .{ ) Y / Q I U U Q ^ Y ^ Q Q ! ! ) ..X.o.) ] ] ! Q R U E ",
"U Z Z V Z Z G H ) ) ) ! ^ ^ U Q ^ Y Q ] { X.{ o.O.X.+.X.| O.O.o.[ [ } X.] ) ] ~ W S U U ^ Q ! ^ ^ ) ! ! Q ^ ^ ) ( ] ) Q E W E Q ",
"H H Z B V Z A Z H Q ) E Y Q U / ] ' ] [ o.} X.o.+.@.O. .[ ] } o.[ } } [ ] Y / Y I V I ! Y Y H Y / ) _ ) E Q Q ! ) ' ] ~ R E R U ",
"H E Z V B V Z A Z U E U Y Y U Q } ' [ o.{ ] { X. .o.+.o.O.X.] ] ' ^ U U Y Y U Y ! I U ! Y G G I Q ! ! ! E E Q Y Q ) ) ^ L L L T ",
"U U Z V c c H H I U Y Y Q ( U Y [ [ X.X.X.{ ..} ]  .+.+.[ X.{ o.{ ] Q Q Y _ Y ! ! W W ! / U I I I R I I U H K ^ ^ ` ^ ! E I H K ",
"H H Z V A H Q R Q Y Y P ^ ) ! ! ' [ ] / { { ..{ o.X.X.o. .] } +.] [ } ] ) Y / / ! ! ~ Q Y U I U ! Q E Y Q U I ) ^ ^ ^ ~ L L H H ",
"U G G G U Q Q T E T G T ^ Q ! ) ) ' [ ^ _ { { ] } { +.o.o.] ' [ ! U ) _ ! ! Q ^ { _ W W U U I U I Z Q Q Q E H Q ] ^ Y ) Q Y H U ",
"U G C C L U R T Q E E ~ ^ ] ^ Q Y [ o.] W ~ Y { } { o.o.} ] } } / U ! ! ) ! ! I ! _ W U U G S I ! Y Q ! Q U I L ' ^ Q Y Y Y Y H ",
"E C c B L G L L L L L E ) X.] Q ' [ ] { / ~ ) / ! { o.{ [ [ [ } ] ! / _ ) ! ! Y ! W W W U Y U U U I G Q Q H U U ' ] ^ Y Y ^ ^ Y ",
"T V V n C Z G L H C C S E ) ^ E Y ^ ) } { Y { / I / ) { [ } ' ` ] ] ) _ _ _ / ! ) Q I I U U U U E U I Q Q U Q ^ ] Q ) Q Y Q ' ` ",
"L Z V V V G G A A G C S H E U U ` ] ] } ] ' ~ ~ Y ] ! ) ] o.' ` [ ..) ! / ) U Y I I R I H E Q K Q K Z G H E U Y ! E ~ ^ K L U H ",
"U I V Z Z A Z C A C L E E U ! / ' ` ] } ] { W U ! / / _ ] } [  .] ] ) ^ _ { ! ! E S S R Q Q ! ^ ^ L Z C B Z G Q T ^ ( ^ Q Q U L ",
"H A Z Z Z Z Z H C V S G U W S E Y Y _ / Y / _ _ ! / ) / } } } X.[ [ { ) ) { { _ W S V I ) ^ ( ' ' ^ K U Z H E Q ! T ^ ^ ^ T E H ",
"E U A A G H H H G Z S R ( ~ E ~ Y { _ / { ] _ ] _ ! ) U ] { } o.X. .X.{ X.o.o...W R S E ) ) ] [ ( Q L U A Z Q H Q Q ! ^ T ! Q T ",
"! ! Q I H K I G U U W U ! ! ) Y ^ ]  .] ' / R ^ ) ) ] ] ] | X...' ] O.+.o.o.] Q _ W R _ _ _ ( Y Q L L L I I ~ E Q E L T Q T ! T ",
"U U ) U Z F U I I Q W _ U U ) Q L / ] ^ ( / Q ! _ ) X.X.o.o.X.+.O.o.@.+.o.] ) ) ~ ~ ~ _ { ! ) ^ Q U G K A I ! ) E ^ U T ^ ! ! Q ",
"U Y Q Q H N F K Y ! Q _ ! ! ) ^ Q / ^ ^ ^ ' Q ) | .. ...X.X.+.@.+.@.@.X.X...] / W ~ ! ~ _ Q ! ) / I A I U H Q Q Q T L L T T T ! ",
"E U U U U G U U ! ! W ! Q ! ' ' | ) Q T T P G Q ) | ] | ....o.O.O.#.#.X.o.] { ) _ S I ! ! ! Q ! Q I Z G H H L Q T L L K L L E T ",
"W U I H Z U Q W Q ! W _ ) Q ] [ X.X.^ ! U G U ! ! ~ X.+..._ +...) O.O.X...{ ) _ ) U ! ! ) ! Q U H H G I I U Q Q T T L H U L G L ",
"U I I G C U W ! ! ! U / / ^ ( ^ ] ] ] ^ Q L U Q Q ) ........X.) ) X.X.X.o.{ ] ) ) ! ! _ ! U ! Q E H C F Z L U Q T L H G L L C G ",
"U I I G H U W ) ! _ { { / ) Q U Q ] ) ^ Q J L E ~ W ~ ~ ) ..X.] ! ] | ..o...{ } ] { / _ ) U / ^ Q G M M F L Y Y T U L C F E G L ",
"Q G F V F K W ! ! _ o.X.] { ] X.} X.] / Q ^ ^ Q U I ! { ) ] ) Q T ( ] ) ....X.o.{ { ) ) ) ! ^ Q Q L N F K U U Y T ^ E L R T U T ",
"! K F N F L U / ) ] ..) ^ ~ +.X.o.X.X.) ) ) ^ Q Z G I R ) _ ( ) ^ ]  .| +.{ X.X.] ) ) ) ] / ^ / ^ L G Z H L I U T Q Q W E ( T E ",
"! Q L L P Y Q Q ) ~ { Q U E ) | X.o.X.] ] ] Q U I I Y Y ) Q ] [ | ( ' ] X.X.X.{ ] ] ] ) } } ! Y Q Q E L E L R E E L I W ) ) Q ! ",
"U Y ! ^ Y Y ^ Q Q ) ) ^ Q W ) / ] { ] ] ` ) ! ^ I I U ) ! / ] ] [ ] [ ' X.o.o.X.} ] ] ^ ' ] ! U U L L H U R E E E U I E ) / ( ^ ",
"G G U ^ Q Y Q Q U E U Q E Q ! ] ] ] { X.[ [ ( ^ R W ! ) ) ) ] ) ' X.o. .o.+.X.o.{ { { ] / ^ { ] ^ E ~ ^ Q E U ! Q R H E ^ ^ ) E ",
"I G G Q Y Y P L R H H H E ! ^ / Q ] ] o.o.X...) ! Q _ ] Q ^ ( ]  . .o.@.o.+.X.X.) ! { ) Q U ) o.( ^ ! ) ) E E / ^ ^ H ^ ^ ! ( ( ",
"H H Q ^ ^ U Q Q ^ Q E E E E ! E P ` [ X.X.X.{ / / Y ! ! U ^ ' ] ] ] [ ] ] ] _ ) U ) ) / { U ! { ] ] Q Q ) W ~ ~ ~ ) U ^ ~ ! Q ( ",
"R E / ( ' ) ^ / ) ! R I I Q / ^ ^ ( ]  .[ o.[ ) Y Y ^ Y U ) } O.| | X.] X.] ! ! U ! _ ) { Q ! ! ] ] / Q ) W Q U ~ Q I Q T E U Q ",
"~ ^ ) ' ] ) ) ) ) ^ U A I ^ ) ' ` ` ] } o.o.[ ( ^ ) Y U I Y ) ] ]  .O.| ] ] ! W W _ ) ] ) / ! ) ] ( ! E ^ ) ~ ! ( E H U H T U E ",
"Q ^ ] ( ] Q ^ ) ! ~ R H R Q E ) ' ^ P ` X.X.] ^ ^ ! L L H U Q Y ) ) ] ^ Q Q Q Q ^ ( ' ' ) ! ) { ! Q Y Y ! ! ! Q ( Q U G K Q K R ",
"L E / / ' T ( | ]  .) ! Q E W ] ^ ^ P ] ` ] ` ^ K L P G Z U ! ^ ! ] ` P Q ! Q Q E Q ^ Q ! I Q { ] ! Q H ! ~ ! Q ^ ! R R Q Q U Q ",
"U U T )  .] [  . .X.] ) ) E ! ^ Q ' T ^ Y Y Y P J P U G L Y Q Y E Q Y Q ! ] ] / Q ^ ^ ^ ) U W ) / Q Q Y ! ~ ! ) ^ ! R Q ) Q Q ^ ",
"H U L ^  .[ ' o.X.| | ] ] W ! ) ] ^ ^ T ^ ^ P L P P ^ L Y U Q K ! ! Q Q U ' ] ^ ^ Q L ^ ! Q Q ) ) ( ! ) ] ! Q ] / E U ^ ^ U L L ",
"L G L U '  .| +.X.]  .| ) W E ) ] ! T P T ^ T L J L P L P L P L P K P ^ ^ [ ] ( ! ^ Q L Y Q ) _ { ] Q / ] / ! ( ] ) ! ^ ^ L U U ",
"T L G ^ ' ' ) X.o.] ] ] X.~ R _ ] ! E L K L L P T ^ P Q ^ T U ^ ' ^ ! ^ ( ) ' ] T T ! L ^ ] ] Q ) X.) ^ ! / ) ) ] ) ( ) Q E Q Q ",
"T T L T ^ ^ U ) X.[ ] ] o.) R ) ) ) ^ ^ T L H Q ( Q L L P L U Q ! ) | ) ) Q / ) Q Q Q L Y ( ^ Q Q X.X./ ! / ) ) / / ) Q U U H U ",
"( Q L G T ] ^ | ] ^ ( | | ) ) E ) ) Q T G C H I L L K Y P Q ) Q ! ~ ..) ) ! ! Q L Q Q L ^ ) Q K D ^ ) K L ) Q Y Q T K H Z U L Q ",
"U T L G L ^ R ] ) Q ^ ( ' ] ) W U ) ! E U Z H K H Z I U Q ! ^ ! Q E ! ) ) Q Q L U b h m G E ^ K D m P J Q ) ^ U H G G Z U G H R ",
"Q P P G J m F U K L Q Q ^ { ! Q U N K Y L F H E I Z N M G E / ^ U ! Q ! ~ R ~ U v :   @ 7 q b P T v k P ~ ^ ] ^ Z G G C G Z Z H ",
"Q ^ L J l , t t 8 g h v K ] / L x w f h m m F I I Z M s e l v z p j b C L Z R l 9 @ O 1 8 ; ; t D J 7 q a m ^ T H H G B B B B H ",
"L T F l 7 + 7 8 , > 8 8 0 l l 8 8 r & O > q a d z h h y o + : & % ; 8 2 s Z z 8 : @ > w 7 , ; , 0 t , @ @ @ , l C m n B c B C C ",
"t f 6 , ; 2 9 t a f i w 6 ; + 1 8 u 8 % 2 5 1 & # 3 7 % : 8 ; w y 8 5 : 8 u % % 2 9 9 e 7 7 e 0 8 , 8 r 0 @   @ 7 ; * 7 q u a 0 ",
"@   X ; 7 y s y 0 q , < 2 6 & e 8 ; & + 8 e & # # & # < + O . & 1 1 - $ : , @ o 4 5 t e 7 q 4 > > 2 0 q t 2 , ; , ; X @ * @ * X ",
"@ * ; ; : 2 y a q < + 3 < 2 r r r 8 8 q 2 2 1 : - 5 O 5 3 - # # & e e 5 8 4 : > > 2 > e a a e 2 > 0 e e i q t i p q 6 0 t t t 7 ",
"@ 8 y 9 w 6 : e p e * w 0 7 7 6 q a f p ; + O & < 3 . # 1 & . # < - 4 e 9 1 1 > : 1 > 7 e e 4 0 , 7 0 6 q 8 0 r 8 q 7 , t t t t "
};
