/* XPM */
static char *result[] = {
/* columns rows colors chars-per-pixel */
"64 64 104 2 ",
"   c #636565",
".  c #6B6C6D",
"X  c #6F7175",
"o  c #727375",
"O  c #7A7877",
"+  c #74757B",
"@  c #767A7B",
"#  c #7A7C7D",
"$  c #7C7E82",
"%  c #807F83",
"&  c #7E8183",
"*  c #838585",
"=  c #848689",
"-  c #8B878B",
";  c #868A8A",
":  c #8A8C8C",
">  c #918E8E",
",  c #8D908E",
"<  c #93918F",
"1  c #8C8D91",
"2  c #918E92",
"3  c #8E9193",
"4  c #939494",
"5  c #999694",
"6  c #969996",
"7  c #9B9A96",
"8  c #95969A",
"9  c #999799",
"0  c #96999A",
"q  c #9C9B9B",
"w  c #A19E9C",
"e  c #9EA19D",
"r  c #A3A29E",
"t  c #A6A89F",
"y  c #9D9DA2",
"u  c #A19EA1",
"i  c #9EA1A3",
"p  c #9FA3A9",
"a  c #A4A3A3",
"s  c #A9A6A4",
"d  c #A6A9A6",
"f  c #ABA9A6",
"g  c #A5A5AA",
"h  c #A9A7AA",
"j  c #A6A9AC",
"k  c #ACABAC",
"l  c #B0AEA7",
"z  c #B1AEAC",
"x  c #AFB0AE",
"c  c #B3B1AE",
"v  c #BAB9AF",
"b  c #A5A9B0",
"n  c #ACADB2",
"m  c #B1AEB2",
"M  c #AEB1B4",
"N  c #AFB0B8",
"B  c #B4B3B4",
"V  c #B9B6B5",
"C  c #B7B8B5",
"Z  c #BAB9B6",
"A  c #B4B5BA",
"S  c #B9B7BA",
"D  c #B6B9BC",
"F  c #BBBBBC",
"G  c #C0BAB7",
"H  c #C1BEBD",
"J  c #BEC0BF",
"K  c #C2C1BE",
"L  c #B7B9C1",
"P  c #BCBDC2",
"I  c #BDBFC8",
"U  c #C1BFC2",
"Y  c #BEC1C3",
"T  c #BFC1C8",
"R  c #C3C3C4",
"E  c #C9C6C6",
"W  c #C5C8C7",
"Q  c #CCC9C5",
"!  c #C4C5CA",
"~  c #C8C7CA",
"^  c #C6C8CB",
"/  c #CBCBCC",
"(  c #D1CCC9",
")  c #CED0CF",
"_  c #D3D1CF",
"`  c #C7C7D0",
"'  c #C7C9D1",
"]  c #CCCDD2",
"[  c #D0CED1",
"{  c #CED1D3",
"}  c #CFD1D8",
"|  c #D2D3D4",
" . c #D6D8D7",
".. c #D5D6DA",
"X. c #D9D7DB",
"o. c #D7D9DB",
"O. c #DADBDD",
"+. c #DFE0DD",
"@. c #DCDDE1",
"#. c #DFE1E4",
"$. c #E3E4E5",
"%. c #E6E8E7",
"&. c #E4E9E9",
"*. c #EAEAEA",
/* pixels */
"s r l f f w r w t t k Z R ( / R s K ~ B 7 5 > w r t r w w t l 5 w l s s f f s z V c t 7 r c x r t k U h B ~ / B F B q S S w s r ",
"r r w s s 5 7 < w l A / / [ / G s S / V t 7 < 7 5 w w 7 w t s < w w k f a c z V V B r 7 s s r s t z S s q q Y ~ W ^ D ~ B r s t ",
"s r w z k q 5 7 r Z ~ / ~ ~ E E F ~ ] / H K C t r r r r s t e 7 s r w k x f f H Z c f r s 7 : q q a 0 h < * e F P { ] E z s t t ",
"7 s f V z 7 t f l F ~ | | ~ / ~ ~ o.o...| | K k r 7 r 7 t w 6 e w S k a a M B c V f f f r 6 # * q 1 0 : ; & ; J B R { J k w w 5 ",
"t r x f c c C F R R | / | ~ / { ] ! I R C V B c 5 7 s r r w 7 a 0 i j k B W } c k f x k i a ; ; 3 ; e & : = ; J R { / C s q q s ",
"s r s c c B B B k B ~ R ~ ~ E ! R R A k s B G c 5 5 w t t w q e N N n M C M c t d d c B d j , & ; 3 d ; 3 1 & x R o.W c a 5 7 f ",
"s t f B V c C f k V Q ^ R E ~ S B j j k e x C W t w w r s w r s d p , @ = b e a s s d B a 3 3 3 : 3 e : 3 3 & x k U B f r 7 r r ",
"s s f k c f c s c H S R A S h a 7 d M M h C z R t w s s s w s a i 3 $ X o g a 6 q e e d 4 : = : 1 * 4 : 1 p i x a P B x t 7 w r ",
"f f V V V z V K c z S S k a 8 a h n W R k B z S g a h d r e e 0 0 ; + + @ y 0 i e q 6 e 4 ; & # , ; x d l V e d a Y F V f r w s ",
"l f f l f c B z k s l k f r w k B U F ^ ~ W c B w 0 a r e 6 3 , , , & X $ 0 M e 3 6 3 e 3 * # & ; , e C v c r k B L A c f t t s ",
"t f w r f s c c z z z z s 7 h k u z F K F t s k w 9 0 e i 3 1 & ; 0 ; & = & i 6 a k 0 6 < * . X ; & , 0 k B t c A P F f t s t w ",
"s s s r s f z z f z V z s q s B z f z B B B f f 7 4 3 0 q , 1 & : 8 ; & 3 * T i B F y 4 ; & . $ 4 # = M d C t l x B B t s w t f ",
"l l k w c k x f f z c c t r s x B V v v c B d k 7 4 : 0 e 1 & & ; 3 , ; : , C b A k a j 0 1   ; 0 0 & i M Y e d k S F H V s w w ",
"r r l c c l l c z V c c s r f c v B c c c v f f q 4 ; * , & & & 3 3 6 4 5 q J k B P n d N M . 3 T M 1 0 p D T W c V P R G m z l ",
"w w t V F c f V z c l l w t s B c c k f c c k s 4 = O & & ; & & 4 ; & O O 4 s x T x d e i g @ 3 T p b b i M W F c v m E G V u l ",
"w w f l c c c B c x f f f 7 r t l c B C c B a a 3 $ @ $ & , 3 , 6 4 # . * c V x M a d 0 4 8 @ & Y i p 0 3 0 6 ; t B B G c c u w ",
"s w r l v V G Z c V l z c w 7 a z B V c v c d e 6 ; @ & 4 , , ; < 6 < e , 6 J B Z Y V d g A 6 & b p 0 b e b b M W J x C B f q r ",
"s r r s c z c z c V z z f w r f V B V v c k s 0 0 3 = @ # 0 , 6 e 7 < 5 < : J x M d d e 0 0 0 * e p i b , i b i M e , q x 0 7 7 ",
"t w r u V f V V c l s c f w s k V Z E J c c f e q : : 3 ; 4 , 6 , 6 7 : < 7 d j x d d e 6 6 4 * & d 6 p 4 e p d e t e a k s s k ",
"w s c v c z B V c c l z f t r l c V Z Z c k d i i 0 3 8 , & ; 3 7 6 < , ; 6 3 i k e d t e s q 4 & . @ & 6 d x d p d d x e f c s ",
"f f f c V c c c c c f c V f r f z V v c f s e e 7 0 6 4 = $ 3 4 7 6 3 6 6 e x n e a d x f t 7 1 ;   . 6 d x J x x R ^ F B B B f ",
"t t f Z K Z V v c l t l l t w s z c f c r r s r 7 4 3 4 : $ 3 4 e e 6 , , e e 6 D W d i a 4 : 4 ; @ , M M J W J K ) { F B c l f ",
"f f f F E C c C x c f c t l w 7 w r x k x x c l t w 0 i 8 ; 4 4 q e 6 < e e j e x c C e r a d g , , d M x x Y J R | o.J z z r s ",
"k S F f C s c J C V c c l V k 5 7 f k c v J Z c k d q q 8 = 4 0 e s 5 5 e e M A d e t e i d d d 6 & d M p d J x H F Q J S m r f ",
"R a J C k c V Z f Z Z Z c z s w r B B S Z V c l a 7 > 4 4 : 4 d d a 5 w q p p M } F a r e d g p i 3 d A m m U U C a R S B m h s ",
"s ; F d c f c c c Z v l f f w s s B V E ( E V t w r w > < 6 w k C q * 0 e N ^ Y ] W j j d a a i i ; 8 p n S ~ | H h [ U A F E w ",
"k 6 a ; r s c k c C k k w w q 7 r f V K E H l w s w r w q r r y d d a k e < k d k d d h q a e a a 8 y y A P ` X.F 7 S S U U U s ",
"6 * 6 4 f x s 4 6 s 7 f t f s 5 5 t c c E U Q Q c f t K / B a 1 0 ~ C B d 4 3 i [ O.O.n i Y F D ^ T R $.B D ` } E m a m E H V z ",
"D Y ^ a C W R W  .C e C M a d x l c V / X.@.$. .H Q R H R F P P ( U > m k B H S X.@.X.[ P N #.U ~ ' ' ..L u L G G H U V H E k Q ",
"Y J W B ! ^ W / { { } Y W M a x t f 7 | $.O. . .( Q G ( H U ` ! } S 2 m A m ! f / $.@.! [ ] ..L P o.] @.L % 9 u m z f u m E 2 U ",
"J J W F ^ { R ] |  .@.@.@.#.} J V F H O.$.O. .K G [ R ( U H [ ! X.F s X.@.~ h > | O.] ~ ] } ] ! ] ] ..@.X.U n u G m s 9 m [ m E ",
"J B R R { o.{ | }  .@.#.#.@. .W Z G /  .Q R _  .G G Q U U ~ | ] @.U 9 s h O.S S ..X.O.X.~ ....o.@.@.@...X.U U U @.U ~ u m G f G ",
"H f R R { | ~ F ^ Y { } ^ { F F z G  .H z V  .Q F c H H ~ o.O...E U L n H X.U @.X.@.| o.E ..@.} ! ! U ] ! : 8 A ] ~ I 4 a z w V ",
"R R F B P { W B S D W | ^ { W Y H U E H X. .@.$.%.*.X.~ / [ / D V S G ( [ B B h ~ ..~ ..~ ] ] U U N g 1 j - % b A A n f n a z [ ",
"../ F U ] [ ~ ~ W D L D M B A k h H G c H G K +.$.X./ ~ ~ ! S y w S G E [ G w h ~ X.| } ..[ H S g m y 1 g 8 y ` W N y n m u ~ X.",
"_ / R F o.o.o.~ W D D N j D A n u m l t c f K  ./ _ | [ ~ S D 9 % h m ~ U s 9 U [ E @.} / m s 9 a A g h B 1 j ] L g a a B u (  .",
") K Z V P U U S j A P a y A A W B h F B F { $.#. . .X. .V k D a u P u H F U ( z U [ X.E h u u u h Y 8 2 n 8 y I I u h - 9 S [ O.",
"F ) Z k F P L m y j A 3 y A A L n U F m V J ) O.| O.O.Q F A R 0 9 U X.F U F m u h G U U h m u 2 n B b j n y N ` ! n u m m U ~ Q ",
"E R V k L R I A b N L b b Y R n n L ~ R { R $.&.$.&.O./ U S D h h U ] U E U k H m X.U U m G S u n B h a B j L ' ] ! S S V U Z l ",
"/ ..| E L D I P L N L y A I ! A j k R R R C  . .$. .O./ S P D k h P S H H s u u m U U h u h u A L L B L B ; L ! } ! u k S U U [ ",
"z ( { R F D I R L L I b L U T I M k k A A n } Y | +.o./ R D L n m m u m u 9 9 u u S m h h m h u N N p I y $ L U ` T u D ! F c G ",
"B Q J S B D A A g N L y b U L P N n n Y F C { W ~ / ^ J F S L g P m u U m h G u S U U m m S u u u p N I b y N ` I N b L U V z V ",
"X...R W P L g N p N L - 2 L L L n y h F Y T o.{ / ] | F n f g u m h 7 s u U G V h L m u u m u h U L I U b p ` } ` N N D R W V F ",
"F ~ R J A n L n N L ` N y L ` ] A j A A W T  .) R ~ ~ P S B D L U m u B A u h S 9 U S G u n A m U U L I L p ' } } ' A B ! ~ G F ",
"~ | ] ~ S m m A n n N y j I T ] ! N L ! Y C ] | S A A S L U L A U L u L h n V h m U U U S N L N U L L U L b ! ' ] ] P F ! ! U R ",
"H S ~ U L A b j n N L g n ` ] ! P h S U T Y { ] E ! E S L U U L U L m F V m S u U U U U S n I g L b g I u X m ` ` ~ A F R ! B F ",
"A a A U P A b n g N L n L I ] ! P P h ! U ] O.O...] U U V N n u L A u S m u u 9 h A U U u y N N L N L } L - n ` } ! k A P R k g ",
"D a m U m h B m n N m N m D ! ! L P A D z D { ~ U m n S u N N m ` L N U n m h n S m h U n u g g N N g L j 3 g ] } ` B a B H A S ",
"F m R R F A m m A B P F D S R L L A m n f y L D B h 0 0 y A n b L U m N g b n b L m U U n u N N u g L L g - b ` U U n h m H F V ",
"f n R F F P k h y h D A A P ~ L D n k n 0 h ^ ^ D n 0 y y u b b L N m U g 9 u y u h P P n y b u u b L L g y L L ~ U z s m D k a ",
"k m B F F S f 9 j M D I A P I A n n j n g j A T I D n j g y h N L m A U b g u y u u S P m u b h n n n b u w u B U F z h B F B a ",
"h k F D F A j u f A D Y ! P B n n M j g n A L Y I ! A y u g j n U N u L h u u w u h A U L u n y u n h h m h n F P F z z B V z a ",
"B A F S R A k D k n A Y L n n g y y i g j k N L a y 9 9 2 y n n m h u u s u u n S u S U P B n b g u 9 b m m S G G F m z V V h s ",
"h l A S m k m h k h B B A m A k y g y j g M M A h a q 9 u q u y u U U u m h q u k w m m A b u y 8 p p u h h s k F V f k z A z h ",
"s z h k z h a s f h P A A n A M a u q g j A A D B k a 8 u y a 9 u m U h k h s n s h U m q y g n 8 y y g n u m z V V l s m B n u ",
"a s s h h w 7 9 q 8 h n n n j a i y 0 e g M n k a 8 6 2 0 9 y 8 u m U U n h w u 9 u F n y 9 y b g g g g h m m S B V V w u h u 7 ",
"a s k h k u 9 9 y u m n N n m h 0 9 q 0 g g 0 n w 4 7 q u q y 0 g h L U n u 9 9 9 y g u a u 9 q k h g M m S B z B z k w r B a a ",
"a f k k A m u h u h A m g j A n u 0 9 8 8 4 8 h 0 0 q a u g u y N N m U m 9 u u w a h h s a 4 u j y u a V k l f k z s w f n h u ",
"w w s k k a h h z s m k y a n M a h m 0 8 4 8 d 7 k k M h n u 9 h m m U S u 9 9 q a B k k a 7 g h y h p f m l k z c s w k A k a ",
"a a a a A h w 7 k a A B A A S A a n A a 0 8 : y 9 a g a h h a u h h h U m h 9 9 w a k n h u u h j g h n n h h h V c l t s m h u ",
"w q s a z s w s a h F V H H S N h w h u q 0 : a d k m n h h y u N n u z m u w w a a s z a a u a h n g j k h s l c V l k k h u q ",
"r s w a f w > w w s l m F Z m h u u u 9 4 6 > s a 7 5 s 7 7 0 0 m g S B m w w u z c h r a w s s k n m m z A A z B m h m A s y 7 ",
"t t 7 > w 5 2 7 t f l w u F B z 7 w B h 4 2 > r w t 7 7 5 5 5 2 n u m B u w w w s w w 7 7 7 w r a s h q B H F h m h 7 F n 0 9 5 ",
"w w s l s r 4 w s r a z F ~ U S w f / H 6 w w s 7 f f r 5 w w 9 h u h s w l 9 w s f w 7 7 w w f a s m l F ~ R u m h 9 z a 2 q s "
};
