/* XPM */
static char *result[] = {
/* columns rows colors chars-per-pixel */
"64 64 28 1 ",
"  c #6D6765",
". c #6F6966",
"X c #716A67",
"o c #746D6A",
"O c #786F6A",
"+ c #77706D",
"@ c #7A726E",
"# c #7D7572",
"$ c #7F7874",
"% c #80766F",
"& c #807773",
"* c #837A75",
"= c #887E77",
"- c #857D79",
"; c #887F7A",
": c #878077",
"> c #87807B",
", c #8B827D",
"< c #90867F",
"1 c #91887F",
"2 c #8E8681",
"3 c #8F8882",
"4 c #908781",
"5 c #938A84",
"6 c #988F87",
"7 c #968E89",
"8 c #988F89",
"9 c #9A918B",
/* pixels */
"2,4<565599999685222;2-;22-----;---&---&-**;57574;***#O#$:,:,,:&*",
";-<,45<49999965422--;----2--;;;2;--&&-&-*=;7755;4,,;$#@@;,*-==-#",
"%-:,,,,2559975,;22---;22--;;;&---&-&&--&**;87;<<4:,,,-O+*=*%*-*#",
"&&*:,*:;4,555;=-#---;;-;2-&--&&#&&&&-;--*;;4<<<5<44,,#oo@**-*$##",
"-=:,,-,,,;454;**--------#o&#####&&&&;;;-&*-;2;;2454=&oOO%@&$*$O$",
"&-,54:;,,;44,-**#--#--###&&##o##-;;;;;;&--;,;*;2<;=&@+#*&*&**$#*",
"-=,55,,,;,44,-;*--###--#-;;##o##&-&;---;;;;;;&**;=;*OoO#*-*:;*+&",
"=:155<,,;;,4,,;--#---##---;-#o##&-;&-;-2;--**-&*;==*##+&=&*>*&$*",
"-;455<4;,4;;;2;;----#-----##oo#---;;;;22-;;2$#&2;*O#:-@@&#**$$**",
"-2255,42,,,;;;>-2---##-#--#####$&-;;-2;2--;;-**2-#O*;:@&:%@*::**",
";,545445422;;2,,2---##-#-&-$#-#-&-;;----22--$---*@O#-;&@=-@-:,,>",
",2;442,44454322,----#-#--#-#####;;------;--*$---*$**-*-@$&@*;>>>",
"22245424,2,57252-#$####-#########-;---------#--->$*--*&*$$&$-,,,",
"242,4,22,2;5555,-###-###&-&##+#--#$--#$--##22---;;---;*&*****:3<",
"52;;2,;444;455;-##o####--&####$-#-#-----*#-#,2,--*$;*>&:***>*><3",
",;;;,44;;52554;$#oo####--&&#---$#-#$---##-----$-*#--**$@##$$*>>,",
"-;-;;,2,272772-##o+##--$####---#$#$##--*#--,----*#$--#++####->->",
";;;;;;,4277222$##oo#-----$#--##-#-$#$$-------*----$$####$#*->2;>",
"2;*&;;,427777-###ooo#-$-$--##-#$-#$-$-----$--$**:--$###------2,2",
"---&;;,,22222-###o+o#$##$-$$-$#####--$&--$$--***$*$*-->>*->>--,2",
"-*--,2,2722-;-$#+o++###-##---#####$------$--**$*:$$--->-----;2,-",
"2;,,;25527272-##oo-#++##-#####+#####&&-$--$##***-----$--#-,-2-,,",
"22>,--222;-;;-$+oo-ooo+$#####oo#++####-&--$-*$*&$-#$*-----,,-,-,",
"2,,,,,,,2----#$+o++...o#####+ooo+++##$&$&$$-&***-$##*---*--2,,,,",
"2,;-;,,>--*$*-+oo+oo .oo+#+ooooo++++#####*&*;*****$#$------;;-;;",
"2,---,,>*##&-#oooooo ..ooo.ooo.o++oo+#@#&#****-*-*-$$--------;--",
",;;--*;,$###--oo.ooo.....ooooooo+++oO###$&----;;->-$$-------;;--",
"2--;,-;**$##-#ooo .o.o#o ooooo ooo++@&&&$*-,,**--,--->-2,,,-;2;;",
"4---;;-*--*#*+.oo  .o+-#oo o+ooo.o+O@&-*#*$,,-$--,,--,224,;;-,;-",
"2&***-**;--*##++oooo+---#o ooo+#Oo+O##*-**-22---,2>->,,24,-*-242",
";*##*,=--*$#+++#oooo--$$#o  oo+##+ooO##*$*$,>,---22>-,,,,--*=474",
",;*#-;;;-#@oooo+oo+-2-$-##++ooo#-+oo##O*$-$-,2-,2,->,>,,,--=;,75",
"22;&-2-;--##@#&##o-;-$-#--##ooo+##o+#++$**&,,<,,,:$$*>*:>;**,245",
"2;*&--##$#+++#--#+#-------$$++o+######$$&::,4,3,,---*&**-**-;:,2",
"222;*;#+-#@###;&#+#-$-22---$+oooo#$++#--&::2544,>->;-*&&$**->,,2",
"444222;&-2--2;-&#o+#----2--$#+ooo#$#+$----,2444,----*&&$$$*--,2,",
";24;2;;-2222442&#oo#--22-$$#&#oo@&#+$*-;:,2,44,=***-*$$&@$*-;:,,",
"4244;2222427552&#+##$$2---$-#*#+$&*#**-2,,,4,::--***-;-*$#$**>>>",
";;;242222227742##+##$--$$-$-###****&&&#-:,4,<;-#$****$-&###*->;>",
"2;;25222222775;&ooo#---++#$##@*-$#+O@+&*;;,;,,;***-$@#&*$#$**>,>",
";*-;4444447777-$#o+&#--$oO&&&@+@#@@@&%**-====::,---;&---$#$$-,,;",
";-;,,444747777-&#o--$---&O&&#@@+o#&&&*;**=**=:,,>;;;2,;,*++$;>;;",
";;-;;445444777-##+$--&#@o&*&*O@+o%&&&&;;=-*---;;>----;;,;#O#>;>>",
";;;*-,2,222742#&-#--&-#@&&&&&@&+o@@&%%*;=-==--;;-*-,;;;=*+o-;,,:",
",;;*-;,,2-224-@----2--$#&&&&&*;&@&%&&&*;%-=-**=;**;4;;;;;#@-;;>2",
"4-**;;,4;-;22-&&;-----&#&&&&&--&@&&*=*=**:**&**=*;<4;-==;--,2222",
"4;;;;;;;-2222-&#2------#&&&++&-#&&&&=;*&=:,*:-=;;,,<2;**-,:,3222",
",;;;;;;42222----7-;-2;--oO&&&o+#&O&%*;;;=,;;,;,=<44,::**->,252;;",
"544;:,44245,2,;;-7---2--#+##-##+@&&##*-;,;::,,,,55654,<=*--,4,,<",
"55751,14455,2>**$2--22-&&####o@@@@-**$-2,,,:=,:,<6894<4=-*&=14,,",
"<87541,44<3,,,----;--2-&*&&;$###&*-*>>;-==--=;,,,489557,*#;,15,,",
"474555<43,:;,;-*--2------;*;------>>:,>;==&=-,4,:288554,#@,<,,,:",
"<5595644,<:-;;**-----***;22-2--$&==-;;;;;:;;>:,:-:454=,<$@,:,<::",
"<555575<;,,*;*-*--&-*##---2-----***=*=;-*;;*::,:;4574;;,;*:;,12,",
"=<56555;;,,=:-&:-----$*#--&-$22$%*&*******;2,11,,,5542;,;-:,33>$",
",<9986<**:<,:;&----#--*--##&-$--*%***=;=**-2313,,,55552,32,,4,>*",
",5695<;**:55,;#&**;&*&--$$$$->-$===--=;=**%*<<<<2>5531<,,2,,4,,2",
"15795<;;;:551:*&$**-**#$&-->$-2>===-**===-*%*,64227775<,,>,,,22,",
"555554,=,<5642:-*2--*-$-$*$-->2-;;===***-;***<593,7953,,,>222222",
"558555<,455555;--;*$$**$&--->-2$;;==***=;;::=:,432<973,,2:>:2225",
"566845567157774=**#$##*#$$**->2;2:;=-=*;***-;;2;22,2<:-,>$*:2;,7",
"55775<5558887675,2-$#&**-***-;;2,;;==*;**-**;;5222;-**-&#+#>,,<5",
"515585696899885752,**-----**-$;2,,===-;*--2,,22,;-*$%*@O@*@**:,,",
",<1586799899887522,-22,----*-;;;2,-=***;*;,75244<-*#*#+@:>>>#*2:"
};
