/* XPM */
static char *result[] = {
/* columns rows colors chars-per-pixel */
"64 64 99 2 ",
"   c #0F1012",
".  c #151415",
"X  c #1A1716",
"o  c #1B1916",
"O  c #161619",
"+  c #18171A",
"@  c #16181C",
"#  c #1C1C1D",
"$  c #231B16",
"%  c #221D1C",
"&  c #291F1E",
"*  c #1E201F",
"=  c #24211E",
"-  c #2B221E",
";  c #32241E",
":  c #171B23",
">  c #1C1D22",
",  c #1C1F29",
"<  c #211F22",
"1  c #1E2123",
"2  c #1E222A",
"3  c #1F2530",
"4  c #232324",
"5  c #2A2523",
"6  c #262927",
"7  c #2C2926",
"8  c #24252A",
"9  c #292629",
"0  c #26292C",
"q  c #2B2B2C",
"w  c #322522",
"e  c #3C2723",
"r  c #322B25",
"t  c #3B2D26",
"y  c #322D2C",
"u  c #3B2F2A",
"i  c #2D302E",
"p  c #393025",
"a  c #34322D",
"s  c #3B332D",
"d  c #3E382F",
"f  c #242631",
"g  c #262933",
"h  c #2B2C32",
"j  c #262B39",
"k  c #2B2E3A",
"l  c #322E32",
"z  c #2E3134",
"x  c #2E313B",
"c  c #333334",
"v  c #3B3533",
"b  c #363834",
"n  c #3B3A34",
"m  c #33343A",
"M  c #39363A",
"N  c #35393C",
"B  c #3B3B3C",
"V  c #43342D",
"C  c #423A2F",
"Z  c #4D392E",
"A  c #423533",
"S  c #4B3631",
"D  c #443A34",
"F  c #4B3932",
"G  c #423C3B",
"H  c #4A3F3D",
"J  c #503732",
"K  c #543C34",
"L  c #523F3C",
"P  c #3E413D",
"I  c #434136",
"U  c #42423D",
"Y  c #4A433D",
"T  c #4A4A3F",
"R  c #544138",
"E  c #684639",
"W  c #343641",
"Q  c #3B3741",
"!  c #373941",
"~  c #3C3B43",
"^  c #433D42",
"/  c #3E4041",
"(  c #3E4148",
")  c #434243",
"_  c #494345",
"`  c #4C4B42",
"'  c #42444A",
"]  c #4B4349",
"[  c #4A494A",
"{  c #504F45",
"}  c #50484E",
"|  c #4E5046",
" . c #535445",
".. c #50544E",
"X. c #59574A",
"o. c #585A4A",
"O. c #474954",
"+. c #4C4E5B",
"@. c #4F5350",
/* pixels */
"# q q h 8 7 q f q 0 q l 0 q 8 9 l 4 0 q q 6 q 7 4 7 4 i h 9 9 q 9 q q 4 2 6 4 0 q 4 0 2 6 7 = 0 i 0 2 y q < 9 4 q q 8 l h 4 7 a ",
"4 0 8 0 q 9 h q l h 0 h 0 f j W m g 4 8 6 6 7 0 2 8 q h f h h 9 9 2 8 q 7 q 0 z z 0 i i a a c 0 c g f 0 x 8 9 h 8 h f y 2 4 G q ",
"4 2 2 > # < 8 8 8 8 > 4 # , : 8 @ , 6 2 4 > > < 4 8 8 8 4 4 2 % # @ > q 6 6 4 6 # * 6 = 6 6 i # : 2 2 < < < < 0 4 4 4 8 : : 4 # ",
"m q 0 g l m M M h h g g h j 0 N m m W k m x ! ~ x g h 0 c h h q m l W N h B i b q 7 c i c 0 i 0 4 6 8 q g k h h 0 q q h h W k 0 ",
"f 4 , 4 8 , 8 f < < , < > > < 0 # > # 1 < 8 , 9 q 4 2 , # # > = 4 # # @ @ @ = * 4 % 4 # > > > # # 4 > > > < > # > + , < 8 g g f ",
"Q m l j k , g k j k j g h h m B ^ H 0 P m M f k q g j f h 0 h c Q N q q h c b i 9 c h h x k g 9 l c M k f h 9 M b 8 h h c x j m ",
"f f 9 3 2 2 8 , 8 < > < < , h m m D # 6 4 > < < > 8 2 > 8 9 < l c q 6 i 7 7 7 a , : , 3 8 2 > 9 c h h 4 9 : > 9 # > f , h g 9 h ",
"W f k W W x j , ~ ' g j j h 4 h q - q 7 h h j f 8 ) B g g g h 4 q 4 = i 6 b g c g 8 h > f h k j x g g h g f g l h f g h h k k k ",
"W f f f h < , < , : , , 2 3 8 6 < , > < 9 q < , 4 2 : : , 3 g 9 9 4 4 6 5 q 8 9 h 8 c 7 0 < f , 8 2 4 8 9 f g , < 8 , 8 0 8 8 h ",
"h h j h k 0 Q m m h 9 q q h h q q l y l h x 0 W b x j 4 h g y y h h q u h l h 8 % 8 0 q f 9 9 f 9 f g 8 x h q f h m m h h h h c ",
") m k x x h h 8 9 h 8 6 4 6 9 6 l ^ l l h l 9 h 4 2 2 # 0 4 6 7 y M v v c q 8 2 > < 8 0 q l G l m g m 9 j < > : : 8 9 9 y q B _ ",
"g < 8 8 f 9 8 0 0 f # D v a v 4 8 f 0 9 < < 0 8 4 8 h g c y a a < , , 0 4 > > < 8 f < # < < 3 8 0 8 f f f 9 8 h 0 l q c s 1 3 q ",
"g f j 8 8 f 0 9 q q q X.G ~ P c q y 9 9 8 < q 8 8 f m x m M B B x q q 9 8 6 7 h j k j k h f 0 f j 8 f j q 0 8 x m m m m ) 0 g g ",
"f l 9 8 8 8 : 9 u 6 5 4 8 9 4 8 4 l h # 8 < < + 8 f 0 q 9 0 6 > < 9 y 0 > 4 < > , > , < < > 8 l 9 9 9 , 4 8 q > 8 8 0 8 4 8 9 h ",
"N ^ _ q h l h g m c m h ! +.l N h c x h x h 9 2 m ~ c k h ~ O.k x h c f 0 M l G m m k ~ m h h B U h h h B ) _ n M f ~ +.h h U G ",
"0 8 4 # # 4 > O O # # + + +   X + + + < < % % . # h l < # # X . + + O . > < < 9 < 8 < 8 < < O O # # + : > 6 5 4 % # # @ . + 6 9 ",
"W M m h 8 m B k m M m B m B h c m l x B x 0 f q h B [ ~ B N N q l m x k Q f 8 0 h h f f h m k x m m c G ) v G M M N m ! i c N N ",
"6 8 < : % 6 < > 4 4 > % 2 8 % 4 > > 2 8 4 4 # + : 9 q > 1 8 8 # 4 > < > < > # O : @ + # > < 1 > > 4 4 0 9 4 = 4 4 > 4 8 < 4 > 8 ",
"x m Q P B h h b ' ~ j M ` } ~ ^ ] ^ h c h j b m ^ ' W g U ` ] Q ^ ] Q k 9 9 h k M G h l h q h ^ ] ^ ~ ^ ] ) g W ) _ _ ] ~ ^ ] Q ",
"9 G ` ` h h 8 q g 8 2 9 q 4 < < 4 l h ` l 8 h 8 h g 2 , i q < < < 9 h < , < < # < 9 > > , 8 c c 5 < > 4 9 9 > f g h 8 6 < < 9 h ",
"q 6 h h x h 8 8 0 8 f x j h 8 z q 8 8 0 g z h 8 8 f 8 g x h h < c q f 8 8 0 8 8 8 f 9 4 q c 9 h y y < h j k g 8 8 8 0 f 0 a q j ",
"8 8 g h 2 4 < > 0 q < h 0 8 > D v , 4 8 9 8 > > > 9 9 8 h 2 2 2 Y q < > > 4 q 8 0 8 8 9 x 0 4 8 q I > 8 8 h 0 9 f < < 2 4 B q 8 ",
"q h x h 9 0 h h h h 8 8 g j g f j 2 > h q q 0 m h 9 h > h h j f h g > > 2 4 8 1 4 6 8 h h 8 > < g h f j f 9 < h y q c 0 9 h g q ",
"g g h h 8 c h g q 0 > 9 c 2 G B G = > 0 8 9 x 0 h y 0 # l f 4 ^ ^ v < 4 4 2 4 v l c n q q < > % M ~ G 8 h l : 0 h g g h M M M 0 ",
"x 8 h 0 q 0 8 4 8 8 < 4 8 8 9 u a 7 9 q 7 q 8 8 2 8 4 , 6 6 9 9 7 6 4 < % % > q 6 4 9 # 5 4 q q q r y < 4 6 > 2 < < 8 f 9 r r a ",
"h 0 x ^ _ k k h m k h k k N l F F d q x _ ^ j x q W h k z x Q y V V c q r B v y h c G 6 l l h u v _ M x k h k h W l k m y S D n ",
"8 9 0 4 4 9 4 6 % < < q h 8 q p w - 4 6 < 4 9 4 6 4 4 : a q 8 y r - % 4 = < 1 @ , > 9 > < > 4 < 8 < 6 4 9 q > 4 > 9 9 6 a r 5 9 ",
"m m m y v v l h q c y G { b b a h q h h V c v v m c l r ` T z b c h q g 0 z 0 8 9 W M x h k x 9 x v c c U U u c l ^ U c b h h l ",
"2 4 0 8 5 4 > # 4 = % # > # o # = 4 > 4 7 2 1 6 % % # $ # # % X # = 4 # @ % + # # 4 6 9 + > 2 > < 6 + # 1 * % o % % < # . # 7 q ",
"m h N N B y 8 0 0 z P M h h y l h 9 g v [ ) X.o.y B @. .m g h q x h q 8 8 q c x v b D b h f 0 q v ~ h l h c  ...G c m l y x N b ",
"4 4 2 o z 6 . + < % 6 > : # % 4 % 4 4 # 4 4 4 4 4 4 1 6 @ # + = % 4 % > @ < 4 4 5 8 8 h 8 # # 4 # = 4 # @ : 6 2 1 1 # @ = 4 5 4 ",
"m x i q 6 4 7 x a c c m h m U m c c g v D D a n D n c m x h B ~ l c h h f 0 0 9 8 h 7 9 9 q m q b n G b c c v m b c l N U m q b ",
"4 4 r r 4 # = = 4 8 5 4 # : 4 4 4 4 < 5 5 = 4 % % 5 9 4 < # > < 4 > q q l < < q 4 4 9 4 1 4 < 4 < 4 4 # % < 4 7 6 4 > > 4 4 5 7 ",
"m q c N z c h q l h y c h k s D s p G B c c M h 9 k h y c h h V a 7 6 q 9 8 > 8 8 q b 4 8 q v t a d V x h z y h h q q h s d a c ",
"q 7 q b z h q r f q y c c h 5 5 6 6 r 5 a h h r q h q c m l h 5 5 q q v c h 8 > 8 7 i q 4 2 5 q 7 5 - q l c c q h q y h 7 7 7 q ",
"c m l 6 5 q q h y y 5 4 6 9 q q y 5 h l 6 9 q 9 h y r = 4 8 9 q q y 7 q 8 6 > 8 q 9 r q 4 9 l 6 r 9 h q 8 4 6 r l q 9 q q q q a ",
"h h h 3 a s y y y u w M B v z i s r 8 8 8 a u y z y s - ) M b h q v r 8 4 4 4 2 4 0 9 y 0 8 0 7 V q h n n ) 5 p y h y a a q u c ",
"2 6 8 8 0 1 8 < 8 9 0 g 4 4 6 4 6 f 2 8 6 8 4 8 * 8 9 0 0 4 8 6 4 0 f , 2 5 % 4 # > 6 > 5 , 2 3 8 4 4 8 4 8 f 9 8 < 8 8 6 4 0 z ",
"6 9 z 6 0 h h 4 b q h k z B b 6 9 h g j q h h h 7 b h k h y ~ z 6 q h j h S h b a a b l S 0 g h q 6 h c h h h h a 9 q m z 6 q h ",
"9 4 6 7 r 9 5 4 6 = + > # 4 8 # * # # 4 w r 0 4 4 = % + 4 + r 4 # % # % < 5 8 # # + : < 5 4 = # 4 = 5 7 % 4 # > = 6 = q 1 + = 1 ",
"z z z 0 8 z b x z h 0 x c q z c c q s i 8 0 z b x i h 0 x a y x c x q a 9 8 4 2 8 9 6 4 q h a q x h 0 c c z 0 j q m c z x x z z ",
": * # 1 1 1 5 * # # @ # # # * 1 # # = = 4 = = 4 # # # X # # # # : % % $ X % # : 4 = = % % % 4 % * # * # # # X # # # = 1 # # * * ",
"z i b c m c b i b v c d d c n d n n n b b c c z y v b n d v c C P P n c l v k k k z q x l c i m b c b c b n b n s a c b n b P n ",
"* 1 > 4 1 1 4 1 6 8 6 7 r r 5 = 7 6 = = 4 4 1 4 4 6 6 5 7 7 r 6 = - = 4 4 e < : # % # = 6 4 = 4 = = - r q 7 4 6 0 4 = 1 = - 7 = ",
"c v r q q i u c a a - q r 9 q y q 7 y c 0 i a a a a r = y q r 9 r 7 = 1 4 8 q a 8 q 9 q 0 q l 6 7 q q y 7 q 5 r y b a 7 i i y y ",
"V r D w 6 0 7 7 4 4 o a 9 y r 4 4 = A V 5 0 7 5 6 6 % = a 5 q r - = 4 7 = 7 5 5 4 4 6 7 v q V 4 = 6 7 r 7 i = = = 7 7 6 6 4 = 4 ",
"= 4 6 7 4 = 5 = # # 4 % > 4 q y 6 9 7 6 0 4 - = = # > 4 1 # = l i 9 q 7 7 6 7 7 4 = r 7 9 y 7 i 9 r h = 1 * 4 # * = 5 5 5 5 9 q ",
"q a a a s s V 7 a b z c d c ^ R l u y c y u d p a a c h b n v ^ D y q 6 7 7 a n s a n i > 9 i y l A _ s v v h b b r p s s v c q ",
"q = = ; 5 = = % % # o o % # 5 q 5 7 5 % 5 4 4 = % % X o % o # 9 5 7 7 # 4 & 4 * # = 6 m v 6 0 r 5 5 9 # % X X $ # % = = 4 5 - r ",
"q d t A s s r a y 5 = 5 6 h h f q c V r D s t r y a % = 4 4 c h h i z y y h c I 7 6 y v K a z c a h q m 6 4 = % c y u p a h i m ",
"> - & % # - = # # = 7 y v 9 5 < 4 # % % & % ; = # # 5 6 a b 7 < 4 # @ 4 6 u 7 ; 6 # % % % # 1 # @ < < 9 c a 6 4 % # % - # 4 > @ ",
"[ v l q q 7 q 7 q h g 0 h 8 v Y D y c h h 0 q 7 r q h q 9 q 8 G H v q Y b < a a z c G ^ c i i q c G G 6 q q f h q r 9 q M Y G q ",
"5 4 w 5 4 - = $ % # @ # % % = r r 9 9 5 5 = - = % # # + # % % 5 5 5 5 5 4 4 2 0 5 ; s v 6 r 7 4 w 5 5 % % # @ # % % % % 5 w u 8 ",
"7 5 4 % q r i 7 4 8 6 q q h v v l w 8 5 4 q q q q 4 8 6 a h h v n q 6 9 c v 0 0 q 6 4 8 4 1 # % 4 c s h h y 6 0 6 7 q h c v y 4 ",
"6 4 % % 9 y b 9 q q = 5 9 0 4 w w ; < % # q a a 6 q q = 5 8 9 4 w ; ; 8 9 t 7 1 1 1 8 8 a q y 5 % 5 4 9 6 6 4 q q 6 a q 6 e w & ",
"s r < 9 8 < 7 % 8 9 h 6 8 q < 6 4 y v s y 4 > 5 < 8 9 h 6 6 8 = 6 6 6 4 4 V C q 1 9 u q 4 z 9 q q 4 % 6 6 4 q 9 8 < 6 4 < 4 9 y ",
"K S 9 9 7 4 * = h 8 9 2 1 6 1 8 2 9 K E J 9 4 = 8 0 0 6 2 1 6 2 8 8 4 6 4 F G _ c A D A 4 9 6 4 8 4 6 6 1 1 0 0 0 4 1 4 4 2 1 y ",
"4 5 w # 4 6 = * 4 # o * # * 6 * 1 = 4 y % 4 6 = 4 = # o * # = 7 < > = 6 0 4 = # % 4 = 5 < < < o 1 * 6 * # * o * % 4 * - 6 1 1 4 ",
"l l h 9 0 0 q i q q 4 q 6 0 i 0 0 4 l x h f q q q 6 i 1 0 6 q 9 9 8 8 z j q 7 q 5 5 a c l h c 8 8 6 6 i 6 i 1 q 0 q q i 0 0 8 4 ",
"# < 4 7 4 # 2 X * * 1 * * # @ # : 4 # > 4 < # 4 # 4 = * * * # X > # 1 + # 4 i q 6 = o @ 4 = % 4 @ 1 O # * * * * 4 + * # @ # * 1 ",
"h h l q 6 M n 4 q 0 q q a a 7 q g h c h h q P c 1 0 i 0 q 7 n l q h h m h q q q 0 h 0 6 0 0 h i i h 0 q a i q i 9 4 c M 0 q 0 q ",
"< 8 4 > + q 1 # # # = 4 * * @ 1 > > 8 > + # q * * # * = 4 % y 4 > > 4 4 < 4 % % # * * * * # > 2 : 1 # # * * o * > % % w # = 5 # ",
"9 7 9 8 8 6 6 0 0 0 4 q x q z i q 6 q 6 4 6 4 6 i 0 6 6 h h 9 9 6 4 5 y l 9 h l 4 8 6 i q 6 q 4 4 6 i q 0 6 4 8 6 q r h 6 8 0 q ",
"6 6 4 : 1 1 4 4 4 4 > 6 8 0 0 9 8 4 6 6 # 6 1 6 6 4 1 1 8 0 0 q y 6 4 q 9 q 0 9 1 6 1 4 6 4 6 2 4 6 6 4 0 4 4 2 > 6 8 8 4 q 0 4 "
};
