/* XPM */
static char *result[] = {
/* columns rows colors chars-per-pixel */
"64 64 68 1 ",
"  c #2F2F2F",
". c #31302F",
"X c #343432",
"o c #393734",
"O c #3B3936",
"+ c #3D3C39",
"@ c #413E3C",
"# c #42403E",
"$ c #454545",
"% c #4B4643",
"& c #464846",
"* c #4C4A46",
"= c #46474A",
"- c #47494B",
"; c #4C4C4C",
": c #514B46",
"> c #524E4C",
", c #4F504F",
"< c #54514E",
"1 c #59534E",
"2 c #4C4E50",
"3 c #514F51",
"4 c #4E5152",
"5 c #555453",
"6 c #5A5653",
"7 c #575856",
"8 c #5C5956",
"9 c #555759",
"0 c #57595A",
"q c #5C5C5A",
"w c #615B56",
"e c #625E5A",
"r c #685F5B",
"t c #5F605E",
"y c #63615E",
"u c #69635D",
"i c #5D5F60",
"p c #615F61",
"a c #5E6061",
"s c #646362",
"d c #696663",
"f c #666866",
"g c #6C6965",
"h c #676769",
"j c #696768",
"k c #676A6B",
"l c #6C6B6A",
"z c #716B66",
"x c #726D6A",
"c c #6F716D",
"v c #75716E",
"b c #79736E",
"n c #777370",
"m c #7A7573",
"M c #7C7874",
"N c #7C7E7E",
"B c #817B76",
"V c #848484",
"C c #898685",
"Z c #8C8A87",
"A c #878A88",
"S c #8D8B8A",
"D c #918E8C",
"F c #94918E",
"G c #98928E",
"H c #969391",
"J c #989693",
"K c #9C9896",
/* pixels */
"HFFDDDFJFJJHJJJKGDZFGFHHJAVSSDAFHDZSZGSSDHDDGFDZCZZDDDCCZZCZNVSF",
"nbbnzgzmmmnmnvMMbvlcbgxbMclxMvllgzgllvvbzssxzbbg5sgxxsszlbblslcb",
"euye858eywreurdsyt78wyy5qtqyyy688t8yyu8685-;5e6&$;61eewq58ewywe8",
"yyyy866w88reyseewy58qw858q8q8yq66886w888w8-$;8--93>6we665ee<<68e",
"qytyt6863;>qsqryeq8qw817q75668887788wtw88w868w;-0936ww5>5885<<ty",
"yssyt8183;5qsreyqq5y888y8576<6566785q886w6<>qw7,50w663>;<8t8y6ty",
"qyyy8yy156eyuqeyqt7eww885,567675578t77<786-$95<;;66>6>;>5tt<6688",
"qqyyt8w868eyyedyyq6wwe8<<7q67t8y56tt8t5<7q;40,<<-;6>66;-<e856780",
"qqydywww58eeqydyytyyuw86sqqq8sdy6yut887888<9q06<,;7<<<;;,856q88t",
"yy8uuww86eueysgyfy8yuw6tq00yyulyyyyyy8tyyt778t,,,<88<;-5782<5<qy",
"yy56u1w1>wueusdsydyyy8t70078yglyuyyyq678yt5;,5<;--68w5<58qq5*<8y",
"t777w11w8uuey75qyg<5uy6tq708eyde6yytytq88y75,,84477yw8q7566>$;qy",
"yt58858w11ueyskhgzyyyyq0q6sssspyyyyudft818889,7757875,9,,8ww<5yt",
"yuyt8<15;<ueufkivzyuuy7eeqqsssysyyyyyy8t88yq7,407788755-,8t568yy",
"yuddq258,8eulzliuzzuzuweqqqqeqdsuyttygdstqty090syq7q755<45t,16y8",
"yuggd07u6eyeydltdzgzg86irqesseysufytyyfytytt0a0s65988,5574,1tyyt",
"fyfgdyy850qqsdgsvzuxgwq0usrsessjdsfswqsgses0as057qqq64q66;5686yy",
"uuudytu85ssssssrgsdfrrspsssssplkyqqssqydrq8tasq9qqq7q5866eyw8yyy",
"uydddgyq7dxsfxlgzsguugssfsfddsdds0i00q0see86q7qsqq7996q6qye888yg",
"yeyyty792wlsrlllgusuuyqsjljgjsddt0qs0sseqqt7088sesyqqq77;36wwyey",
"styy92-440jhssxxxfyyuuusfdlsssyfsaaskasyqsq0q7qiqsy6qqq500;58yql",
"04dly0iaiplllhvjssdgulgsilffsyyflfskkssfessqp0seqepqq055i942509e",
"t0ssasaaipnllfxjayyguguesqsklaakhlllmlssrsiqsisstdeq99220094400y",
"ytssfsa03ezljfgjasaesgdesshjskhhsslxlssssfssipqsss09009570qq00qs",
"0ssfyss7;4ssshsfklkhszr5shkhaaasqssfhasf0sssqpsqqdki42004249w00q",
"slsyyqyq940ssphssllsgdpihhssaa0aasaassjjishppjsqyssq09554455qesq",
"lfttt88e900ssjkshxjsggpdsssi90s0sahhishhsssspseessys099i85078qey",
"dsqq8w865000splhhssslxgssqsi0isiakaasissp0isitsesssss0iiaqqeq0qt",
"ys8q7888qw99qepdksgsjxlsqsglsfasks0qsasqqq00qyyfdssslfshsayssqyq",
"euyqq6<eqq851widglgllfspfhjxfssqqsasssssseqqqslldysssslckhsiqssq",
"tusys790peq668ppsfsxxlgedllxsprsysdsjselclessdllsyssfslxlsssssdy",
"ysgsue0ydpqqq96islfsxlxfpxlxgrsq8ygdsrsslsitssdsaestqasssyslsyyy",
"0ygsq4qteqqq700ssszlllslllstq7qqssfyesfsss0assyyst80afas78esspsq",
"08q4;7t78qq076iiqwullgasuqeyy0qeesyqersydsaassqtsyqqt8eq6;5wygqq",
"77;5970tq8790q6esqysbgsssqqqqqqsatey86wysffsshayssys866w65>;8w76",
"575478877q69qqpeyssydsyqyeqs00afstyqq66qysfslMkfdsytt611<5w<<<57",
"8<5q5780qq07q8qqsssyaqqeqq0yytqyyfstq88eqwftyyysysyy88w><<8<<<<7",
"q74q578q0qq790qe8qsytyqtyqqyytt088styeeew8y8qw18qqwu6uw175866658",
"5759q90qp0q00i075qyqq8qqqsqeyy8568eti5<86y7758w6wuww8uw:<<<;<757",
"5558q0qqqqqi0qq;586q7870qsytq86778eq0;58qw576ey8ewwwwyw:,*<=$,57",
"00qyq8q8epqq0iqq80567qqq9qqsq55786e7;50eeqqq68868uwwwyw51<1:$&7t",
"7yeqww889q07qqqeqtq8qsywqpqqe8666<<779qq80qq68wq88yuwuw<8<w1&-<7",
"<8w8w8888e956qqeyeq8ysrqqw9pewq855qqq56q88788w88y88wuuw6y5yw-;8<",
"5<88wwww6we8qqqww57qee8qq8wew8865qqsqq66ewqyw865688wuywwu<1y,,,5",
"t7wywwuw<668pwpw668ss878q368wqq65qqip356y8wwwwyeuytueu88w>6wq45t",
"ytyyuyw16w8wewqww68uyq95w5q69663568q688158wy6ew8y1wuue816>1w8878",
"qyyyyww8<w8qrrw8857yyyq56er63w6356686ww65q8y6e86811yuwe888w88575",
"eyyyyyy8556eewww5;,wytqqq6e6661668ww8686788e8qww8ty8wewqqe1w68y8",
"s8ewrrw1306perprw3=6rqp6wi6pp861181w1<77t7wwwuu1yywww77u8w1ww8tt",
"ss88w61629qwwwrw663;6qpqw66wr863118816wuywwwwuww1w1wu11117t887wy",
"y58yww61$3w6ww16ww339pi89w666661618t8wwut8788wwwwy111w6788t81<<u",
"u1wwww31$36werep1139q3333166633368t<<wwuw87w1wwwww1w1<688w7w,t<8",
"81eww136;3;1wrwww119p9166w1166311ww<11wwwu781ww8w8w111,11wwy1711",
"8www1>6139i1ww6wr66w66p666336613681811wwww88wuwwu11<<1:6><1ww888",
"<8wr16w19366wrrww6666q63qq6866618w6wwwwwww1ww#uu81w1<868,,<8786<",
"<18rwwww9951wrrww816661;16936ppwww8wuwuw111w1ww#161116<8711yw7<<",
"65ww66rrrpeeerwww119666w69313688wwwww6wuw1#www116<6187*<<1,trw81",
"ewwwwerreeepprrpw1939epww6631eewew8w1w6rw1rrwww18w111<*51y<618wt",
"eeew8wrpppwezpzpw3366ww6w6696eeeww8ww1rrw11w1w1w861<;&&5ww<6<8w6",
"1pqewpepe66wrgdrrw666wpppp8weeeqw8yyw86wwwwr111rw1<<>6,:>><7<186",
"36p6qppreepwrsewre68eeewwqqweu8qr88wyww61#ru1wyyw1%*$<<5,*><<8,,",
"q6ewq3ep8edprewe88698ee9696i6wwr8w8yyw6>r11uwwwww>,,-,-<,*><6617",
":>3>#$%11565611>>>;>;3>3:=;;>>w:&><<1*$###1##::1>>$&<:#*$#####:1",
"o@@. .X@o+#@@O@OooXXo@+@+XoXX@@oo@O.+O..XX@@@@@#O...++OXX.o#OXoO"
};
