/* XPM */
static char *result[] = {
/* columns rows colors chars-per-pixel */
"64 64 126 2 ",
"   c #342F2D",
".  c #36312E",
"X  c #393432",
"o  c #3D3A35",
"O  c #413E3A",
"+  c #44433C",
"@  c #49453D",
"#  c #4B493F",
"$  c #474642",
"%  c #494641",
"&  c #474944",
"*  c #4C4B44",
"=  c #4C4C48",
"-  c #514E43",
";  c #504F4A",
":  c #4F504A",
">  c #535045",
",  c #5F5847",
"<  c #54534C",
"1  c #59564C",
"2  c #5C594D",
"3  c #565653",
"4  c #595752",
"5  c #575954",
"6  c #5C5B54",
"7  c #5D5D5B",
"8  c #625945",
"9  c #635D4D",
"0  c #625E53",
"q  c #605F59",
"w  c #5F6057",
"e  c #5E605B",
"r  c #67614F",
"t  c #69614F",
"y  c #646155",
"u  c #6B6555",
"i  c #6E6956",
"p  c #64635B",
"a  c #6A665B",
"s  c #66695D",
"d  c #6C6A5D",
"f  c #716752",
"g  c #746A55",
"h  c #726D5D",
"j  c #786F5B",
"k  c #75715E",
"l  c #7A725E",
"z  c #656562",
"x  c #696762",
"c  c #676962",
"v  c #6C6C63",
"b  c #6D6D6A",
"n  c #716E62",
"m  c #716F6A",
"M  c #6E7065",
"N  c #6F716B",
"B  c #747264",
"V  c #7A7564",
"C  c #7D7966",
"Z  c #74736B",
"A  c #79766A",
"S  c #76786C",
"D  c #7C7A6C",
"F  c #716F70",
"G  c #747472",
"H  c #787773",
"J  c #777972",
"K  c #7C7C73",
"L  c #7C7C7A",
"P  c #81735C",
"I  c #807561",
"U  c #827A65",
"Y  c #8A7D63",
"T  c #827D6B",
"R  c #817E72",
"E  c #807F7B",
"W  c #7E8173",
"Q  c #7E8179",
"!  c #85816D",
"~  c #8A826B",
"^  c #838274",
"/  c #8A8574",
"(  c #8D8975",
")  c #84847B",
"_  c #89867B",
"`  c #85887C",
"'  c #8C8A7C",
"]  c #918971",
"[  c #918C7C",
"{  c #98917B",
"}  c #7F8180",
"|  c #848482",
" . c #888782",
".. c #878983",
"X. c #8C8B84",
"o. c #8D8C8B",
"O. c #918E83",
"+. c #918F8A",
"@. c #8F9082",
"#. c #8F908A",
"$. c #949284",
"%. c #999585",
"&. c #93938C",
"*. c #9A978C",
"=. c #96988D",
"-. c #9B9A8D",
";. c #949493",
":. c #989794",
">. c #979894",
",. c #9B9B94",
"<. c #989798",
"1. c #9D9D9B",
"2. c #A29E8F",
"3. c #A19F92",
"4. c #A09F9B",
"5. c #A5A395",
"6. c #A4A39B",
"7. c #AAA69B",
"8. c #ACA99E",
"9. c #A4A4A3",
"0. c #A8A7A7",
"q. c #A9A9A4",
"w. c #A8A7A8",
"e. c #AEAEAC",
"r. c #B6B3A7",
"t. c #B9B8B6",
/* pixels */
"o.*.&.&.;.;.o...o...o.o.o.o.| ) | )  .o.| _ ;.:.<.;.+.+.o.o.<.<.;.;.o.o.;.;.;.;.;.;.;.o.o.o.o.o.o.| o.o.| ..o.| | #.o.<.<.;.;.o.",
"&.,.X.| } L L L L H G G F b m m b b b x x x x x m m v m F b F F F F b b F G F F b v b b F b b b b F b F F G H F J G L } | o.<.1.",
"B T j p Z v x n m b z a v a m q z z b x v x q a z x z x x q z z c p z b b b c e z 6 c v z z z q z b b F c b b b c z F G z N Q o.",
"a B n o.q.) L 6.%.Z X.+.A 1.6.R L 9.o.H 6.:.H 4.9.L 4.<.F | w.| | 6.) F 1.1.L ,.1.G ;.6.F ..4.H L w.<.L o.;.G o.9.L ..w.| G L W ",
"g g g | ;.Z n ) / d R ' D O.*.J H ;.| m O._ Z  .o.F ;.;.b G o.Z m o.J Z o.o.b ..| b ) X.b } ;.G H ;.o.L o.} b } E b G ;.} N b v ",
"i a 0 a z q m m K H B A B n A n z b m d m m Z H H G G L m F m m n m C A J H b M Z Z S v b Z b b G F F G G G G G b G z z F b s d ",
"p d a a m F  . .+. .K R E S L +.o.o.+.+.:.;.+.X.o.o.+.;.;.<.:.O.O.<.:.-.o.| X.o.X.X.=.>.o.o. .o.o.L G } } } o.o.X.| G G Z y w k ",
"y V V V V a 0 1 > ; 1 0 v a q z b b F b v m b b b b b F v m B s a Z A n Z v c b v v v N F b z c b 7 z F e 7 3 3 4 5 7 z a r 9 d ",
"0 V B S n B v < - % + p x d i a d d d a v v B D A F H m F z m V H m u f h c 7 x b v 7 4 c b b b z b F F 7 $ & : < a 6 2 a u u 8 ",
"g I h T T D B 6 6 1 * n ^ S ' / ! D ! D ' W ^ O.&.o.<.<.;.| X.*.2.[ E / K J b G b B d G H ) ) L L ..} H z & < e a Z p 9 h B i i ",
"B V V C D B S p 0 9 * d A R X._ / ^ $._ ) X.#. .O.:.4.9.9.;.o.*.2.+. .R S Z v G H Z K ) ) } K S L ..L G 7 & w z Z S p a k [ _ U ",
"i C S S x c M c 1 0 - u j C / ^ ) / &.` D ^ &.` X.3.4.7.8.;.R _ / E / H B a p b m H J H J G X.,.o.Q G b 7 ; z 5 K K h i V D v j ",
"M Z B S c s M b 6 u - 6 g i A ^ M O.>.X.^ D K D ' 6.5.7.6.+.' _ T E / C h a c Z Z H D D b b | H Z F v b 7 : p w S ! W C D M M v ",
"N M B N N c v v 0 m 3 < s Z X.' ' ,.1.=.-._ ) W _ ' ,.6.>.^ ' ! T R T R B a z v B v K K H L L G F o.G b 5 3 F p n W S n v Z M M ",
"S B W M Z N J ^ B B < < p Z X.$.) 1.9.1.-.( ^ S S W M #.&.K &.,.G Z V V S m Z d d B S Z m A m Z o.;.N z 5 5 c M v k k l B S S M ",
"k S M M M v Z K D a 6 2 0 B ` X.X.;.1.1.=./ ^ $.&.&.b X.;.J &.=.E m m h p z m n v x s v Z A R  .;.o.G 7 5 w v B S M ! ( ` M S B ",
"B W Z M s N v S C y B 6 y N D J ^ 4.9.;.o.` X.J Z ` ;.>.X.Z Z J J y c B b b G G Z Z v m n A R K L } G 7 7 v v K ) A S T D S V B ",
"M v Z S D M c S D y v y 6 e Z 7 S ) 1.1.=.4.=.N c S ,.1.` ` Q c Z H Z Z F b G G b m G m H Z V m 7 G z 7 7 s a K Q H S D S W D S ",
"M S S ` W Z S W W d a a 4 e S m 7 v o.6.6.,.X.) J D &.#.#.L Z e Z G Z D G G H Z m z b m H L b z G L 7 5 6 7 z B V K K K W ^ C v ",
"v B S S M S W K D n 6 s 5 6 b S N c b G b ) ) ! _ ) K J J N v L M y x v Z L L m v a Z d v x z L } F 7 7 z 6 n v V C W ^ W K B S ",
"V C C C W D W D Z n y d 6 6 s M K S v c b _ X.' @.X.L c p e 6 L 6 6 6 p p H G z b H v s p a Z | L z 7 7 z 7 d j B B Z D S N x M ",
"j d S D W W S Q ^ v w w y 1 6 M K D J H } J ) #.X.x c K ` L = & & e H v v b b c S Z s G b S Z K F 7 6 q 0 s v i V d U U ! S n M ",
"i d S Z S C W D K D p 5 s p p p v D H G ;.N L | b v K J | H z 3 w w B H G b z F Z Z b H n m K m z q z v 0 h S B V j ] ( ( Z n n ",
"B k k B S S C S ^ _ v p x S n p 6 A n | o.L S v Z K O...| c v m c * 6 G G F b b G G Z H Z n T x 7 z m h a n H A V R ( ~ [ D M M ",
"Z M V Z M v d B W ^ v p M S s 6 p s b G K K m G &.1.,.;.| c 7 c 7 * 6 p G H H G x Z Z Z N v i s 7 b Q Z a A C ( / D T l T D C Z ",
"s i d B S N N S B M M e v @.x 4 v 7 v 7 b E s K 6.,.Z v L 7 3 7 7 3 7 v b x S H B B J a 4 a p v 4 b &.v d ^ / %.O.A S C i d B B ",
"s V d k n V ! ' S D K S c 5 * p M p A 4 a K S Q &.O.s 4 G b 7 b c 6 c Z z V D H S K ) p > Z c v 6 % 6 y p U ( _ ) A d B d r y h ",
"B d r 2 y S D / ! ^ ` S 5 : 6 J ' N p ; s ^ ^ K ) S K K F z b G G b c p a C M Z Z K L p & w M ^ H < > 2 U ! C _ / C V d i d v u ",
"S l g d s v S K ! ! ` J M p S @...c = @ S ` [ Q Z v S v 7 s F F F G z e v D s v Z Q K N o = c K H b p d ^ / C ! ! S W r p r i s ",
"S l g V D S Z C ! ( S Z C n 5 : = O . : ` $.` Q J v p 4 c < = = & = < c e c x A N Z X.K * X O & * < p B D ( ( ( ! C ! W i r u n ",
"C i r l ^ K K W ( ( S S W M 6 = o . O i ^ ' B J Z s b e 5 o $ O + $ O 5 e F v Z Z D ' D v + . o : 4 i a M Q $./ W ! S l C k p s ",
"k h l h D ' _ ` Q Q ` ` S B v s w < s S W S V M 6 7 * + + $ 7 5 2 6 $ O O & w 6 b S S S Z e < 5 6 y x b M ( D W ! W s k W V s d ",
"V n V Z S ` @.` ` K ^ K S C k Z D M M B K S a 6 4 * * # < 7 x p a s < < = * + 2 w c J ` N p b Z p p M J W Q ( ( D C S B B B d B ",
"C M k D ^ ^ X./ W S v J D W D d K S D K C h i a 7 @ 2 0 p b H B h a q w y 2 * e s s N S W S S S y c S S Z ^ ` ' ! S B d h d j V ",
"( K K W W / ^ K ! ! n D D C ^ M s Q K D Z v h R z - i Z L D K S d s s N 0 1 * p W v M c S W ` c e W N S J Q ! ^ C k B n n B T ~ ",
"Q Q Q W W ^ T ! ' / S C C A v S y D D V C h n A # * z C A _ E S x p v v > 5 * * S s 6 p M W K s W Q M W ` Q K B d V ! A V U Y T ",
"` &.X.' K C ^ ! _ ( ~ V V m x D d v D V B a n 0 2 d y B R [ O.H s c v e w e w < 6 v 0 c B K B y S W M W W S K / T [ [ C V U U U ",
"S #.X.` R D [ / %.{ ! V V V B ^ B a V V h a B - y l V n V ^ ) D d u v a e v n 6 = a a p v H n y p J W S B S W [ T ( / C U C V V ",
"s Q =.' R D ! ! ( ~ U C C A D T a a C B v Z n ; i K T V Z O.%.A M k h e N M v y < z v v Z Z c 7 d S S M M M W W / R ! V U C B B ",
"V Q ' ` B p d Z ! ! V h l B m I h 0 b Z v j y 6 1 A T f T O.z - 1 y y e r 2 w < ; s v h m x c y p Z r u s M S C T Y V V D U C V ",
"B W W W i p s B B C k k V k V T n a H T u q g < 4 n I R T z O * # * < 2 1 u z 6 < a v M D k p v Z V i j V C ^ C Y U C T ^ U ! T ",
"d D S D S Z B v M V S l V V P V g a Z U f a p ; z I n T V 1 < < < 9 4 < 0 9 i s < p s d D S s v T A x A A C ^ K V A C U U ~ ~ C ",
"W C S Q S Z V B K D T C l U l l g m A I A m q ; q g t n V 0 V T < i h y a a m a * p D Z W K v B T R v Z v n C M A ) Z T ! ] ~ U ",
"! d S W Z C B D / D ( ~ U ! T V Z L [ [ E } b ; q x V E I u 9 9 @ 2 u V R 0 h x 1 x / _ &.&.D T R T n B c b V V R / T T ( ! ! ! ",
"W M V W W V B D / ^ ` ! T U I V T o.O.E / o.F 9 x n R R m n - O * 1 i C K A p h u B ' ) ..&._ ^ T R m h s B l l ! W j W ~ W C ~ ",
"Q S S W D Z D ^ / ' @._ T T n I X.o.n 0 1 q A q ; x _ I z q 1 q 0 2 y p A ` d 1 s B y < 4 v D ' B V A V V d h k l l l V ! C C k ",
"B B W W B S ` ` $.,.:.O.O.O.I T [ T 0 0 < % 0 G q u E T 9 q q R n p 6 2 / D i 2 H 0 # y 6 a D ' R C C A B k k l l j k k B l S k ",
"C C W S W S Q [ -.%.X.O.*.%.E R $.A q E Y 0 ; H x 0 A q 4 m - - * > h 2 u g 9 9 h - 9 $.[ k ! -.^ Z D B M k k C u l k k V S W k ",
"S W W W W W / ^ ` ` K ` 5.-.Z ^ %.) m n V v = 4 j 0 x m R m ; % % < V T d h 9 d 4 ; v T T V T %.K B ! S V v k C j d V V T / T C ",
"V S W W W W W W ' ..Q ` [ $.K B T ) R E E b ; @ 0 T L _ O.0 x q y d 0 O.R I T a % 9 h / _ R R R v s M S Z n h k n u l ~ / U U U ",
"S V V M M B S W ` @.' ` @.' B a u v Z H m 4 6 9 * 0 V E v * m a i h @ x _ Y a - 4 9 9 T T R a 0 a x C W R v d n i a h U ] ~ ~ T ",
"M d M M s M k W ` $.! S ^ @.V S V n h m v m m V x f 9 q < 4 q 0 9 9 9 0 0 0 9 i y a u u q 1 1 0 a d k / ] m n u 0 i B U ] P P l ",
"s d w s i k i M W X./ S K _ A J _ O.) _ T V V l V A A B V E x n j V V A C d V V n z u d n q u 0 6 d h h U T D l k B M C l l j f ",
"B M s h i s p d S _ K S S J K d n D x x 9 t 0 9 0 x d q x x g 0 g d B j q 6 0 a u 9 9 0 9 8 9 9 y d d u I T Z V V Z C D l l P j ",
"W B s k d 6 d S [ ( S X.&.=.-.@.' _ Z Z V B j m H R V m G n V V j B j A i q q d q 9 9 u 8 8 9 x b v 0 u U Y U I D B C Z U ~ ~ P ",
"i d w s w w s M S M c p 6 y n B Z h V K A m n A E Z L H v u g q u d g C n 0 9 6 4 4 8 1 1 4 0 q 7 5 3 ; 0 a a n S k C C V l P j ",
"y y 6 6 1 6 s z 4 a w 6 p 2 6 2 q z x v v c p u p s n n h h n u d j h C V a q z z q 0 u a q z z q 6 z 7 9 0 q 9 i h V C n V j V ",
"w 6 6 2 4 v L } | ;.&.) ) Q ) | | | o.o.| | o._ R ) o.$._ _ _ ' ` _ _ [ ' X.X.+.o.o.[ ' E _  .R L L H H V _ +.E T D j j h a u u ",
"< 6 1 6 b H z c F Z b x p v x Z v c F F c z m d B n n T V i i B j j g n V n d x s p p 0 i h g u u 4 1 1 0 0 n n v x n j g u f f ",
"< 1 0 H 1.L c | Q e b L 7 p K v z H b z m m p V _ z $.$.v Z _ s D X.Z a B a < G x 7 D ` p Z _ n n ' R 0  .m 0 R ) v Z O.l f 9 f ",
": p N ;.t.;.H 9.,.H ;.;.L ) ,.E b o.L m ' E b X._ Z 6.8.H ' 7.D R 5.' A R R x X._ c =.6.S / 7.B R 8.3.Z &.&.U O.4.R O.r./ u u i ",
"B J b Z Q L L b G Z m x S A A A Z L G Z A J Z B j D ! ^ / / ! ! / R T T l u m m B v n V V C D S A A R R d n m n x A I R T Y V I ",
"9.q.o.o.;.o.o.o.o.o. .o.+.| ` _ ;.;.&.O.&.&.o.' O.&.$.-.[ %.$.2.2.O.O.O.;.O.O.+.X.+.X.&.@.o.$.#.| | ) X.o.o.o.o.+.o.O.2.2.$.*.R ",
"e.9.,.,.1.e.w.w.w.9.9.q.q.*.,.&.;.&.&.<.=.1.-.2.3.2.,.1.;.*.9.7.8.-.*.3.2.%.,.9.6.1.,.,.,.;.&.&.-.1.9.q.4.4.4.0.0.0.e.4.:.4.9.4."
};
