/* XPM */
static char *result[] = {
/* columns rows colors chars-per-pixel */
"64 64 62 1 ",
"  c #AEA377",
". c #AEA57A",
"X c #B1A77D",
"o c #B3A87E",
"O c #ADA78B",
"+ c #B1A781",
"@ c #B5AB84",
"# c #B8AE86",
"$ c #B6AE8A",
"% c #B9AF8A",
"& c #BAB086",
"* c #B7B08D",
"= c #BAB18D",
"- c #B4AE92",
"; c #B8AF91",
": c #B6B194",
"> c #BCB493",
", c #BFB897",
"< c #B6B29B",
"1 c #BBB59B",
"2 c #BEB89C",
"3 c #B6B4A1",
"4 c #BAB7A2",
"5 c #BDBAA4",
"6 c #B6B7A8",
"7 c #BDBCAA",
"8 c #BEBEB1",
"9 c #C0B695",
"0 c #C1B896",
"q c #C0B799",
"w c #C1BA9C",
"e c #C2BDA4",
"r c #C2BEAB",
"t c #C1BFB1",
"y c #BFC0B3",
"u c #C6C0A6",
"i c #C5C1AC",
"p c #C9C4AD",
"a c #C5C3B3",
"s c #C9C6B4",
"d c #CBC8B5",
"f c #C6C6BA",
"g c #C9C7B9",
"h c #C7C8BE",
"j c #CBCABC",
"k c #D0CDBF",
"l c #C7C9C1",
"z c #CCCDC2",
"x c #CECFCA",
"c c #D0CFC2",
"v c #CFD0C6",
"b c #CFD0C9",
"n c #D2D1C5",
"m c #D3D4CB",
"M c #D8D7CD",
"N c #D7D8CF",
"B c #D8D8CF",
"V c #D5D6D0",
"C c #D9D7D1",
"Z c #D7D8D2",
"A c #D9D9D3",
"S c #DCDCD9",
/* pixels */
"++X#$+$:>%=>>=@%&::>0=99&>=#$#*:=##>>,=&%%%#%$%##9@@@@o oooo@#%o",
"@++@$$$-%&$=*:%:>&===9=&#=>=$@$=:$$==&&>#%#@@%9%@@%#@@ooo##oo%@@",
"@@.+$$$>$=$$:>=$$$>=99&&$=:&#@&:=:>==&#&%+@@@@%%##+#%%#o o##%@%@",
"$@@+@@$:=%=>>==%===>==&&=%$$@#=&&=>,>>&:$%$@+@@%@#@#%%&&##&%%%%%",
"$@@@@$$$$$==>=&>=>>>>==&==%#+#@@#=>>=%%%%$#++@@@+##@@%>=#%>99=99",
"%@+++O@$*>&:>>9>=>900==#%$@+@#%@%=>9#@$$#%#@+@+%###@%&>=##%9>%%#",
"$$+O@$$$>>&==%%>=>>>>999=>%++#@@$$:>%%%$%%$@@%@$%%#9==%+@@%%%%%%",
"+$$$$$O#>>%%:>=&>&:$=&90>>;$%:$@@%>==%=;;$%@$$%##%%#&>%>$$;>999%",
"&$*>**:*>2**=,>*:=$:>==9>>*****$@=>>>%=%;%%=%%=====&*$*>>;>9%9%%",
"=*$>*>=>>,:*=>=*=$$=q>>>*,>>>*#@$::>%>>:=#o9:$9#@#++$==$:;;;9%=%",
":=>>>=>,02,>=>=>>===w>,:*>,>:==@&=9>>>9%+###$%%@@@#+$==&==>>;%%%",
">==>:>>>>>=,>>=*===>>,1,q>>,>>=@=&>>==%%%9%@@%@$+%=$#$**%%%>=9%=",
"$%%&>>>=:=>>099>%$%:>,2q,&>=&>**=:====%:>>9%+%$$$%%+@$$*###%%#@&",
"&%&$>=>*=:>>2>>>:&>&>q>>>=,000=>>=>=%=%%%%%>+%%+@$$$#$$*@X@#@o#%",
"&=$>>=$*=,>>q0>=>=>==2>=>>>00w,>9>>:==#@#%%%=>%@$%%;,>>>:%%&#@##",
";:#&=:&>>2>>>q9>>>>9>=>&>000=>,2,=>&==$@%#$%%%%%@%>%>>>qq=&&##%#",
"==%#@$:>,2>,q2909>>>=$>=>009=>,2%==:%%#%##@%%:$@@%%99>qw>>###@o#",
"=%@@@@==>2,qq2>9>=>=>*920,>==00,:>q>q;%%@###=;%#$%%>>www>>9#@#@%",
"%%%##@@#=>q>>=&=&=:>99=>,qw0>0wwq>,29;>&%###==%%%%%=>>0q>>>%%$##",
"$@#@#@@=9>9==:#====>0wwqeww09wwwq>qq>>>>%o%%%%%%%%>&&=>>=>>%#&*&",
"%##o@#@@@%9%%&#%2>,qww0wuewq,>2qq>q>;%%%%X@=%+@%=99=%%=:>:>%@#$$",
"@###ooo#%%=%::%>>>2w>>wwqww0qw>q>:=&%%%%=#@=;@+@%#%%%%&$=%%#@@@#",
"##oooo&#&==:%:=%>,qww>000qwww09q>9>>=9%##99#>%#@%@o@%@+$=:=%@@@@",
"@#@o@#&9>;%=99>=>,q=099,wwue0q9q,9>9>=%9#%9%%##&%@@#%%@=:&=:@$@@",
"$#@$@==&**$:>=>911w>9=99wepue9>q>%>9====9#ooooo##@&=$@@$==%>=%#$",
"&$++*=&=**>&&:=$=5rw9w99ewuuuqewq%=999=&9999##@#%=>==##$>=>%$=$@",
"=&X+*@$#@$%&9q9=2ewrwweweupeeqee2>==99==9&9999@#&$@*$#$%>>%%=:>>",
"&@XXX+O#@+@#%9>>1,qrpwer9wwuee1q2w09=9==9oooo#%#&$@%==&=>=9=**>>",
"$+@oo#+#+@o##&=>1eerppeeepeueueqee99>>&&#@#o@$&%>#+@@$$$**=&@$*&",
"&#ooo@Xo@+$&===>42rsspewepprepeeewq909>&#oo9>&:==$+X.X$$$>,:$*@#",
"#@Xoo@@o+@&$==#=;qptrsddrspidprreue0ww9=&#o#==:>>=$$@*=:==>=$=%+",
"$$@@@@#@#$=>,>=9>rssjkdckss5dspspspupww09##&>q>>>:$$#*>*>=>:*>&:",
"2>>$+$%;>qwwewq>1azzzf5sdkkjjddsiizjdp2>9990wwq;%$$-=:q>,:*,::=*",
"2w2>@$;>1eep4,222sjfyfiskjmbmnjnnvmmjp2,999wuurew;$;&:ew2>:111:,",
"e55>$O-<rprdrreeussahhydknvnmmvNmAAnndswwewepeppr:=:2>,221:<411y",
"5e7w>;;errepuraffj7yy74pkvvvvnNNmSSnnddsu0wppprpr2=::>25211<<122",
"ue5,;2wwerpdaazfvbaa41uasjMNmkNkjmNnnjsdserdsprr22<11125y5<:1<<1",
"rw2<-weeeprsss8tdnzfiy7aidknnnMjsmmVmnjjgdpdsrare1:--4251<::14::",
"r21<11euuskjsdr7ajjay65ydiddgnNvshznmncmjjdjgrsfi<OO<55y511*:2<1",
"r1;;->wuudmmjjznbmzjiaauy2dkjkfiihbdnnmmckjgssgaa5-<<455yy5,151y",
"a31--11ipdvgadBAAmnzagfi,1rrsjfhgzbvAcmxzjjgzgaas71<<125222eei5e",
"ar3535r5sdjirrjkmABjjzar51rrdszbvhzvmmnzjjjdbmstyr75ee5ey22uua7i",
"55i755reidjarpsgzzzzfjay4wrdadzzvvvhnAmmmkzfjzar7554eieuww22uipi",
">11775rr5u5irpszzjzCxxjguppkhjjjlbVbASmmcjcjgfjzsiaapieai21w5yiu",
"2:1r55545514upsdahzAVmndsrdjigfxbbVSZSmnsavda5dCjaajdiuaai1uiuii",
",1r7r7trsiiuiiiyylxmmmmgargsrsgcjzbzzzkdusjddiszzhysjissdd4uy2yp",
"5raaasasjs522ifsahzbbAbfaratrsmAvvVvmzdprdjjzpsscvdpdip5aa551y2u",
"isdajssgfpe11afflflxVAxagf747igzzmVzzjspujjzzsdjjfarfdssai12<5,y",
"7ijffrissp21eirdla8fbVzafa73<rarazzartsaaflzssdkaar7asaigae13r35",
"ersafyfvjvsiueijfa8lfzlt4771-rsssza8adrrita8sesczsi5sspifir5ereu",
"557fzzzbvvsdpeiaahyfyay7687177t7ri8aazzaafalf5rkdaa7sssdaseisira",
"555izlzbmjzjdipdva8yya8768a6t7t5aart7lzfayrtfrpjjgadnaizgiiia554",
"5347zzjAmzzvzuujzsy5yay737767777r77afxzjaay5tsjkzzaacsasjfsaa755",
"a74yhzjmmzjzmpujzai665778a78a8rajaaffjjli8a7tzktdmjasfzgzjjjaui5",
"y757yardnbzvVdpdjspyy557fa5777raagcjdaafttaifkztamVfssgjdjf75r55",
"ay74yfamzfzmnvjijhiy4:1377577adrskcddtdaraartkkg7zle7ftra75<1e4a",
"rt84tsecjtflzckurddr5125<14yipsarrpfjip54rterrttrgzrtjgt5<1<511r",
"t664rterr7rfmcsar5e76<4i4::-5ysfrsysduairrtrertttfxcsskt1<3:1:;5",
"8a743trtrr5sjcair5r44<1521::5aiar7sas555eeeeqe7ttzjt5ttt1<3$O$$3",
"t8rt3rrtta43rfdr5e773e3:*:,<yawyaiipy2:,q1wee14errt3er7e<31:-;-<",
"ff7trr4t37547fra7r55553>*>*1uyyyfiuw0uwueetpeeee7r44rtr4<<445534",
"atr7444e44rrajgczf7ar52=**$*2iuuhjiyppusdcnkrtrre1e4trq;--4err57",
"e<13<<3rr4e77jjzzjisae52>$:12yaykjfyauiikdkcrtdrrreree4;%O-1rrr<",
"73-2<<<rttrjaatsfdafsi5551>12iafjssaasiirrrdtttrrrtte<<-9$9wrtr<"
};
