/* XPM */
static char *_4ddbf6996a74c52f354829dd2af91b0GaXIRkb5NiAbuYna[] = {
/* columns rows colors chars-per-pixel */
"64 64 160 2 ",
"   c #2D2B21",
".  c #312E24",
"X  c #353126",
"o  c #363329",
"O  c #3A362C",
"+  c #3D392E",
"@  c #3E3B30",
"#  c #403A2E",
"$  c #413E33",
"%  c #464136",
"&  c #484337",
"*  c #464439",
"=  c #4A463A",
"-  c #4D493D",
";  c #514C3F",
":  c #4E4B41",
">  c #514E42",
",  c #555245",
"<  c #585346",
"1  c #585345",
"2  c #585447",
"3  c #595447",
"4  c #585346",
"5  c #535248",
"6  c #555248",
"7  c #565348",
"8  c #575348",
"9  c #575449",
"0  c #57554A",
"q  c #565449",
"w  c #585448",
"e  c #595448",
"r  c #595548",
"t  c #595748",
"y  c #585649",
"u  c #595649",
"i  c #5A5648",
"p  c #5A5649",
"a  c #5B5649",
"s  c #5B5749",
"d  c #58554A",
"f  c #59564A",
"g  c #59564B",
"h  c #5A564A",
"j  c #5A574A",
"k  c #5C5749",
"l  c #58574C",
"z  c #5A574D",
"x  c #59564A",
"c  c #5B584A",
"v  c #5B584B",
"b  c #5C584A",
"n  c #5C594A",
"m  c #5D594A",
"M  c #5C584B",
"N  c #5D594B",
"B  c #5E594B",
"V  c #5D5A4B",
"C  c #59584D",
"Z  c #5B584C",
"A  c #5B584D",
"S  c #5B594D",
"D  c #59584E",
"F  c #5C584C",
"G  c #5C5A4C",
"H  c #5C5A4D",
"J  c #5E5A4C",
"K  c #5E5A4D",
"L  c #5E5B4D",
"P  c #5C594E",
"I  c #5C594F",
"U  c #5D5A4E",
"Y  c #5D5B4E",
"T  c #5C5A4F",
"R  c #5E5B4E",
"E  c #5E5B4F",
"W  c #5D5C4F",
"Q  c #5E5C4E",
"!  c #5E5C4F",
"~  c #5C594D",
"^  c #5D5B51",
"/  c #5E5B50",
"(  c #5D5C50",
")  c #5D5D50",
"_  c #5E5C50",
"`  c #5F5C50",
"'  c #5D5C52",
"]  c #5D5D53",
"[  c #5E5C52",
"{  c #5F5D53",
"}  c #5F5F52",
"|  c #5E5D52",
" . c #605C4F",
".. c #605D4F",
"X. c #615D4F",
"o. c #615D4F",
"O. c #605D50",
"+. c #615E51",
"@. c #635F51",
"#. c #605E52",
"$. c #615F52",
"%. c #625F52",
"&. c #615F54",
"*. c #625F54",
"=. c #615F56",
"-. c #615E52",
";. c #616052",
":. c #626053",
">. c #616055",
",. c #626155",
"<. c #636055",
"1. c #636357",
"2. c #646054",
"3. c #656357",
"4. c #646255",
"5. c #686557",
"6. c #656358",
"7. c #656458",
"8. c #65665A",
"9. c #666559",
"0. c #686659",
"q. c #6A6658",
"w. c #68675C",
"e. c #68665A",
"r. c #68685A",
"t. c #69695D",
"y. c #6A6A5E",
"u. c #6B6A5D",
"i. c #6B6B60",
"p. c #6E6D62",
"a. c #6E6D62",
"s. c #706F62",
"d. c #6F7065",
"f. c #727265",
"g. c #75756A",
"h. c #78776A",
"j. c #77786D",
"k. c #7A7A6E",
"l. c #7C7D72",
"z. c #7E8174",
"x. c #7F8279",
"c. c #818276",
"v. c #83857A",
"b. c #86897E",
"n. c #888B7E",
"m. c #868A81",
"M. c #898D83",
"N. c #8A8F88",
"B. c #8C9186",
"V. c #8E938A",
"C. c #91968D",
"Z. c #92988F",
"A. c #919790",
"S. c #949B92",
"D. c #999F96",
"F. c #979F98",
"G. c #999F98",
"H. c #99A097",
"J. c #9CA49C",
"K. c #A1A9A1",
/* pixels */
"> j , : & + $ % = = + O + o + + : L > <._ w.} = 5 : o   . + * : : * * : % $ > % # + + O = % = = > 4  .q.$ = $ # # > - % $ % O o ",
"= , - % + = > @ .   X o o $ + - # , = 0 5 0 _ > : : @ @ = : : $ : @ o $ % : > , = O + + + = % $ & > 4  .; ; & # O > - & % $ o . ",
"% = ; > = = g = o o % # % - - , = - = / Q 0 H 5 ] 5 * @ % = 5 > : @ o O @ 3 , 2 4 $ + + @ , = + & j n  .1 ; - $ $ 4 > = $ % = = ",
"- - , 0 , > =., & > > = ; 3 , v 9 4 = g v Q <._ t.=.5 : 5 : : 6 D : * o % > - , > = = & = L 4 > ; a a ; > a > = = 3 > , ; > > : ",
", Q / L v , 9./ - , 2 : 2 n ..;.L , > =.O.=.&.&.i.1.D l l g 9 > =.> 5 $ > ; - v O.= = & = I > , = 4 L j  ...n ; ; / 9 , 3 j 3 , ",
"L ;.<.;.L L p.=.j j j , G ..e.;.F a > 9.&.w.9.=.i.8.^ ^ <.=./ 5 / g 9 > 5 2 , n 5.> > $ : 3.9 @.a  .=.a *.<.F > > @.F 5 3 n v , ",
"@.7.3.e.e.L s.i.<.7.1.2 v 7.r.3.=. .> p.9.u.p.i.d.a.i.i.1.1.1.5 ] > 5 5 > , , n F > > - > =.5 O.j 5 L F 3.3.@.> > *./ L H @.n , ",
"w.p.@.<.@.9 d.i.y.y.w.<.7.h.h.u.i.w.w.j.i.w.d.j.l.a.i.i.1.=.w.5 ] : > > > > , > z = > 9 I g.9.6./ H i.i.s.i.i./ =.s.y.<.y.y.7.<.",
"l.l.k.l.h.h.k.l.l.l.l.f.l.x.l.l.l.l.h.j.j.l.v.l.l.l.h.h.g.j.l.g.j.j.j.g.i.p.f.s.j.d.f.p.w.h.h.k.g.l.x.l.g.l.l.g.f.d.k.k.l.z.h.s.",
"f.r.u.s.a.u.s.g.d.f.h.u.a.l.i.f.g.i.w.s.g.g.h.g.g.i.i.y.i.d.g.u.h.g.i.i.i.p.d.w.w.i.p.=.e.u.a.p.i.p.j.h.3.u.d.u.9.9.u.u.i.i.w.g ",
"k.w.u.f.f.u.s.f.i.r.s.u.s.l.a.i.u.0.5.@.p.g.s.i.i.d.y.7.y.u.u.5.h.a.w.6.=.s.g.p.q.*.0.*.3.u.e.s.p.p.k.h.r.7.y.r.e.e.u.p.s.e.*./ ",
"x.y.s.g.f.f.f.s.y.a.f.s.s.c.f.s.u.e.@.5.u.g.g.f.i.g.a.y.y.f.f.s.h.g.p.i.p.w.j.g.s.0.0.0.u.s.u.f.p.i.k.v.f.r.u.g.i.i.f.f.s.s.3.=.",
"m.a.y.f.g.s.g.f.s.s.s.i.g.x.g.i.u.u.@.5.s.g.g.d.d.l.d.d.f.g.g.g.l.h.i.u.u.u.l.j.f.s.i.s.s.s.s.s.f.u.k.v.g.d.g.h.g.g.g.g.g.h.f.e.",
"m.f.f.f.g.s.g.s.f.h.f.s.g.c.h.s.u.s.5.u.f.g.g.d.i.j.d.p.g.h.g.f.l.h.y.w.e.u.l.l.f.f.g.g.f.s.s.g.g.i.l.l.g.g.h.k.h.j.g.d.g.h.s.3.",
"b.r.u.u.u.r.s.u.p.p.e.u.g.m.l.g.i.s.s.s.s.g.g.d.p.j.d.i.a.f.g.g.j.f.i.p.u.u.v.v.k.s.s.s.d.p.i.s.s.i.k.m.z.l.z.z.x.z.l.d.f.h.u._ ",
"v.@._ @.@.5.s.e.@.3.&.9.j.m.l.f.d.g.j.g.d.p.i.g.j.m.g.i.t.i.g.g.k.f.h.f.k.f.v.l.l.s.g.j.l.g.p.i.i.s.j.m.z.j.g.l.x.l.l.f.i.i.w.7.",
"V.V.V.Z.S.H.J.C.V.S.H.V.b.v.b.M.n.x.l.b.l.x.l.l.x.M.m.x.M.M.V.V.Z.V.V.B.M.M.x.b.M.M.v.z.v.b.z.b.N.N.n.b.B.B.M.v.c.M.c.B.B.C.n.n.",
"x.b.B.V.C.n.H.V.B.C.V.b.k.h.k.z.k.f.5.l.g.h.h.g.j.l.g.g.j.j.k.h.B.z.z.z.x.h.z.z.c.c.k.u.u.z.r.g.k.l.h.k.k.x.z.f.u.x.h.c.c.v.k.v.",
"c.x.v.z.z.k.V.B.z.v.l.h.g.j.k.k.g.s.u.z.j.j.j.h.h.j.f.g.g.g.k.d.b.h.z.j.k.h.z.z.x.h.g.f.g.v.u.d.g.h.h.z.l.z.k.h.f.v.k.c.v.c.h.z.",
"v.v.x.z.z.h.B.n.l.k.k.h.h.k.k.k.k.h.u.v.l.x.x.k.h.l.k.h.g.k.x.f.b.k.k.z.k.k.z.z.c.k.h.f.g.b.h.g.h.h.h.z.c.c.k.k.s.b.c.B.B.c.h.k.",
"c.v.c.z.k.z.B.n.l.x.z.k.l.j.h.l.z.k.i.M.v.c.b.x.z.l.z.k.k.k.z.g.m.z.k.z.z.l.z.z.c.k.z.g.j.B.k.k.c.l.k.x.v.v.z.l.s.M.n.n.B.c.c.k.",
"c.c.z.z.c.c.B.v.l.x.z.k.l.g.h.l.k.j.a.M.v.c.l.v.b.x.c.x.z.j.j.h.M.z.k.z.z.z.l.l.k.k.k.f.g.M.z.v.l.l.k.m.v.l.l.j.d.n.v.n.n.B.c.c.",
"z.k.k.z.h.k.v.z.l.x.x.k.h.h.g.j.g.z.d.x.l.x.z.v.x.x.z.z.l.k.g.d.M.z.z.z.l.k.j.k.h.h.k.z.h.m.z.z.l.k.j.j.l.j.h.x.f.b.z.c.n.v.c.k.",
"v.f.w.8.1.) z.z.g.g.j.g.d.l.g.p.y.j.j.M.l.g.l.z.z.z.l.l.i.i.d.p.z.w.t.8.t.d.j.l.d.i.a.g.l.M.g.h.h.g.d.l.h.d.i.l.z.B.z.f.z.c.v.c.",
"Z.n.B.V.Z.Z.Z.C.B.C.C.n.m.V.v.V.M.B.V.V.C.C.C.B.n.S.V.B.M.n.M.M.M.V.S.H.Z.M.C.n.M.Z.C.V.C.C.S.B.m.x.m.A.b.B.M.B.V.C.Z.Z.Z.C.B.M.",
"n.z.M.M.n.n.b.v.v.v.z.k.l.b.g.m.x.z.c.z.v.c.v.z.z.M.x.z.z.z.x.z.v.n.B.B.n.k.x.k.c.M.n.c.k.v.n.n.x.l.l.v.j.c.c.c.x.z.b.n.b.b.z.j.",
"B.b.B.n.v.z.z.z.c.v.z.k.l.m.j.k.z.c.v.x.z.z.k.h.k.M.l.h.k.h.x.b.M.n.n.v.k.k.m.z.k.c.c.c.l.v.v.v.v.l.l.m.j.z.z.c.v.c.c.z.z.v.z.l.",
"V.B.B.B.c.v.v.c.v.v.z.k.z.M.k.l.z.c.c.c.c.z.z.k.h.v.z.z.k.z.c.b.M.M.n.x.k.l.M.z.z.l.c.v.v.c.c.v.m.l.z.B.k.z.z.c.b.z.z.z.z.v.v.x.",
"V.n.M.M.z.z.v.v.n.c.v.z.z.n.l.x.c.c.c.z.c.z.z.k.j.M.x.l.l.x.c.c.z.n.B.z.k.g.M.z.z.c.v.v.c.l.v.c.b.v.l.M.z.z.v.v.v.z.x.z.z.c.v.v.",
"S.M.B.M.z.z.z.v.v.v.z.z.x.b.k.c.z.c.c.z.c.z.k.k.g.b.x.l.z.c.l.c.n.M.M.x.j.k.b.z.x.x.c.c.c.x.v.x.x.c.x.b.k.z.c.c.c.z.x.z.z.v.n.z.",
"A.n.M.x.z.z.k.x.v.v.v.x.z.M.h.j.k.k.c.k.k.z.h.h.d.v.l.h.k.k.k.x.v.b.x.z.g.h.B.z.h.l.k.z.z.h.l.l.x.l.x.M.g.k.z.k.z.z.k.z.j.z.z.h.",
"V.m.z.i.y.d.g.l.x.v.n.l.l.M.j.g.f.g.z.j.k.g.d.d.d.v.g.f.h.d.x.l.z.x.z.g.j.j.M.x.h.f.d.l.l.k.h.d.l.l.l.B.h.g.d.g.z.h.k.g.i.g.z.z.",
"V.V.B.V.M.B.H.C.C.C.H.B.V.V.Z.Z.N.x.v.C.m.C.C.v.m.m.N.m.V.N.A.m.V.S.S.V.V.V.C.V.Z.Z.b.z.M.V.M.V.V.B.C.C.Z.C.B.x.b.V.M.Z.B.M.m.V.",
"x.z.l.k.z.z.C.b.z.x.n.v.v.v.n.n.l.l.j.z.l.c.n.l.l.l.v.m.m.v.v.l.V.z.M.M.m.x.v.b.n.v.z.k.j.x.z.c.x.c.v.c.n.M.x.k.j.x.l.c.c.z.h.x.",
"x.x.x.z.z.l.B.v.k.k.c.c.z.z.v.v.c.c.h.n.z.l.l.l.l.l.l.b.l.l.l.f.V.z.k.k.h.x.x.c.v.v.c.k.l.M.k.z.k.l.c.x.v.v.c.c.h.b.z.k.k.z.z.x.",
"v.x.z.b.z.z.B.v.c.k.c.v.z.x.z.v.v.v.h.M.l.l.c.v.v.v.l.b.m.v.c.l.B.k.k.k.k.c.c.l.c.c.v.c.k.M.k.z.k.l.c.z.z.v.v.c.h.M.z.h.z.k.c.c.",
"z.c.k.v.z.v.C.b.k.k.z.v.z.k.k.z.v.c.k.M.l.l.c.n.n.v.c.m.b.b.l.k.M.k.h.k.x.c.z.k.z.c.v.c.k.B.k.z.l.c.l.l.l.c.v.c.k.m.l.h.z.c.c.l.",
"k.k.z.v.z.c.C.c.h.z.z.z.z.k.z.z.v.c.k.b.l.k.l.c.c.c.c.v.l.v.k.g.b.g.h.k.k.c.c.k.z.c.v.c.k.b.g.z.l.l.l.l.k.x.v.c.k.m.l.g.z.c.c.l.",
"v.z.v.c.z.c.S.M.c.z.c.c.z.h.h.z.l.h.f.z.h.g.f.f.f.h.f.h.s.s.s.i.v.a.f.f.u.f.h.h.k.z.k.g.g.x.g.k.c.z.l.k.h.l.l.h.f.x.l.h.z.z.k.c.",
"H.v.k.z.l.l.B.M.n.B.M.B.b.k.g.z.l.h.g.v.c.f.y.s.h.k.f.f.s.i.0.i.v.8.7.1.r.h.z.g.j.x.j.j.g.M.k.g.j.M.m.k.h.l.l.j.f.v.l.g.l.k.v.B.",
"H.x.z.m.M.B.B.V.V.H.H.C.C.C.n.V.N.C.M.b.S.S.J.D.S.J.D.V.C.C.M.b.M.v.N.N.M.V.S.M.M.B.B.B.v.M.Z.Z.V.V.C.C.n.B.B.B.M.v.Z.C.D.H.H.C.",
"V.d.d.h.z.x.z.x.c.c.z.z.c.B.z.z.v.z.v.n.M.C.S.B.m.V.M.z.z.l.l.l.l.l.x.b.z.z.M.v.z.z.v.z.z.z.z.z.v.z.c.V.c.k.h.z.k.h.v.k.z.v.n.c.",
"V.g.g.h.k.c.c.z.c.z.z.z.v.Z.c.z.b.z.b.n.c.k.k.l.z.A.M.v.z.l.c.c.z.v.v.v.z.z.B.M.z.k.c.c.v.v.z.z.v.c.v.Z.z.k.k.h.j.k.z.h.f.h.c.v.",
"S.k.h.k.z.c.c.c.z.z.z.z.B.Z.v.v.v.v.m.M.b.l.k.l.v.G.M.x.l.l.l.c.v.v.v.v.v.v.Z.B.z.z.z.z.z.b.b.v.v.v.n.S.v.c.c.z.x.v.b.l.h.h.z.n.",
"V.k.k.c.k.k.c.k.z.z.z.v.n.B.b.c.v.b.B.C.n.h.l.l.z.S.V.l.z.z.c.l.z.c.z.z.c.v.M.M.z.z.z.z.z.c.b.z.c.v.n.M.n.z.z.c.c.c.c.z.k.z.h.n.",
"V.k.x.b.v.c.z.k.z.z.z.x.b.B.c.c.v.c.n.B.C.b.c.c.m.A.M.l.z.l.l.l.z.k.k.z.v.v.B.B.z.z.z.z.c.c.z.k.z.c.n.V.z.z.z.z.v.v.c.k.k.z.l.z.",
"M.l.v.M.M.M.v.v.x.n.M.x.z.B.k.k.k.k.x.M.v.z.c.x.l.V.m.k.l.l.h.k.z.k.l.x.v.l.M.x.k.v.n.b.v.n.b.z.x.x.z.B.z.a.f.k.k.k.g.g.d.h.h.h.",
"M.l.M.c.b.B.B.B.m.x.m.b.z.V.g.d.u.a.h.v.k.y.d.k.k.N.v.g.f.h.j.l.k.g.g.d.z.l.M.x.a.s.f.k.z.z.j.z.b.x.z.V.g.u.w.u.a.z.h.y.w.7.g.k.",
"M.N.S.S.S.H.K.H.S.Z.S.V.B.B.v.b.C.Z.C.S.B.M.M.m.m.C.M.M.V.S.A.V.S.A.J.S.C.C.V.b.v.M.C.C.C.A.M.B.Z.B.B.B.v.n.V.S.V.S.V.m.S.H.Z.V.",
"l.c.v.c.c.v.C.v.c.n.v.z.k.k.l.l.c.c.l.M.z.v.n.z.z.M.v.l.v.n.v.v.C.M.B.B.C.M.l.k.l.l.b.b.v.M.l.c.z.z.z.k.k.k.z.n.x.M.z.x.x.b.x.z.",
"c.c.l.k.z.v.M.v.z.z.c.v.z.x.z.z.z.f.h.n.k.k.c.l.c.m.b.v.l.l.l.v.H.n.c.v.b.v.z.z.x.z.v.v.b.v.h.h.h.z.z.k.z.k.z.b.b.M.k.h.k.k.z.z.",
"l.c.c.z.k.M.C.v.k.c.z.z.c.c.c.c.l.h.h.V.z.k.l.l.c.b.v.l.c.c.l.v.S.b.v.v.v.n.M.v.v.z.b.m.M.M.k.k.k.z.z.v.c.k.k.v.v.V.z.k.z.k.k.z.",
"z.l.c.c.k.n.V.v.z.c.c.l.c.v.c.c.l.k.k.Z.b.l.z.k.v.b.c.z.z.z.k.z.S.M.x.c.c.M.V.b.v.v.c.b.B.C.c.k.z.k.z.x.z.x.z.c.c.C.n.k.k.z.k.z.",
"b.c.n.v.n.b.C.M.l.c.c.v.n.b.c.c.l.z.c.Z.B.b.v.v.b.M.B.M.n.v.l.c.F.m.x.v.b.b.B.M.c.v.v.z.M.V.M.c.z.z.z.v.z.v.v.z.v.C.B.b.c.z.z.z.",
"l.c.n.v.B.c.B.M.z.c.b.M.n.v.c.c.c.v.b.D.D.n.v.n.b.M.M.M.n.b.l.l.A.b.k.c.b.M.B.v.c.c.c.v.B.J.B.z.k.k.k.n.n.C.B.n.b.D.H.n.v.z.z.z.",
"c.h.f.h.f.e.v.v.x.k.m.M.b.M.n.n.B.n.B.H.H.v.k.c.n.b.m.n.l.h.f.l.V.l.d.h.h.l.M.B.b.N.b.B.C.J.n.k.g.h.x.S.Z.Z.V.n.B.D.H.v.k.k.v.c.",
"J.C.S.S.C.S.S.A.C.D.J.V.V.J.S.H.J.J.J.J.J.J.Z.B.m.C.V.C.Z.C.V.C.S.A.M.M.V.V.F.J.H.J.J.J.J.K.J.C.M.M.V.J.S.J.J.J.J.K.J.H.H.J.Z.C.",
"B.h.l.l.l.c.z.v.z.c.b.k.k.M.v.x.b.v.x.c.c.v.v.k.f.c.h.v.v.v.c.l.v.c.l.c.v.x.b.m.v.v.M.v.b.c.k.k.g.f.l.M.b.v.b.b.c.c.c.c.n.v.z.k.",
"b.k.h.h.k.f.h.l.k.h.l.h.l.V.m.j.g.g.h.k.k.z.k.g.g.v.l.k.l.l.l.l.l.h.l.l.l.x.B.B.l.k.l.k.l.k.k.z.k.h.l.A.m.k.k.k.k.h.k.c.b.z.z.k.",
"j.h.k.k.g.h.s.k.h.h.h.g.l.V.x.g.g.h.h.z.x.k.k.h.g.x.l.k.l.k.l.h.h.l.k.l.k.l.m.m.k.l.z.l.k.k.h.g.l.j.l.M.x.h.k.k.k.k.v.v.n.c.z.k.",
"a.y.a.i.y.p.s.g.h.k.h.s.f.m.d.d.d.g.h.x.k.f.f.u.u.k.h.f.f.s.h.f.s.s.f.f.f.f.b.v.k.k.k.h.g.g.u.a.f.f.h.m.h.g.g.g.f.z.k.k.l.l.g.g.",
"1.g ^ g / =./ =.w.i.i.u.8.g.w.6.w.7.y.u.u.2.5.@.2.f.y.3.w.w.y.f.f.i.u.a.q.e.h.l.a.y.a.q.5.u.r.e.3.3.y.l.d.r.r.r.5.@.@.q.i.y.Q l ",
": % : : > 5 > > 0 5 / I g i.=./ L v j 2 n 1 4 , g 9.@.L =._ @.3.e.9.] _ =.L w.w.3.<...L ..@.Q n 5 j j w.5.n t ; - - - ; ; ; = - ",
"o o O + o @ $ $ = $ : : = > % % % % % + & # $ $ = > > % $ $ $ = $ % % O o o - = = = & - - - & $ $ $ % : = & & % % + O X . X + O "
};
