/* XPM */
static char *_eac32e838e2446febbbc275aca6a495mT0dGM9jjYkfYWHs[] = {
/* columns rows colors chars-per-pixel */
"64 64 222 2 ",
"   c #1C0C0A",
".  c #170907",
"X  c #210E0C",
"o  c #23110E",
"O  c #2B130E",
"+  c #251412",
"@  c #2B1512",
"#  c #2C1916",
"$  c #2C1C1A",
"%  c #271816",
"&  c #311613",
"*  c #331915",
"=  c #391B17",
"-  c #331D1A",
";  c #3A1E19",
":  c #2E211C",
">  c #35211E",
",  c #33211D",
"<  c #39221E",
"1  c #3A231E",
"2  c #362521",
"3  c #3A2622",
"4  c #3B2622",
"5  c #3D2925",
"6  c #3E2C28",
"7  c #41221D",
"8  c #422722",
"9  c #442B25",
"0  c #4B2B25",
"q  c #442E29",
"w  c #4A2E29",
"e  c #492720",
"r  c #532F27",
"t  c #512F29",
"y  c #46322D",
"u  c #4C322D",
"i  c #53332D",
"p  c #5B352C",
"a  c #5C382E",
"s  c #523027",
"d  c #4D3631",
"f  c #4E3934",
"g  c #453430",
"h  c #533631",
"j  c #553A34",
"k  c #5B3B35",
"l  c #543E39",
"z  c #5C3E39",
"x  c #593730",
"c  c #643A2E",
"v  c #693B2F",
"b  c #643D34",
"n  c #693E32",
"m  c #613F39",
"M  c #6A3F38",
"N  c #56413C",
"B  c #5D423B",
"V  c #654036",
"C  c #6C4135",
"Z  c #64433C",
"A  c #6B453C",
"S  c #6D493E",
"D  c #67483E",
"F  c #734436",
"G  c #7B4636",
"H  c #7E4837",
"J  c #72463B",
"K  c #74493E",
"L  c #7B4B3D",
"P  c #794739",
"I  c #5A4641",
"U  c #5E4A44",
"Y  c #5A4845",
"T  c #644641",
"R  c #6B4741",
"E  c #644B43",
"W  c #6C4B43",
"Q  c #664F48",
"!  c #6C4F48",
"~  c #734C44",
"^  c #7B4E42",
"/  c #724E48",
"(  c #7A4F48",
")  c #65514A",
"_  c #6C524B",
"`  c #6D5147",
"'  c #755146",
"]  c #7C5145",
"[  c #74534B",
"{  c #7B544B",
"}  c #74584F",
"|  c #7D594E",
" . c #6E5751",
".. c #6E5B54",
"X. c #765750",
"o. c #7A5750",
"O. c #745B53",
"+. c #7D5A52",
"@. c #7B5F59",
"#. c #755F58",
"$. c #77635B",
"%. c #7D635B",
"&. c #7F6157",
"*. c #7B6861",
"=. c #844836",
"-. c #834D3C",
";. c #8B4E3C",
":. c #874A36",
">. c #8B513E",
",. c #83503F",
"<. c #91523D",
"1. c #814E41",
"2. c #835345",
"3. c #8A5444",
"4. c #82564A",
"5. c #84594D",
"6. c #8B5B4C",
"7. c #895748",
"8. c #915B4A",
"9. c #815750",
"0. c #835D53",
"q. c #8A5E51",
"w. c #835F58",
"e. c #905F52",
"r. c #846156",
"t. c #8B6255",
"y. c #84635B",
"u. c #8B655A",
"i. c #85685E",
"p. c #8B695E",
"a. c #91665A",
"s. c #936A5D",
"d. c #976454",
"f. c #856B63",
"g. c #8B6C63",
"h. c #886B65",
"j. c #936E64",
"k. c #936F6A",
"l. c #8B7067",
"z. c #8D746C",
"x. c #86726C",
"c. c #937164",
"v. c #9A7264",
"b. c #94756B",
"n. c #9A766B",
"m. c #94796E",
"M. c #9B796D",
"N. c #8D7A72",
"B. c #8E7670",
"V. c #947771",
"C. c #947A73",
"Z. c #9A7D73",
"A. c #9B7F79",
"S. c #967F7A",
"D. c #A17B6C",
"F. c #A07E75",
"G. c #9C8176",
"H. c #96837B",
"J. c #9B837B",
"K. c #99847B",
"L. c #A28274",
"P. c #A2857B",
"I. c #A8857A",
"U. c #A4897D",
"Y. c #AA8B7C",
"T. c #AA8576",
"R. c #B08D7E",
"E. c #9F8983",
"W. c #9E8580",
"Q. c #A28781",
"!. c #A58C83",
"~. c #A98E83",
"^. c #A38E88",
"/. c #AA8E89",
"(. c #B08E81",
"). c #AC9185",
"_. c #A5918B",
"`. c #AC948B",
"'. c #A99488",
"]. c #B2958A",
"[. c #B49A8D",
"{. c #BA9C8E",
"}. c #B29384",
"|. c #AD9991",
" X c #AE9691",
".X c #B39B93",
"XX c #BA9E93",
"oX c #B59E98",
"OX c #BC9F98",
"+X c #BCA295",
"@X c #B5A19A",
"#X c #BBA49C",
"$X c #BFA99D",
"%X c #BEABA4",
"&X c #BCA6A1",
"*X c #C1A59B",
"=X c #C0A99F",
"-X c #C3ABA2",
";X c #C9AFA2",
":X c #C3AEA8",
">X c #C0A6A2",
",X c #C5B2AC",
"<X c #CAB4AB",
"1X c #C9B1A5",
"2X c #CCBBB4",
"3X c #CAB9B4",
"4X c #D2BDB5",
"5X c #D3C3BD",
"6X c #DAC8BF",
"7X c #DDCBC5",
"8X c #D0C2C0",
"9X c #DFD0C7",
"0X c #E2D3CC",
"qX c #E4D9D5",
"wX c #E5DBD7",
"eX c #E1CFC7",
"rX c #ECE2DD",
"tX c #E6E2DF",
"yX c #EAE5E2",
"uX c #F2ECE8",
"iX c #F5F1EE",
"pX c #F9F8F6",
/* pixels */
"f q y 2 2 2 2 4 8 5 5 4 q q 9 y w w 3 5 d k y 4 - 1 w 9 9 1 * > - * < 1 8 i u d i d D d 5 9 q 9 1 1 4 1 2 , > $ , 2 6 6 6 > 3 f ",
"#       . . . X X X X   .   o O @ X . + h 5 + . .   X o X X .   X .     o o o @ @ 4 j - O # @ * @ & @ @ + o o . . + o + +   o 2 ",
"+ +     .   X X + o + X X X @ O @ @ X X y @ +   X o # # @ @ + + O   o X @ @ @ @ + 3 y @ # - 1 1 # 7 - $ % + + o   + + % + + + 3 ",
"$ # @ o X   X X @ # @ + O O O O & # X o g - +     + # - * & # * * + @ + * < - & * 5 u * # - 7 1 $ > - $ $ % % + + % % $ % % % 6 ",
"> # # o O X O O @ & O & O O & & = * @ # g 2 # + o @ - ; ; = & = * @ * @ = < = = * 5 d - $ ; 3 2 3 - , , $ % % # + % $ : $ % % 6 ",
"3 - = @ @ @ @ # & # * & & = = = = = * & f 2 ; # + * 7 8 8 8 ; 7 = @ * ; ; 7 7 < = q h > $ 3 8 9 3 , 3 2 : 2 2 $ % % $ : : % : 6 ",
"> - = * @ O # = ; * = * * * = = = = & o l 5 - $ # - 1 9 8 8 = 1 1 # 1 8 8 9 e 0 8 y l 5 3 q w w 3 > 6 3 , 2 2 : $ $ : 2 : $ : g ",
"q $ $ % % % @ & - ; > < - - < < 4 3 > 2 _ N 5 3 3 5 q g y y 5 5 q $ 3 q y d u 9 0 j #.g q g g g 6 3 y 5 3 2 2 , : 2 2 3 2 $ : Y ",
"Q Q ) I I f N I I B B U ) E U ) O.) U Q _ _ I N l B [ +.X.Q z B E E I E _ ..Q E ) Q %.O.Q !  .) Y E Q E U Y Y I f f N U U N U ..",
"y w w 4 2 2 5 9 q q 8 u ) y w q w 0 q 5 8 4 1 - ; 4 9 0 h 0 8 0 u B 9 w w h 9 i x i h 9 0 u u h u y d w u E N q 2 2 - 9 q q d j ",
"w w w w 1 1 8 8 9 8 5 9  .d u 9 w w 8 1 3 8 8 4 9 8 0 t h u 0 t a Q 9 0 0 r i k m k x t 0 r u p 0 0 r 0 q I l 8 > 2 5 5 u q w h ",
"i s h u 0 8 8 q w 0 9 u  .u u i h h u 9 w i u w u q u p m x w x Z  .i i r c b m k m D h r p k a r r k i h Q l q 5 9 w d h i i h ",
"j p i i u 0 0 u i i i d _ u u u y h k 0 k b i u h i p k A m i z D } j z i n Z R ~ ! T h x a z z k p k j h E B w q q q j x i x z ",
"z x x h u u u i k d j i  .j j j B k h y k b z k z h b M R V b V ' #.V D D V ! ' { ! ! k j z z z z k m k j _ I w q q j k k j z V ",
"m j k k i i i h k h i i $.i j h B B j q k Z k y i u b M K S Z S K i.j B D Z Z Z / D T z h z m T I z z j w Q T u u u h j j h h m ",
"z z l j j y j j k z l E G.B D B B E B j z B l d h h V ~ W Z B ` r.U.l.b.l.y.[ R ! E [ Q T Q W T T T T m z *. .d d d l h f f w s ",
"#.*.x.N.W.N.N.N.S.K.S.J.G.C.U.).`.~.K.m.H.K.H.J.J.|.`.).{.].L.Y.Y.K.U.U.Y.Y.G.P.U.Z.U.^.K.'.'.!.A.A.Q.K.K.H.N.f.$.*.$.$.$.$.#.$.",
"z T _ @.^.*.I I T ! ! R ! W ' 9.{ W V V V E R ` _ C.l.t.t.0.{ 5.5.' S S K D A S A z S ! ) [ B.&./ ! T R D B B h j l l B B k z D ",
"z T z Z %.d k Z Z R D D ~ D Z Z j j i a k d f f j [ S D V B B B D N N B N B Z D D k z B N N O.' A A V n b p s 9 u i j k z k m Z ",
"Z Z m B Q j z T D R R ~ D m z m z i u u u u l l j &.K A K ' D Z Z Z D S W S D W R D A D D D o.D D K n V C s 0 9 0 i i b V m m Z ",
"Z M b z Q Z T R R E ! ~ R D V z Z Z k 0 j j B Z B | ' K A F v v c c v C K A A K ^ L K A A C p.E n b V c V p s s s k i n A A Z A ",
"Z Z Z Z Q R ! ! R / / / [ ' ! Z V D z l D D ! T B &.5.L L A F F V c J L F J F F -.H 1.L P J m.{ m V P V C p r s s z m J A A M R ",
"A M V l Q T ' X.{ o.{ { [ [ _ T / / R R { ' [ R j ` 7.3.7.L -.2.2.P L K P ~ A J 1.G L H F G M.` n R K J v c p p b n C C F J ~ A ",
"~ A Z E  .Z R Q / / ! R R ! D E W ! ` R R ` B l d &.t.] 7.{ 2.3.] 2.{ ] ] ' ~ K ] L { ^ ~ ] U.Z.T D K C a V n V j c V M m V J ~ ",
"/.).`..X|.|.^.E._.^.^._._.`.J.U.).J.l.f.g.g.%.%.%.L.+X$X+X{.+X;X<X<X=X{.[.Y.M.Y.Z.G.G.Z.K.U.U.~.'.^.^.|.`._.^.S.B.N.V.z.h.z.'..X",
"X.} y.r.r.g.H.U.!.!.Q.`.%XU.v.5.t.2.7.7.2.,.L L L L L 8.8.8.v.v.4X<XM.| | ' { | R ` 5.' S E ! R ' [ @.O. .z.^.+.' ' o.o.~ / w.r.",
"T S R ~ K K ' t.q.w.r.r.z.S V L L -.L J K L K L L ,.,.,.,.-.<.:.v.%.D | ' D S L V j { ( E R ~ V A E ~ R l ) y.R n n V ~ b ~ { / ",
"D ~ ~ K ' ' ' q.u.w.t.y.&.K D J F F F C J K L 2.L L ,.L L :.>.H 6.[ B ' ' / D ~ R D T / W ` ~ ! D ~ S / E Q [ ~ S C A A A ~ ' ~ ",
"! R ' / { / { t.a.q.t.[ ' J C C F F P F F K L L K L H H ,.L ,.;.6.| S ' D ~ R R ~ ! ! W { / R Q B E ` ' [ _ ! ~ ~ J ~ ~ J ~ / / ",
"E ! [ / ' R / +.0.9.5.{ { K K P -.,.L G L ,.L >.L L L =.>.=.>.=.t.r.{ W { / R Z B D R ! [ | _ E I E E Q / ) ` / ~ ~ J J J ~ ~ ~ ",
"' ' +.' S Z R ` / ' | [ | K L L 2.;.H =.<.3.>.;.,.,.<.;.;.=.<.=.{ u.t.[ { [ ' E D T ! R _ [ [ ! ! _ _ Q } } _ [ W b b C J M J ^ ",
"[ ' [ W R S E ' [ { X.i.J.] P L ;.>.;.>.<.3.>.;.>.,.,.L G C F ,.5.t.r.} ' ' ' R D S ! ! ! ' @.0.[ w.r.@.y.l.z.%.@.[ ! / / W W / ",
"`./.`.XX@XoXoX#X#X#X>X;X;XXXI.Z.v.s.v.n.D.L.T.T.Y.Y.Y.Y.(.Y.{.XX+X+X,X2X4X<X-X*X[.R.}.).Y.).].).).`.+X$XoX#X-X#X|.@X%X%X%XoX_.`.",
"0.{ 0.p.P.!./.!.P.F.n.F.F.I.I.v.a.L.L.G.v.v.b.n.M.M.D.M.v.v.j.l.M.G.]..X#X7XrX+Xg.q.t.2.2.t.q.5.L ] { { / / R J D w.%X,XW.B.V.t.",
"2.1.4.{ 4.4.5.w.q.5.5.1.7.7.8.3.G D.S S K K J K L P J J R S A V D S ^ 4.~ y.;X0.K D S R ' ] { ] L ] L J V Z B B b A K.V.R o.o.6.",
"5.7.4.5.4.^ q.5.4.7.2.1.-.3.;.3.,.s.] { { ~ C ~ 2./ / ~ { ' ' { Z V ~ ] ] ~ U.q.] K L ~ S ' ' ( ] ] ] K J S D B B m i.f.~ 0.5.5.",
"( 4.5.^ ~ L 2.] ^ ^ -.^ -.-.1.2.2.p.K { { ^ F H L ^ L ~ K ~ K J V ' ] 2.{ ~ L.5.{ L ,.L L L L L L ] L F F L ' E T b f.f.R o.4.^ ",
"( ( 4.( K K ^ ^ P ~ L 1.^ -.>.3.2.v.| L 4.] -.L P L ,.L G L J V K K L 7.| ' n.5.7.2.,.=.L L L L ] L L G L ] { _ T n z.B.R / ~ ~ ",
"~ / ] ^ K J ^ ( L 2.^ 2.] 7.3.-.,.L.r.K { ^ H F F -.7.] 4.1.K L K K L q.| ] G.2.,.L L F F L ] ] ] ] ^ ~ ~ P D S k a V.z.w T T ! ",
"@.w.f.' { [ y.r.q.{ ( 4.4.7.2.3.2.R.G.V ~ J ~ ^ ^ ] | ' ] ] / 2.' S S { ] ' R.p.S K 2.] ] ' ' | [ } ' ' { | &.O.X.i.^.^.X._  .X.",
"z.A.Z.Z.^. XoX,X<X4X8X>X`.`.#X-X$X<X;XU.G.Y.G.s.P.U.~.^.!.}.)..X+X+X+X[.`.].;X;X].].P.Z.L.D.v.c.j.n.k.[ { w.g.h.l.x.V.A.h.f.*.f.",
"X.0.( X.X.o.o.w.i.P.,XZ.o.+.r.@.0.] F F L 2.L 6.d.b.n.Y.`.7XuX,X).P.L.c.p.o.q.q.q.0.w.q.6.8.8.5.] 2.[ p p c m W W R m T Z k R ~ ",
"{ { X.[ ' ( / ] / / c./ L K L F G H G G -.=.L ,.,.-.G L 2.j.XXq.2.2.4.6.5.( ^ 5.0.5.5.q.7.6.d.d.7.5.( n m M C ~ ~ ! ! T R T T W ",
"~ / / { / K ( 2.^ ~ r.A F P K H H =.H H =.,.H =.L >.-.>.3.q.c.^ 3.4.4.| q.q.5.9.9.4.4.! { 6.e.6.4.q./ p m ~ ~ ~ ~ R Z D R R W R ",
"~ / / X.~ K ] ] ] ~ y.~ C C F F L G G L P L L L J L G G ,.2.c.' 2.2.6.^ 2.e.t.t.0.9.0./ 7.e.6.7.7.q.} x R A ~ ~ ~ A ~ R R W R R ",
"W / W [ / ~ L { 2.K u./ D F F F L F F K J L L K F P L P F { P.2.7.4.5.4.J ] q.r.0.9.9.| 6.6.2.6.2.6.[ b V ~ ( ( ~ ~ ~ ~ R R / R ",
"~ R V / W R ~ K E V r.' L L J P L L P L L L S J 1.] { ] ' ] L.{ 3.7.5.6.J ^ 4.] { 5.9.5.6.7.K 2.2.{ _ c A / ~ R R M Z R M Z R R ",
"J.J.K.Z.g.t.m.!.^.'.@XK.c.m.m.p.r.u.a.t.0.| 5.0.r.p.p.s.p.b.XXM.t.a.u.r.w.q.t.w.0.5.9.p.v.M.b.M.M.~./.C.b.V.Z.z.l.g.l.h.f.h.W.E.",
"5X/.U.P.U./.`.,X8X8X5X:X-X3X3X,X#X[.Y.n.D.P.F.I.(.R.}.{.XX+X*X#XXX<X<X5X7XqX0X7X6X7XeXwXwXtX8X4X5X%X`.oX.X].oX X]./.Q.A.k.k.oX0X",
"Z.| { ( 9.X.+.o.0.r.@.{ { 0.] X.| 2.^ -.6.l.~ ~ ~ ~ ^ L K K K ^ ( r.a.u.k.Z.V.`.4XyXpX3XA.k.u.0.] ~ J { ~ R ^ ~ 9.( 1.( ~ R ~ h.",
"0.@.o.5.| { X.{ { w.r.{ ~ 4.5.{ 4.{ 7.7.t.v.K ~ Z / { S W ' W ! R Q ' ( R ~ ^ / +.b.<Xf.M J J J F n ~ ~ ( ~ ~ ~ K R J M R ( R ( ",
"[ 0.0.5.5.{ X.] 5.o.+./ { 5.q.5.7.] ' { 5.t.A ~ V ~ / m V K ~ A D A ~ ] L ^ 1.| ~ ~ k./ J M C ~ ~ ~ J ~ ( 9.( ~ K P M P ~ J R ( ",
"} { w.5.5.0.r.+.0.@.[ ' ' 5.6.4.2.' ] 6.7.r.~ R ~ ~ ~ b z A ( ~ ~ L L K A ^ L ~ ~ R u.~ J A F J ~ ~ ~ ~ ~ ( ~ F P ^ M ~ ~ R / ( ",
"[ | } { { { 9.0.q.o.{ ^ 5.4.7.2.' L 2.3.] +.' ~ ~ ~ J n C C / J J C C A D D D / ~ J r.R / ~ ~ ( ( { { { ( ^ ^ ^ ^ ^ P ~ / ~ / ( ",
"@./ / / K ' 5.5.{ / ^ ~ ~ ~ ^ ^ 2.2.,.>.L y.A ~ ~ R F M A A J M C n c n n b R / Z J g.~ Z J E / ~ ^ ~ / ( 4.~ ( ( ~ ( ~ ~ R R @.",
"+X'.^..X|.`.H.C.P.J.F.m.b.m.m.j.v.s.s.a.n.Y.m.Z.b.r.h.p.l.Z.Z.Z.V.c.p.r.| { 0.u.r.M.`.Q.b.m.Z.H.b.b.b.V.V.P.Q.J.Q.A.A.A.A.V.W. X",
"F.n.I.].&X7XuXuXuXwX5X%X&X#X*X<X#X.XXXXX*X+X-X6X7X9XwXwXqXqXwXyXyXtXqX7X%XXXXX<X0X0X0XqXuXiXuXyX6X:X>X#XoXoX X/.Q.A.C.A.A.V.k.k.",
"4.^ ~ L ] G.qX%XK.f.X.[ X.[ / Z.] K K ' ' ] 2.t.g.f.f.y.f.y.i.i.h.h.y.Y.M.e.s.j.L.L.M.b.[.rX3XP.k.g.w.w.w.0.+.0.q.w.0.5.o.0.9.{ ",
"^ ( { 2.{ r.U.r.X.[ [ } } X.[ b.K / D Z _ / { 4.5.4.5.| [ +.| 5.{ { ' p.M.t.0.+.+.o.} @.} ^.Z.u.0.0.+.0.| 5.+.+.w.w.w.9.9.o.9.o.",
"| ^ ] -.^ 0.G.0.+.X.X.[ X.{ { b.P V J n Z T ' 2.7.6.t.q.0.q.5.7.7.t.6.u.v.t.9.+.[ [ _ X.} i.5.0.0.9.4.0.{ 5.0.| o.0.0.| X.{ 9.0.",
"/ ( L ^ ] 0.m.| { / ' / { [ o.s.K F G C V D ' L 4.] 9.| ] 2.5.4.6.q.6.a.M.0.+.+.+.[ [ %.+.0.4.q.0.0.9.9.9.o.w.+.o.{ o.] ( / { 9.",
"~ ( L L ' t.m.| | ( / ( ~ / 5.p.[ P L J V R [ 5.{ Z Z W R ~ ' ~ ^ K K M.U.9.w.@.+.o.+.0.+.@.4.u.0.4.9.9.5.] 9.X.[ ' o.( ( F K ~ ",
"A / J K K | G.+.~ ~ A ! R R / g.y.J ] ] ~ R ' { A z k V Z B k n V n v p.Z.| 5.] { { { | @.i.' +.o.[ ( 9./ ( X.[ / R R A ~ C V V ",
"Z.A.H.C.Z.H.^.J.z.z.m.m.C.m.C.Y.).M.b.g.y.r.y.r.r.y.%.y.&.| | &.0.| 0.b.Z.0.0.y.r.r.y.%.l.G.z.z.b.V.V.V.Z.A.N.H.K.V.x.m.S.C.b.Z."
};
