/* XPM */
static char *result[] = {
/* columns rows colors chars-per-pixel */
"64 64 116 2 ",
"   c #251E17",
".  c #25211B",
"X  c #2B251E",
"o  c #2E281F",
"O  c #2C2621",
"+  c #2E2A23",
"@  c #342D24",
"#  c #3C2E24",
"$  c #332E29",
"%  c #3A2F28",
"&  c #363027",
"*  c #3A3027",
"=  c #36312A",
"-  c #3C342B",
";  c #3F382E",
":  c #3B3631",
">  c #3D3933",
",  c #423126",
"<  c #43352B",
"1  c #48362B",
"2  c #43392E",
"3  c #4A3A2E",
"4  c #523C2F",
"5  c #423730",
"6  c #443C33",
"7  c #4B3D33",
"8  c #423E39",
"9  c #4C3F38",
"0  c #513E34",
"q  c #4B402E",
"w  c #50462E",
"e  c #464036",
"r  c #4B4236",
"t  c #45413B",
"y  c #4C443B",
"u  c #4F483D",
"i  c #534236",
"p  c #594336",
"a  c #554A36",
"s  c #594D35",
"d  c #53453B",
"f  c #59463B",
"g  c #534A3D",
"h  c #5A4B3D",
"j  c #5E5236",
"k  c #5C533C",
"l  c #615536",
"z  c #645936",
"x  c #625639",
"c  c #65593B",
"v  c #6A5E3C",
"b  c #6D613E",
"n  c #4B4641",
"m  c #4E4942",
"M  c #524740",
"N  c #544C43",
"B  c #5A4D43",
"V  c #544E49",
"C  c #5B4F49",
"Z  c #565045",
"A  c #5B5245",
"S  c #5F5847",
"D  c #56524B",
"F  c #5C544B",
"G  c #5E584E",
"H  c #5C5650",
"J  c #5E5952",
"K  c #615446",
"L  c #635A46",
"P  c #695E46",
"I  c #61554B",
"U  c #635A4C",
"Y  c #685D4D",
"T  c #615750",
"R  c #635C53",
"E  c #6A5E52",
"W  c #635E59",
"Q  c #6D6243",
"!  c #67604F",
"~  c #6B624D",
"^  c #716544",
"/  c #72684D",
"(  c #666055",
")  c #6B6254",
"_  c #66615A",
"`  c #6B655B",
"'  c #6E685D",
"]  c #716754",
"[  c #736A54",
"{  c #71675B",
"}  c #736B5D",
"|  c #786D5A",
" . c #7A715D",
".. c #6C6761",
"X. c #6E6962",
"o. c #736D63",
"O. c #786E62",
"+. c #746E68",
"@. c #767065",
"#. c #7A7265",
"$. c #767169",
"%. c #7C756A",
"&. c #7E796D",
"*. c #7E7971",
"=. c #807766",
"-. c #81776B",
";. c #827A6C",
":. c #837D72",
">. c #8A816E",
",. c #878175",
"<. c #888275",
"1. c #868078",
"2. c #8A847B",
"3. c #8D887D",
"4. c #8E8A81",
"5. c #938D82",
/* pixels */
"F J ( D J U W H D _ W G F T T C C B B C M Y O._ B y 6 y M t d N y C s h K I f B L U h h f h K B B U U ` ( 3 6 e g 6 1 5 7 3 1 d ",
"*.&.%.` W T D V V F F m C V C I F m C I C E %.o.I M : 6 6 # - C U @.A A L K f 0 r Z g g h K A h i L U D L r - * 3 - < 5 3 C C E ",
"I E E I V C H M D G J J ..' T _ ` F ` $.O.O.o.$.%.&.D M I f U ;.%.%.>.| { ;.Y 6 A { ) g y S g A S i s u Z u 8 h r < , 1 3 0 f B ",
"9 0 d f 8 8 J W ( ( ( _ ' _ H ' X.X.*.:.o.....o.%.&.C y h i N #.| ~ [ #.} U g - r ) ~ A h A A u Z L L Z g ; r f 7 3 < 1 1 0 0 7 ",
"9 9 M M M m H W E R W { W J E o...$.+.T T D F I G M - d 0 @ 6 [ ) ~ ! [  .U 2 ; e Y U L L L U Z g S G g r g r 3 3 1 1 - 5 5 6 9 ",
"H T T T W W T { E W ' _ W o._ #.#.+.X.+...D G d N 8 - C 0 7 6 ) ! ~ ~ [ { Z u U U A ! ~ L ! A k k k k k A U 6 # , 1 # < d C B B ",
"N B B C I T T W W ` _ E _ _ ' ;.' _ ' o._ _ V y 7 $ 5 f 0 % 5 ) U ] [ [ ! 2 Z A U g L A g Z A A a a r r h 7 = = 6 N d y y d i 9 ",
"y d 0 0 C T T H T H D T E V V V n M D _ W d ; B A G d 0 f 3 d L ! ] | | A g U G K ! Y Z u k U k g Z g Z e 1 7 M B I f d a i 9 5 ",
"A d y d C X.#.' ' +.*.:.X.T R A 8 M F _ &.#.&.-. .#.{ N < 7 ) } | o.#.%.( k ! f U ] Y F Z L G A L U U Y g < 5 d B f 0 9 a a y y ",
"A D J R ( W T T ..W ` W H ' ( T H o.%.#.:.1.:.#.( F g 8 e Z ( J ) ' %.;.) Z ( h A [ ) Y Y ! U U L ! ) ) U ; $ 2 d i r 2 y d d M ",
"5 > m J T I _ ' _ C H H V G Z N H o.' :.%.X.' ) ) ( > . : : n > Z G G ( H D A D d F A F ) U d r u 7 A Y Z r u N N d y d g m m y ",
"y y V N F W _ } o.W _ _ W W W W W ' o.1.1.*.` _ o.) V + > = : : > y r u y y r a d B A r r 5 X o 3 , 0 9 6 r 6 d d y 9 0 y g N u ",
"G G T G F F T ` ..` _ W T W _ J ' ` :.2.2.:.` ' X.} y = + $ : > > > > n m ; , , 1 3 7 - < < * N ( ) { r @ * 6 7 $ > 6 5 r u u N ",
"N N A T _ V D ` ` H W _ W J H J G W 2.4.2.:.) _ o.@.t . . . + > > > : 8 V 8 2 , 3 1 3 Z F Y G ' #.#.o.W Z Z g A A F D M r y y y ",
"y g N ) #.X.` E T N V D D G D m y y N ` ' ( Z U | ` y - r - X = $ $ $ 8 n : ; a i 7 h ` ' J A R ` _ J W R T C ) I 8 y y y y u u ",
"N N N ' %.:.-.o.W _ ..' o.#.( D ' A $ 6 t 7 6 Z U y 6 S R Z y e > = $ $ $ O u R A D T J W A D ` ( H F N d y d Y A 5 t Z A Z G G ",
"_ ` ` o.$.o.{ E W F H T W W m +.:.%.$.+.+.o.} o.` G ` R F ( } U u u y = X 2 U Z y t n H D M D U F D F y 7 - y u ; 7 d i M N C I ",
"A F D H W ( D C M M B 6 $ % 8 V V V H D D D m V m n y t t t N 6 - ; 6 N : t R M Z ( R ( ( A U U D F Y A q r h A Z m 5 7 0 9 d B ",
"V F N T W C V M y 9 9 8 V = n t n m n t n 8 > > 8 6 8 8 t 8 e ; = ; e u e e r g ` 3.2.4.3.' ! U U U ( ) A F d 7 7 t 2 * 7 y M y ",
"` T V ` _ F D T H C F H T = t m V m m n t t t t 8 > 8 t t > r 6 6 2 r g 6 2 i G 4.5.:.2.3.@.F D D D Z R ( N y y 1 5 2 ; C ` R H ",
"F C T F F M M D N N N C M M F F m n t 9 t y t > - - : > = X * = @ @ @ & * ; i ' 5.3.;.2.3.#.Z N G G G D G D g g A A i - 9 B M u ",
"6 > n D M 5 : 5 > % 9 M D o.-.$...` ` E W T G A g C y 6 - @ 7 6 2 e 2 ; 2 e e ) &.<.,.,.<.:.( G D R Y G T G 1 3 i K B 6 3 d g t ",
"9 6 m I C N N I T m J W ` o.X.T ` %.O.o.` { } o.{ E E ) U I U k k g Z S G A r r y Z R #.,.2.' A D D Z g N u 3 < 1 h r < < r y t ",
"M 5 5 9 9 d 0 d M M V V C H C 6 y B B M C N E { U B f i i f r r a a g A Z k k e r a S Z A R g Z L A g Z U Y u = # * - r g 6 8 y ",
"M A A 8 5 - % 5 7 7 t t m M N M B 7 0 i 0 0 C B h a i 0 i i < i a r r u Z g A @ o Z ~ U r 1 y Z F K F U Y Y U h a d g D F A ( F ",
"$ 5 M G F y B F C T N y C F R O.` 9 3 7 6 5 7 N F g r 0 q 2 . o ; 3 - q k k U 2 1 ! L K h h 6 h h f a h f 0 3 1 1 < 1 7 h ( F g ",
"V F N T R I F T { I I C I T T W { T 6 5 7 6 F %.#.( A A A g r ; . . @ q g k G y r p p i 0 4 @ @ 3 7 i d 0 7 < , 1 1 - < y Z d M ",
"R E d V I d 6 d M 7 B I 0 B B d C N G F m N o.$.+.' } ( ` ` ` ( u & . ; 2 2 e r Z q 3 3 3 1 < r h B B g B d y d y 7 N 2 * 2 6 C ",
"..E = = y 6 8 y d 6 5 y 5 A I C d N %.%.&.o.' ..o.' ` ( ( ) ( ( k S y r g g y r e 2 e y y r N d 7 7 0 3 7 a C f h h h y d U D m ",
"J T D V V D ..X...H 8 6 y A _ o.W #.:.X.%.o.{ $.J U ` ` ( J J G u A e 3 ; 6 ; - - ; 2 e u y r r 1 3 3 1 1 3 9 0 7 3 i 0 y A A y ",
"n A m V J D H D H H D T ..-.&.' o.-.&.#.#.+.T y F R U ( ( ! ( G r e , 3 & ; - 5 ; 2 e y u r e 6 ; < 9 9 7 6 r 3 1 1 1 7 Z Z e 8 ",
"m m n n V n t 8 H D m ..-.:...y g o.O.#.;.*.8 : R G R U ( G G Z u g r 3 < ; > - 2 e ; q e e r e 6 y A K A A K h d 7 u N k y 5 ; ",
"u u y Z U G t V H m y W o.T M V Z g G } %.G = G ` R R ( U G G R Z r 3 3 1 & = = - ; ; ; 2 2 2 e ; e q 2 3 3 3 r N Z ! ` } ) Z r ",
"m y m D F J D D n t C _ X.X...{ ` D u A N o : Z G u r Z D A Z N Z = & 1 1 o & & - ; & * - q > ; e e - * < 3 7 6 e y ! ) #.&.` g ",
"t t t m m D F V n n T D H J W { D D y $ X $ A g g u g y g g y r y = * < @ o - - - & * ; ; q ; 2 y A U L Y I B A Z u y g A A N 6 ",
"t e m m y e 6 6 : V ' o.#.#.| { U ( y - & @ r f f i g Z 2 2 7 7 3 < ; ; # 3 < * & & * < ; & & & 7 p f K B I I I A A i K ) U U U ",
"Z d T | | E I U V F @.>.=.;.;.;.;.#.} ) G ) } | ~ K U } ! U k g q < g A 2 3 7 - + X * - X X @ - 3 < 1 i i i a B f y 7 N Y U I F ",
"y 7 6 0 p f d d C F F {  .;.| ) Y F I ) @.#.=.#.#.@.! ) ' ) S A ( } } ` U g A g g B U K 6 6 k L r @ $ + * - i r 9 y ; y A Z i 0 ",
"7 5 6 9 g K d d ` } U R @.-.;.Y K y y F F A F F T G Z Z Z S y u ) ' ` _ ` ` ' U 9 f f i Z Z A U L A A e y g U H B F y y d 9 1 - ",
"V d y C D F N R $.o.' W A F N u 5 2 r U Y G A Z A F A A S k r - u R ) ) U N u y 7 9 7 r A ) A G Y U S Z g U A d 9 d 7 < 1 3 % 6 ",
"C T C I N 9 R X.X.$.` X.$.` Z G A Z N Z k A R G A Z G A A A a - e u A F Z h h y i h C g I E B u u r e 2 g G m u y y r y r = - B ",
"f B B f M 3 T E ' @.@.*.%.R ! | ' o.` - h D ( G A G G G A L u 2 q g a f p h h d i f f C K d K B e - - t J G D ` F 0 7 r y 2 d ) ",
"7 f N i N t M ` @.#.*.$.J S ! } } o.G . g U W G F F G G A S g r g f 7 0 g i i r 0 f i I F d g D ( S Z S N D G R d 5 7 2 5 = 7 C ",
"5 y B F G M M T  .%.X.X.R R ( #.o.} { y h A A Z D Z g r r r 6 Z A 7 < < 3 3 r r 1 * < 7 2 7 A Y G Z G G ! ' ( G U F D U 2 & y e ",
"G T I F H T G A ) A D ( ! ( #.%.}  .%.` r N I F F A r 7 y r e a a r e 3 u u u Z D N y 1 < 1 r U g w u u k Z J ! ) ) A 7 # - m N ",
"n V M B T T M N e t e g ( ' o.#.%.%. .} R A B f h d 0 7 y 1 @ 3 k ) ( G ( } ' #.:.$.( g @ - r k g r q r r r y u g Z N u y 5 9 6 ",
"M V y N R G F C _ _ ( ( } ' ' }  . .` ! ` g i 7 7 3 < 2 2 + 6 U ( ;.%.#.#.>.&.#.%.} } } ) ) ) A g r r a a u u a w a g N 6 y y N ",
"` %.( ( ( J _ ` $.@.' ` G ! ) ( g g k @.;.} ( U A A A Y U Z N ) ) ) @.} ` } ' #.=.} ] ' =.>. .) S r e u y r r g g u N V : - 9 C ",
"X.:.+.` Z Z ..W D g 6 m G u y V D L Q ~ ^ / Q b Q / [ F F A B D k k ! S S ( ( ( #.' ` ) ' }  .%.} ' [ Z A M g g g g G D r 5 5 ; ",
"$ m W X.) ) $.' X.D m ( $.W W ` @.~ c k c c k v b ^ / A - = g E ` k ~ [ ( ( ` o.@.#.G D ( [ | ~ [ #. .J ` _ ' W J A D ( W A 6 r ",
"6 6 I ) / U L ! ~ ! ) ` } ) ' R U c j l c c z j v b ^ ^ k - g ! ) ~ ~  .' ` +.+.) ( k n u G ! [ | #.' y G T _ _ _ m y D D D G ` ",
"' } #.;.>.} Z Z U S L Q x U _ G P c j k c j j j z b b ^ k h Z ( | / ! ! ) ) J H ( ) ( g y S ! U ) } ( D Z ; > n n t g D t m ' ( ",
"t t m V D G G D F ( U g k G ` ` ~ v c c j s j z l Q ^ v w 7 g U / / S g S U D Z G ( ` ( ! U G A G ' D ) %.#...+.J t > = = t > > ",
"8 > > - e r e t t 6 e k g g ..$.L j l c j k k z b b b v c 3 Z R A A ~ Q S k u g Z ! ! G g i g k U ` Z ( o.o.X._ V J V = t > > n ",
"8 : + > q e > e - - g s s Z ' o.j z l z k k c c b ^ v b b 6 F T g Z U U ! A u w u a a r k U ) ] [ ` N ( o.$.+...W _ t = t 8 n t ",
"> > > > ; ; e > > V U h K ! ' ] U c z k k j a q s c z b v g A N N L U U ! ( G u g g g ! [  .} [ #.( e G ` ` ..W D V 8 n D V V t ",
"` ..' W F M m m R G U ( R J ` ` L k r q - e r 3 r 3 w l l A G N g ( I R ` } ( T R R U ~ ~ P k g G V - y H J J H t t H ..$....._ ",
"W D I F A A F ` R D Z W G J R J D y u u Z U R ' ` F B A U { _ Y ) } | |  .#.| { | ) U g r r i 6 ; ; - y H J J J D J +...W D m W ",
"t 6 8 y t e t H V m N n J _ ..D t t V 6 Z Z ` ' ' { ~ F A U U { #.( E ) { o.#.O.@.} ` T Z S L U S u y D J J J _ ..+.$._ J u > t ",
"- = m m y n m m y D _ D _ J X._ > : : t A G A G ( ` F g y N F U ] N y 8 8 M A G V M C N g G R G g e y M m D G W J ..+.J D m G > ",
"- - M V y 8 > n n V H H D J +.W t t D n e g u y Z G A D t y d A r D G A A F N D W { ` E ( F 6 < 5 g G U A y t t > t ( X._ X.$.J ",
"8 = = 8 6 8 > n n m m m m G D m n V J n = F U U [ ) ) ' D U T ) A ) ) { { } G Y ` o.{ { { A 6 F ) { ' ) _ G m t 8 t y 8 V G G J ",
"y 8 - 8 y m n D V H M V ` X.` X.J n m t t R ` ( ' T R R H o.o.R F N U ` ` U g Z E #.{ E R I E ] Y U U L U R V M Z A M 8 C I F A ",
"D G T J W T H V H J W W W X.#.#.%.` _ ( ` ;.O._ J D H D F G J D d 2 Z A B N C F o.#.E K C C I L Z k Z Z S L A m m M M y V C I K "
};
