/* XPM */
static char *result[] = {
/* columns rows colors chars-per-pixel */
"64 64 40 1 ",
"  c #5B5449",
". c #635D53",
"X c #666156",
"o c #686357",
"O c #676358",
"+ c #6A655B",
"@ c #6D695E",
"# c #726C5F",
"$ c #6E6B61",
"% c #726E64",
"& c #757166",
"* c #797366",
"= c #767269",
"- c #7A766B",
"; c #7D796E",
": c #797771",
"> c #7E7B71",
", c #807B6F",
"< c #827D73",
"1 c #827F78",
"2 c #848176",
"3 c #898376",
"4 c #868279",
"5 c #8A867C",
"6 c #8D897E",
"7 c #908B7F",
"8 c #8A8781",
"9 c #8E8A81",
"0 c #918D84",
"q c #918F88",
"w c #949086",
"e c #95938A",
"r c #99968D",
"t c #9C988F",
"y c #9B9790",
"u c #9E9B92",
"i c #A19E95",
"p c #A29F98",
"a c #A3A097",
"s c #A4A199",
/* pixels */
"+#--*-*,***,;******,,333,333,333733777333;--232,2,*,;2;**#&****.",
"*377777773333333733757773333377rre777er73,2,2233,,,29w622322225*",
"3wretrttrrrrterrttttrte7rre77erttttttttrww0377eer7779ww66660665*",
"7ettyttyytiuuuuuyiyuuuuiaaaaiiiiiuiitttiatr7rttuirrrrrw6666ww762",
"3rutuiuiaiuuuiuiyuauuuyuiiaaaaiiaaaassaaiit7tterrrrrtrqw9w909w9;",
"3tyiyiiaiiuuuuaissuiiiuuaaaaiaiiiaiisaasaut7eee077wwwrrq9485555-",
"3tyuiiiytuutrttussutttttiassaaaaaaaiiaasaateeeew77ww0e08955423;;",
"3tyuiuuuututrtuuuusytetttaasssssaaaiaiiaaatrwrew67ww0656945442;2",
"<tuuiiiiirrrettiaaautttyasssssaaaaiasaaaattrrew95509556685454>>>",
"<uuuuuiuitrrruautauutruuasssssaaaaaaaaaaiii79ww65596606699845>><",
"4uiiuiuuuttttauaaaaauuuussssssaassaaaaiiittrww97w95556556454124>",
"<etipptuatttuiiuttaaaasasssssssasssaaiiiatrrww969555534554241>22",
"<eitiirtiuuisaautaaiasaasassasaasssaaauiitrww7769554552252<14>>:",
"<tsipptussppauiiaaaaasiiasaauaasssssssiuttrwew669559952242<2>;=;",
"2tsssspuppipiiisaiiaaaiiaiaiuaiasassaaaiitrrew77965954235>>11;>;",
"<tuppppuspippppputiaiitiaiaiiiiasaassaaaitrrewww009954422<>;>:1>",
"<wrussspaasspiauttyupuuuiaiiituiiiiiaaaauurerew998555444>4<;=;:=",
";69wtpssssspipiireryuuuupaiiatuaasuiaasspyrrrrw995555544<14=$==%",
";356erupsapyiuuuyrryauupaaaiiiiaaisasaauuyttuew0w95095144>;::>;4",
"-669wrrtppuyttuutryuiuiuaiiiiiaiiiissssssuttrtww00999851:==55555",
"=559wrrruuurttuuutuuiituuiuiaaaauiiaapuuiytrerewq99955544<==$:;=",
";689wrrryyrruetupuusiuuiuuiaiuaiuuiiuiuuuttttte69w0954444::==$=$",
">690eyuuyuuuuyyutuuauuuuiiiiuiiiuiuiuauuterrteew800085414>:;:=>;",
";60qeyuuuyyyutyreettiiuuiutupaiiuiiuuuureettreee00098655454>;:::",
";669yyuuuuuuuurrreeyuuuuttttuaaiiiiituuttrrreeewweq968844411:::=",
"-569ryttuttuyuytrreeeerrtettuiuiiiuuuiteerreeeee0q000q6544>>:;==",
"=490reeuuyetyyyyqqeeqereeweruiiiutttttteeweww9766998885411>:===;",
"->480ytpptyrrrrqe99960wqerwwetuuuutettere0ee07679455444211==%$=:",
"*<44wtruuyeeeqq08990q660weew00euttee7eeeee0qw96684442>2>::===%==",
"*245wtrtutrreee9884806567eee00ttreeweee7q969996585444211>:===%%&",
"*;246tuuuureyre99665564260weeeeeew00w67796858654444122>;:==$$$$&",
"22<26tuuuurryee0q84426622670eeeeew0606665222422242442<;::==$$@@$",
">2<19tiuutyrrre09542212125848qerte006441422144144542>>;=&%%$$$O@",
"<2<35eyuuytree9855445221<55<8qrrrew06422<2221414422:;==&$$+OOOO+",
"-2225wtrtreeweq855455244464<80eetew662>>;;;>>>>112;==$$$$@OOXXXO",
";22357eetrrerrw95422122245->8weerew6622;>;;>:>>>22<;;=$$$oOOXOOO",
"3;<559etrtrerwqq954<>1<2<<<59qewqe0w0422<>>;;;;>>2<;;>:&=%$$@+$$",
"552559rtyreewq9986444141-:589qeqqe9qq882422<;,<22>>>>>:;:>:==@$$",
"414559errurerq9668954454>1490ereeeq99884622<222222>>2>2>:===%@$$",
"<55559eyuureeww99666845445800eeeew99880674<24422>>>24>>>;::==$==",
";53666rrtrrrew9999666555566000wwwwqq06e774242<<,;;>22>>22<2:&$%%",
";55666wrtrweeww00w0096890000qeerruueww6442<2<,,,>;<452<24442;&=%",
"-560060errewwww6999990wqqwweerewew96676334<2<,;<;;>252;22<><;$%=",
"-66w096wereww0w70ww0ww00696609ww0626666776442<24<;;22=;&&&&;;$=;",
",56767wwetre0wwwww9966665969967w6422566676332243242<<,<<4677>=;=",
";5ww00wwrree00669w69768655966669666666666432<<<22<,;;<>;<442<=;;",
"<556w06weeew96555996900696956669696864467664,,2422,;;;><2<;<;;==",
";2235665690906545656966699996559066966677762;<442,;<;<442<2<;;=&",
",,<22324558902222545655245079999w056766w7352;<2<2>;<>2<>2642>;;=",
";;;;<242545461<<<4222<<<<1654448655555w32522,<<,,2<<252296442>;;",
";;;;1>>2141264>>244<<><<<442>45852353573*2<>,;;;<244245596443<>;",
";;-=<;12362492>>>>441<<;>4222>245232235,&*<<2<;<;;2<;255654454>-",
"*@;->><24655541><<2422<>><4<<><5222<233-&@><<;;;>><2<2222>2462>&",
"X.=;>>>41<421;-4<2<4><<244<2<2>42<,<,2;;*;<>2,;<>224>;>>--5w94&$",
"+@&:>>1222<4$&=;42444554242<42>4<<>><,;,;;2,2<;><;2<;;>&-2ww64@O",
"&*$-:>>22244$$%$::4444444244>24<<>;;;,;;--<;;;>>>=;>;>>;;59q9>@.",
"@++=;;;;>;;>-&=$=:>14>>>54>>;:<>;>><;;;;>>>>;-;;;==;<2-;258961O ",
"o.+&=;;2<>;2<->;>;--==;>::====-==;;;;<>;=-1>;;>>;==;<;=<598551+X",
"o@&&&;;21;;>;;;2>>5<%=<>=&===--=;;=;;;--%=;-;;;-==-;;-=2568581$+",
"&&====;;><>;2<;;:-5w==;;===:=>:;===:-=&%%---===&=&;;;-;255565>%$",
";-=-;;;;><<<2<>->:=4=$=;-==:><>>;;-*===&%=%$$%%&==;=-;2366535>=%",
";-;;;;;2<<<24<>:>>:1=@=--;-:><>2><;;;<;=*&%%%%%%&&-=**3667532;--",
"%;>;<<;;><;22<>>>><<=@;<---;;;;2<,,,,-=**%*%%%#&*%*=*23367222,>-",
"+-&-***;*<<;;---;;;,-%*;*-**;***,-**,**-&%%%#%&#&*#&****,-*-;-&&"
};
