/* XPM */
static char *result[] = {
/* columns rows colors chars-per-pixel */
"64 64 101 2 ",
"   c #69666D",
".  c #6B6A6C",
"X  c #706F6E",
"o  c #74736E",
"O  c #747374",
"+  c #7B7772",
"@  c #757876",
"#  c #797977",
"$  c #74757A",
"%  c #797679",
"&  c #77787D",
"*  c #7B7C7C",
"=  c #817F7D",
"-  c #897E7C",
";  c #7F807C",
":  c #82827D",
">  c #88827D",
",  c #7C7D81",
"<  c #827F82",
"1  c #7F8080",
"2  c #848483",
"3  c #898685",
"4  c #868886",
"5  c #8A8A85",
"6  c #84858A",
"7  c #8A8789",
"8  c #86898A",
"9  c #8C8C8B",
"0  c #928D86",
"q  c #928E8C",
"w  c #998C8A",
"e  c #8E918D",
"r  c #92918E",
"t  c #9B938E",
"y  c #8D8E91",
"u  c #928F92",
"i  c #8E9192",
"p  c #949493",
"a  c #999694",
"s  c #969996",
"d  c #9B9996",
"f  c #95959A",
"g  c #9A9799",
"h  c #97999A",
"j  c #9C9C9B",
"k  c #A19B95",
"l  c #A19E9C",
"z  c #9FA09D",
"x  c #A3A19E",
"c  c #A8A39F",
"v  c #9D9DA1",
"b  c #A19FA1",
"n  c #9FA1A1",
"m  c #A4A3A3",
"M  c #A9A6A5",
"N  c #A6A8A6",
"B  c #AAA9A5",
"V  c #A6A5A9",
"C  c #A9A6A9",
"Z  c #A7A9A9",
"A  c #ACABAB",
"S  c #B1AEAD",
"D  c #AFB0AE",
"F  c #B2B1AE",
"G  c #ADAEB1",
"H  c #B1AFB1",
"J  c #AEB1B3",
"K  c #B4B3B4",
"L  c #B9B6B6",
"P  c #B6B9B6",
"I  c #BAB9B6",
"U  c #B5B5B9",
"Y  c #B9B6B9",
"T  c #B6B9BA",
"R  c #BCBBBC",
"E  c #C1BEBE",
"W  c #BFC0BE",
"Q  c #C1C1BE",
"!  c #BDBDC1",
"~  c #BEBFC8",
"^  c #C0BEC1",
"/  c #BFC0C3",
"(  c #C4C3C4",
")  c #C8C6C5",
"_  c #CAC8C6",
"`  c #C5C5C9",
"'  c #C8C7CA",
"]  c #C7C8CB",
"[  c #CBCACC",
"{  c #C7C7D0",
"}  c #CCCCD1",
"|  c #D0CFD1",
" . c #CFD0D1",
".. c #D3D3D4",
"X. c #D5D6D9",
"o. c #D7D8D9",
"O. c #DBDBDD",
"+. c #DDDEE1",
"@. c #DFE0E3",
"#. c #E2E2E4",
"$. c #E5E5E8",
/* pixels */
"M x B B B d x k B c B L E _ | ) m Q [ B d k 0 d c B c x k c B t c M M B B B a B E B c d c S S l B B ) C I ....J ! A s Y Y j m c ",
"x x c c l r p r z B N R Q [ _ L k B Q c d t r a t d k 0 k c B t c c B B c F l R E S l a M B c m c F R b K ` [ ( [ I M ) S x m c ",
"N x k x x s r a z D D I Q ( E E l L _ A d d a d t t k k c B M k M c M M c S l F L M l u x M B S C ^ G G A A ( S A A P ) A B x B ",
"d c z m m r h z d z A K I L F F c R I M c d d m d d x N c B b t l L I L B S B F B g g u 0 a m l M ! f b B L R K m A A R m c l d ",
"M x x d l p 9 j x j A H S A K A g L R M l a t C r k k l M l C l M L E E H L M I b l u g g k A A C R l m R K H K K A C M p a k M ",
"B z d m m s 9 8 j m b A H L K A a M K A b a l k r q a m F S S b K E L I S E b H l 7 w b l g E ..^ K H M m l m A A A m d p r d B ",
"B m B x h e e p s j A H H Y R L b H I C b l b C q - k L E L H L R ( ^ ^ E ) L E K g C Y C C E { ^ R I Y m K A K H C C s d h x c ",
"B x B x x p e s j m H A A H Y H l E H b C b S H d u V L E C b S ^ ' Y S ) [ ) ^ C w U S ^ H Y R A Y H g d l b S K S g s u d j c ",
"B M M m m q 9 p v Z T U ^ ! ( K b C c c b C b H b l w H Y H Y H ` [ C G B E F M l w w g l b H g A b g u u b A R K A j v b j l M ",
"A M m x r q p s n A K H Y Y Y H C S C l b ^ H E k M B H ^ R Y U ( ` U I E S l M k k t k w l Y M E Y b b V Z Y R R C l l m M c B ",
"B M l x p 9 s j V V V A U Y ! K C H H C C ^ ^ L w M Y E ` ^ R ! [ } / Y H S t k u w g w w > k w w l b A m m K L K b a h x c c l ",
"B B d m x s s m Z Z A m S Y Y Y S E S L ^ ^ ^ ^ 7 m K R ^ R ^ ^ ( } / U S S b S b w b l k S S g k A b b b K A S K m j f C B c B ",
"B S x x m r s m C G K A A H S K H b C b A E Y S = a I ) H Y Y ^ ` ' ) R Y L C H b k b b b ^ ^ b b U b A m A G R U G A m K M l k ",
"M B x m M p p m C C H C m d C b g f b b C K ^ R 0 a L | ^ ^ K ^ ' ( ( ( K H M S C k b b g H ^ H b ! C C m m G R U A V m A A S A ",
"l c s Y K s p N G K S l b m H C b l A l S ' [ A > 0 B | ` { R ` [ [ K L H L S L b l C C b ^ ..} H ^ b l b b K L S M M z x M M B ",
"M m l U U g d m A A H m g t l C b S C l F Y Y ( p 5 c E Y Y Y ! ( ` K L L H A L C b H C ^ ^ ^ ^ E Y b C l m S U S B m l m c c x ",
"m x s K B g j M V G G V f f g b b b C g l c ^ ^ a k S ' ' ^ K ! ^ ^ ^ ^ E C S H H b b U K K ` ! H C f b m V A K F B m z x x j x ",
"B c d A A s b A ! G G ! ! f g ! g b C l g E ^ ^ C 0 b ^ ^ R K Y ^ H E ^ E E C H U V Y Y U U Y ! Y G v f j m m A A B m x j a d d ",
"M c l x C p u g V G G G v f v C V H C l w C H ^ l - l ( ! ^ S H b u ^ ^ L E b S C b ! C H A C U ~ C V V A V C M N x j a j l x B ",
"M c M M A b a V ! G G ~ ~ ~ G ! b u g < b b C ^ d 0 k L K ` H Y U S ^ ^ S H b l g u b U K H G b b V b f V j g s j d j j a x x M ",
"B A l m m j v V ! G ! G G ! ! ! b V b g b b ^ ^ S r k L ^ ^ ` Y K ^ } ^ E S S l b l < b H b g y f b f p p j m s j m m m x N B m ",
"c m l h m p p f v V ! ~ ! G V V v G V G H H ^ ^ I 0 0 B ! ^ Y ^ ^ ^ X.^ E L H S S C l b V y f A f f v a 6 y j l m x h h j z B B ",
"B A n j m h g g v ! ~ G v G ! G f g v V C C ^ ^ I r w S [ Y K K ^ ^ ^ ^ ^ E L S C C a t g y y Z f f g 9 9 p 5 h m N h e j x N m ",
"D P A p n h p p v V ~ ~ G G ! V V v v V C g Y ^ Q a q M | { ' Y ^ | | ^ ^ H L H C L b g v u y v f b l 6 : 3 9 5 d h d p z j z B ",
"I K A m v h f h Z K G ^ ! v v V V V g v b A ' ' E k = l ^ ^ ^ ! ^ ^ | E H C H E L B k A V b f v h f v 8 < 3 9 p d x a s z j d m ",
"R W m s V n f 9 f G G U ~ f y V g v V b b l S C E b 5 k R ( R Y ^ ^ ^ H ^ ^ C C A H b b b g i j j v f 8 a h h m m x j p z m d x ",
"I m r 9 f v f , y U U ~ ~ f < v G V < H b l H ( ( K t c ( ) ^ Y ! ! ^ ! ^ ^ S S S Y V b V b g g v j v i i f u m A m d s j m a x ",
"z 9 i h v v y v y ! ` } ~ v < f G b b G a u A R ` Y 7 w Y ^ ^ Y ! ! b b [ ^ ^ S B Y C C k f p a s v v m h i a M A M m m m M x B ",
"T N j i j n y 6 f ~ { { { ! f V V V V b f f b m U B r w ( Q [ H K K b j E S H S m m g b j 4 O : 9 V p s p p p m A A B m m A M E ",
"T z s V n V v i v ~ ~ { ~ ! y v b V b b 7 b A u 9 e a r m j Y A ! [ K b ^ E H M x m a d j r 9 p a m N h h a a m F F M m M M a L ",
"R A D T D G J n v ! ~ ~ ~ ! f 1 < g < w < 5 0 s e s s e 5 r j A U Y m h b j w w j z z x x s d s e s N j j z l A F A b j l M m R ",
"W U W ( ! T T n 6 V ~ ! ! v y y b b g < 7 7 p d d j a 2 r x 9 s j a 9 p u 9 q u 2 e z e j r 9 r 9 s N j m m j M m l j a l m l F ",
"R B P K / W U h z P _ Q P s r r j j j q e r a h a p j p s j n N j j i p e p p s h h z N A z e 4 s j p j C m m g 3 r q h x m d L ",
"( ( K B K U P c x N I W B a r r B D j 7 s z d a z j m s s j m n m V p 9 p n z s i n n N z i p e p s b v b j g j p r u g m m B [ ",
"o. .P A Z z p j m x m A B j d d l m j 9 s s 8 h j e 9 i s h j z m m i n U / ` J J i n v f s e r s z m a l m d s 9 f s h l M R X.",
" .[ W P m V s x x x m B B m j p 9 j y 8 v J T J h v i 9 s j z h s 9 p ! / [  . ./ J n G n s e e i a h j m b l g 3 a j m m C ^ ..",
"[ Q I Q P K l m D m Z A B x j 9 9 m 4 ; h T J N s s h i e p i s n s s T / J n s J G n n N h i i 4 z U J A m b p p b m m A A ( o.",
"Q  .I L F M m A D B A B B A x p r z 9 8 z m s z s s j s p a s j N Z n z / } 1 8 ! i n ! n p p s i s A J A m m p j G A m A F R ) ",
") ) L F L F I U P B T (  .W A j s z p r j d z N p s z s r j z j s z n z T X./ n v v , G h 2 y 8 & & i Z p f j p f C A m l I P B ",
"| ....o.( K U D B N P  .` U j p s j m z x p h z M c N N s a N z j z z D T ] } / n G n y 8 9 1 , . $ $ Z n h h j j j m h m L E ..",
"F _ ..[ R I R A M l x P I A s 8 s j x x a r m A B A F A j j z A N N B P / ` Q K Z v i i 8 i 8 ,   $ @ v s h z s d s j a m S S E ",
"F _ Q ` [ _ R A M M K F S x z p i s x x j p m D P U S B x N A I W P K I ( W W T T 9 6 8 1 8 8 1 . , 1 n N h p 9 u u h p v V S F ",
"o. .) [ ....R R L m S F F B x s h m P A x r z B A H U A D R Q U / ( W W W W _ _ B s h j s s p 8 , 1 8 i h i p V j p y p h A F R ",
"E [ ( [  .[ ( A m m M F F B x z z U U S m x x P Y ! I P T ( [ Q  .` W W W ] ( _ K l j z p f f 9 , i z s n s n J G a 8 9 h A I E ",
"[ ..[ ..[ ] ( K C A B I K m c B m S F M m l k K A J / ( ( [ E R ) _ W I U ( _ Q j d j M p a e i 8 n J N N z D V n j V h n U I ` ",
"R L [ ' ] I A m b k m S S S A A m B B x m d S P I / ( R ( ) ( ( ] .._ [ [ ( ) Q l r 5 5 0 d 5 s n n h n x s n J J V m J T U A I ",
"U V Y ' ( K m j h m B F F F A B B B S c c d F L ( [ ' ..( E ( ' [  .[ [ [ ( W ( M l q 8 r d 2 e e s s z s d A G Z n j n T Y m V ",
"U m K ` R S M V m j F F F A B x c c k x x 5 L Q ( o...} R ( ^ ) `  .o.....` W ( r s d b e s p e 5 p p N N z A z j j p h G / G T ",
"R A ! ( P V V G Z T K I B m j p p N d 0 p t I Q [ +.O.[ ^ | ^ ^ ..o.O.O._ ( W ( m p m j e j d s p j s j K N D P T D z N J W K P ",
"A A P U J G n n i A n e 5 p e p j B k 5 e B E Q _ +.O.o.{ @.X.{ ..#.#.O.] ( Q I K j c j r z d r r x z e B x N N j z s s h J Z m ",
"B m m A n n s i i 8 f s = : 2 s x N x p x x ) E ' X.o.} | X.+.X.O.#.#.#. ./ R ( p l H h p x x j 5 e s z j m m V z x s p j P D m ",
"V m N m z h i e 8 * 1 4 # 2 2 3 e d A j x d Q R ( ' ( ' ' [ o.+.@.$.#.O.] W R [ p K ( N d l x r 9 2 e r i h z z s x z r v A A V ",
"A N n j p y i e = : * @ # 2 e i r p x m h w K ( ) [ { { ' | | ^ O.#.#.o. . .] Y q d I m M m d r e p r d A A j v z N m h h m A m ",
"C V m p 1 & i e X . o @ O O 8 p j z j x k a E ' ^ ^ ^ ^ Y ^ ^ ^ o. .O...O.O.} I 2 g K v x c x d 9 e e d s e Z T P h h a p h m A ",
"m A j p 4 @ ; 1 O O O + o * 5 9 r x m j d s ) [ ^ Y R H G ^ ^ ^ ( R [ O.+.+.+...x t F B x m j r 5 e s z N h n A D z r p y f v m ",
"m M j s 1 8 e ; # 2 5 : : 2 r s 9 e a a k a ) [ ( ' ! Y R ^ [ ` [ )  .O.+.+.@.I > > B x x c x p 9 s s p V J n j d z p 9 8 q h j ",
"V B A s 4 h 2 2 y y 8 1 4 1 e 8 e e s d a x [ [ } ' ^ ! ! ( [ ( ..' } o.#.+.+.Y + 0 B m m M j r r s j v h n T / z n j s 9 f j v ",
"m B Z s s z y i V p 8 4 ; & ; e p a d j a a [ ( ' R H b m Q W [ O.#.} } O.#...V 3 t M x B x s r p h n l m n A K Z m z h s g j m ",
"x j m n v h p 8 i 8 s 9 # 2 5 5 r a m k w 3 ( ( L A s M B A F P F P M K K G K , o > x j l d s j j h v d x p a a z z z s p j m V ",
"m x V Z V s s a i i 9 2 : 2 p e q g m l e : B ( S l % y 9 2 l j s 9 3 3 7 7 8 9 5 2 r B x a j z j l m s s s p p z z z h r s m m ",
"m z m N m d p r d p p 3 5 q d a a M M d 9 q r j m M l A a p g s 9 p x a u s l j a a x m c d k x m M A m j j m h b m m b h j j j ",
"x m l m M d r d j j a q q q a g l S B M a d d m C j A K V l c m m j A A m a d d x N N l x d l x m m C M M M m m A A C m m v j j ",
"c c k r x a r d x m M j m K H C a l L K j h s m m l M A m s g a Z m A U m l x x B k l d j d l x m M M j H L H m G A j Y A j d s ",
"x x B B B m r z B x m S T ` ( Y l B [ R s x l c d A B x d d l s A b A m c B d m c B l d d l l M m M K A R ( ! m A C g A m q l M "
};
