/* XPM */
static char *result[] = {
/* columns rows colors chars-per-pixel */
"64 64 134 2 ",
"   c #3C1F1C",
".  c #33201F",
"X  c #3D221F",
"o  c #332423",
"O  c #3C2523",
"+  c #352827",
"@  c #3B2926",
"#  c #3D2D2B",
"$  c #3D302E",
"%  c #3E3231",
"&  c #42231F",
"*  c #432622",
"=  c #492622",
"-  c #442A26",
";  c #4C2B26",
":  c #442D2B",
">  c #4B2E2A",
",  c #522C26",
"<  c #522E2A",
"1  c #44302E",
"2  c #4C322D",
"3  c #53322D",
"4  c #5A332D",
"5  c #442F30",
"6  c #453432",
"7  c #4C3533",
"8  c #463837",
"9  c #4C3836",
"0  c #473738",
"q  c #463A3A",
"w  c #4C3B3A",
"e  c #533532",
"r  c #5A3632",
"t  c #543936",
"y  c #5B3A35",
"u  c #533D3B",
"i  c #5A3E3A",
"p  c #62332C",
"a  c #633632",
"s  c #623B35",
"d  c #6A3E35",
"f  c #623E3A",
"g  c #693E38",
"h  c #4E403F",
"j  c #55413E",
"k  c #5C413E",
"l  c #644036",
"z  c #6D4037",
"x  c #63423D",
"c  c #6A433D",
"v  c #73463E",
"b  c #78463C",
"n  c #71483F",
"m  c #7B483D",
"M  c #4C3F40",
"N  c #4E4240",
"B  c #554442",
"V  c #5C4442",
"C  c #554846",
"Z  c #5D4946",
"A  c #554748",
"S  c #5D4648",
"D  c #564A4A",
"F  c #5D4B4A",
"G  c #5C4E50",
"H  c #5E5151",
"J  c #634542",
"K  c #6A4642",
"L  c #644945",
"P  c #6B4A45",
"I  c #644C4B",
"U  c #6B4D4B",
"Y  c #714741",
"T  c #724A44",
"R  c #7A4B44",
"E  c #724E4A",
"W  c #65504E",
"Q  c #6B514E",
"!  c #74514D",
"~  c #7B534D",
"^  c #634F50",
"/  c #655352",
"(  c #6C5452",
")  c #6D5857",
"_  c #675758",
"`  c #695658",
"'  c #665959",
"]  c #6D5B5A",
"[  c #735553",
"{  c #7A5653",
"}  c #735856",
"|  c #7B5956",
" . c #775759",
".. c #745C5B",
"X. c #7B5D5B",
"o. c #75605E",
"O. c #7C605E",
"+. c #6E5F61",
"@. c #735F60",
"#. c #7A5F60",
"$. c #766262",
"%. c #7C6362",
"&. c #7E6866",
"*. c #7A6668",
"=. c #776A6C",
"-. c #7C6B6B",
";. c #7F6F70",
":. c #7C7170",
">. c #834D42",
",. c #805F5B",
"<. c #81625F",
"1. c #826564",
"2. c #836866",
"3. c #836C6C",
"4. c #8A6D6C",
"5. c #84706E",
"6. c #8A706F",
"7. c #846F71",
"8. c #857171",
"9. c #8C7474",
"0. c #8B7877",
"q. c #8E7778",
"w. c #877B7B",
"e. c #8F7E7F",
"r. c #907775",
"t. c #927C7C",
"y. c #8F7E80",
"u. c #917F80",
"i. c #8D8082",
"p. c #968385",
"a. c #9A8585",
"s. c #968888",
"d. c #9A898B",
"f. c #A89899",
/* pixels */
"t e ; ; ; = r y K x f f r J <.X.X. .[  .J 3. .{ a.%.[ 3.#.U -.L J } I i Z V J ^ 9 % / I u I : 2 2 : 6 # # # + + 8 h $ 8 % q q w ",
"7 t x L L Q u 2 2 t J L y E ! s #.a.( U 1. .[ k 9 7 : q V > 3 3 t V V i t y e V 1 : 1 $ q w o X @ O N @ O o + + $ $ $ % h N # $ ",
"u e k e i J t e e U ( U U ( } ( } $.( Q 4.[ Q U X.J L } E g K f f J L J k k i M 6 u M q A w # : 1 7 A @ + @ $ # $ + % h w A C j ",
"I e i t k x J J [ J f < r u : e y < X. .U a y 3.3.s a s d f ~ i f g g L f 3 2 - O w _ A 6 o o # - @ * O + + . o $ o $ 6 e 7 i i ",
"U J J U f Q L P E U E #.P [ U U [ U  .1.U c X.(  .[ U E [ P K k x I I P J J L I J / _ F A M 6 : - 1 2 9 - + + # q q 8 q w B j u ",
"k x L U ( 2.P K T f U 2.J I [ | %.K P T T { a.-.1.X.I  .} f f k s U L f c f i V J ( F u 7 9 * O * - 9 h 1 7 j w q 8 % @ 6 Z 7 9 ",
"U K | Q X.[ K P  .K E ~ ! E [ U J E 7.1.| ! Q i } [ K P K U ! ! n c c f P e y r t A _ D B $ @ 9 1 7 j F B / j j j 8 % h F B t t ",
"U O.X. . .U ! |  .! | | E [ ( %.[ 9.7.@.1.4.%.3.i.%.T E ! P { K v c c c ( P x J k F +.' _ A 6 u 6 6 q Z B / / C 8 # q h F B u V ",
"V L f J V  .[ ! J P I  .f x U i ! 1.#.f f  .#. .f U P [ [ 2 t r r J i y y r y x 4 y y 3 t V - * ; - 2 2 - > 5 M 7 # 7 9 7 7 7 u ",
"L U [ Q ( #.] ` L  .8.( Q %...( @.@.*. .| 7.*. .8.3.1.1.4.( [  .I [ U J W U K } W e J / w S M 5 7 M w 7 M M M M w t I V M u w A ",
"E L g U E s E U U 9.#.x I t.3.X.T ~ 9.q.E [ 3.y.f.3.,.{ q.%.1. .s U I g K P K [ S t J W > 2 M : 9 V > 7 M r M 0 7 9 3 e i 2 7 M ",
" .( ( Q V I ..E <.%.( U i I ) V ^ @.[ Q ( q.[ @.V J I O.Q U L c x L k f i i u I ` I @.I ` 9 e 7 > 7 M M 5 7 5 M q w B V M u M P ",
"J y y y e S L L J y f  .P L y t ^ Q  .( %.t...r. .L K 1.L x c K c L i i i J Q o.] / $._ _ M u > > 7 i w y e M e M e e J i t V M ",
"E Q [ f y f M f <.T E R Y 1.r.I U [ #.Q T E 1.E r.| c g T E [ d m m m T U l l l s i ^ I S t > 7 w t t V M S U J i i k f i P U y ",
"[ I ` S J L M L  . .<.<.1.1.d. .Q *.1.r.6.4.4.[ 1.X. .%.[ &.X.K ! ~ R R ~ P [ P P ( #...^ M 9 w 9 7 9 7 M E U U M g J M M V L L ",
"u  .k T #.w. .Z : : M ( ( y e ( 3.I f M A y.u.Q y f I ( J f f f L ! b >.m m ! K K f P ( Q u e 5 2 7 u 8 M e M M r J 1.` I 0 0 u ",
"U @.[ Q [ #.r.#.W Z ) } ..O.| %.9.a.t.%.L t.s.d.u. .E L L U  .L J K x M U g T L L #.7.=.-.^ B V u 2 9 w 8 N u w Z L [ @...w / Q ",
"f M [  .E L a  .U 3 r y y O. .P g ! 4.J r I %.u.d.@.P f a r } J r f e 2 I s M y y *.#. .+.V - B 9 1 2 7 1 C B i I Q P V w w w J ",
"K U X.1.1.%.U U x y L P x [ O.! r.3.W I U %.[ I ^ [ #.3.i x J i U T s y s w u [ t ] A B =.F 7 7 : > 2 2 1 1 1 B } #. .F u w 9 V ",
"U J { { | X.L L U k { 4.U U U ( &.6.p.q.%.7.u.#.L e i ^ S ( U T P L P J J J M ( M ` _ / ] V t 7 u u I V j 9 9 L ( U ( t 9 u i M ",
"W x J O.L J U *.Q [ ~ ~ ~ K | %.x U 1.U X.} 3 a E < y > u u I [ 3 e U e x ` M e  .r L ] > 5 V : 7 N O $ D q w L J Q u 7 F B t U ",
"U U U K T E P U x U ~ T | ~ R ~ U !  . . .X.[ Q [ L L ^ / L I Q J  ...P J I x U E M @.^ 9 B M 7 9 q 7 C C u F F w q 7 q w u i L ",
"c n c s s 9.c v n T | l z c v c { g a y f f } A u [ B W 1 - : < a Y T K K x c T K M J e : B * : - O 1 V e 4 : w w : 6 : # 1 u t ",
"x I ( I L O.k I x n R c [ | c P c c E i ) U I M ^ t i ( K k L t g f g K x k i M e S U S L S 7 : 2 : 2 2 2 w w u A B V [ ) w @ 1 ",
"e y k 9 t e e Q U c v s ! T y s s y x t 7 3 i e j - i U K i ! x J s l c L k y k M J ( J M K e q 2 ; 2 7 2 7 7 t e S i J L B : 6 ",
"L %.%.%.! x v x U J E ! P s l ! U P x i e e i 9 e 2 e u U y s l f K s z z l s ! J U 7.U T J 7 7 2 9 : 6 : : u u u u e M B 5 6 7 ",
"I -.3.k U #.[ f J r E | E 4 y K ! Q U K i / t t u i e u Q J P E P ! l c v c x | J Q G U E P y e t M w t 9 9 B I B i M T i 7 e 7 ",
"u L J x K Y f I Z e a g y / q 9 t 6 6 / I ) 7 7 V P t r y y K J g c c c ! y d l g J ..P Y R v g f t r s ; e t < t M f M t i 3 i ",
"J L U Q (  .L L Q P U K c [  .! I L V L W ;./ -.%.$.( Q L L ( W ( %.[ E ! U U [ W J W L P W s x x t i ) w A M u j u B V L V j V ",
"f i M e Q [ g K c g U f g a g p ..B 2 4 t *.o.! x y f x 5 : e < 3 L ! E P c K { t r u V $.O.3 s s r e u : > : w w 6 9 w 3.e i e ",
"V L L k ( L Q V t J J f [ I P L L x i y t U  .! U w u W Q U P J L k Q I j J J j u j u I I u J Z u I W / I w F / q 7 q B _ : 6 q ",
"P J f J e > I V y L f f ! t J %.! y i J J x r y Z w C / P K P R { { ..j e V Z i k F J ( I e  .j 9 $.H +._ w B B 6 w q G ] 7 : w ",
"J x x k L ! x K E x } P P c E c  .x i L k x L i k L I J [ ..Q [ [ *.Z x k x x [ Q U J M T K ! c J f y F j q 1 9 h j 9 w 6 t t u ",
"i k j t k t 4 4 4 4 Q P c c s x J i x J k J Q K x x ! Q %.Q n E ~ O.Q P J P x I L U J i U { K J P V j L t 7 9 j C j 8 u B M u t ",
"x t r 3 2 i y t s l c c l v K k x I I  .9 2 t ..-.) Q { ~ T  .! K x L J L x x f i e M > r s y i L i 3 t 3 j h B H W # w w k t u ",
"i y j U Q k Z L y y x x ! ! Q I } 3.6.*.I L u A ( W Q { { Q ~ U L P L I L J L .. .U [ L V I Z V V J / V u F u 7 Z w w j B B u C ",
"t 4 3 e ~ y 3 4 4 4 x x l Q a s U y y f f K ^ 1 e < s f I t y r 2 t $ 2 s s s x u M 4 i u ^ 2 e 2 @ w V 7 : @ 1 D q B e e ; 3 3 ",
"k k V i x j k k J i k L U Q K k L J / ( t J U J [ ( x P U I  .Q J J I J I L L I I L ` U +.@.^ I / j j j V j j 7 B 9 u j u 9 9 u ",
"r s 4 3 , 4 r 3 x l d z d c J y i y r J I r r ; f M e s y r P P c l y k L ; 2 7 r = J u t w e t J t t i 2 1 j t t 7 9 V w w 2 e ",
"x k y k y k s l x c x x x c I k V ) t $...Z  .J K y J U [ L U x x V k u I y i I P M L S I } V S V V t ^ 2 9 2 w / A j B V w k i ",
"3 e r s l y r r 3 e 3 h , j U &./ ] V Z e * I i y e e i ( y l x y x t t j y j Q V ( / / B ^ i i y u 1 L e u 7 _ =.B L i t i y e ",
"k r 4 j l c s l l k j r r k x P x K  .U u t J I O.t t *.( J U s l x U j 2 F k L ) k u ) V 7 V e 7 Z u k Z 7 9 :.I 8 Z M 7 M i t ",
"y 7 < y c n P k 4 x j 3 k x l U K K k ( i  .P s } V t O.%.U [ J J J I 2 9 L V W ) J V F u Z V V k F j F h 7 j ] F 7 w w t I u t ",
"r t e e V J U x r r k r 4 y } W [ f y f l Y U K R y e  .9 2 e e t W k k j y t P r t 7 2 t / : 3 4 r y k y y t 3 B # : @ q H V k ",
"2 > ; 3 i 3 4 r e 3 k j 4 4 i e L i x U U i L Q o.k j / I j L F W j j 9 k k j I x t V V Z V 9 u k j k k k x k x F 7 6 7 q j 7 3 ",
"3 3 > ; ; * ; t r 4 4 4 < k k , ; = ) ( r 4 4 4 ] t 3 3 4 3 V 7 * - - * j y y r e t V 6 7 e e e P y r y j u j u W 1 : 1 2 7 2 i ",
"r 9 9 u I o.B k e 3 r y y j k j i I ( %.Q  .X.W W 7 2 L L L Q } W W j t j k k L i J V i t V V i k k h e j h j y j 7 6 6 j h 9 e ",
"3 ; 2 = J i & ; ; < r 4 4 , ; < ( j J * = 2 _ : - = : w L x x l c P k 3 e 9 j x y e 4 r e i 2 3 3 r 4 h : - 2 2 9 7 1 $ 8 6 2 < ",
"7 9 9 t j 2 e k k 3 k k l 2 k l O.3.%...( ` ) ( ) ^ ^ U P U Q U K x K P x k x y x l J ( J V j V k h h 9 2 9 2 j B u 9 u j C t k ",
"* : 2 7 2 2 ; j e , , , 4 3 k 3 y c Y <.i e ; y t Z f V J U U W x c x x L k k x J k B I 7 t i f x + $ F 9 w 1 u w 6 1 u 1 W J e ",
"3 7 e j I W ; < 3 3 k j t , 6 L k c x c K 3.) P P f J U u j k t y Z x x j y y U 4 t 4 y 3 i e t 7 2 9 V 2 u I L u 6 B h q B k > ",
"& & X & 2 3 , ; 2 , l 3 , k 2 x y s y l y ..o.J J L J I j 9 u t u W Q j k I k I x k i L t L J Z L B k W j k B j 7 1 w w 9 7 2 ; ",
"j 1 : j e : j 3 e k 2 2 j y < y k L I 3 , L t 2 U ( 7 i t 3 x i ; k k i L V , k ( 3 t J < 3 ( y > t 2 2 Z > 2 7 & 2 u 1 1 Z j 2 ",
"k 7 9 j h e j 3 e j 3 j j 2 y W C Q W W ..3.L L / -.} ..V i W I x W L j D B F W ) W I I S ^ L Z F I t j 9 9 j h j j h w w B j u ",
", ; ; & , k ; < 3 k 3 , , , < 7 3 , < r y I x P P [ L C 2 y ; 3 x t O @ X X - k s x 2 > t V < i 7 y 2 j e 3 2 1 7 9 1 - > j 1 2 ",
"6 6 6 2 7 j 2 2 ; l l 3 j e 2 k k 3 J e s ! W K J f P  .J U U J Q L L L I L k L k u ) ..] F B u j j h e 1 k j 7 9 6 2 6 6 9 1 1 ",
"O : ; & & & 2 3 3 ; 4 ; , - & 4 , , r 2 ; = 3 ; k e l 3 k c ! c c a c y E x x c l i ^ ^ S ^ ` B q . @ # # 6 q 7 1 w u w L e 9 7 ",
": 1 e x x Z l & X - 3 3 3 l l ! U k u B k Z F L o...( o.Q / W k K Q t t 7 3 j j i u t 6 F 7.( I t 2 1 1 7 1 : : q 1 6 6 ) # % 1 ",
"; & & X : h X X & 3 j 3 4 3 , x 3 < , < X.6.j k * y 3 I j 4 4 r y V 2 2 1 6 2 j k e 7 t ) 6.J f t j j y e : 6 : 1 @ * O w $ o 6 ",
": ; 3 3 h e e 3 k 2 , ; 2 2 h x x ) 1.o.*...( o.0.9.Z L x k } L u k J u j j t j u u ^ L J M y w w j 2 2 > : 7 6 1 - : 1 V V o # ",
"- & 1 < & ; l j k j 3 3 2 ; 2 3 i k L 3 4 i 4 e O.*.j e k k Q j 2 h e 3 x j r y j V D B j t t u C ( u j q 8 B B 8 9 q 1 N N @ O ",
"7 : 7 9 h j e 2 3 r 2 j e 2 j x j L F Z W O.j t t Z W V k j Z W x k 2 h j j k x k B j t k F j u 7 2 7 w 1 2 7 j 6 B w w w q 8 # ",
", & & & 2 j ; 4 , r , 4 , ; 2 k J s i I I W u V W L / ] W / k k ) I x L e : 1 L k L j j u u 7 u 7 7 2 7 9 u q q q q 8 8 q w 6 # ",
"k 9 e j e j 2 2 e k l k k j x ) I x U 3.U 0.I I 0.3...p.o.o.o.k j ) W j k k k I 9 7 W W B C 2 2 7 1 1 # O # # % % % # % 1 $ # 1 "
};
