/* XPM */
static char *result[] = {
/* columns rows colors chars-per-pixel */
"64 64 80 1 ",
"  c #8B7E51",
". c #8E8256",
"X c #8F845C",
"o c #918557",
"O c #92865B",
"+ c #95895E",
"@ c #988C5F",
"# c #8C8565",
"$ c #908763",
"% c #968B62",
"& c #998E65",
"* c #958D6B",
"= c #9A8F69",
"- c #9C9066",
"; c #97906C",
": c #9C926B",
"> c #938E72",
", c #948F79",
"< c #969175",
"1 c #9C9573",
"2 c #9F9876",
"3 c #96937C",
"4 c #9B967B",
"5 c #9E997D",
"6 c #A0956E",
"7 c #A2986F",
"8 c #A09772",
"9 c #A29975",
"0 c #A0977B",
"q c #A39B7C",
"w c #A89F7F",
"e c #A8A07F",
"r c #979784",
"t c #9A9781",
"y c #9E9A83",
"u c #9E9D8A",
"i c #9F9E90",
"p c #A29D83",
"a c #A29E89",
"s c #A09F91",
"d c #9FA090",
"f c #A6A185",
"g c #A9A385",
"h c #A5A28C",
"j c #A9A58C",
"k c #ADA88E",
"l c #B0AA8E",
"z c #A5A493",
"x c #AAA692",
"c c #A7A897",
"v c #ACA994",
"b c #A5A799",
"n c #A8A798",
"m c #ACAB9B",
"M c #B1AD95",
"N c #B1AE9B",
"B c #AFB09C",
"V c #B3B19E",
"C c #ADAEA1",
"Z c #B1AFA1",
"A c #AFB0A3",
"S c #AEB1A8",
"D c #B3B2A3",
"F c #B9B6A4",
"G c #BAB8A7",
"H c #B5B5AB",
"J c #B9B7A9",
"K c #B7B8AE",
"L c #BABAAD",
"P c #B5B6B0",
"I c #B7B9B2",
"U c #BCBDB3",
"Y c #BDBFB9",
"T c #C0BFB1",
"R c #BFC0B6",
"E c #BFC1BA",
"W c #C1C1B6",
"Q c #C2C3BB",
"! c #C7CAC2",
"~ c #C9CAC2",
/* pixels */
"OX.%@O%&:*&::=+*-:::6-66-:-&*@-:*+=::1--+=&+&=--@-%%&%   @ %@@@ ",
"OOo$*$*:&-*:;:%&-%-:::@-@--*$+&-:$%--=--%%@+%%--@+%% +%+ @@ +&&@",
"$+.O*$*:%-&&:1:$*&::-:--&*:=+%*=:=:---+-&O+%++&%%@+%@&-  +@@: @ ",
"&$+XO+&--%=:::-&&*:::-6@-&&+++---=:2----&&&OOO+&+%@@-&-@-@-&6==6",
"%+#+$$*&+$:::-==-::7:---%-%%O@++&-::-=&&%+&OO+@$+@+++&::=:666==6",
"&+OO+%+$=-*=::7::::99--%&&O++@&+&:::&+%%%&@+XO+&%@-@@-==& &8==-=",
"%%$O$%%&11&-&*=:-::::6:7-:=++%+$*&::-+;&%&%+O%+%&-@--=&+ = 8=6@@",
"O$%*%%$*:1&*::=-:*:%--79::=$%=$&+&:;-%-*-&%$*%&%@&&@=:=:==::66==",
"&%=1&;;;:2-&:2:-;-%:2&66-:;-&&-%X-::=====&===*--:-&%=&=:===1==6&",
"-=%;;;:::7---;-&;%%;21::-11:1;%O*-::::6==%o6==6@++++%==%====6===",
":;-;:;1:991:-::;:=&=2:8:-1:1;;-+-:21-6:&+@@%%&&+ &%+%=:&==686=@=",
":-1:-1:::1-111-&--=1:11971:1:1:X&-::===&&6=++&+% =&&%$$&=@==&=&=",
"&&@-1:1::-;:1:7:&+==::12:-::-:&&&:::-=*=::6%O%%%==&O$%&=&&@@@@@-",
"&&&&:--&;::1711:==-=1971:-1779-1:&:-=&&&&&&6+%*O$=%+%$&=+ %@ &@@",
"=-+::;&&:11:79::::::-2:-:177798:8-:-&*+++%&---&O%&==8:86:@@&+@@@",
"=:+--:-;11:-197:1::::::-:9776:222-1=-:@@&%%==&&%%&&-6=888:&-@@@%",
"&-&%+%;12q1888888::::*--:89::6:9=====&@@&@+&&=%$%&&6:88q::&&+++@",
"&=@++%--:18888-66&=::=69276--787=:860==&+@&+==&++%&669q966=%@++&",
"%&@@@%O%-8968:&6:=::6--11999799q86106=:=-+@@:=&=%&&=-888:-6&&@%%",
"%+@@%OO-1:6==-%=&&=19e9999e919e988806=6=&+@&=&&&&&:&&:6==:6=%&@&",
"@&@o@++++&:&%&%=1129999eeee81219808=:==&@ @-&OO&:66=&&=::==-@@%%",
"+&@+o++@@==&::&=8:9986899q029968:=&&&@&@:+&-=+OO-@@&&&&&:=&%+++%",
"%@+ooo@&&=1=%::&11999:89:29eq879868:::@-----6@@@%++%&+ ===&&+@%+",
"O+OO@@--=*=::1::618:82789eeq98896886:&=:-6--=%@&@%+%=%&:===&%%+%",
";O@%+-:;%;@;:=:::2q:66880wgwq818:=:6-:-:6-@@@@+%&O&-&+@%===:=&$%",
"&++X&-%---:--::&-qh0-989wwegf9qq8%-666:%666@+++@&&::=%%%:==&&=&+",
"-@.O&%%%%&&-:92:8pqpw9wwweggw25q06-667&-6@&%&=%@=@+&%%%&:=&&===6",
"-OooXXX%%XXO-:::11qgg9pp:qwgep040q6667--6&@o%&&%-+@%-=--8:6:&=1:",
"+X+++oO+XXX@@&-:4qpjjgwppjfgffq20w7666&&@+@@+%%%=+OO+&%%:%-&$&&%",
"%@o+++XO+X&-&=:250axxlwwehjgggwppw0666-=@+@-:&-:=*+O.O$&%:1;&&%%",
"%OoooX+Oo+@&--@-=2axalMMjvkjvjggpgw7966-6+o@=-:::=+%$*=:-=::*&&O",
"%%@+++%+%@::21-:1jMxDVVFVvvyvvkvjllggww8-%@%191:1;*%+&1*::1=&-==",
"261%+%=%:2qqq9860xCHCmfvVVDDMmMvjxZDvg9:66-7w91==%*=-:q:::;;1;-;",
"200=+$*=4wwjw0002xDnbnhkVVLLUGVLJFUJVjq9679egpap0=%=;:qq11<141:<",
"pqq2*#*3pjgMjfppfvnzbChBFLKKULHWUQQFFMkq9wwglpalp1=:1:1541<1134p",
"ppp0:*1qpjpjgfxnmmhhzr5xBFGDGLRRT~~FGNMlg79gljalf5:*:;2p544<<45q",
"f5q4=0qwwggmvjZnHJxjy5acvVRRLFRVmYTFFNxNvpgMMjhp45<111qyy53;53<1",
"f224*2qppjavxjzbmFHvhuyzhBGVGGRmvIYYYJNNNMlMvpxxf4>>>5qyy<<;35*<",
"p41<>40gglFNvmhyxZmvztyhvgMmMFRGvVDKTGFKNNvNMamxh4##<y5yy31;;5<4",
"h2>**1qggMULVDDJKKDmhvchfqMFADchhmHNJFTUDFNNmxnzzy><33qyfh52455f",
"hy,*>44gkNFvxvWRQUKZxnnh24pgmDmVmSKHQDLPDNmmZmnxzy3<34445y0eqhpp",
"ja533pppkvVhphDDUTTZCDzhq2hhmxSHSSSDULJDZNNNKKxxjhfyfe5e522ejzfh",
"qyaatppfhmmvjjvvCHDDmCvz0qfMxvDADSHAKQUKKVDmmHxahyy5epfffq2qhkhj",
"145apyufqhqhgjvDDDDYKKmmfkvVmVDZHIIIEQULHNHCmnDJchvxjhqkhp10fyje",
"0;4ppyy5f55yfvvBbCDYWRJVvjVVxmCDHHYEY!UGvkDNkpmTBzcVVegvkj2fffjx",
"24fhapaaxhpfffjhuCHULLHvzhxxpxCDASDCCDDMgvVmNakDSAhzBjvvvB5pyyej",
"qhxjvxxxmkf2qjcczCCIKYPbjhzzpvKQHJYHUDMkfvDmDjvvDHmkBhjfvh5peu5h",
"jkmmmvvmBjy42ccCCbCHYEHnnnatpjmZDUQDDCMggmNDDMMNCvxhvmMzvh45355f",
"hhBcChhkxke4qhfmCbibIUCbvzyy4phjmVmbaxxjzmCCvvMDvzapxvkjczy44p5p",
"yfxvmhmHVHvgffgmzbzCCCmbryf44pjxkAmdzmjhhzzzkwvFDvx5kkkhvxpfpfqp",
"yyhmHDSHGGbvkejmzmzbzbzytdu3uazphhzszCDvxbzCnpjVmxxaxMmmvvfhvjaz",
"5yyhASAHKVDVmgjMSvzddzuyrdbtuuhyxvhzamDnzzuzzvkVNvxmHkjDcjhjzpyy",
"p3tyDDDEPDDDDggVDxhudcdyruuruyaahyunnHDCxbzyjxNVDDxxDvjmNmvvxyy5",
"zytzCAVLUSCDLlgDDxhytyuudzddbdanCzvnmmCShzzynZZjmPCxvmDmDDnmxfhp",
"hhrudcfvJKDKWVgMmmvzdythnzyyuaphxmFVNjvnhzxhnDZsxPUxxvmmmmnhypyp",
"zdytzbcUHmDLLDVjBAzh3<45hy5yuhmjvMFNmjvxhhzhxVDxpZCpumhhhay44p5j",
"auaraxpDmhbCHHNjjMvap42y445ahvnvjjzBVfjyppsapxnxamZaxZnap34<p44p",
"zuuyajpjhyamKJkjppaar<4h21<>5hvvhhfvBeMhppaa0aaxxnHNvnZa4<3*3*=w",
"azuttaaxhdyzmHvjpyftr,3y2<*>yxzzhfzvv2f4pp9pqpaaxCNjpsCa434*#**3",
"zzuataanzh54hvvhppyh4y2<*;<4zzphzhjjf2<208pp00ppaas4paap<4<=***>",
"bnpzpppa3ty5ynxjhhtt5p4<=:*4hfphcvfefgefqavxypppyptpasa0,>t0y53y",
"zaaup44appaabmvHDmfhpq4;==$*qjhhAchfhgfvjTFVgkaap00taa96*>tphayp",
"p,45,,tps3pyamNDDVhmxp52:%125hzmBBczkhfkMMZZaNMaappapp0>*$*4pxa1",
"a3*4,,3asjkmnzzxmmxnxjfqy4112hhmBvvxxvffpjjvaxlgaaavp<<*:*:9jaa3"
};
