/* XPM */
static char *result[] = {
/* columns rows colors chars-per-pixel */
"64 64 29 1 ",
"  c #5A5640",
". c #5E5B44",
"X c #625E46",
"o c #625F48",
"O c #656146",
"+ c #66624A",
"@ c #6A664D",
"# c #6C684F",
"$ c #6B6751",
"% c #6E6A52",
"& c #6F6C58",
"* c #716D55",
"= c #736E59",
"- c #757056",
"; c #797257",
": c #75715C",
"> c #79745E",
", c #7D785F",
"< c #777360",
"1 c #7A7662",
"2 c #7E7965",
"3 c #7F7B69",
"4 c #817B66",
"5 c #827D6A",
"6 c #85816D",
"7 c #88836E",
"8 c #868270",
"9 c #898472",
"0 c #8C8876",
/* pixels */
":=>2:;44444755;;::44&==;>;*=;44:44:4550544##444444#4#444@#<&4444",
"2>;-14444>,4551;::::=====>=>4444*4455005;4444444444444#44#1::4:<",
"1>>1;*,:=:=:1444>>>;=;*;=44444#4;;::44444;444444444444444*4444&=",
"=%&*=;*:;:4414414>:===::%:>44#4444:;%***#;4444444444444444441:==",
"*&%=22=:*&5111><<===-=>=4%#**%44544;;*44#;;;44;4O44444554444:==&",
"%=*:2052>11=>>:==>*=>*=-4;*#*%#*5544>;=:44444;4;444O4455544::4:&",
"=:-2255544251>==;==%>>>144:$#*##454;*44*444444444444444555=*==4&",
"1212255255444<=*==*$%>--*44=4#4**4&*4>4*#;4;;44444444444554==**=",
">14<<555531241<:&%%%->:&-,33>&*#+#4*44O@#444;444>465545455:::=*=",
"=*>>22<25<<21>=*&%&***::122%*->*%***@4#4##OO44;;>;44514355:::&*$",
"=*$-52&<<<<>:$$$&%%%@&:::*>::,>&%%#;4@$#O44O4;;4>4>>4433554=====",
"1==<55===&$$%o$::%@%@->::-&:>>&@#*-*%$%##O4O#4##464>>413554=>>>>",
">55254<===$$%$%%@#@@+@&1-$::--&##*$$O*4##4XO#4;;474>;131<111<>4=",
"=:135<=<<=*%&=%@+####O@11@*:%**&#***@##@4O4OO4#4;6744111<<:><:<:",
"*$%12<2<<<&$=<=@@&-%##$:3>12-%*#*;**@@@#OXO O#4#%>5245441>:>114*",
"=%*<><3211=$=>;=*::###@@&23:*&%#+%#$####44444444,:>>145>4:::1:4*",
"&*%->::<:%%$%&%&:>2*%@%@+:<=%&#*:%+@#*%%-22>;;46444:-335>%:-::2=",
"@%**%@&%@%%%%%%%->:&:#@@:&+=%%*&=@%1*#***;2;,4444>,>>664>%-:-=1%",
"#*%*%@%%@+%%&&&&:-%%%%%%@<<<:%#%=>24*#%=-:-;467744>42212;#*-*=<%",
"***#%&&:&%&*>1::1-@%==%@%<$&%oo&:122%#>>22446677664212:**%***-<*",
"->-%@&1:&==&:11:1-@@%<<%%%+@@.+121121=24455676696652321:-*=:::2<",
"1-:->11:==&:&::::--%&%+$$$@@oo#27215:%5559970977>6653>:::**-=>11",
"1:>-:136:--1-&*:----*:%@@%+@o+%11252:%:77799999944312:::31:>>523",
"=->::<3812321**=-&%&::&@@####*23244:@%==:78>71=5644543>25553:112",
"$%::-<251<1:;----*%-**-%%#%*&:22-*%%@*><$=5<%*&<621666165561=:*:",
"&--->:131==****--%@%%*%%%*%>**%+@+X+$$=5:++&==<<2=:32622466-1>11",
"%:11=1134>=**%*--#@@%###%#**#%@+@@@%%$%*&$@%&&$%<-11>>222441331@",
"=1::<333:#**%*%%%#####*%*%#@@@#@+@%OX@$$$15<+o o+@@:1::>2111133:",
"<1<=1533=@*-&%###@#@###%**@@+@##X$@@o+@@@@+.o..O.o.=223464333533",
"333123151::3>*%&#@##@###%%@@@##@@@*$@@=563o .@@O@$+:2366214321<1",
"=<<<=<<11:=<@@:>:&#@+###@@%@@#@@%@o*<%10881@$@%%*@%&>6661-111<:1",
"<<<<<<<:<1<1&:1131@@#####+@%##+@@@@2595588833:%:::*=,6263:2<11<1",
"1<<:&&<<<233&<2<2:##=<+#@OO+##@@#@+=59950055553545555555444><114",
"<111<=&:<333<<<<2<#%%#++@@OO%%@%@@@@@*9555585535555555554454>>1<",
"3233<&&:<3<3<2<<3,-+X.o#@X+@%%%%@$#@+o=555505553505555555555<14<",
"53553<<1<386<<<333<&@Xo#@@@@#%&$+@@%@o$<055085355555555545551=<>",
"66543:<1<,33<3333333<##@@#@@++%$@@@OX@#%<5555<255555455554334:<4",
"53<*:<<<<363333863333=#@##&%o+%%#@@OOO@o$455532455554455552221<2",
"25::2><2233366933683<=&#%%%&#@%%###@X@#@$%555:*455555555555542<2",
"251:>22323333866363<=%&%%%%#%&%%*##O@@#@*$554&%455555555555554<:",
"5522333333323666883<:*=%&@%%-1#####@$o$o@$4%>=:55555445555555<<<",
"22633622366333<:583&=:::%&#@#&&%####==*$@#>#*%&455555545555553<<",
"23322322266<2<:<<53:*-**%%%%-$$$#*>;****#@$$%$$<553<<355545541<4",
"53223>:22363:&:<<<3::6::562<%@@$$>4::&**%=4444&255533544555544<<",
"222333233663<:<-&::&303%&<1$$$$$@><54<>4444>4455555553335<5543<&",
"113126532632<,<&-=:<66<#+$%%&&+.%41<1>:>444>1454555555<1553<<43&",
"1113:133368322<***&&<:##@+$$@++$<12444<>4>>:14:455555<<3335333<<",
"3356133633963,:%#*:$$$$#%&:$$..$<<2541>4;44454>50555133555111134",
"23433636236322>@@*%#*2<%%31%@o..<<<5552>4>;>>;=40555533<55<<44<4",
":123333>>2>->2:%@@@@#*3<%&1%O.+$==<5452414::4:,45555553<454>&=<<",
":12211:&#&::::>>=%**%%33$%1%+++%=&==141>>>4144445555554<<==$$$<<",
"--:::&:&%&>>:>>144>>*==1&3=@@O+%&%=;>>=<->>444;44555444><<<$$$<<",
"3<::1&:%%&1:-::1>>**@@%%&3:@+@@&$===<>*>>>=:14=*<4==444<=44<$&<4",
"611<<::::&11::334>*%%@@$15::=*$===*%=:*=>>4>1*%%&<==>4444<<=&&&4",
"13<1:1<31&33::264*#*@o$>3<::&:<=*$$*=$%*>4>>;%=>=11<>1<4<44=4<<<",
"11<11115612>:12,4>>1=*%====%%--:*%%=;;*#+#*=>;%=&=1<<<<&$$4<<<<&",
"333333386:1>121>4>444=>1<;*%*%$@@$$*=;%%#%*;=>;4::1:<<<&&&&4553<",
"33388835816322&:14;=%*%*>;%@%$oo*%$$*@@#;=;==>411:1:=4<&&=435555",
"<38888366:>2>12><>=%%:*@@*;%%%%%:%%$*#@X@%;==;>44:14445541543355",
"33808866:&::%&1:1=$%;>>==21=%%%%*$%@##%#;>:=:4>15>>4:45545533555",
"331733,---:>:&,:1<<=>>%*>>1<>=$%*=1$o@%;>4>>59555554355531545553",
"1:%;,>,,1,252211<<=&<1<%=>=>><%%=>==*;4<>457955554144355<14<<535",
"4,:>-;>,:1588983<2<<111<>441441>1<=*154>1444955541145<<4<<4<<<55",
",2>>23>2232598521321<>=>%=51>41755425554>;=47755441244<<<<<=4555"
};
