/* XPM */
static char *result[] = {
/* columns rows colors chars-per-pixel */
"64 64 143 2 ",
"   c #221C15",
".  c #2A251C",
"X  c #2C281E",
"o  c #30291D",
"O  c #2E2820",
"+  c #332D22",
"@  c #363126",
"#  c #3A3326",
"$  c #3C362A",
"%  c #3E382C",
"&  c #433B2D",
"*  c #4A3E2D",
"=  c #443D31",
"-  c #4B402F",
";  c #464134",
":  c #4C4434",
">  c #4C4739",
",  c #4E493B",
"<  c #514735",
"1  c #534937",
"2  c #514738",
"3  c #544C3C",
"4  c #5A4E3C",
"5  c #57503F",
"6  c #5B503E",
"7  c #61553E",
"8  c #544F40",
"9  c #575143",
"0  c #5B5443",
"q  c #5F5946",
"w  c #5C5648",
"e  c #5E594A",
"r  c #615644",
"t  c #625946",
"y  c #695D47",
"u  c #605748",
"i  c #635C4B",
"p  c #685E4B",
"a  c #655F50",
"s  c #67614E",
"d  c #6A614E",
"f  c #676152",
"g  c #6C6453",
"h  c #6E6856",
"j  c #6C6659",
"k  c #6E6959",
"l  c #706653",
"z  c #736A55",
"x  c #796D56",
"c  c #736C5A",
"v  c #796F5B",
"b  c #77715D",
"n  c #7B725D",
"m  c #736F61",
"M  c #767262",
"N  c #7C7462",
"B  c #7F7865",
"V  c #7A7769",
"C  c #7E7969",
"Z  c #7E7D71",
"A  c #8B7E52",
"S  c #807663",
"D  c #827966",
"F  c #837C6A",
"G  c #887F6B",
"H  c #827F71",
"J  c #8D8155",
"K  c #8F845B",
"L  c #918457",
"P  c #92865B",
"I  c #95895E",
"U  c #988B5F",
"Y  c #8C8361",
"T  c #87816D",
"R  c #8A836D",
"E  c #918660",
"W  c #968B62",
"Q  c #998E64",
"!  c #958D6B",
"~  c #998F69",
"^  c #9B9166",
"/  c #979069",
"(  c #9C926B",
")  c #868271",
"_  c #8A8472",
"`  c #8E8975",
"'  c #8E8A7B",
"]  c #938C74",
"[  c #988F70",
"{  c #928C7A",
"}  c #979173",
"|  c #9D9573",
" . c #9F9876",
".. c #96917B",
"X. c #9B957A",
"o. c #9E997B",
"O. c #A09366",
"+. c #A0956D",
"@. c #A3986F",
"#. c #A09672",
"$. c #A29974",
"%. c #A39B7C",
"&. c #A89E7B",
"*. c #A6A07F",
"=. c #A8A17F",
"-. c #928F81",
";. c #959382",
":. c #9A9682",
">. c #9E9A83",
",. c #97978B",
"<. c #99978A",
"1. c #9C9A8B",
"2. c #A39D83",
"3. c #A29E8A",
"4. c #A6A185",
"5. c #A9A385",
"6. c #A5A28B",
"7. c #AAA58C",
"8. c #ACA88E",
"9. c #A5A393",
"0. c #AAA692",
"q. c #ADA994",
"w. c #A6A79A",
"e. c #A8A699",
"r. c #A7A99D",
"t. c #ADAB9B",
"y. c #B1AC94",
"u. c #B1AE9B",
"i. c #B3B19E",
"p. c #AEAEA2",
"a. c #B1AFA3",
"s. c #AFB0A5",
"d. c #B3B2A3",
"f. c #B8B5A4",
"g. c #B5B5AA",
"h. c #B8B7A9",
"j. c #B9B9AC",
"k. c #BCBDB2",
"l. c #BEBFB8",
"z. c #BFC1B5",
"x. c #BFC1BB",
"c. c #C1C3BA",
"v. c #C4C6C1",
/* pixels */
"K K J W W K W ~ ( ! Q ( ( ( I W W ( ( ( #.^ ^ O.( ( Q W W W W ( ^ W W ( ( @.( ^ U ~ Q U W ~ O.W U ~ W W I I L J L P L P U U W P ",
"P K K W W Y ! ( W ^ W ( ( ! E ( ( ( / ( ( O.^ Q W ( ( ^ W I W ( / W W ^ ^ ^ ^ ^ W W U I W W ~ O.U U W W L I I L L U U P I U I I ",
"P P A K W ! W ( W Q W / ( ( ( W W W ( ( ( O.^ ^ ! Q ( ^ W W W / ( ( ( ( ^ ^ I ^ W I E E I W W U U W U U Q Q U P L L U U W I W I ",
"~ W E P W W W ^ ~ Q ( ( ( ( ( ! ~ Q ! ( ( ^ ^ ^ ^ Q W W I I ( ^ Q ~ ( | ( ^ W ^ ~ Q ~ P P P U W I W U W ~ W ^ W U I Q Q ~ ^ ^ W ",
"W I W P W W ! W I W ( ( ( ( Q ( ^ ( ( @.( O.^ / Q ^ W W I I I I U ( ( ( ^ ^ Q W W W U I P P P W P W U W I ^ ( ( W Q ( +.+.~ ~ O.",
"Q W K P W Y W I ! ( W ! ( ( ( ( ( ( ( $.#.^ ^ Q Q Q I P I U W P W ( ( ( W I Q W W W U I P I E Q W U W U W ^ ~ ~ Q W Q +.( ^ ~ O.",
"W E E P P ! W W ( | ( ( ~ W ~ ( ( ( ( ( ( +.( +.( ( ~ P P W W W W W ( ( W W ~ W W Q W I W W P Q ~ U W ^ ^ ^ W W P W Q ~ ~ +.Q Q ",
"K W W ! W E E ! ( | W W ( ( ( ^ ( ^ / W ^ ^ @.$.( ( ! W W ~ W W W / +.~ ( Q ~ ~ ( W W W W W Q W U W O.U ^ ( Q ( W Q ~ ( ( O.~ ~ ",
"Q W ! ( W / / / (  ./ Q ( | ( ^ ( ^ W ( | ( ( +.( ( ( ( / W W W P / ( ( ( Q ( W ~ Q ^ Q ~ W ( ( ^ ( ^ Q ( W ! / ( ~ ~ [ ( ~ ~ Q ",
"~ Q ! / ( / ( ( @.| ( ^ ^ / ( ^ / ! W ! | ( @.( ~ | ( | ( ( W I W ( ( | ( ( ( ( ( I U ( ~ Q ( W I I P P W ^ Q W ~ ~ ~ ~ +.~ O.~ ",
"( ( ( ( ( / | | | *.( ( ( ( ( ( ( W W (  .( #.( ( ( ( ( / / ^ I W ( #.| ( ( ( ~ W Q U Q Q Q Q P P W W P W / ^ ^ ~ ~ ( #.~ Q Q ~ ",
"( Q ( ( ( | ( | ( ( ( ( | ( ^ W ( ( ( ( | | | #.#.| ( | | | ( I W ^ +.( ~ ~ Q ~ Q ( Q P E Q I W P Q Q Q W W ! W ~ W ~ O.~ O.Q ~ ",
"W Q W ^ ( ( | / ( ( ( ( ( @.( | W W ^ ^ | ( $.$.@.Q ( ( ^ ( W W ^ ( ~ Q ( ~ Q ~ ( ( ( Q I U W ! W ! W P W I W ^ W I U Q ~ U U W ",
"Q Q Q Q ( ( ( Q / / ( | $.| ( ( Q W ( ^ ( $.| ( ( ( #.( +.$.( +.( ^ ( ( Q Q Q Q W ~ ~ ( I Q W P E Q W W W W W ( I K I U P U U W ",
"^ ( W ( ( ( W W ( | | ( #.%.@.( | +.#.( ( | ( ( ( ( #.$.@.$.$.( #.^ ( ^ ~ W U I I W ^ ^ ~ ~ Q I W Q ~ ~ ( | | ( ( W U ^ U U U U ",
"W ( I ^ / ( ( ( | | ( ( ( $.( ( ( ( ( ( ( ( ( / ( @.$.@.+.+.|  .#.( #.^ ( Q W W Q W W Q Q ~ W W W U ~ ~ @.( | #.| ( ^ ^ U U U W ",
"^ ( ^ W I W ( (  .%.| | $. .+.#.#.( ( ( / W ( ( +.#.$.O.( ( ( $.~ ( ~ ~ ~ Q W Q W W I W Q ~ W I P ~ ~ O.O.#. .%.+.~ ~ W I I I W ",
"Q W U U I I / / (  .#.+.$.$.+.+.+.( ( ^ ( ( +.#.#.#.+.O.( $.#.#.~ ~ #.| #.~ Q Q U U W U ~ ( W W W W ~ +.( %.%.$.+.~ O.W U I U W ",
"W Q W U W I I W ( ( #.( ( ( Q ^ Q Q ( ( ( +.^ #.+.$.$.$.+.#.$.%.#.| #.%.[ O.~ ~ O.I U W ~ ( ~ ~ W W Q ~ O.#.#.%.+.+.~ Q W U U W ",
"W U U W W I P ^ | ( @.^ ( ( I ~ Q ~ ! | $.$.$.$.%.$.%.$.+.%.&.%.| #.#.$.#.~ +.O.~ P Q W ~ Q W ~ O.~ Q O.W ( ( O.~ ( +.Q U O.W ~ ",
"U ^ U P I I I I I Q ( ^ W ^ U ~ | | | $.%.$.$.%.%.=.&. .#.#.#.%.#.| | ( +.Q ~ W U L U ~ Q P P Q O.~ O.~ Q W ~ ~ | ~ O.Q U U W W ",
"I U U P L U I I W ~ ( W ( ( W ( | ( $.$.$.+.$.$.$.%.&. .$.$.+.#.( ( W ^ ~ Q E ~ O.W U ^ ( I P I ~ Q Q W Q ~ Q Q ~ ~ Q W I I P W ",
"Q U I L L I W U Q ~ ( ~ W ( ^ W +.| $.$.$.( $.#.+.$.&.$.%.#.+.$.#.+.+.+.+.~ W W ~ O.O.~ ( W U U W P U W Q I P ~ ~ ~ Q W I U W W ",
"P U I P I U ^ ^ ( ~ ~ ( | +.( ( #.#.#.( $.@.@.#.%.&.&.%.$.#.#.$.| #.| +.~ ~ O.( Q O.~ ~ ^ W U W Q U P U Q Q P ~ ~ ~ ~ ( W W P W ",
"^ E W W I ^ ( / ! W W ( ( ( ( | ( #.%.~ ( #.#.| %.&.7.=.&.#.| #.( W O.+.( ~ ~ O.+.+.W U I W I W W I Q ( Q U I W ~ ~ Q ( ( W W W ",
"Q I I K ^ ( W ^ W ^ ( ( Q ( ( W ~ 2.3.%.( $.#.#.&.%.=.7.5.$.%.%.$.W ~ +.O.+.( Q +.O.O.^ I I I U Q W ( ( ~ W W W ~ ~ ( Q W ~ W I ",
"^ U J I Q I I W W W W ^ +.$.#.( $.2.%.2.&.%.%.&.2.&.5.5.2.#.%.2.%.O.( +.+.+.~ ~ ( ^ ^ U Q ( W U ^ U I Q W W W W | ^ ~ ~ ~ ~ ( ( ",
"/ P P J K P K W W K P I W | ( ( X.X.$.5.2.&.2.5.| &.=.5.2.%.%.#.%.%.#.+.+.+.O.~ O.W U U W Q Q W ^ W I Q ~ Q ^ ( #.( O.( Q ~ | ( ",
"U I I I I L P I K P P U U ^ Q ( #.%.2.3.7.5.2.3.2.4.2.5.2.4.2. .o.&.#.+.( +.Q Q U I U U P W W W ( W P P W Q W Q ( W ( Q W W ~ Q ",
"Q I L P I I K I U K W ^ ^ ^ ( | X.%.7.0.8.y.&.&.%.4.5.5.5.5.2.2.2.&.$.O.#.#.O.^ U I U ^ ( ^ ( ( W W P P J P W E W ^ | ( W W W Q ",
"I I K P L P P I K I U ^ ^ ( U ( ~ %.5.0.3.0.7.5.5.q.7.6.q.7.5.5.4.5.=.$.$.#.O.( O.U P I ^ ( ( ( ( / W W I Q ! ( ( ! ( / W ~ Q P ",
"! U I I I I W P U W ( (  .( ^ @.#.2.0.0.u.<.v c H ;.0.2.q.y.7.q.7.q.8.7.5.&.&.#.^ U U ^ (  .| | ( ~ ! W W W | Q ( W | ~ ! ( Q ~ ",
"%.( +.W E W ~ Q [ $.&.&.%.#.#.( %.0.p.e.m > 2 : > F 0.p.u.u.q.q.7.0.d.a.q.5.#.( +.O.O.@.&.%.| ( ! W ! ! / ( %.| | ( ! } } / ( ! ",
" .#.%.~ E E ~ ! X.2.%.8.%. .%.%. .0.p.C a l u g 9 : ,.k.j.h.i.j.h.h.k.j.i.7.%.$.+.+.$.5.5.&.6.2. ./ W ! W (  .%. .( | | |  .| | ",
">.2.%.X.~ G ! ..2.7.2.y.7.3.2.2.2.0.) u v N u g c i j ;.h.k.j.z.k.c.c.f.f.y.7.&.$.=.&.7.8.5.7.0.4.( ( ! | |  .o.| X.} } X.X.X.>.",
"2.2.2.%.( Q [ 2.2.5.3.5.5.5.0.0.q.0.c > l c p 4 i m , > M 9.k.k.k.c.v.j.h.u.u.0.5.@.@.7.7.7.3.7.2. .! ! / /  .>.o.X.X.} } X.o.%.",
"2.%.%.X.~ $.%.&.2.5.2.u.q.5.p.r.g.p.c > 0 j 9 @ & w q z a f d.a.q.k.l.h.f.d.y.u.q.5.5.8.q.7.6.R } X.} } X.| o.3.>.>.../ X.X.} | ",
"2.%.%.} ! %.2.2.2.8.3.y.q.0.9.w.a.u.k 8 q e & o * : : = 9 a V k m ,.k.k.c.f.u.u.u.q.8.y.0.2.F 9 b { / ! / o.o.2.o...} / X.o.! } ",
"2.#.X.[ { #.&.5.5.8.f.a.q.t.9.>.9.H + + $ 0 : # 4 4 < * y 4 3 4 2 c e.a.k.j.d.j.a.i.q.u.t.` q 3 h ..R R ..>.>.2.>.X. ./ / o...X.",
"3.X.[ ! ! [ %.2.5.y.k.k.u.d.i.d.<.8 = = % , w 4 g M z 0 r 2 3 2 : 3 -.0.h.u.k.j.h.d.u.u.;.g y 0 s { ! } ..X.o.>.6.6.o.o.X.>.X.4.",
"9.>.{ ] ! ..%.6.8.t.f.q.9.t.c.d.u # : 8 > 8 a j H F c u a r 4 i 9 2 -.p.k.d.k.g.d.i.t.u.e.g i i s d } } .. . .o.o.>.%.%.%.6.2.2.",
"7.3.X.:.X.>.2.2.8.q.i.7.2.7.t.Z 0 9 0 p w e m ) H S N v z u z M v g j ,.k.k.j.d.p.t.u.u.j.r.c r d t ` >.4.o.4.>.2. .%.2.5.0.3.6.",
"%.2.3.3.>.o.2.4.5.u.i.t.6.7.1.j 3 u 4 a 8 3 c F H S D D v c D F G F g ) h.x.k.g.j.i.d.r.p.r.b 0 6 : q ] >.4.%.6.2.%. .%.6.7.7.5.",
" .} :.2.2.2.3.6.2.6.o.4.6.4...M = 8 9 c g 0 z j N G D j c g v F n v M j ,.l.k.k.f.i.f.t.3.c q 0 q $ > b X.5.*.0.6.%.} %.2.2.q.2.",
"o./ X.2.>.>.>.X.2.>.X.>.4.8.0.9.c > w a p t v G G -.3.` D D N z n T S d g Z g.j.u.7.d.i.X.h 1 4 d 6 t 5 0 R 5.0.0.7. .4.4.4.4.0.",
" .X.4.6.3.2.6.6.0.6.4.4.6.6.0.6.C a a N S G _ ) H D ` ` F N ` _ ` T d g r 0 v 2.4.0.i.y.u.>.c 1 $ - : @ > R 8.8.0.t.o.2.4.>.4.8.",
">.6.7.7.r.q.0.0.d.7.>.o.%.7.q.0.{ m w m C _ _ H F l p ` ....{ F ` ` R R N x t d ] q.i.t.u.7.q.] ; $ ; ; e ..7.2.0.7.>.2.>.4.o.4.",
"7.8.u.e.u.q.q.t.t.7.2.| o.q.e.p.r.,.k u z N H ) G H N { 3.0.:.` _ N N G F N g t p F c j M z F ' f f ` ..0.u.u.0.r.3. . ...o.>.6.",
"6.7.i.r.p.6.0.q.8.0.%.| 4.4.6.t.p.9.' j M C c N M _ ' G { { { _ ` F i z _ T _ N p i d 2 1 & $ ; F 6.0.4.9.) ` <.r.6.>.o.X.3.o.>.",
">.2.0.0.r.6.t.d.s.d.t.5.4.*.6.t.r.w.<.M e k 6 M F _ c c S 3 i _ F x t r N { z p M c 0 * * 2 & @ k ;.0.R w O + e V ] o.X.>.3.o.4.",
">.>.6.t.g.d.s.g.h.d.t.0.7.%.7.q._ M M f i k k s M ' ) ` F z M H G c F N N _ z 1 s g : i t d p > , :.q.T @ . $ , , s b h T 6.6.0.",
"%.>.>.6.s.s.s.g.j.p.>.1.7.5.7.1.8 . O : e i V h i G F N l z G ] .._ R N c D b 1 i i : : 1 z u & @ f ) 1.V ; = w 9 q w ; > R >.>.",
">...o.1.s.d.s.x.d.Z 8 a ) o.2.N & + & 3 w 3 g N N M N T T D S G { _ N M N R B r 1 k h 1 0 M y * # O % : w > @ , = ; 3 ; % , B ..",
"9.3.:.9.w.t.t.j.-.% = ; k ..} e # 0 u r u $ 2 g c g g C S l i z c : 4 p i z z 0 $ r c : & q a 2 3 # : , O . @ M Z $ $ + . = i _ ",
"6.6.:.1.9.9.>.:.a % w 9 k ..b , 9 a N F F z g 0 0 N z v z g g N D 0 i G G n n r & 4 x 1 & 5 6 < - & < q 9 $ @ > M 8   X % 5 g ..",
"9.9.>.X.9.r.9..., 9 C e 9 { g i z j N C G { p 8 3 u M ' z M n n n p p u l z t < : : t 6 - d d 3 # & t 5 > % O @ % e 5 h ] .. .6.",
"3.9.3.{ 1.0.2.9.m M 9._ M j 0 a M a l D F D S N N H R { _ D x x G D { F S G v 4 5 ; t x 6 B ` h < % q 9 i h , @ $ h ]  .4. .X.4.",
"9.1.1.X.` D { >.{ ..1.{ c f M C _ S N N D l v D z A x x x l v S l D { x p t 0 4 0 < % s k 0 D k , > < , ; $ ; ; , > q ] o.} } o.",
"9.9.9.;.h $ 8 0 , g c p d z F F _ G _ G ' S l v v x z x x z l S v F G D q 5 p 4 t 5 3 d B f k f g n b , ; 9 ; q a , $ 5 b Y / o.",
"6.9.{ k > @ 8 0 , 1 k M i d z j D _ a r g M x x p r l D i r x p x x S x D D c q s 0 t b g s b B b h h s e 3 $ 0 q 5 , % = b ] ' ",
"a m , ; = 3 u g N C M z g i t v v S a 3 l l x x p l d v z v r S G z x x b ) g r l b b b h g B B B c c M c 9 % , s 9 e k i 5 e > ",
"% . + > 9 z S m a g w w u p r v l 9 9 < l S 4 1 4 t 4 p 1 * * 1 p y 7 4 y b t ; s z B n h b g q q d h M C s f s h e 8 f i ; $ X ",
"% ; > > 4 r N F j r = p i a z S N k c c p p y r 7 d < d p r 1 1 6 A n d h s q r q t t M ) ` M s q h b M Z c V T Z h e k c h j 9 ",
"; e c g g u 9 z F M 4 z z a a g c H ' H w * * 7 r l * < y 4 * < 0 0 d n b r s t q s e h b b g c i k h g b h c b h k f e M m h f "
};
