/* XPM */
static char *result[] = {
/* columns rows colors chars-per-pixel */
"64 64 59 1 ",
"  c #5F6367",
". c #646566",
"X c #686767",
"o c #676867",
"O c #6D6B67",
"+ c #666669",
"@ c #65696C",
"# c #6C6C6C",
"$ c #716E6C",
"% c #6F706F",
"& c #74726E",
"* c #7A736E",
"= c #6C6F71",
"- c #6E7173",
"; c #747473",
": c #7B7673",
"> c #777875",
", c #7C7976",
"< c #737679",
"1 c #7B7778",
"2 c #76797A",
"3 c #7D7C7B",
"4 c #817774",
"5 c #827B76",
"6 c #887E77",
"7 c #837E7A",
"8 c #897F7B",
"9 c #7F807E",
"0 c #878077",
"q c #898076",
"w c #84817D",
"e c #8A837D",
"r c #90867E",
"t c #7C7F81",
"y c #817F81",
"u c #7E8182",
"i c #848483",
"p c #8A8682",
"a c #878886",
"s c #8C8985",
"d c #848688",
"f c #868989",
"g c #8C8B8A",
"h c #908783",
"j c #928A85",
"k c #928E8B",
"l c #8F908E",
"z c #94918D",
"x c #99938D",
"c c #8F8F90",
"v c #908F90",
"b c #8E9090",
"n c #949392",
"m c #999593",
"M c #9D9995",
"N c #979899",
"B c #9C9A9B",
"V c #A29A95",
"C c #9EA09F",
/* pixels */
"eeew8e8jyhhhjhhk0330p7esp>;7wiwwe0,>wp,,ep77eip7&:,ee5;::;;:o@wi",
"pepe745pshhhpyjkpw33033isw3wsw,w977990er5;:70ee:.*,77;:70is5;70p",
"espe7;5pp8ppppkhsw37wpi3wiwwpa,3ww00aew97:X@;e>o $::8ie3>ww7eqe9",
"ssps731077pyjjpree27ee0;99w97pe7>w9,w0,076X@;,@#2;*:8e53:ww:*,9e",
"eawaw954:#;7swppwi3ie5,,w3>7:we39:99ewe970733e##t<:577:;139>;>ws",
"aasja0,7;=<7ssphwi:e05wa3>35:,>,,999www,67;$7p>%277:::#;;ieee0ws",
"waaswa0,:1ppswieia3iwew>:&,,:,,>*9ww9,>*7,@ <3&$#35:5$$$;p0>9,9w",
"9eraweew35ehspksa7,0e0,;>>w3>aip*9w9999;77#<3;&>##:*31&@&e,:,399",
"iwajae00:7pwwskssiwrrw09di3iwsgs9erww999ww><uu5>;&:,:;=;;7;707ww",
"wwwjjr651eseagksjgwgzwwwt33spkxsqrrsp9wwrw>93e&%%;0,:O@;33<*>;wa",
"gw>9r464*8jejgjkpjejsww93y3wezxsrasae3>0sa>-&>>#+#>e5,>:307;O&wa",
"aw3,54577jjep3;wsx>>je99i333iskpwajaiww97p9;%%9><29we7e>;33;.%ws",
"aw>93,56:0jegfnfmxppge3ww3ffffssajpjlgaw,09w<;>2>2w>,;2%;900;>ea",
"sjsp7;,:%*rejzNdMxpkjp3aa7sssspssassaawi3wae3-<9239w3>>=%wa,,waj",
"ejzzw->0%9ejzxndjxjxxj7peytisikksaeesjzaw9aai<tfsw9w,>>;>>9%9wew",
"jjkxgu2j,0siazxdxxxxx55aa7ppfysjkjaapgzsiaaiuuua>>3,9->;><%9wwrw",
"lwszzrww33upskxkVzkmx0iisksspsgvspgfi7skjpaudg3>9wiw3;715$3575sf",
"jkjkawli;fvaskgskkkkrpdisgfkfsmnaiaffifkh73iafi39iw>32w33ep67ihp",
"kjzlzzj9<kNkgmnkxsnsjksskgggkgkvfatiipispp733wiaw93373w37se77whx",
"wwrgd99>;ixssmmnxjkjjpagknNnvkggi3iaiida3373it3sagai7i33$;360iei",
"aisp>-=-<1ckvsMmmgsjjkjskknkgkazdddgbfasadi3i1aaias1yw72tt=<waik",
"u<knauuudfvNmvBngkszjxksdzzlgaagnzgnngkkasfiiyisiwsyt3:<tt<-23<a",
"a3agiggftjMNnknzffakjzjfgdgnnfccvvnmCnggpjiifffpissy3<=-tt3-;33f",
"aaglggau<pmvnknvfcdshxjpafcvgcgcgsnNvcfgskkfyipckf3ttt3<<y7t2tak",
"uaszass3=<fvfkvkcnngjzpyfnncdudfdsgkcdgvyfksyfspikvi<=3t;;;37i3w",
"gngfawpp2-tsgdcggNngxkpycccddudddgfdfgnvdgvfggfpssgft<22;-<37iai",
"zziid07p23iigvvfcNngnnpkkgfy<ufdfubcffccdgfsfsfpfsssi<3i3<3,9wia",
"zfii3w04;tttggnccskgnmkksigdiufaccdgfdfgiyfdyppyksdsaiuadiiii33a",
"igw33775yi3t7ycgngkknnnkdfknkvddngtisffpyw3tisfkkgfkkbgggdikawii",
"ejpii,;7y75418isknnmmvsfkvvMkkssasddvkssssiiisnnkffscgNNnggsasjw",
"pjsaj33issy77yisgkammnxdkvmMkfssiskgvkpnNvpdsknnspsckgnMmfggfkka",
"akzsswufka3t772dgmnsNmmkfmmmgssy7skkspksnsdigkgkfssiiffksfsnfssi",
"wazaw;9aeiuu3<idfgnxBnsnnnfss>9isfkpisksgpidfgagai39fgff77pkpfsy",
"393>-2a3www333iiaegznzfgjwpii99isfsiepkfkgudfgeiksw3i3p77$:7skpy",
"32&;239wi33<335pawpjMzgfsw3iiuwgfipp73wpgkggzlgakssg735711;&7e31",
"33<>3>333333yiipsgkpzsaesiisu3agspii75,wagbzNBzgsssai513;:6&*:;,",
"9>>9>99uu3t353iissssaiweiu3paawiskkiw35iwegasspsfsss756*;;0*>:&>",
"w>>93>9wi9i33tyi3asspaiipiiegaai33saaspewwp3774wpype6e6*,>,,,,3w",
">>;3u299i9titiw>>ia79733sf3iiew333was:;77w>33w776he07re$,&;&>>>3",
">3;93wu9iuiuiu3@;53y33w3iasaw0>37,ai3#;77w3>3we7p0e00eq:$$*o.;>>",
"itiiwww9iiiuui7ai3113tiw3u3a7>;,57e3;<9ppw9957,70peeerq,,&,O.O3i",
",iew0e0,3y333iieiiy5wsswwiwas7557;:>333w99iw3w0w9wreer0;5:0>@@;3",
":76767777i7237yipiy7sapewi3ieww3:2ii32>ww33www04e0w0ej07e9q0@%71",
";;7767003877i0iw0:3ipp03i70e7w9,;3iiw773e0we0,713wwepjw0r*0e;%;;",
"a,wrper6;555sep7537jsi33w>33ww7:>iiii:,5ew0e0wepseispj757;5e9;>i",
"pasgjp05,e57yp7p7,7js32>7>77,7>;;77y3774>3ee5pe7e3ejre7:5$5073>w",
"wagepew7;07epre57:3psaw370p5:73:3155>601;7wp5i5,w,,eeje773077>3,",
"ipsespiw::5pwee71#&7siw9www5:75147p675713p7w7wp70ie0ee0w7i5550p3",
"l0eeph0,:t3s7phe7==1pewi7w7ep74;55587;43a,0eejs0pee0e,,r0w>ew7ww",
"saww65:,-;788ph875;X1iat7777e15:4177:46ppwwe0pe05757q:,,,w0ww,as",
"r&907644o;77e7:787$:tfu3355573114:i757epi0:77p505e5450:::,ww,*;s",
"e9e0e6:*.;57erpe41&t3;::;1347,$&555::8ejw775:e7000550:>00w90;7:7",
"0q8p6::1#;$:8r886441i314781441$:187;*5ee0e77,5e7ewq54*&,,0ee5,7,",
"308e4*4:<ty18468844777y155:&84:*45:84467we77q500e7*&***:&*:0035:",
";5er45671;148r8r88741y5:37115574584056eqeq475:0q0:54*0:7;&:7,,:,",
"&,7r45761<:48jh86741513$171;2yy88w0errre5:45,70&,,547::7,>,ee,::",
"7,7r35hrhgi7hpe88441375751:::5856e8e646h55:7q045::::57%**:$0j573",
"y86888hhyyephhhp841:1yp8711::7p7ee76165rq540q0550q555&o,70:555w7",
"8pp85ypspp8pkjxh84$1588y771118ppe75e75ej05,q555q54**O..:05,5*,77",
"4py87hppy878hxkwyy4557yppy77ppp577phe5765qqr44:qq5:&&5&%;$:>:,77",
";3i3ypspyysysk87sy77epi0yy7ies7ipw7wpe75:*4r,weeq,.o ;;:;O%&;7*&",
"77ew71yjypkpsp8p555t7pw377wi70pp70wps05&q*:r0ee0q*;@%#@:O$O%,7>2",
"eepw$<1hhkjskhhppp7i7ppsw,3wwpke5pepj5:;44er03ek0w>3p0#53&:,,00p",
"ejj;$<7j5hxkjhhe7333wsass39>,ak5ee7,p7,*,,eseejjr*&7rke,3>,r*,ee"
};
