/* XPM */
static char *_ec9f57d91344927d4fcba94d72483909tcmNm2hld76ycd8[] = {
/* columns rows colors chars-per-pixel */
"64 64 154 2 ",
"   c #2E2923",
".  c #332C24",
"X  c #3B2F26",
"o  c #352F29",
"O  c #3A2F28",
"+  c #373027",
"@  c #393026",
"#  c #37302A",
"$  c #3B342D",
"%  c #3F382F",
"&  c #3D3731",
"*  c #3E3933",
"=  c #41372C",
"-  c #41392E",
";  c #48382F",
":  c #443730",
">  c #443C34",
",  c #4A3D34",
"<  c #443E39",
"1  c #523E33",
"2  c #474036",
"3  c #4C4136",
"4  c #46413B",
"5  c #4C443B",
"6  c #4F483E",
"7  c #534236",
"8  c #5B4437",
"9  c #52453B",
"0  c #59473C",
"q  c #534A3D",
"w  c #5A4A3E",
"e  c #5B513F",
"r  c #624B3E",
"t  c #4B4641",
"y  c #4E4943",
"u  c #4F4D48",
"i  c #534740",
"p  c #544C43",
"a  c #5B4D43",
"s  c #544E49",
"d  c #5A4F48",
"f  c #575045",
"g  c #5B5246",
"h  c #56514A",
"j  c #5C544B",
"k  c #5E584D",
"l  c #5C5651",
"z  c #5E5953",
"x  c #614F44",
"c  c #615346",
"v  c #625847",
"b  c #62554B",
"n  c #69574A",
"m  c #635A4D",
"M  c #695C4E",
"N  c #615650",
"B  c #645C53",
"V  c #6C5C52",
"C  c #6C5E53",
"Z  c #6A5E53",
"A  c #615D58",
"S  c #635E59",
"D  c #6B5F59",
"F  c #69604F",
"G  c #676055",
"H  c #656057",
"J  c #666057",
"K  c #676055",
"L  c #696153",
"P  c #686054",
"I  c #6B6254",
"U  c #6C6454",
"Y  c #6F6554",
"T  c #6B6255",
"R  c #666058",
"E  c #66615A",
"W  c #686158",
"Q  c #696158",
"!  c #68605B",
"~  c #68635A",
"^  c #6A635B",
"/  c #6D6458",
"(  c #6C6559",
")  c #6D6658",
"_  c #68635C",
"`  c #6B645C",
"'  c #6B655C",
"]  c #6C665E",
"[  c #6D675E",
"{  c #6E665E",
"}  c #6E675F",
"|  c #6C655B",
" . c #6D685F",
".. c #6F685D",
"X. c #716456",
"o. c #706759",
"O. c #75665A",
"+. c #71665A",
"@. c #736859",
"#. c #70695E",
"$. c #726A5D",
"%. c #786E5F",
"&. c #786D5D",
"*. c #6C6760",
"=. c #6C6761",
"-. c #6E6860",
";. c #6F6A63",
":. c #6E6961",
">. c #706760",
",. c #716A60",
"<. c #736C61",
"1. c #766C60",
"2. c #756E62",
"3. c #766F63",
"4. c #716B64",
"5. c #716B65",
"6. c #736E66",
"7. c #756E64",
"8. c #776F64",
"9. c #736D63",
"0. c #796E62",
"q. c #796E62",
"w. c #776F68",
"e. c #766F69",
"r. c #767064",
"t. c #7B7266",
"y. c #7B7265",
"u. c #777169",
"i. c #76716A",
"p. c #767169",
"a. c #7D7368",
"s. c #7A7468",
"d. c #7B746A",
"f. c #7D766B",
"g. c #7A756C",
"h. c #7D776D",
"j. c #7D776F",
"k. c #7B746A",
"l. c #7F786D",
"z. c #7D786F",
"x. c #7F796E",
"c. c #7E7972",
"v. c #817769",
"b. c #827869",
"n. c #827A6D",
"m. c #887C6D",
"M. c #827C72",
"N. c #847D71",
"B. c #8A7F70",
"V. c #847F78",
"C. c #8B8071",
"Z. c #8A8173",
"A. c #8A8478",
"S. c #938573",
/* pixels */
"j N R h k z S l h E Z j b N N d d a i d d N 2.W p 3 > < t 5 i d p g e n n M c n F F e w q e c x q v k B m - 5 5 g 0 < 1 , 1 1 d ",
"x.h.s.' A l j p u l h p s d d N j 9 x N j C a.7.b p = < , o & l P v.m m F M g 7 q g q 0 w e g e 3 v m j m q - 2 q , , i i N N O.",
"b C Z b s l l p h j z H -.=.B D ' j ! i.8.8.>.w.s.h.j i b 9 g N m Z | k Y C.X.5 k %.@.q 5 c 9 g g 7 w q g f 9 j p 7 1 0 0 a x x ",
"7 1 9 p < * l S H K H H ' D j { -.4.c.M.0.` >.7.g.j.s 9 r 0 p d j < N #.t.) g - q F Y k f v v q e F v g f 5 q b p 0 7 0 1 0 a i ",
"> < 5 t s y h ! H A H -.H z P 9.*.i.4.A l j j b j s $ w 1 X , B B d B { 2.Z 5 > 5 U F F F F F g e k F e 6 k p 0 0 a 5 1 i 9 9 9 ",
"N N N l D z z =.B R ' W H 4.W t.g.9.;.9.' j j p a < = d 9 3 - p i t l l A h g U U m U F e F k g g e e v F U q , 1 7 9 9 x N b j ",
"p a a b j N N D Z W Z A ' R { x.' H ' 7.W W p 5 , X , r 9 : > q i d q < p 4 j B F f U v e j m g e e 6 6 g q 2 : p Z b g g d p 9 ",
"9 9 1 1 x N N N B z j N A f p h 6 y l E A 9 : g g m 9 9 w 7 p U o.#.| ( M v ) P F ) U m g g F j g g e k 6 7 f m C o.n x d a 9 , ",
"g 5 5 9 j 4.s. .! 6.M.M.-.m Z h 4 p j R n.t.k.b.y.k.&.g , 9 @.v.v.a.n.C.$.v #.c I 0.@.B v L L M M U Y @.v 3 5 b C m c a c a q i ",
"g j B N Z A j N *.S ' R l  .H N h 4.t.s.M.A.A.s.P b s 4 5 m o.| $.k.Z.A.2.N @.M M t.#.@.X.&.) Y K @.#.$.Y 6 > p b b g 9 d g g p ",
": & y z z l E { ' h l z f j f p z 9.@.2.w.*.{ ( o.P <   h P Z d m ~ H 9.R z B Z j Z L P #.I f q g q M +.B p b B Z j j g g j j q ",
"4 6 s h j N R -.4.R ! R R A S S H #.r.#.R W Z ~ 7.#.g % B B d p j g f f h p g g b v U d a 9 $ # 7 3 r p p j p m b j d x j j h p ",
"k j B k j m N { *.=.=.z z z =.z *.~ f.k 6 p j ~ ' { t 4 K g j s d a f p 4 2 1 1 7 0 q 3 3 , : k <.$.r.f : 4 p p < t p 9 a f f g ",
"p a j m W p j W ' z z E E z l z z B 7.j ~ ..K z R h 4 o p B 7.Z w q 9 p 5 5 7 7 8 1 0 m Z O.( s.C.C.z...Z m m P Z =.D m f f p p ",
"6 q 6 ( s.-.~ Z z p s j l j h y 5 p H f #.s.r.;.9.f < : g B P f 9 9 5 3 > 4 7 a a q c y.t.~ B ..r.*._ 9.$.$.B t.{ s j j h f f p ",
"y p p ' s.M.x.7.R R -.' 9.s.R f #.m 5 j B k h B B q 6 K ..B k k p b B > & y j Y B N | R ' z k 9.*.H H l g j j #.W i h B P B H B ",
"R P W 9.s.4.{ Z B N l N D S y e.M.M.j.g.j.j.a.v.9.~ r. .B ..y.Y j g g 2 % f Y j f t f B z j k ~ z z z f w 5 g j 5 p c b b b b B ",
"h b g z R R s j p i a > # # 4 h s l z z A z l z z h f u h p k 6 2 2 6 j 4 p R j z L K K K g m M k m ( B 9 q v P Z m i a d d a b ",
"h g p N D d p p i t < 5 j & t t s u u u u y t t t t t t y y p 2 2 2 6 h 5 f H z K r.f.y.y.%.@.U @.$.@.@.B B g a p s i < p d d d ",
"| A d W ! l j A N N N B B & y s l l l u s s s u u t u h u y f f 6 y f g 6 j ..Y %.a.$...&.%.$.y.a.v.2.9.{ m d g 9 p p 3 Z i.*.Z ",
"j d N b j i d l j d d j p d B N l s y p u p s y 4 4 6 6 4 # > 2 * % % > 2 q k K ) s.k p p p B ( ~ B j B k g j m P X.j 5 a B b d ",
"> & y l s < : < , & 5 d b a.V.M.7.7.w.8.-.4.R Z b N j p 4 % e q q q 6 5 6 q q p g q j j p q g y h Z ( .. .B q w n X.Z a 0 g j 5 ",
"3 < i l N d d B D s ! *.6.i.e.` 7.V.M.j.w.k.k.m.v.w.0.t.&...@.F F v v Y ) F e f g f L  .$.y. .m B ( ( ~ ..B w 0 0 V g q 3 f p u ",
"p : < 1 i i i d d j z z S S z i p V b N Z b +.s.O.n c x c v c g v g v U F m M 6 e g F F K L g m F K k M @.$.m 5 5 3 9 g m p 6 p ",
"p j j 9 , : > 9 , i s i d N l d b w a x d a M b b c c a g a 7 g g g f k F v F % @ M &.U f 7 f m Z C D +.&.0.0.Z M m B Y ~ Z -.B ",
"# < f N N p j B D Q j p N D +.n.w.a 0 q 9 3 3 b Q c a w e 7 @ @ 3 q 3 q F v ..6 9 @.X.X.n n w m n v n M n c x x a w 0 d m #.Z p ",
"s N j B D B V Q v.B D B N D +.1.8.{ t 5 p 5 B V.x.$.M m m k f 5 @ . % e k F U j a c x r r 0 - - 0 p j c b x p 7 0 0 3 9 g m d p ",
"D +.p j B i 3 p d a N V d b b c N N P j s j w.h.s.2.t.$.r.r.....e % + 2 6 q q f M q 0 0 0 7 9 f v Z V V C B b m b j Z 9 > 5 9 b ",
"9.` & % p 4 6 p a , 4 q 9 N Q B b b M b Q 8.4.7.g.2.$.' ....] ..j F p a v g f g i p g j j g m b d x x a x n C V V n b x g Z m s ",
"D =.z h j k ;.6.;.D t 6 p j b B d d a p p Z 9.a.A Z $. .' ~ ~ K g F 9 0 5 q q 6 a N l j j g g j 9 x a 0 w w x a w w x a p M m y ",
"s z h l S l z l z z z l p j b g a 9 d p p m B t k K m K ( K K m 6 q , 0 > 5 p , 9 i p j j j m N p w c d d p c 0 7 7 9 p m m y 5 ",
"h h s u l y t 4 z l l l p q p p 9 q g g p j < * B k K B ( F K j f g 0 w 5 f p 6 j j s q 6 j P W ! m o.O.o.I o.m j p g m k p 3 < ",
"g h p h K k 6 h z u y q p m b a a w f f f 4 $ k ~ K K L k F K K k y 7 8 9 z B g j N j q g Z #.t.{ j b a w a w g k m $.%.f.$.k 6 ",
"f f h z z K k l t 6 s y 3 3 : 4 5 4 p f 6 . * g m 6 5 g j j g g j - = 8 7 q m j k ( ..s.r.B W Y B g 9 3 0 q 9 p p h @.r.C.Z.9.p ",
"u t t u h h m h t s Z h j j p h p p 6 $   # v f f q f 5 f q 6 5 q > - 3 = < j t k H 2.k.k.v.y. .Z @.%.$.2.O.V C B g g j M m j 6 ",
"y 4 f h q 5 2 < * h $.r.f.f.a.$.H { 6 : $ $ 3 e w 0 q g 2 2 9 3 3 2 3 2 = 5 < 6 v M B Z $.t.L q g n M O.C O.+.+.L B a M $.U K K ",
"j d I 0.v.X.M V j m a.A.b.m.C.C.m.v.0.| K @.y.y.X.m F y.( F g e 3 3 g m 0 7 w 3 > > q q 2 2 5 5 d 8 0 c v v c v n d q j ..Y B m ",
"p 9 1 0 a w 9 p j N b o.a.m.2.X.C M M #.a.b.m.f.b.f.Y Y %.$.F M @.y.f.y.| k B B g Z @.X.9 f K ..f < 3 : , 5 j g q d 4 d F v p 0 ",
"i , i i d M p p #.r.B H s.b.n.M j q 5 p a f k b m b d a v m f g <.r.r.;.r.t.t.| a c n j M F Y @.@...L f j N $.+.m P d a x p , : ",
"j s p N B M j { s.9.9.H j g f 6 < > q b g a m a 9 3 3 3 j j q 2 j $.r.$.~ k g j p w q q ( $.L ) $.&...B Z ' W b a j p 9 , 7 : < ",
"N D N D b d D 4.r.s.' 6.i.{ g k f g g a g v n n B j j ( U v q 2 q g U U v v b d a c M b Q O.M j j g f p K ..K k j j g p p : : j ",
"x c x d x i B =.r.s.i.c.z.B F <.#.2. .% = ; , - 6 f ( $.r.a.j 5 q g c c c n c d a x x m n g Z m q 2 6 g ;.' ~ x.+.x a a j 4 d $.",
"1 a x a j 5 s { ' ~ 9.9.z g k ) #.9.z . 9 g c g f 6 A P m F h e v v 0 0 x r w p w d w V Z a g F ..K K ~ z '  .9.b p a q 5 > q j ",
"< i j B B j s b j j k k k q g F v k v 6 v m k k K v g p q e 6 m m q ; 3 7 q q 9 , : , 3 , 3 k ..F K ....r.n.s.<.4.Q ~ o.3 : d 5 ",
"j D B N B A N p g Y y.$.%.$.L F K L X.I f f m V Z M q 9 p a q f e e 9 6 g f p h g g 9 ; - , q L k e f k U K <.r.s.a.P a , > j j ",
"y s d d D B a j f K #.#.@.$.$.@.$.a.$.( H b c a c c w 7 p 7 - 5 m @.( z ] $.r.r. .4...p @ - 9 g g q 6 e e g f k m B m j p 5 i 5 ",
"p h i j W m b j F a.~ f j j P $.y.( P H ..f q 3 3 3 2 5 3 $ 6 ( ..2.9.-...( ..~ m t.r.i.&.| Y v g 6 q e f g g g g g j m i p p d ",
"*.c.' ' ' A *.R H ~ j p 4 2 f g 6 > 6  .b.| M b g g m @.Y m j $... .' R E u j K j W s.g.n.C.r.L F 6 2 f e g e k m v m l 4 , i l ",
"4.V.s.*.f k ;.A h y 2 6 k y 6 f l Z j j p t 5 9 i N Q M P B b K L H Z R B p q 5 v P 2.D b m B r.&...U f b j g j j m H H q 4 3 : ",
"# s ! s.$...x.<.r.k 6 ~ s.B A ' 9.=.N d N l l j l D 5 p > : g P K K N B I m q g b H N j j Z B Z 5 6 q m #.4.7.' ~ N B  .*.N 5 6 ",
"> 5 Z #.&.F F U U F U ) $.~ ' K j N d i b j d d b j 5 j p > g U #.P Z D { ,.K m g p 5 t p l Z p 5 M j 6 N R *.' 9.h s A A z M ..",
"$.y.b.C.S.r.k k F m F F g v ~ k l i > = : * & : 6 p H n.-.v g | n.r.w.g.M.8.H j p 9 3 < : > B t.N.m.H f j < < s f t j K y h 9.] ",
"t y u k K K K k k U F q e g ' ' P j p t a j 4 j D *.r.h.B 5 p B j h j j g j j p g x Z | m K ~ 9.x.r.j B x.k.4.g.A u t * * y 4 4 ",
"t 4 4 < 3 6 6 y 6 2 2 e e q *.9.d 3 i 0 i a p p j l z j p : j Z j q m ' 9.@. .p 3 , a #.%.y.t.~ ~ B j ( 9.r.i.*.z _ u * u 4 4 t ",
"t * * < 6 6 4 4 % % 6 e q f ;.9.5 : , = , > > p y s s d 9 4 g B f g B K ( A N p 3 p N  .f.( k H A K f ~ 9.s.i.6._ :.y * u t t t ",
"* 4 t < 6 2 5 4 4 h F e g F ~ k p p < , i 5 6 > $ 5 d d W { , 3 q k m M U ( N q d H -.| s.j p q f k 4 j { -.-.E z h 4 u z h u t ",
"-.-.9._ z d s p H F z ( B z ~ p j Z h 5 p f 6 - 4 g b K | 8. .2 6 F m L @.$.~ K K K m L @.g g q q 6 % 5 l z z z y t A =.g.6.=._ ",
"_ l A K j j m >.z j g H j z z z h y p 6 p m B @.Y v g g m | W B P $.%.$.%.r.%.@.%.( m p 3 6 6 2 & $ % 5 h z z S h A i.;._ z y E ",
"4 > > 5 5 5 t l u y y 6 z _ ;.h 4 4 u > p g ( 2. .#.F g c m v @.a.P H Y ..$.y.y.t.9.| b e g m v v 6 4 d z z z _ _ i.g.=.z y * 4 ",
"$ & y p 6 6 u u y h ~ h H z ;._ * & & 4 g k j g Z I j q 5 p k v Y p 4 > > p g j p p f p 6 g L m 6 5 t y p j k B A ;.;.z h u l * ",
"# $ p s t < < 4 t u l l j l 7.A < t p t 4 6 5 5 j k f g 4 4 9 g 3 j k g g k p g Z { W I K j 2 % 2 9 k m j 5 4 4 & 4 W { ~ ;.i.l ",
"< # # < > < * t t y u y 6 l h p t p z t + j m M ..( H ( j j B L g L K ..$.$.j B ` 9.{ 4.~ f 2 g ( ) ..U H z p < < t 4 < f l k z ",
"5 4 & < t y t l s j y p D *.' ;.z t u 4 4 K ~ P ' A B B l 7.2.Z j q m Y I m p f W s.>.Z B m M Y m v v m m B p p p j i < s N j g ",
"j k N z B N l s l z S B E 4.w.i.k.{ H H ~ b.7.D l j j h l j l j 5 - d g d g p j >.s.C c x v M m g e f e g v g 5 y p t t a c c d "
};
