/* XPM */
static char *result[] = {
/* columns rows colors chars-per-pixel */
"64 64 129 2 ",
"   c #231F17",
".  c #2A251B",
"X  c #2C281E",
"o  c #363126",
"O  c #3B362A",
"+  c #3E392C",
"@  c #413B2E",
"#  c #483F2F",
"$  c #443E31",
"%  c #483E30",
"&  c #474234",
"*  c #4B4435",
"=  c #4F4837",
"-  c #4C4638",
";  c #4E493B",
":  c #524736",
">  c #544837",
",  c #504738",
"<  c #534B3B",
"1  c #584F3E",
"2  c #5B513F",
"3  c #564F41",
"4  c #565041",
"5  c #5B5444",
"6  c #5F5947",
"7  c #5D5748",
"8  c #5E5949",
"9  c #615543",
"0  c #625946",
"q  c #635C4B",
"w  c #685F4C",
"e  c #66604E",
"r  c #6A614E",
"t  c #666253",
"y  c #6B6553",
"u  c #6E6856",
"i  c #6E6959",
"p  c #706653",
"a  c #726955",
"s  c #736D5B",
"d  c #76715E",
"f  c #79725E",
"g  c #736F60",
"h  c #767262",
"j  c #7A7563",
"k  c #7E7965",
"l  c #7E7B69",
"z  c #8B7E50",
"x  c #837B66",
"c  c #837D6B",
"v  c #8D8156",
"b  c #8F845A",
"n  c #918557",
"m  c #92865C",
"M  c #95895E",
"N  c #988B5E",
"B  c #8C8464",
"V  c #86816E",
"C  c #8A836B",
"Z  c #928761",
"A  c #968B62",
"S  c #998E64",
"D  c #958D6B",
"F  c #998F69",
"G  c #9B9067",
"H  c #97906D",
"J  c #9C926B",
"K  c #868373",
"L  c #898674",
"P  c #8C8875",
"I  c #8B897B",
"U  c #938D73",
"Y  c #928E7B",
"T  c #969174",
"R  c #9D9573",
"E  c #9E9876",
"W  c #96937C",
"Q  c #9B967A",
"!  c #9E997C",
"~  c #A0956D",
"^  c #A1986F",
"/  c #A09672",
"(  c #A29975",
")  c #A09778",
"_  c #A39B7C",
"`  c #A89F7C",
"'  c #939180",
"]  c #9A9682",
"[  c #9E9A83",
"{  c #9E9C89",
"}  c #9E9E91",
"|  c #A29D83",
" . c #A29E89",
".. c #A6A185",
"X. c #A9A285",
"o. c #A5A28C",
"O. c #AAA58C",
"+. c #ADA88F",
"@. c #B0A98D",
"#. c #A5A492",
"$. c #A9A692",
"%. c #ACA994",
"&. c #A6A699",
"*. c #A8A799",
"=. c #A7A898",
"-. c #ACAC9B",
";. c #B1AC95",
":. c #B1AE9B",
">. c #B3B19D",
",. c #ADAEA1",
"<. c #B0AFA1",
"1. c #AFB1A5",
"2. c #B3B2A3",
"3. c #B9B6A5",
"4. c #B9B8A7",
"5. c #B4B5AB",
"6. c #B9B7A9",
"7. c #B7B8AC",
"8. c #BABAAC",
"9. c #B6B9B1",
"0. c #BBBCB2",
"q. c #C0BFB3",
"w. c #BFC0B5",
"e. c #BEC1B9",
"r. c #C0C1B5",
"t. c #C1C3BB",
"y. c #C3C5C0",
"u. c #C7CAC1",
"i. c #C9C9C1",
/* pixels */
"m b v A Z m A J J A H R J G m F S J J J / G ~ ~ N J F N A A S J H M F J J ~ J G N S S M S F S S S S S S M M n z n n n m N N N m ",
"b m b Z A Z D H F J A J F H A G J F J F J ~ G N G G J F A A A H H A M G J G N J Z S N M Z S S S N N N S m m m M n N N n m S M m ",
"Z m v b A D F J A G A A F R J A A A J J G G G G F F J S M M G J G J J J S G N G S m Z Z Z S N S M N M M S S M n n n S N A M S M ",
"S A A b M m A H G A J J J J J A F A S J J G ~ G S S F m M M S J G G J E G G G G F S S m m m M S M S M S S S G S N M S S S F F S ",
"A A m Z Z A A F Z A G J J J S J J G J / J G G G S G S M m M A m M J J J G S S S A Z S m m m M Z m A M M A S J J S A ~ ~ ~ F G ~ ",
"S Z B m A m Z A G J A H J J J J G J ^ ( ^ G G S S A M M M N A m A J J R S M A A Z S N M m M m S A N S N N G J J S M S ~ F S G S ",
"A A B Z Z A A D R R J J F A S J J J J J J ~ J ^ J J S m m A Z Z A H J J A M J A S S S A Z Z Z S S S S G G J A m m Z A F F ~ G S ",
"m Z A A A A Z A R J A A J J G J H F J S F S ^ / J J H Z A J A A A A J J F S J S S S M A A S S N A S S N S J F J S S J F ~ ~ G F ",
"S A H J A H H G J E J N J E G F J F A R R G J ^ J J H H H A A A m A J J F F J S F S S G J A J S G J S S F S F J F F F R F G ~ S ",
"F S F J H G H J J R J G J G G S D A A D ) J ^ J J J J R J J A A F J J R J J J J J M M J F S J S m M m m A S S A F F F F / F S F ",
"J H J H J G J R ( ( R J J J J H J F S J ( J R J G J J J J J J m S G / R J J J S M S N S A S S Z m N S m A F J F F F ~ / ~ S S G ",
"J G J J H J R J R J G R J J J S G J S / R R R / / E J E R J J m A J J J S J F S F J S m Z S M A M S S F Z S A A S S F F F G S F ",
"N S S S R J J J J H H J ^ ~ ~ J A A S F J R / ( J G J J S J A A G J J G G F D F J J J S M A A A Z S A m Z Z A F A M S N S N N S ",
"G S S S J H J S G J J R / R R J F A F F J ( / J J J ^ / ^ ( J ~ J F J J A F S S S S S G M A A m M S A Z M A A J m n M M n M N N ",
"S J N J J G S G H J R J ( ( J J J ~ ^ J F ) J G G ^ ^ ( ^ ( ( J R G J G J S A M M N S J J J S m Z S F F / R R ^ J S S S N M N N ",
"S H M G G J H J R E J J J / ^ J J J J R J F J J J ^ ( ^ ^ ^ R ( / J J J G S A M A S A S S F A A A S J S J J R / / J S S S N N S ",
"G G S M M A H J ) _ R R ( ) ^ ^ / J J / J F J J ^ / / ~ J J J ( F S J S F S M S A N M S S F A M M S G ~ ~ / R ( ~ F G S N N m N ",
"A F M M M A J J J R / / ( / J ~ ^ S A J J G J / / ( ^ S ~ ^ ^ R J J ) R R F S S M N S M H H S M Z S S ~ J ( _ ) ~ J S S N M M S ",
"S A S S N M m N J J / R J J S J F S J J ^ ^ J / ^ ( ( ( J ( ( _ / / / ( R F J J F M N S F F F F S S S F J ^ / _ ~ J ~ S S N S S ",
"S M M M S M m G ^ J ^ S J J N S S F F R / ( ( ( _ ( _ ( ^ ( ` _ R R R _ J J J J S m N N G S A G S S S S S J ~ F F J F F M S S S ",
"N S N n M M M M A S J S A A A S R R J ( _ ( ( ` ` ..` / R / ) ( / / / J J S J A N n N J F m m S G ~ ~ S S S F F J J F S m N S A ",
"M G N n n N M N Z J G S J J S G R R ( _ ^ J ( ( ( ( _ E ( ( / / J J S S S S A S J N M J H M m m S S S S S S S S J F S S N M M A ",
"A M M n n n S N S F J J F J J S J R ( ( / ^ ( / ^ / ` ` _ ( ~ ( R ~ J ^ J J S G G G G G J M M M S M M Z S Z M S F F S A A M M m ",
"M N m M N M G J J F A J R R J G / / ( J / / ^ / ( _ ` _ ( / / ( / R / ^ G G G J N J G G J S N G S N M M F Z M F F F S J A A M Z ",
"G Z A M M G H S A A A J J G J E J R _ R ~ ~ ~ R _ ` X.X._ / / / J S ~ ~ J S F J ^ J G N N S m N F m G J A M N A F F S ^ S A Z S ",
"S A m M F J S S F J H J J J G A J _  .) J ( / / ` ` X.X...( _ _ / S S ~ ~ ~ ~ N ~ G G G M N N M S A J J J A N A F F J G A F A M ",
"J M n m A Z A A M A S J G ( R J ) | _ X.` _ _ ` ` | X.X.` Q _ | ) J ^ ~ ~ ^ S G J N G S F J N N G N N A A A A S R J S S F J J J ",
"G b n n b M b Z A n m M G R J J R R ) X.| _ X.| R _ ` X.| ` _ Q ) _ ^ J J ~ J G G G N M M S F N G A m A J G G J / F ~ F A F J R ",
"M m M M m m b M m m m N N S G J R _ _ o.O.O.| X.| O.X.X._ .._ R _ ` / ~ J ~ S S N N N N M m S A F m m m M A A S H G J A Z S S A ",
"S M n m M M b M M m M J J S G R ! ! O.$.$.+.` ` X.O.O.X.X.X.X.| | _ _ J ^ ~ S ~ N n N G J G J G H A m m b m Z A M J J J A S A A ",
"Z M n m n m M M m M N S G J N J F Q X.O.O.+.:.;.O.%.+.O.%.O.....| X.` ( / / ~ ~ G N n N G J J H J J A A M A H J J F R H A S S A ",
"A S M M M M M M M A J J E J G ~ / O.%.*.:.<.:.3.>.%.%.| %.;.+.%.+.%.@.O.X.` ( ^ J S N G J E R R J H H A A A R A J F J H F J S F ",
"R ^ / D Z A S F J / ` ` _ ( / J _ $.1.2.1.%.o.%.>.>.>.,.:.;.%.%.o.+.3.>.;.X.) J ~ ~ ~ ( ` _ R F D A D D F J _ J R J H R R H J A ",
"Q ) ) F Z Z F F R | _ O._ ( _ ) R #.2.-.=.=.o.#.>.;.w.w.w.8.>.8.3.3.8.3.>.O._ ) ~ ~ ~ ` X.| X.| R J A D F J _ ! R R R T T E R R ",
"| | _ R D B D Y | O.| ;.O...| | ..%.%.#.=.-.O.>.4.7.8.7.8.0.4.w.q.t.t.3.3.;.O.` ( ` ` X.@.| O.%...J J H R J E ! R T R T Q Q Q [ ",
"| | | ) R S T ` | O.| O.O...$.*.-.:.#.o.} { Q O.>.2.2.5.5.3.w.w.0.i.t.q.8.:.%.+.X.( ( X.+.O.| O...Q J D J F E [ ! Q Q U T Q ! _ ",
"| ` ! R D ) _ ` |  .X.:.%.o.2.-.2.6.%.$.[ ! ..#.%.>.w.w.8.3.w.2.:.0.e.7.3.3.%.;.%.` O.;.%.+.o.| ! Q T T E Q ! | [ [ T D Q Q Q T ",
"| _ ! R D _ _ | X.O. .%.%.$.#.#.-.6.2.*.#.{ [ &.o.>.4.3.4.8.0.-.%.0.0.0.q.3.:.:.:.%.@.;.%.| $.$...W H U D ! ! | [ T R H W Q D R ",
"| _ R U U Q ` X.O.@.3.:.%.-.o.{ *.<.:.*.o.] { o.%.O.;.%.%.4.w.3.%.1.2.6.q.6.2.8.2.:.;.:.;.X.%.%.o.Q B B W | ! [ [ Q T H D ! W Q ",
"o.Q D U D R _ | X.;.q.0.>.>.2.7.6.7.2.-.o.%.=.o..._ ;.>.>.2.-.#.o.-.5.:.6.3.0.0.3.>.:.:.*.*.-.#.$.{ P T W Q _ [ { o.! E ! _ ! { ",
"o.[ Y D U R ! o.O.;.3.%.$.-.r.w.q.0.6.<.%.-.*.#.! Q ....-.3.-.,.-.1.5.5.t.3.7.5.2.:.:.-.2.-.*.$.#. .W T Q ! E ! ! .._ ` _ o.| | ",
"o. .Q Q Q [ | | +.%.>.o...o.>.2.0.t.q.<.,.<.O.o._ E ..#.>.o.2.5.5.,.1.2.0.7.7.2.<.,.:.:.7.5.#.$.o. ...[ .._ [ _ ! ! Q ` O.#.| o.",
"_ [ #. .[ [ |  .o.:.:.%...O.%.%.,.5.2.6.,.-.*.#.E _ ..-.$.%.2.1.5.1.9.,.0.e.0.7.7.2.<.-.-.5.%. .o.[ [ E [ ....o...! ! _ o.o.O.O.",
"R R Q { [ |  ...| X.[ o.o.o.%.2.<.2.2.0.5.7.-.-...O.;.:.-.>.2.>.1.0.9.0.0.t.0.8.3.>.2.,.-.*.2.3.$. .=.+.$.X._ O.o._ R _ ....O...",
"Q R R | | [ | ] | ! Q ! ..+.%.-.*.,.5.0.0.0.6.:.O.O.>.>.#.-.-.1.5.9.0.y.0.y.0.4.%.%.2.:.O.| :.0.1.#.=.>.>.....%.%.o.E ......o.+.",
"Q ) |  .| |  . .%.o.o.....O.o.o.{ ,.9.0.0.q.6.*.$.o.%.%...%.-.5.1.,.5.,.2.5.>.;.X.%.>.-.:.o.+.2.2.1.o.o.:.O.;.%.%.:.! ....[ _ O.",
"` ..+.#.%.$.%.%.>.$.| E _ O.-.#.&.-.2.9.9.e.9.*.o.o.*.o...%.5.e.5.7.0.5.9.2.;.%...%.2.-.3.O.%.%.2.5.:.O.-.O.o.| %.O.! [ [ { [ O.",
"O.$.:.*.-.%.%.-.-.O.| R ! %.-.,.,.*.,.9.0.0.5.-.-.=. .Q { o.:.2.2.0.y.5.5.-.;.X.X.:.:.2.2.%.;.-.>.=.%.o.%.:.%.%.%...! E Q ! ! ..",
" .$.>.=.,.o.#.%.%.+...R ` O...-.,.&.} -.9.9.,.#.=.#. .W Q [ O.O.%.1.1.=. .O.%.o.%.-.,.1.%.%.%.2.*.#.o.| %.%.%.O.-.o.| Q Q ..! [ ",
"[ | %.$.-.#.-.2.1.3.%...o...O.-.&.#.} 1.,.1.,.#.[ { o.Q T ..%.#.+.>.=.#.#.-.o.o.o.o.#.o.+...%.3.1.%.$.! +.%.+.o.%.O.| | { | _ ..",
"[ [ o.-.5.1.1.5.5.2.>.-.%...O.%.&.,.} &.} #.#. .W } { Q [  .o. .O.O.} o.*.1.2.%.#.$.#.,.-.[ O.2.%.$.#. .$.%.;.-.%.%...O.%.o. .$.",
"_ ! { } 1.1.1.0.7.3.2.2.>.X.O.>.2.%.#.#.&.}  .[ { } =.] } { #.! $.*.o.#. .-.2.%.$.#.{ #.*.$.+.>.>.;.*.-.5.%.O.2.*.o.o.o.#.| ] [ ",
"[ W [ { 2.2.1.t.0.1.5.3.3...X.>.,.%.o.{ } &.#.{ W { { { { [  . .o.[  .&.*.7.1.,.$.$.#.[ #.#.>.>.2.2.*.$.2.%.O.-.:.-.%.*.O.{ ! [ ",
"#.[ ] #.-.1.>.w.w.1.1.2.8.%.X.2.2.O.o.{ Q [ { { o.=.} o.=.o.o.=.-.#.%.-.,.-.,.2.#.} $.[ $.>.>.o.-.7.-.*.%.%.2.-.2.:.-.-.%.o.o...",
"o. .] { } $.o.-.7.7.1.7.e.:...%.-.:.%.#.#.{ [ { =.#.[ { { { ..o.%.-.3.>.;.O.%.%.#.O.#. .#.-.-.o.#.7.0.%.%.%.:.-.-.-.-. .| | | | ",
"*.} [ W &.,.$.w.5.-.-.7.8.>.;.O.>.2.#.o.! T Q [ { { ! { { #.:.O.%.;.3.>.>.%.-.#.o.o.#. .$.:.*.] Y &.,.[  .-.#. .o.o.[ Q W | [ o.",
" . .o.W  .*. .2.2.o.-.1.1.3.>.O.O.>.-.O.| Q _ | ! ! | O.%.;.:.:.%.+.%.>.>.+.%.o.o.K h C ] #.-.{ I I } { #.>.-.o.{ T ! T ..T ! ..",
"#.{ { [ ] Y ! o.[ o.#.-.2.0.>.%.$.Q o.#.o.[ | +.| ! R U | +.<.<.$.%.;.;.>.@.:.$.C & . O = 5 L o.-.K g &.;.:.2.%.! ! Q T ! T H | ",
"*.&.} ] k = t y 5 j l P *.0.>.%.c q j c ' ' [ O.O.| R j e K P c s c Y { %.| +.C 7 + O = 8 - & t ] { 4 8 d W 1.%.| { [ H H U H _ ",
"o.-.] l 5 + 5 0 3 ; 8 8 8 L L 0 7 y = @ < q f C D C C s O % < , & : 0 5 k ` P q < & = e 5 ; - - 8 i ; $ + + ; P ! Q T T D R T W ",
"t j 3 3 * 5 q s x l h u q > & 5 e j q * 0 q 9 > * 9 w - 3 p < a f q e 2 e f < * 5 u u u q 0 a t q 3 8 i e & X + 8 - & 5 t s f 7 ",
"@ . o = 9 f c h y i 0 0 q e 9 s y 4 5 = a f 2 > : 2 : 9 : # % > w 6 2 > 5 0 = @ q r d s y u e 5 4 q t i h 8 5 ; 5 ; + & - & * o ",
"& * < < 3 w c c i 0 : w q t s c c g s d u y w 0 2 p : p r 9 1 < 9 z f r u r 6 0 8 e 0 f K K h t 8 i h d l i j l l i q i g g s q ",
"* t d u i e 9 h c j 3 f s u u i h L W K q < 1 9 r a - > w 3 : 3 0 7 p k f e e q 0 e e u h f u i q i i t d u i h u i t q j j h g "
};
