/* XPM */
static char *_9a988b36f774e25f7c1c4fa97652fafePzn567U2CELqizU[] = {
/* columns rows colors chars-per-pixel */
"64 64 64 1 ",
"  c #55534A",
". c #59574F",
"X c #5E5C54",
"o c #605F55",
"O c #616057",
"+ c #65645A",
"@ c #69675D",
"# c #67685E",
"$ c #69695E",
"% c #6D6D63",
"& c #716F62",
"* c #6F7066",
"= c #727265",
"- c #75756A",
"; c #78776A",
": c #77786D",
"> c #7A7A6E",
", c #777871",
"< c #7C7E72",
"1 c #7C7F78",
"2 c #807F74",
"3 c #807F79",
"4 c #7F8174",
"5 c #7E8279",
"6 c #818276",
"7 c #83857A",
"8 c #85897D",
"9 c #888B7E",
"0 c #868781",
"q c #868A81",
"w c #8A8D84",
"e c #8C8E89",
"r c #8C9186",
"t c #8E928A",
"y c #929387",
"u c #92958C",
"i c #95998E",
"p c #989B8E",
"a c #929790",
"s c #959A92",
"d c #9A9D93",
"f c #9B9F98",
"g c #9DA195",
"h c #9DA29A",
"j c #A0A296",
"k c #A2A59B",
"l c #A5A99E",
"z c #A8AB9F",
"x c #A5A7A0",
"c c #A6ABA2",
"v c #AAADA4",
"b c #A7AEA9",
"n c #ADAFA8",
"m c #ACB1A6",
"M c #AEB3A9",
"N c #B0B3A7",
"B c #B2B5AB",
"V c #B4B9AE",
"C c #B4B7B0",
"Z c #B5BAB1",
"A c #B9BDB4",
"S c #BBBFB8",
"D c #BAC1B6",
"F c #BDC2B9",
/* pixels */
"sghhhshgsiurtrqe5yuhsugsustthhlshsrtrrr545u9us9ssrrr89rrrgtipgss",
"665766t4-<6>>46>44=5555955555554r44444454444454454454444-5:44444",
"4>4<>>r<=->66766*==95455r55q544%r4444455444$45=#444584=&=q4-::44",
">44444t7><>7644744454559rr5r5444q54449554444444444454444-4-:4444",
">7744>r6:4446>6844&45qq55555594%44444444555=44===4444884-5-;4444",
"667746t4:4>4446744%455555t559544444444444444*4444444554=*5=-;44;",
"44487>u846444467544545rriirq554#44444444444*4444==447584-8:-;4=;",
"78--:=r758588twwr55s55rsstrq54444o+$oo4+***45r44445y99r57i845558",
"ir9ruyypsgsughuhggsiislhshgrriiyisissrhtthst9iipsshhtghgsuiiguut",
"w::44669wwt9qt459689trsrqt5548959i9999u545r5445555qt47w85466445*",
"w-;444444446wt4444444w955r84:444995545s54454444455wt4:6644444>:*",
"t-;>4444><44ws4>=4&=59w95t544444999554si44444444449p4:46446644-*",
"i-->44444>447u5444&458954tq54779i94444s544455444446y64487664464:",
"i4:>444=>4447t6444=45895,q5445669944&&i544454444447r5579977<46>$",
"r&*======;=;5s94444445444w54:>545444445r54444444:-7iqqwrtq8:>4>$",
"9O+++$;&@$#*7t84455444454t44*-4:944444995445944$=45u5545q85:-=%*",
"itggfhcsahcsariii98y9r5w9piuuipghggpiiryipy9wr8rggtriii98u8iigtt",
"5wyiarhsigsr544554&8445466544454u8588496894=:9-445447944=844894q",
"858844su474444444=4844544444::4-r4444488554;>9==;445664;=9479644",
"884444rr4444444444&889964444>46-54444478944;:r4444457744=97yr545",
"484444r54444444444-t98998564:44:r4444477446>4r4444449744=r9ri774",
"444444s5444444=444=r98499884444:r4455444444=4r5554459444=9999944",
"444444554444=4:444=54549854444-=945444-4-444:94544-444=4-9479974",
"44++oO444---%44*#44r4-454444$#**5$$$+*:4=%*-5r-:4==4==%44r4=4474",
"99ruiisirii99s5swryiiii99ssr99wwrisgsruqrpiuiiptw5wt8r99taiiiurr",
"9499999585444945555576844r44444559ri9454699445995>59457654895w44",
"u5r94444444445=44585444=45444=48999444q4466648598445-44655744544",
"urrr4885444445444484444=44444458r995*4q5446654678449446685644545",
"u55r55458484494486444444-544444459944=5546776445854w446674444785",
"srrr444495444944664464=44544444499r4=45544666454445q444664544585",
"s9r5444448544r-4444444=4*544-4445954%4r4-4444454444r=44464444444",
"r54#$==445544q4%&=4=4&%&%5***%4=454==495:=$:;;:*::>w;=%=4=-%+=4;",
"sitrq0ttieteepe8800weetttteq0quurstww5aruuewtwqeeeusett30ettetut",
"afsstesssfsauuwwtistufdwetsstadssgitssssdhtuueihffddasuassdausae",
"hkMbbcvMvldglgghlzclxMlhhxvhxlkccbbllcbccckkccclMMbvmmcclvhxllcc",
"cflMCZMmvnzgfvnnVcMMMmVBVMlvMvmnmbMmmvccBZBBnNVVBCCBBNZVmklmmmnn",
"cnBBMVBMkBMMvbMBvVVBVzNVBZMBMNMMVBMmVDDmmmBZAMMNBBmmZNMnMVVMmmBZ",
"BVVMZBBAvMMCMmmmVZVmNczmMMMMvcMBBVmVmMmcMmmmvMvMBBVZBCckMZDZVVVM",
"AVVBAAZZvMSZZMlBVZVVVVNAVVBmnBVbzcmMvvvcMBNncBAnvCZBBAZcBMZMMmVv",
"mVBAAZBBMVMMlNAVVmccnnnBvmmZNBANAVVmkMmlMMnBbvvNBAVVAVBMvcmMVVMM",
"MmMVBmcAVVMccBvzvNBmVBmzmbVVDFMCMmmmlhlhhccmMvvCZSFZVAVVVVVZVMvM",
"MmZZVAAVmcVmzclNNZZFFZVMVAmMZbvBMMVhglcmmlmDZZCCVNBnnNNCVMZVMMmm",
"mMVVZAVMZAZVZNvcmVVVBVDVMMmVbcVCSZMvmmhggkkmZZZZVNvBvhlMZMmcMVVb",
"MMVVBMAVMVncnmnnVFZBBBVVBmMBcMVNZMMSNBNzlkzcvZZAAAlcnnVVmVMVVVVD",
"cvnmBckmmmcVBczmBDDDVVmmBllmMBZBCmVghzmvzjmBMDZZABhCmBmmBNBVDNmV",
"cBBmVVcBmBBligkVDmMmBMmzhvvbVVmBmmlggmlilmzVVVVBMCAvVZZMMNVDDMmB",
"FABMmBmzmlnhugzzlVBcclhmcvvMMVNBmvvcmNzhkhmmmlmZMvvBmMvBDmDmbvmc",
"ZckmmmmBVAcgczgglchmmcvvmvvMAASABZlMmlzvkihglmVDCABnDZDDBDVVNVVB",
"pkmBVvMmmmlgihclMMBMvcfjxNczBZBlBcvkhvvgjddxlVBvCBvBZMDZVDDVZVVB",
"kvmMMBBMVVVMlclmCCBMnNVkfipvmVNBBcxzjlckxjfvcMvmNxMBlvvvBmmvczzm",
"cmBmBBmcvMMckclcMBcBvvvnnkznBMBVVVvjjMjxxdccnNnNmzskhllvlmmxclll",
"zmmmNVNBmzjzdptgmBmmvcxbvNVnvvZBvzsfvkjzvjkkvnbvcmmmmVZvBDMvcfln",
"mMlzvvvVmVBcckkvNBMcglklncdflcmlvvxkjjjkppyxnxlvzmnVNvvMclvvnNmZ",
"mcnBmzkcvVMmcncczVBzklczjcNxxNzmcskppnkfxpjxNBcjjlklclzBVmmvzvvl",
"MMMcdjmjhmMmjgpikzNlkNnzlzpjklczklxdwidkvjxncNVcmvvnBBVNcclkxllv",
"chkkdzcNDBkpkjdjgkcmnmNcncjpgkzlvzkkjpljdpeyszczhkvVcjjccmckckkh",
"gzncvvxxkcclllldkvmzczpjjjjkvnzjkjsjldspp9ypkjvkkjdjjdjxBmzmcNzj",
"vzvmzjpdkccclppknncjjjfpp8yjkvcljzggdgfupgpdpilzxjkxdjjkhmBvcjfj",
"dvfsjkkxkmVcyizlnBxkjifpppkkxvcvzjkjpzzdyw2eykgdkdadafzzvvnppdsp",
"pyjkkNxdkmmpeyydfjjfllznvjpdpdnmkdpiyfpyydppzjjzkdpdjdkkcchjdjjj",
"kjjdxxxjlvafxlcddxvvxfjjkfdjkjfkdddjjgdddhdeyydpyypjdpppypdddpjj",
"ppeypepfjffdppgjjfppuedapddpusjdyajfpi9epyuuy7weewyyaapppkjeydue",
"3,;2177wew770auw000q303033233uew073030w8e7-0w><001323a00e8we<<37",
"%,,*-**,12-,<1<:,;<;;,-%,-*o-<2-$@%%=%-;%. o%%o%=oo+o*%&==,,%%%o"
};
