/* XPM */
static char *_573fb36b8be480a85c20e743872f785pCeDoAI5dq74N0mO[] = {
/* columns rows colors chars-per-pixel */
"64 64 157 2 ",
"   c #39352B",
".  c #3E3B31",
"X  c #413E32",
"o  c #454237",
"O  c #474438",
"+  c #49463A",
"@  c #4E4A3E",
"#  c #504C3F",
"$  c #4F4C40",
"%  c #514D42",
"&  c #555245",
"*  c #595547",
"=  c #575348",
"-  c #59564A",
";  c #5D5A4D",
":  c #5F5C50",
">  c #615C4F",
",  c #615E52",
"<  c #656155",
"1  c #696456",
"2  c #666458",
"3  c #696659",
"4  c #6D6A5D",
"5  c #706D5F",
"6  c #6F6D62",
"7  c #726E60",
"8  c #726F61",
"9  c #736F61",
"0  c #716E62",
"q  c #716F62",
"w  c #736F62",
"e  c #736F63",
"r  c #716D61",
"t  c #746F61",
"y  c #716E62",
"u  c #717063",
"i  c #737062",
"p  c #737162",
"a  c #727063",
"s  c #737063",
"d  c #747062",
"f  c #747063",
"g  c #757063",
"h  c #747163",
"j  c #757163",
"k  c #717064",
"l  c #737064",
"z  c #737164",
"x  c #737065",
"c  c #747065",
"v  c #747265",
"b  c #757365",
"n  c #767365",
"m  c #757266",
"M  c #747367",
"N  c #757367",
"B  c #777366",
"V  c #767367",
"C  c #777367",
"Z  c #777464",
"A  c #767466",
"S  c #777466",
"D  c #747165",
"F  c #787565",
"G  c #787566",
"H  c #787467",
"J  c #787567",
"K  c #757368",
"L  c #767568",
"P  c #767569",
"I  c #757368",
"U  c #787569",
"Y  c #787769",
"T  c #797769",
"R  c #7A7669",
"E  c #78756A",
"W  c #79766B",
"Q  c #7A776B",
"!  c #7B776B",
"~  c #7A776C",
"^  c #7B776C",
"/  c #79766A",
"(  c #7B786A",
")  c #7C796B",
"_  c #7D7B6B",
"`  c #79786D",
"'  c #7B796C",
"]  c #7B7A6D",
"[  c #7B786E",
"{  c #7B7A6E",
"}  c #7D796C",
"|  c #7E796D",
" . c #7D7A6C",
".. c #7D7A6E",
"X. c #7D7B6F",
"o. c #7E7A6E",
"O. c #7F7D6F",
"+. c #7C7A6D",
"@. c #7F7D72",
"#. c #7F7E72",
"$. c #7F7E74",
"%. c #7E7C71",
"&. c #807C6F",
"*. c #817E70",
"=. c #827F71",
"-. c #817F73",
";. c #817E72",
":. c #7F8072",
">. c #838071",
",. c #838073",
"<. c #848173",
"1. c #808075",
"2. c #828175",
"3. c #858377",
"4. c #838275",
"5. c #888677",
"6. c #868678",
"7. c #86867A",
"8. c #86857A",
"9. c #888578",
"0. c #88867B",
"q. c #88867B",
"w. c #87897E",
"e. c #89887B",
"r. c #8A897D",
"t. c #8D8D82",
"y. c #908F83",
"u. c #8F9185",
"i. c #929286",
"p. c #95958A",
"a. c #99978C",
"s. c #96988D",
"d. c #999A8E",
"f. c #979A91",
"g. c #9C9D93",
"h. c #A09F95",
"j. c #9EA196",
"k. c #9FA299",
"l. c #A1A296",
"z. c #A2A59B",
"x. c #A5A99E",
"c. c #A8AA9E",
"v. c #A5A7A0",
"b. c #A6ABA1",
"n. c #AAADA3",
"m. c #ACAFA8",
"M. c #ADB1A6",
"N. c #AEB2A9",
"B. c #B0B3A7",
"V. c #B1B5AB",
"C. c #B4B8AE",
"Z. c #B4B7B0",
"A. c #B5BAB1",
"S. c #B9BDB3",
"D. c #BBBFB8",
"F. c #BBC0B7",
"G. c #BEC2B9",
/* pixels */
"; , ; * @ o . @ & & + O O + % # < 4 : 4 S >.H - < ; o     o $ % = % & % & & < * @ @ + O & # * # ; 5 5 &.* ; # O + ; > # # # o   ",
"< 4 < ; & 2 2 & + X O @ @ & & < - c 4 u u S -.3 < 6 & % 2 6 < 6 : ; $ - : 3 4 4 1 & * * ; > 1 > 1 Z _ >.1 3 2 ; * < 3 < > * @ o ",
"> < 4 Z 4 3 4 1 & & ; % > 3 < 4 < 9 5 k ,.) ) k %.9 ; % < 2 { $.2 < - $ & u 8 4 5 * > < ; 5 5 < 1 H H H 5 5 3 < < 1 5 3 ; , 1 , ",
"3 4 4 d c 5 S 6 < u u ; 4 ) u ) _ H 4 9 _ ,.3.%.6.{ 3 , 2 < 6 $.K 4 - + ; < 2 8 3 < 3 5 5 <.<.o.d Z 5 1 3 Z d 1 5 4 d R 4 u d 3 ",
"_ o.E { ~ 3 c { 4 k L 3 S &.&.O.E _ R &.-.q.-.{ w.$.M M k ~ %.%.{ q q , u 4 1 4 E * , 3 5 3.5.3.5 H o.t E o.d 3 c k o.{ L { u 3 ",
"2.3.O.2.o.C _ 3.E %.O.u ) 3.6.O.R 3.o.-.-.w.2.,.r.%.W %.$.3.3.3.{ o.%.4 Z Z c 3.o.3 d 3 u r.<.r.-.3.q.o.<.3.E d -.K 3.%.o.O.,.E ",
"-.{ 2.2.%.%.3.6.6.6.3.o.o.q.-.o._ -.-.q.q.i.6.2.r.:.{ :.w.w.t.w.2.-.%.6 c o._ o._ 4 R -.H r.5.r.,.O.%.-.r.3.&.O.o.o.6.6.r.r.3.) ",
"2.r.6.3.o.o.6.r.r.3.r.%.3.r.i.3.<.r.r.r.r.t.6.6.t.6.6.r.t.r.u.6.2.3.6.2.:.2.) o.r.H H &._ r.y.r.3.,.r.3.5.r.&.O.o.%.6.r.r.u.,.O.",
"r.i.i.i.r.r.r.r.t.t.r.6.r.r.s.u.r.r.5.r.r.u.r.r.p.r.q.t.t.p.p.r.t.t.p.t.r.9.-.r.y.=.9.*.&.y.i.y.5.r.r.r.r.r.e.5.6.3.t.t.i.p.t.r.",
"i.h.a.d.d.r.p.r.r.r.i.r.r.a.a.r.r.r.<.r.r.i.u.u.i.r.6.i.g.g.f.p.p.u.t.6.r.r.0.t.y.t.0.-.5.a.p.a.i.a.a.i.d.d.a.i.y.t.p.p.s.p.t.y.",
"s.d.l.l.l.a.g.p.i.i.p.t.t.a.i.p.i.i.u.u.i.i.i.p.y.6.t.t.p.g.g.g.g.i.r.t.9.i.=.3.p.y.i.t.5.i.s.g.a.p.a.i.d.g.s.a.d.a.a.f.d.d.p.r.",
"g.g.x.l.h.l.l.s.d.j.g.a.i.a.p.d.s.i.i.p.a.i.a.i.a.p.i.p.a.g.g.l.d.g.g.t.r.y.y.p.h.y.y.i.a.g.d.l.l.g.h.h.l.d.s.d.g.d.k.g.f.g.p.i.",
"z.x.l.c.z.d.d.l.s.k.j.i.p.g.g.g.a.a.u.i.p.y.p.i.f.p.p.p.j.g.l.l.h.h.h.r.y.d.i.g.d.p.g.a.g.c.z.h.h.d.d.d.l.d.l.d.j.d.g.g.p.g.g.g.",
"z.z.c.z.x.d.l.g.j.a.d.g.a.g.x.g.s.a.p.d.i.p.a.f.g.d.p.g.z.l.k.l.z.g.g.z.h.a.l.x.h.d.l.d.l.c.x.l.l.g.k.l.l.x.x.l.g.d.p.s.j.g.l.z.",
"c.c.c.x.z.l.l.g.j.g.j.s.d.l.z.z.j.g.s.g.g.g.g.g.g.g.g.g.z.k.h.h.z.z.h.a.l.h.h.h.z.v.x.h.l.d.g.h.j.c.N.c.l.z.k.j.d.d.j.j.g.l.z.l.",
"C.V.c.c.x.z.l.k.j.j.l.g.l.n.n.n.x.z.z.g.s.p.g.g.k.g.s.j.l.d.l.x.n.n.z.x.z.z.n.b.m.n.x.x.z.c.l.b.x.x.x.p.j.z.x.l.l.l.x.z.l.z.n.c.",
"B.x.v.b.b.x.l.g.a.g.z.g.g.l.n.c.a.h.h.g.g.f.h.h.x.j.j.g.x.z.l.n.z.x.n.z.z.c.x.n.V.x.n.V.n.x.n.x.x.d.i.l.c.M.x.k.j.s.g.b.x.j.z.c.",
"M.M.n.n.x.v.v.m.x.d.p.t.f.l.c.n.z.z.h.h.h.z.z.z.x.l.x.x.x.z.x.x.z.x.z.l.x.x.g.z.z.x.x.l.l.l.g.d.z.d.g.x.c.b.b.n.M.b.j.p.w.g.z.n.",
"n.N.V.N.n.n.x.x.b.b.l.l.z.b.x.z.n.n.z.z.l.k.h.v.x.M.n.V.c.x.b.b.c.n.x.d.s.g.d.j.j.z.g.x.l.k.k.g.l.j.z.n.x.n.M.c.x.c.n.l.l.c.n.c.",
"N.V.N.b.x.c.b.z.b.v.b.n.b.x.x.n.m.n.h.h.g.x.z.b.c.n.n.x.c.x.b.b.b.x.x.x.x.b.n.V.n.x.V.V.z.z.g.g.l.z.z.z.c.n.M.M.b.c.b.n.V.M.c.x.",
"c.n.n.M.n.z.h.z.z.x.n.j.d.d.z.x.z.k.v.v.v.k.m.N.n.M.b.x.k.n.x.b.z.x.x.b.n.B.b.x.x.x.z.k.z.z.b.b.n.M.b.n.j.x.x.c.b.n.n.n.z.d.g.v.",
"n.x.M.B.n.x.c.c.x.z.j.n.x.z.x.x.z.b.g.l.z.n.N.m.A.C.M.n.M.M.M.n.l.g.l.x.x.z.x.z.M.N.c.n.n.z.c.c.x.x.b.x.M.M.b.k.z.z.b.x.M.x.x.n.",
"z.l.c.n.n.z.c.B.n.z.x.j.s.z.j.z.b.x.l.v.z.l.x.M.C.V.N.M.M.b.n.M.b.n.n.n.n.V.V.M.C.M.M.x.z.z.z.z.x.b.m.M.M.j.d.x.b.k.x.n.x.g.z.g.",
"z.x.l.c.n.M.b.V.n.n.M.x.d.d.k.z.x.z.x.k.z.l.k.b.x.x.k.j.g.j.k.x.n.x.x.b.V.n.b.M.c.n.n.n.b.z.v.z.l.z.z.j.z.g.z.b.n.V.Z.n.g.g.h.l.",
"x.l.n.V.N.b.M.k.j.x.k.x.k.c.n.x.z.k.z.s.l.n.c.x.M.M.k.x.k.x.x.n.n.n.x.c.x.x.h.z.k.z.n.x.x.n.n.n.x.g.x.n.b.M.n.b.b.b.x.b.b.x.x.x.",
"x.M.V.V.b.b.b.x.z.k.d.s.j.k.M.M.b.x.c.z.k.x.k.n.b.z.x.b.k.b.b.b.n.n.b.n.x.b.z.b.v.n.M.M.b.V.c.z.z.x.n.n.M.n.z.j.f.l.x.n.c.n.k.h.",
"V.V.N.M.M.N.n.n.b.x.z.c.z.b.M.N.N.c.x.M.c.k.x.z.x.z.k.x.k.M.M.N.n.n.c.b.n.n.n.V.n.V.n.b.x.j.l.j.l.l.b.z.k.k.b.z.n.n.n.V.V.z.a.g.",
"A.D.V.V.n.N.n.N.B.c.c.c.b.n.b.M.N.c.M.j.z.z.b.M.k.x.b.x.n.C.C.A.S.n.n.N.n.m.B.V.N.n.x.x.z.j.c.n.N.N.x.b.b.n.A.Z.m.n.N.Z.n.g.g.k.",
"C.M.N.M.C.N.M.x.x.x.b.M.V.M.M.n.M.M.x.d.k.c.x.k.b.c.V.C.C.C.C.C.M.V.M.Z.V.M.M.n.n.b.x.z.x.z.b.M.b.n.V.b.b.N.M.N.C.M.C.N.n.N.C.n.",
"V.A.V.M.M.x.b.b.b.n.b.b.V.M.M.M.b.b.k.k.b.M.j.d.b.b.b.V.n.M.N.V.N.C.C.m.V.N.m.N.N.n.x.l.b.b.n.n.n.N.n.b.M.n.b.b.x.M.M.n.b.x.z.l.",
"M.N.x.n.x.x.n.b.b.b.M.F.F.V.F.V.M.n.n.M.M.x.M.M.j.k.c.x.M.M.F.C.m.x.m.m.V.N.Z.S.V.n.b.x.b.b.n.n.c.M.n.x.k.x.k.b.b.b.b.n.v.v.x.x.",
"N.z.M.N.n.k.k.n.B.N.b.V.F.V.n.M.V.M.x.n.b.b.z.z.g.j.k.z.M.C.V.C.Z.S.V.V.Z.S.S.n.n.Z.V.n.b.n.n.n.b.n.n.M.N.C.Z.A.N.b.C.Z.n.m.l.k.",
"C.A.Z.m.m.n.k.g.v.l.x.n.N.C.n.m.n.k.b.j.l.n.z.x.z.k.n.b.N.N.M.n.n.n.V.V.N.V.Z.V.C.N.k.x.b.N.n.x.x.M.M.F.C.C.C.V.b.b.n.b.n.b.M.N.",
"N.N.v.M.n.C.N.b.f.p.z.M.V.M.M.Z.C.M.x.j.z.n.z.x.k.k.n.N.M.n.v.n.n.b.b.V.n.n.b.M.n.k.k.x.b.x.x.V.x.b.B.M.V.N.M.N.F.V.M.N.C.b.b.n.",
"V.n.M.N.b.b.b.M.M.V.M.N.M.m.C.N.M.z.j.z.M.b.l.n.M.k.b.b.b.n.M.n.n.m.N.N.N.N.M.c.n.b.n.n.n.b.x.k.b.M.B.n.c.V.V.M.x.N.M.b.b.k.b.k.",
"M.n.n.n.n.n.N.n.V.n.b.z.v.N.M.M.V.z.j.n.z.j.c.n.l.z.b.b.n.b.n.n.n.n.A.S.S.S.N.N.N.N.M.M.M.x.N.j.j.z.j.b.V.F.C.C.C.M.C.C.N.M.n.b.",
"M.N.N.n.x.M.b.M.x.n.b.b.n.n.b.M.x.n.M.z.n.c.x.x.x.b.n.n.k.g.k.M.M.x.n.Z.Z.n.n.m.N.V.C.N.n.b.M.v.z.c.x.M.C.M.M.C.N.N.C.N.N.V.N.N.",
"N.C.V.M.V.V.V.N.v.n.n.N.n.M.n.n.n.n.n.j.c.b.x.M.M.n.n.n.A.M.z.g.p.z.M.A.C.N.V.N.N.M.b.x.V.C.M.M.z.b.b.M.b.M.M.M.n.V.M.M.N.N.M.n.",
"F.V.C.N.S.A.C.V.m.n.Z.C.C.M.x.C.V.C.V.V.V.n.n.V.N.n.N.b.n.M.N.v.x.n.N.N.M.V.A.A.N.n.x.M.N.x.v.b.b.n.M.N.V.N.V.M.x.z.b.b.n.b.M.x.",
"n.A.N.A.S.C.V.V.V.C.M.n.k.M.F.C.C.M.n.c.n.m.n.N.n.N.b.N.v.n.M.N.V.V.M.M.N.V.V.b.M.M.x.M.b.c.M.M.V.M.N.V.M.M.M.c.M.n.M.N.C.V.M.N.",
"M.M.N.C.C.n.n.F.F.V.n.n.n.N.M.z.n.B.N.N.V.N.M.x.M.n.M.M.M.N.n.N.b.z.z.n.M.b.b.V.F.M.F.M.M.n.b.M.m.n.V.M.M.V.N.N.M.N.N.Z.N.N.n.M.",
"V.M.A.A.V.F.F.V.n.b.V.n.b.n.x.M.N.C.A.G.G.F.C.V.V.C.n.n.V.b.n.n.N.n.M.b.x.b.M.b.x.z.x.b.M.b.N.S.V.n.N.N.M.b.M.V.V.M.Z.N.N.C.M.N.",
"M.N.C.C.C.F.N.N.C.F.C.V.C.N.M.n.b.C.C.Z.N.V.F.C.N.N.M.C.M.n.N.N.Z.N.m.b.M.M.b.k.k.M.b.M.z.M.M.C.S.V.N.N.m.x.b.N.C.N.M.b.M.C.V.M.",
"M.N.C.Z.N.M.F.C.V.V.n.b.n.M.n.M.A.F.Z.N.V.V.C.V.C.M.M.V.n.n.N.C.V.n.n.Z.M.M.M.n.n.b.k.g.j.M.V.M.x.b.z.n.n.n.N.C.M.C.N.C.C.C.F.A.",
"x.b.M.M.N.n.z.M.b.M.x.C.V.n.n.M.M.F.F.F.F.C.N.M.V.b.x.M.N.V.V.V.C.M.C.j.z.x.n.n.x.x.j.j.k.x.z.z.V.z.z.m.n.N.M.M.V.N.C.A.F.N.N.C.",
"x.V.V.B.C.C.M.N.M.N.M.b.b.b.n.V.V.M.M.M.N.N.M.x.j.n.M.b.V.V.N.V.M.M.b.k.z.n.b.j.x.b.x.n.x.x.j.b.x.x.m.n.C.C.C.N.N.N.C.F.C.C.M.V.",
"G.F.C.M.n.V.M.n.M.n.N.M.n.n.M.x.b.V.M.b.b.x.z.M.b.n.n.N.V.C.C.V.n.n.M.n.M.V.x.x.b.x.k.k.x.n.x.b.m.x.n.n.n.N.n.V.F.M.A.n.M.n.M.b.",
"C.x.k.M.N.M.N.n.V.M.M.V.b.b.M.M.n.M.b.V.n.c.b.b.M.n.n.N.A.F.S.A.C.C.M.N.V.n.b.n.b.k.b.x.x.k.x.M.b.b.n.M.C.C.C.F.V.F.A.C.M.C.C.N.",
"s.k.c.C.C.M.M.n.n.M.n.k.N.M.b.V.V.M.V.N.M.b.g.h.v.N.n.b.V.A.B.v.N.N.V.C.V.V.V.n.n.z.z.b.x.M.x.x.x.v.n.m.C.n.A.C.V.F.F.C.C.C.B.V.",
"k.M.B.V.V.N.M.M.n.b.n.b.n.b.M.N.C.Z.V.n.m.N.C.x.g.a.f.n.B.C.V.V.V.N.V.M.n.V.V.V.v.z.z.b.z.b.x.n.V.b.n.V.n.M.n.n.N.N.M.n.b.c.c.b.",
"c.V.V.N.V.N.n.b.x.b.b.M.b.M.N.A.A.A.n.V.n.n.n.N.n.l.n.M.V.m.N.C.C.A.M.V.C.A.n.b.n.l.b.n.M.N.M.N.V.n.x.x.k.b.x.n.x.M.M.x.n.x.x.z.",
"x.x.M.M.N.N.M.M.b.j.k.b.N.b.k.m.V.N.n.n.m.b.b.b.m.V.C.n.n.M.C.V.N.M.M.A.A.M.N.M.V.b.z.x.M.M.n.M.b.n.n.M.n.C.C.n.N.F.M.b.v.g.l.x.",
"M.N.z.z.N.c.M.b.M.C.k.j.s.s.x.M.V.V.n.n.j.z.z.b.n.n.h.g.x.b.n.b.n.N.M.N.N.N.V.B.x.g.g.n.M.n.x.n.x.N.n.V.N.m.n.M.v.z.n.b.n.m.n.N.",
"N.c.M.C.M.M.M.x.b.b.M.n.k.b.b.M.b.V.V.n.z.x.c.x.k.n.n.v.x.V.c.n.M.z.b.v.b.V.x.x.z.g.z.n.N.C.n.k.z.x.x.x.n.k.x.V.N.M.n.n.b.n.n.z.",
"M.M.N.M.k.x.x.x.x.x.b.b.N.M.x.k.x.n.N.x.x.M.n.n.v.b.g.x.z.x.n.n.x.b.n.z.s.l.z.x.n.v.v.n.b.M.V.n.B.n.n.M.V.N.V.N.M.b.k.v.x.x.v.b.",
"M.z.x.x.z.M.n.k.k.x.b.n.b.j.j.k.z.x.n.M.n.M.n.b.n.n.z.g.z.z.c.n.V.M.N.N.n.x.b.v.l.f.p.d.j.x.n.b.z.x.M.Z.n.k.z.b.x.M.n.b.b.b.k.k.",
"n.V.N.C.A.M.b.v.v.b.b.z.b.n.x.z.b.n.N.x.b.b.j.z.z.x.b.n.m.m.m.m.M.N.n.n.N.b.x.l.k.d.j.j.x.z.M.b.x.x.g.z.z.j.z.n.N.N.n.M.M.V.b.x.",
"M.N.C.C.M.N.b.k.n.M.b.b.b.g.x.n.N.m.b.l.z.z.k.k.h.g.x.N.C.Z.C.V.N.n.n.N.b.x.b.z.k.x.z.x.x.z.n.b.b.b.n.N.v.n.b.N.n.M.V.n.n.c.x.x.",
"M.C.N.n.b.k.v.k.b.v.n.V.x.x.c.b.b.b.z.b.b.x.k.s.j.g.z.N.V.C.Z.Z.N.N.x.m.b.n.N.n.v.n.k.x.z.x.x.x.M.b.v.z.z.z.b.b.b.v.N.b.x.b.l.x.",
"j.C.M.M.k.f.p.k.k.s.g.g.x.n.v.g.f.g.g.s.x.z.c.z.g.l.n.l.n.n.m.m.n.l.g.b.v.v.V.n.b.M.n.n.n.M.j.b.N.b.n.b.g.p.f.n.M.x.n.N.b.v.z.l.",
":.p.p.u.t.$.t.p.f.f.f.p.a.g.g.f.p.f.f.u.p.a.p.r.i.p.g.g.g.h.n.k.f.f.p.f.d.g.z.h.b.k.v.k.f.g.g.g.f.j.x.j.f.a.p.u.i.a.l.v.x.d.f.i.",
"6 6 6 6 I k 6 I $.8.t.t.0.-.$.$.:.w.%.%.$.2.o.) 2.q.6.r.t.8.u.f.f.p.t.t.y.y.p.a.u.t.p.w.t.t.p.u.-.r.t.t.t.3.` ` ` %.[ q.y.r.e 6 ",
"= = : , , 2 : 2 6 : k I M W M 6 3 6 4 2 4 4 4 4 3 4 9 4 6 q E %.$.[ [ E [ $.-.-.3.%.%.$.%.` $.` W %.%.W ` 6 4 2 , < , , 4 3 , , ",
". o $ $ $ $ $ % = $ - : : : = - ; = $ $ - & & & $ % - & & - ; , ; , ; & % - , , < < , < , < : : : : < , : : - - & O X O . X % O "
};
