/* XPM */
static char *result[] = {
/* columns rows colors chars-per-pixel */
"64 64 79 1 ",
"  c #36302A",
". c #3B342D",
"X c #3D3731",
"o c #3D3934",
"O c #40372F",
"+ c #433C34",
"@ c #453F39",
"# c #474035",
"$ c #4B4137",
"% c #46413B",
"& c #4C443C",
"* c #4F483D",
"= c #51463C",
"- c #53493E",
"; c #4C4640",
": c #4F4943",
"> c #514740",
", c #544C43",
"< c #594E43",
"1 c #554E49",
"2 c #575047",
"3 c #5B5146",
"4 c #57504A",
"5 c #5C544B",
"6 c #5F584F",
"7 c #5D5650",
"8 c #5E5951",
"9 c #615446",
"0 c #62564B",
"q c #645A4D",
"w c #695B4D",
"e c #645B52",
"r c #695E53",
"t c #635E58",
"y c #666156",
"u c #6C6155",
"i c #666159",
"p c #6C6359",
"a c #6F685F",
"s c #716356",
"d c #72665A",
"f c #74695C",
"g c #7A6B5D",
"h c #746C62",
"j c #7B6E62",
"k c #7D7164",
"l c #7E7469",
"z c #806F5F",
"x c #837365",
"c c #897667",
"v c #847669",
"b c #887768",
"n c #86796B",
"m c #8C7B6D",
"M c #917F6E",
"N c #877E71",
"B c #8D7E71",
"V c #917F71",
"C c #92816F",
"Z c #8E8174",
"A c #938475",
"S c #988775",
"D c #978977",
"F c #998877",
"G c #958679",
"H c #988779",
"J c #96897B",
"K c #9A8B7D",
"L c #A08F7F",
"P c #A1907F",
"I c #9C8E81",
"U c #9E9184",
"Y c #9F9389",
"T c #A08F80",
"R c #A19385",
"E c #A29589",
"W c #A5998C",
"Q c #A99B8C",
"! c #AB9E91",
/* pixels */
"AAGJNIJZAIJIKKGADSAJKJJKIKIKAJKUKKYUJUYJKRKRHKKJGGGUYIGIIGGGGZJI",
"GAGJIIAIAIKIIGGAGJKKUUJGKIIJJKUUUUYUIYYUKRWEKKJIJKIYIIIYIIZZZZGJ",
"IJJJIBZIIIIIUIGAAAJUUIGGIUUIUYEEUUJGLEEURREUKKJKKKYYUIIUZIlNZZGY",
"IJIGAZNGEEEYIUHHUGJUIIUUKKIIKUWYYEYIYEEERIKUIJJIUUUUGUYYIIINZGGI",
"IGIIIZGIEYIIJJKJKUGGJIYEIKKKUKUUUYYKAUEEEUKKKKKKKLUUUUUJIIIlZIIZ",
"JGIYYIYYEEIIJJUKIYKGJKKUUUKKUKKYUYYYUUEERRIKKUIHZAIIYUIGIIIIIZZI",
"IIIYIZYZZIKKIUYUIIJJKZIUKRUKKJKUEYWEYYKKKKKIRKJIJZJIYYUUININNIII",
"UIYIGIIGGIKHKUUYYGGJJJYYUUEEYUKUWYEUYKJJKKKKKKUUUIUIIUIIIIZNNIIN",
"UKUIJGGGIGHGIKIUYGGUIJJYIIYWWYIIEEUKUUZGKKUZGIGYIUEUIIIUZIJZIJUU",
"IGKJGGGZAGZAGGIUUYYUUIGIRKJIYIYIUUUKUUZKIIUJGIUJIUIIIKKGZNGGJIII",
"IJGGZJZZAGZGJJJIUYUYUGZZITJIIIIILYRUPYYUUYJJJKEYYWEUKGUUGGIKJUYJ",
"IIGZZGZIAGIJIIUIKIKZGZZGBIGAIYIILKPRRUEKJKKAGKYUIEWEKKKRYUIGGUWY",
"KJIGNZGZZZGIJGIJKGGZGGKJJJAZNIIIUKIYYYEEKJKYUKIKGGIIJDGJLLLKIKUY",
"GKIZZIIZZGUIIIJGAKKZNGIIGJGAIZIIRUYIYUWEUGUEWUIJIJGGKKJDJKGKIUKJ",
"AUJZGIIGZZGIGZZGIJGGKJJJZGIGIZIIKIIIUUYYUUEEEUUUYUIIKUKLKUUUKKKG",
"CZKJIGGGGZZGGIGGIJJIKIJAIIIGIIIIKUIGKKUYEYUUYQUUUYIUYKYUKKKKLUUH",
"ZCZKUKUUKJZGKUGZmZGZZADDIIRYIIIIIEIJKYYIRIREWEIKUUIIEKUUKKRUKUKK",
"GZZZJKKUIAJZGJKGAZJGDDGJIIRRIIIIIKJJIUUUUIIHKIKRYUIIKKUKKKUIKUKK",
"GZIGDKUKLUIGGGGZAGKJJKGDJIIIGIIIJJGZGUEURRRKIIKKUUIUPKKLHDKRKRKJ",
"GIIIUUUUREKKGZZZZZGJIKGJGIJAJABAKGJGGKJZKIKKKKRLJKKZFKLKLDKPHKRH",
"ZIYEEYEEERRHAGGAZGGGIJIGJIIGJABGGGGJGHGAJJJKKKRRKLSmDKFFLLKFKFKS",
"ZUEWEERREIRLKJKGGIIIZJIIKIKGBVmVGGJKGAGAGGJURKLLKDDSCFFLLLSSSAAS",
"NIEEEWEREEREWIKKIIIJGAGIIKGAGABAAGGZGAZCZAJHKRKSDFKFKLFLSKSCCCMA",
"GIYYKWEKUIRIUJIGIIJGKIGZJJZZGGIKGJAAGGZAAAAHJHHASSKPRLRLDKSmCCCM",
"IIYIIIYIYUIZHJABJIGIKKIAAANAAAGIJGHABVABAAZJDAGASSGJKKKLKSVAmmSD",
"IIYIIIIYYYIKJHJGAJKKKIJJJAZGVbBJKJJJGGAAAGZAGGGGGGCSHDCGKIJZbmKK",
"ZIIIIIIYUIGNJEERGAIYIYKKJJJJGHAJIKKIIIKGJAZZGGHJGDJJKDAGKUUKGSSG",
"ZIIGIIIIIGACGRRUIANGUIKKGJJGIIAGGAAGKRIIJGCAHDJKKJKHGAKJHSGKKAGA",
"ZZZIIYIIJGmDHKJJJGJIIYTKGGAAIIJAAGGKKIKJKGZDJKJJJKUKKKIUKAGZVAAB",
"NIlIIINIGJKUKAAAGIIIIURKGGAAGIKHKKUJIJAJKKUUUHJHGZAGHGGKGGGNAGZJ",
"IIlIIIIIHHUYUAmmNVKGJGKHJHGVGJGHIUUUIIJGIUQWEHAAZbbAAAABGIGGGGAA",
"IIIZZIIZUEKUEIGAKGHKKGAKIKAmBGVJAKJIIIIIKUQRRRAAmbbbGGGGAGGGGGAJ",
"IGGVAGKHURIHRUGGbMHKSGHKHKGAAGAAAZKKKURIERRERKGZmBAmmAZJEUZZGUUL",
"TGAGGGGKIUEIUHMAGAHKJGJKHHJGADGJKAJJKWEGRRKKKHKGAmZSAJAIUKIIUYUU",
"KIHVJIGKIEKRKHAALLHHSGJKKKJGGJKKUKUHSEEULKSCGRHDSGAGKANIIZGJLKUK",
"KKKHGJKIKLHRKAJJGIIJJHGGAZmAGHKUIUIURILILDLFKKKHKKHDKJZAUIKIJHKK",
"IKAJKKKIRQEPKAIKDSHUJGAAmmnmCCKYKURRRKLLPRPLLSFKHLHKKKKZJIJAnAUY",
"RKAAGKJGKRWEKAIERHAKAAmmmmbmmMCAKRUE!RKSLPLKPKKFKKAGAJKAZGZZAAJL",
"YBBVAJKKHUGSJJUUUJAAAAmbccvcxmSMFRKLRPLSFFLFSLLSDSASAKKZNAAADKDK",
"IGBAGKIJAKGCGSAGUHJKJmbgxzgsgbSDDHFSSLFMKFCSCSFLSSGKLKJGGBmGAFPK",
"IIBAJIIIDDSCAKHSKRPRKZxgczggzcCDSSKKSDKAASCCCSFFSSDKKHHPKFSSAGKF",
"KJIKHHGKKHAMMSLLKKKKLDbbcczzcSCSACcLTHFMmcmFRLFKMCSDGAKQKKLCSLSS",
"KGKRRKHHFLFDVSKRUnCSSSnvxxkxzCLDSScCGmxxxzgmRRLKbgfxbHKQQLSMKRFK",
"IGHTQRKHFLKURFMAmgbmbGbxggkusmnDLCMxcgdccfrxGSvDMxssvAAEQRLSSAGL",
"KDR!RRFLPGSHKAmxgkmmmCvgggzpgmZAxxmvxssbgssmAGgbSASAAbsWQJBBCmmG",
"LKRWRQLLKmcbbbxfvfgvkbdfujmDULFLj9ufgwqxmzxjGSbAKSPKKKU!EBvjcAmn",
"GKIKITKGbvvkkgknmmmZmmMxfnDPWQWPb0<<3uwrsrfegmZAKDDKBfQRIBjmAAxn",
"bbBGGSAMvklvdpfvnnnvnlvdkCKQQQWJJffg0=-wfjppaxvvGCbmbgELGBvbKHnN",
"f6ybmVMvxgjxxljllzxgdhhjxVIWRQKZCquu-93ulZlnhadplxnldvHSMVAfjmbx",
"khsxMVbxgjxvxBmljjjjhzbmmmVSLAngq3w39-9dalZCZkyuruNAxcdwcr0ergvj",
"s0pfjzvvxhxjxhhdzxzxBmVbMMcjcmdw--9-qq---9sfpkswe0wwsf00f=<ueeex",
"r3wfdfjdpq00rrsgjzxzsxxjggsszcgrw-*3uq9+*9w-*--wrw3,9q9q0$=35%@0",
"e39rrrhdsr30rssffs-<9ugggwfcjgffw*-9f-w**999-w--<0wwu<-00<0wp*.@",
"9,><7qqe0-00ss00w9<0rufsrrsywrpq-*9yu53-**--33---0933,,w3rheh<>d",
"4<1505004*==<rrr3qw00wru<<005555qqqq55**#*-wy3-3,<-,<40r3sxuvufl",
"=&>>>;;11100rdsruy33uuyq&&>506,udss322-*-6qwp3-*==+=0wqrrgr$dff0",
"httt5111e1eppee3qq63wy69*---30eq5sdy5yq5665qw---=*O*15rr4417vstf",
"t333<<37515y8epp6:22q0ufy3225skuqyyuwyrydyq-$**#+++=1754&;tphtts",
">@&>=&;41:1>efje%::+23ypuuw3qjmdxyqqqydafau635555-=454114thhhrqe",
"OO>,;;:::1t1aihi%oo%3355qy5--ppudq*##*33,,22-5rq=&;,>4477pp7150&",
"..>,;@@@;:7448he%;1;#**&5q32&233-e6222*5uauuy3###=665*&&+@ttqth7",
"@X.@+@o;;:::&741;:8; 3q6apyu456q3qqupf56ihaaa3$5pffuee:@@;=@,777",
"5@X+@>;447,1taih8;:%%yppaee67aaq52quue22uldyqqwfurwqee,,14>@1000",
"p7q7tt7178ttihlhlaiypvhi75547452*.233323fku93wwu95-23w3>,>>>1003"
};
