/* XPM */
static char *result[] = {
/* columns rows colors chars-per-pixel */
"64 64 134 2 ",
"   c #6D5D45",
".  c #6F6249",
"X  c #74654C",
"o  c #756551",
"O  c #796B53",
"+  c #7F7259",
"@  c #7C7561",
"#  c #8A6E4B",
"$  c #807157",
"%  c #85775E",
"&  c #8B795A",
"*  c #847664",
"=  c #857A61",
"-  c #8B7B64",
";  c #877D68",
":  c #8B7D6A",
">  c #917F67",
",  c #8D826D",
"<  c #918566",
"1  c #92856D",
"2  c #9C876D",
"3  c #958A6F",
"4  c #9D8A6D",
"5  c #8E8572",
"6  c #8F8876",
"7  c #928672",
"8  c #998773",
"9  c #958B75",
"0  c #9B8C75",
"q  c #928679",
"w  c #958C7A",
"e  c #9B8E7A",
"r  c #9D9176",
"t  c #97907B",
"y  c #9D927C",
"u  c #A18D74",
"i  c #A29174",
"p  c #AA9576",
"a  c #A2947D",
"s  c #A9957D",
"d  c #A4997E",
"f  c #AA997E",
"g  c #978F80",
"h  c #9D8F80",
"j  c #979382",
"k  c #9D9483",
"l  c #9D9984",
"z  c #9E958A",
"x  c #9F9B8E",
"c  c #A39682",
"v  c #A99683",
"b  c #A59A84",
"n  c #AA9C85",
"m  c #A3978A",
"M  c #A59C8A",
"N  c #AB9D8A",
"B  c #B19E85",
"V  c #B19F8B",
"C  c #A59D90",
"Z  c #AB9E91",
"A  c #ADA186",
"S  c #A6A18C",
"D  c #ADA28C",
"F  c #B3A286",
"G  c #B2A48D",
"H  c #B9A68D",
"J  c #B5A98D",
"K  c #B9AA8E",
"L  c #A6A294",
"P  c #ADA492",
"I  c #AEA994",
"U  c #ACA799",
"Y  c #AFAA9A",
"T  c #B3A592",
"R  c #B9A692",
"E  c #B5AA94",
"W  c #BAAC95",
"Q  c #B4A798",
"!  c #B5AC9A",
"~  c #BAAD9A",
"^  c #B7B096",
"/  c #BDB196",
"(  c #B6B19C",
")  c #BCB29C",
"_  c #BFB99F",
"`  c #B1ABA0",
"'  c #BDAFA1",
"]  c #B4B2A0",
"[  c #BDB4A1",
"{  c #B6B9A5",
"}  c #BEB9A4",
"|  c #B4B6A9",
" . c #BEB6AA",
".. c #BDBAAD",
"X. c #BFBFB1",
"o. c #C5AE8D",
"O. c #C1AE96",
"+. c #C1AE9A",
"@. c #C1B197",
"#. c #C1B39D",
"$. c #C9B69D",
"%. c #C4BA9E",
"&. c #C9B89D",
"*. c #C0AFA0",
"=. c #C2B5A2",
"-. c #CAB6A2",
";. c #C3BAA4",
":. c #C9BBA5",
">. c #C3B7AA",
",. c #C5BCA9",
"<. c #CABDAB",
"1. c #C7C2A7",
"2. c #CBC1A5",
"3. c #C6C1AD",
"4. c #CCC2AC",
"5. c #CEC8AF",
"6. c #D1C4AD",
"7. c #D5C8AF",
"8. c #C6C2B5",
"9. c #CDC3B2",
"0. c #CEC7BA",
"q. c #CDCCBF",
"w. c #D2C5B3",
"e. c #D2CAB3",
"r. c #D8CCB6",
"t. c #D4CBBA",
"y. c #DACEB9",
"u. c #D9D0BC",
"i. c #E3D3B8",
"p. c #D0CAC2",
"a. c #DBD6C7",
"s. c #DAD7CB",
"d. c #DDDBCF",
"f. c #E1DCD2",
/* pixels */
"W H W -.@.) #.+.+.n H E T G D V O.-.! N E v v v c v R W ~ #.V F / ! ;.J a G R _ %.@.;.-.=.-.W ;.=.H H F G f R F H V O.@.O.o.@.-.",
"n H V E J H E R R +.~ B D v N G E #.~ N N N V +.' ~ W B V F V R W G G F A W R #.) ~ ~ #.) W ~ N V G R N F B K F O.#.:.H H H W ~ ",
"V ~ N G ;.#./ W ~ ;.>.H D R n F G ~ ~ N n N W O.+.T B f R ~ G G F F n ! R W =.=.E R E =._ -./ D a E H G F c c a s f H H F H @.R ",
"$.#.~ ) ) ! ) W G W ! E G R G G H ! ! N G T E T H V H +.~ #.E T N Z D G G ~ ! N ! G E ;.=.=.;.%.E ! N 4 p 3 y y B n #.~ G H $.:.",
"f f ~ #.~ _ ;.! I / _ ^ c W W ~ ! =.W F G D M D V V W -.} <.#.W T T T N n G R G T ! ~ :.<.%.) %./ A 1 # 4 a N T A D E -.v v W H ",
"f v ~ ! ! [ ( [ [ _ } J H ~ ;.;.;.} W _ _ / ! D M v E ! -.,.N Z N T ! n J ! T E E ! %.#.! %.~ W / J a 0 8 D F E E T D ~ W s G H ",
"O.H R P ! ~ Y I 3.{ I J J E ;.4.%.G E ;.%.[ T c c ! W ! ,.t.[ T V N ! N E E T ) E E n A %.=.:.%.%.G d 0 v G G P G [ Q R V 4 p O.",
"O.H W ~ ! G ) D I ^ I ^ I / E ! ! f T ~ ) / n n a y E J : o : : - P N P ) ;.) W %.~ b W $.) $.E ! G n E E J %.) W ) T N F B s H ",
"n T ~ [ ! T ) S l ! D ) [ 1.D G I f G I E G b b v v T -   , , O - N E !  .~ ,.=.<.E ~ ~ ~ E G E n v F ! ! G ) ) ) ! T J R ~ f F ",
"V #.=.! J T b r n ) / ~ [ } { ! I E ^ ^ E E I A M N G O.G ( b D Z N R =.~ Q ~ ~ ) T J G =.) ) %.E n ! ~ / 1.;.) W R %.K H W #.~ ",
"<.#.) ;.D A & , D I ) ! ) ^ ^ ( ( I ! ;./ n v n D I N E c [ ) ! ! ) E ~ ! E ! G N E G ! ;.<.;.%./ E W _ 1.;.J E f F W ) W H $.@.",
"R #.^ ! T S l S T E ) ! D E / / ^ ^ ( ( ! n c y b E E ! c m ) ! E ! ~ Q E [ Q ! T T D G =.=._ ) W _ #.~ ! D n & 2 v f J ) +.F p ",
"R R D D M n a D ! _ #.E J G W W ~ =.[ U T T T T T M n A c 0 ;.<.T E ) ' [ P a Q ~ N v b n T ( ;.} ,.<.J f J d $ > f f n E ~ H R ",
"#.~ T N S E D P ( ( T T ! ) E ) ;.=.! A [ _ ! T W N k r c y T ! E Z ~ ' ) T n ! ! c y n ) } ! [ [ _ ) T E J F i 2 s n D R E R #.",
"/ ) ! n M E ) W ! ;.! [ ( ) ! E / W W W ) =.~ N F D n D D y n #.~ N ~ [ ! ) 2.,.=.W G E / y T ) ! ^ ^ ;.A J &.J f v E E ! ~ ~ @.",
"~ E ) E a b G D J E ! S D P ! %.) E ~ ! E ' ~ S b D M T G D =.:.6.6.) [ ^ ) 7.%.) P D W ^ J ^ _ >.,._ I v 0 %.:.) %./ ! T ,.#.~ ",
"W J E A r y N c E @.T D D D =.,.=.[ ) T ! ! E V G E W I E _ [ T ;.;.) ( T ! T [ [ T R [ <.;.;.=.;._ ^ a d < n / E ) P E [ } ) T ",
"J A G P D D D b T _ T I E W ~ [ ,.,.-.T D ( W V D F M D <.=.T Z 9.4.I b N k ) t.<.=.~ ~ <.w.~ ;.} ( ^ A a & f ) T ~ [ U T ! ~ ! ",
"J G A A a N a * y A b r S ( I ! ! ) ;.[ P ,.[ ^ _ ! T T ~ T ! N D / ) T n S ' T E Q D Q >.9.=.~ =.;._ %.r r ) _ E ~ ,.[ ! c T W ",
"=.n T D 0 w ; 1 d 1 7 n A ! ( ( ! ) T P D ~ _ %.;.} ~ M Z c V a e S ^ E n y S y m G ~ =.>.<.[ ! 3.5.5.;.n ;.:.) ) ,.;.;.) E Q ~ ",
"/ f E a : c t a M J n G E ! ) E D J A G b b ^ ! ;.[ E v E W E v N y ( ;.! 0 r l P P E ) ~ =.=._ ) e.6.J W ! %.[ ) ;.~ ~ W W F ! ",
"G a D y M D S A A F n T ! E ! J G D c D ) ^ ;.,.) r N *.;.3.[ R T v [ =.D n z D } 3.! T ~ S T ) T %.<.E / _ <.=.! ! ' :.K T W W ",
"G E G y n l y A D A A n G G E E J / T E E ! ) <.>.;.! N ~ [ =.>.) W R ! D N E ,.( } ! I <.;.;.U N -.;._ ;.;.>.~ 2.#.! ;.:.E W G ",
"G D n 7 y y r A a f n N n A n y A D v N T ! T ;.4.<.#.n ~ Q v ! E G M N m N T T ! P E [ ;.;.E ;.) ) [ y.:.) T ~ ;.W =.;.[ N E W ",
"/ D N 9 t 3 , D l n A W J A S D S M v b P =.! ;.9.<.<.D k D D S c N 1.3.c c D N ! ! P E [ =.T [ [ ' T <.>.~ [ E ~ =.) T P ! @.E ",
"W T n 8 7 3 y S y D S G J ^ D ) ^ I S D D ! ) %.=.,.t.T ! 9.T ~ G ! ,.( T ) E G )  .! ! z ! [ ( [ ) D ) %.#.;.=.E ) W ~ D W ~ T ",
"~ G v G A 7 c f J %.A M ) ;.[ ) } I j c T E [ [ ;.9.[ ! >.;.E T D D [ } T ~ >.<.[ ,.,.W D ! E U ! S N ! ~ ~ W ;.) ~ ~ E G G F F ",
"K O.E ~ d r 2.%.1.1./ W ! 4.[ } } A c D E ( 3.G s =.T W <.<.$.W E v ) ) ) =.<.w.[ 9.3.=.=.P T M J W -.E E ~ ! ) ) E ~ ) A G n N ",
";.H W G 3 y e.5.1.} %./ ;.y.u.e.1.I #.%.[ w.9.i 8 <.:.6.<.w.6.+.G J :.4.%.! <.w.=.9.e.6.! =.=.>.T n G G E %.D %.R ~ ~ t.-.) W %.",
"J n G 9 = y P P y 3 A D =.w.y.e.r./ 5.;.<.! ~ ! G :.6.;.~ t.<.W ) ! W :.6.E ) w.:.:.5.9.E ~ <.<.} D n A / ;.W D ! >.;.-.:.-.W ! ",
"G v F M b M P l 9 w 6 6 k >.7.e.r.5.y.;.%.! <.) W 6.<.<.-.' #.#.&.W E ;.w.#.~ <.w.<.:.,.Z ~ w.9.;.;./ ^ %.( ! N ~ #.=.~ %.G J W ",
"G n v Z T U M M L ( { ] c N -.4.;.E U y 0 N F T R ) ~ ' ' <.<.-.#.G b q s ! =.~ ~ ! ! T ~ *.<.w.;.;.P ! ;.E G T E N Q ~ G G ~ ! ",
"T ~ n T G b a M ! 8.t.( U { c c n S c k l w y m b t a M c k w N n S U T D N T :.;.N T T e.=.,.<.>.! G [ ! ~ [ <.,.E c 0 0 V W T ",
"#.R E W F d y L ( U 9 o.>.,.} U T S b y M P T y e 9 v S b m P P M n D P ! V n G U P Q T ;.T [ =.! I T ! P ) [ =.! [ ~ E V ! @.~ ",
"W E D y N n a m L z = i.a.| ] L M b M S D M z M M U D M n z k v A T ! D N N T ! N h Z P P T ! T T I T ! P v G a ~ ) ) T ! R R @.",
"O.#.=.F M T 4 q x 6 O ;.M M P M ! [ c b U C w 9 k z v c v 8 1 y c e N n D m v S [ P * N ) E M ! ~ T [ T e m N m D Q P M n F F F ",
"B o.~ +.c E a 5 l L y 6 6 r Y d.8.8.c l c y 6 9 z z 0 q 1 9 a r y r n D G I n v Q  .P : } S v ~ [ P ! G v P N m P P P T N c H H ",
"H #.=.-.~ R s k M Y l 6 q U L p.s.,.A a c 9 q y w k a y y e a a d n T n D W N v m Q  .e T E P Q ! ~ ! D T T N N V ! ~ E G s B B ",
":.A / %.W W J S b x t 3 3 S U  .p.8.I S M a 0 a 8 e e c c c v F E W T T D G b y n T [ ! b n T Q T Q T P ! U Q N N N N F M N G H ",
"%.W W ~ E T F I b 9 9 r b M S U Y D D M S v n y : c c N a c m v n ! P N G G D D e N T ,.N ~ ! Q ~ [ U S U U P Z N ! E / G G ~ -.",
"+.@.%.E G D D P t < 9 r b v l D S P v P D n a y 3 b k m y r y c d v A G a / D v a N T P ! =.! M Z ~ ! N M S M M E ! ~ ' E R ;.<.",
"@.#./ W T D M y t 6 r 9 y I l b D n N ] I c b P y a e 8 c v 0 3 0 0 i F H ~ G D a D N D [ ! H G Q E N Z m j b P ~ E T ~ ~ E E ~ ",
"#.$.W E v c 0 y 9 t r y k y M c d M b a y N D n k l ! y l y a 9 0 B 4 s B E n M a 7 ~ ) E E ~ ! ~ T Q U P l c E E T ~ Q ! E G O.",
"~ W a A y , , y w y r y c S D c l M y r w n G D c Y ,.U q b b a i f a n ! T b M 0 , L Y ! Q ' ~ ~ P P S M N V ! T P T ~ #.G c s ",
"&.H n G D A 9 5 z a k e t P c c S b e t w y n c n c { D a y 0 s d n A D D c y v 0 : w S ( ( ) ! Q n c N n N N S S D T >.<.[ F ! ",
"@.@.$.@.#.D y 7 0 k y j l U b D c k b t e e y i c v q.D d a A M A E G D D A v a y w 5 M ( ( ` ! ~ n N N Z N N Z D U P [ -.! F R ",
"H H K H G ( S t r r k c z z M c 9 w w z c r a N a ) u.N D c v D E G N T G N T s 9 j , 7 m Z U T ! Z N N N a y k G T C ! G c s n ",
"y u d G d y A b a 9 9 y 0 a I y 9 w 1 9 y b D n y q.M a n n y 7 F T v M a c v c 9 , q j k k [ U P Z v N n k c y P P M ! v D / n ",
"! ~ ~ B a y G b y y 9 b y y c S v l w e b c b b 0.[ k M b n f i b P A a i a c N M w q : w h T ! M n a T N c v v P T Z Z c E #.V ",
"H O.H f A < c E I S y D A t A A M S k e S d 8.f.` 5 M D M b G G v n A v N A e b a m 5 @ 7 y S S S N N n Z Z E ! T =.N c N R @.R ",
"O.R W n v 9 q ! U b S M b t D I S S a c S b z t w 7 d A c v R E n J E n D D n r i 0 5 6 w t h U T P T M v M Z V ~ E N k v T E #.",
"H R R T D 0 y ! x l b 1 9 y c D A A y c a z k 1 5 7 a b y v N n n D W W G W n f d s r 5 0 M M b N T Q N Z c c N N a M z m T #.V ",
"-.#.! T B H b D k e y w c l A n N A A M M n a 0 q e F A N A n J n e a G N R T ~ T T D v l D E P c N Z Z m m m v N n D m n v G W ",
":.@.~ F N %.:.W S l j c M A D T N D A D A D n a e v G G E E G V F A A D v c N V T T c F r c Y [ ~ v c N N N Z N T T N N v e ~ &.",
"+.W F T E W W E U j M M m v b P N E D b T D T D D F T N r 1 > > a A n n v V a w e s a c w 7 9 j w ; ; 1 c 7 h c T ~ T G n c #.-.",
"-.E v T ~ E E W U M b v S M m n d M D D E T G N D S T D - O X   % v A n V ~ N 0 u e 8 b Z P D I Z M m e 7 h k c v v N G N F ~ #.",
"-.H G N @.J E ) S m t l M b w w r w c N V D D v n S T D + X X X - a d b G ~ n u 0 e n E V T ! N M N M m y z l k c N Z G m G ! -.",
"@.~ W O.@.E D W E k l r N k r r i 0 k n c c b D n n A A % X X O v G a n n G F f N n E ~ ~ ! ! b S l M P C P b 6 8 N V v s b E -.",
"~ =.E +.W E Z V K D M A b c a c e y c M v v n a 9 a A r 3 4 i r N G F a s E E #.=.) / ~ H E ;.V N M c k m k y w h M G M c e D #.",
"-.@.H H V E N T W E G G n y n G v c k z b b i u 3 r A y y I E D G T T n n -.:.) ~ ~ E ! ) ) #.V v c M e y j b m c D ! T N v ~ -.",
"-.&.-.G n T ~ W V n n c G c v D a y y m T N B v V v N ! x l T J J E W J n T ) W [ ~ T ` ~ E N F F n b z c c b P N P T N V T Q -.",
"<.-.~ u B ! W =.N u u e V N y b N B u u a V v v f T W ) I I W G E G J K W G ) / W E R ~ ~ ~ T n s F A D e a c ! T N c c T N N -.",
"@.R F W V G V R R 0 8 a N S T n W +.B c N V n B c u F ) ) E W F W H W K ~ %.W n v D ! -.=.Q N c n N ! G v f s n n G G T ~ T N V ",
"W H @.@.-.W G B G G R G n D G D H +.v V v V G N 0 e N :.=.;.K H W #.#.K R ! v n E +.#.#.:.=.G R +.E +.s n G n H B n R $.@.H O.O."
};
