/* XPM */
static char *_1f0c611cb6746aa80bb8787c4402367omBhdSUKzBh079Pz[] = {
/* columns rows colors chars-per-pixel */
"64 64 37 1 ",
"  c #636156",
". c #66655A",
"X c #69675C",
"o c #6A6A5E",
"O c #706E5F",
"+ c #6D6D63",
"@ c #716F64",
"# c #6F7065",
"$ c #727265",
"% c #75756A",
"& c #78776A",
"* c #77786C",
"= c #7A7A6E",
"- c #777970",
"; c #7C7E72",
": c #7F8174",
"> c #7E8278",
", c #818276",
"< c #83857A",
"1 c #85897D",
"2 c #898B7F",
"3 c #868B81",
"4 c #898D83",
"5 c #8B8F88",
"6 c #8C9186",
"7 c #8D938A",
"8 c #91968D",
"9 c #92988F",
"0 c #919790",
"q c #949A92",
"w c #989F96",
"e c #979F99",
"r c #999F99",
"t c #99A097",
"y c #9CA39C",
"u c #A0A7A0",
"i c #A2AAA3",
/* pixels */
"qtyttqyw99848444778q80q88775tyyty899777444770q8rr87445677e70wwwq",
":,<<,,8,&=,==::;==%1>>>11>>1<><:5:::,=;:;=;=*3&,:-;;:=;;%<;=;::;",
"=::===4;$&=,,<,:&%$4>><231131:*%4*%:,,:<,;*$-3%+$,,<,:=%$3;%==;:",
"=;,,;:8<=;;,<,,,:*%>:><243334>:-5>:::<,,<,-*=,%&-,,,,,:=%>$*:;;;",
"=<<:;:7,=;;::=,1<*$>:13>111>31:*6:,::,::31;$-;%*=::;,1,&$>$%;,;:",
":,<<::7:=;;:::,<:*#<>>2>24>>1>-%1;::=>=:<,;$-<&;;;:;,<,%@<*%=;==",
":,:1<=71><,;;,<,1=*>:>6668631>*#>$$=**&=;;;%=3*;=&;,<,<=$3-%=*&=",
"<1%**$6<>1,<17446>>q1>6q8653:::#>.X#o+$$##$->7;>-:17446:<03;<:13",
"q466889q0wq8ry8wyt999qyyqtw669w6qq0087r77q0788q088wy8wuqq799q988",
"4&=;,,,2466228;<21127696464:><1<7746418<;3433,<,<148=<4<,;<,,::@",
"7%==;;;;;=<<18;;:&:&>421>4<:=::*22<>;174=:,:;;;,,,48;=,,;;>:;&&@",
"8%=;;;,;;=,,1q<=::$&:242:6<::,,:64,<,,84::;:,,;,,=29<=,2,,<,;;&$",
"8=%=,;,;:;=;19<;:=&=>11<;04>:<<262,,;;84,,;1<;;;,=19<;,<<,,,,,;-",
"8===;=;==,::16,::=&:<<1<-4<:>>,,6<=%&=71,<<1<;;;:&<7,;<14<<;,<-@",
"6O@$$$$$$&$&<02::::::<1:;4<**=>:1,&=&&84,;;;:-%;&&<9333554<--;%o",
"4   Xo&oXOo@<8<:=><>:=*>>71*$*:=<=,:<:74<=;<<:;$%=<83>;<3,<-%$+@",
"98qtyyit0yiw768892<936<469978w9tytww996999626629qw85899229299q98",
"<48996yq9ww6<=,<<=O2;,,:,<<::=:>9<<<1,<<<2,%%2%=,,,,,2<&$1=,12,4",
"<<<<,,q711,;;:,,;&&2,,<::::=&=:*6=,;,:<1<,=&=4$%=;;,<<,=$2,<1<=,",
"11<:;=72;::=::,,,;O2<11,:,:==,<$4:,:,:<<<,;**6==;;;<<<,=$2<76,;,",
",1,,,=76:><;,;;,<;$71162<>,:;:>*4:::,,,<<=<&;7:;<,;<4<,:$62682,;",
",,,,,,62:,::,&=,,=$44<,14<<<:;=-6,:,,>,:,::&=7<1,,;11:;;$22224<;",
",::=&=<,:>,;=&--%,*3:<,<3>:::=*#6::::;=;=*=:*4:<,;-;;==>$1,<22,;",
",$..  :=%-*-$;*++;-6:*;>>::;+++#,ooXX#-;#+$*:6%**$$;%#+;-7:%=,2,",
"916799w9699230304670qq964qq6444367wt96844qq88q073<30<64470qq9864",
"2,4412<<<<,=;3*1<<,<<<<,:4,;;;:<<4672=3-,42,=<24<-;3-,<,,<<<13,&",
"6<62,:::,<:=;3*::<<>,:=&-5-===:1122,==3-;<,,;<<2<;;3=,;<<,,:;<>;",
"7666<<<<<<:=:6=:,,<,,,:=&<:;;;<1442,=-6:;:,<<,,<3;:4;;,,<<,,;<<,",
"8264:>,<1<<::4;:<,<,,,;==4<;;><,<11,=*4:,<<,,:<<1<;4;,<<<;<;:<<<",
"9444::<><<,>:1=<,,<;,,==%<,-;,;,244>==1:;,,,,,,>,<:3=,,,<:<,><<,",
"924>=:=:<<<::4*-=;,;=:&*$3-%-=-,<13;%*6;*;;:;=;;,;:4%=;;,=;;=;,=",
"73:++#%;:<2;;6*%$%;*=$$+@<%%*@,-;<;*%*4>*$+;==-$;-;6**$%;&-$+%,;",
"754646tw98t6788q6><7497<346677047qw77787992:46677787996<<7487435",
",;:;::7<:>2,<>12,;-:=<<:-;<21><-7,413<<<2<:*->;,,,<,12:=-;;,,;-,",
"<:,,;:6<*=,<>>1<,:&2,=:=;;:,>==%6-=*=>,,<<,=;3=:;;,,1<,,*3;;;=;,",
"<::<::6<:=:<,::,<,=1;:,<1<;<6>::6;=;;:,;,,,,-4=,-;,;;,<,=3;-:=,<",
":;;<:>9<==,<:=:,<<=4,,,11,,3<2:=4=&=;,;=:<<,:2%:;:,=;,<<=3:&,,::",
";;;<>,9,%:,,=;=><,=<===,,:,<=,=$1%===,:;:<<,=1&:;;;-;,<,=3-%:,:=",
"<:<,:,w6::,::*%:;=$;&%$O$%%%$$@+<+$Oo%&&==:$$>%::<;=&;;=$;&*::;,",
"q1-;==6626262=$:--$3,%X$%*$%++ +< X X%;%*:***4*%*43-$:;&%<,&;=,6",
"t<;345486tt97826774<wqytquw7884<434467944666<699778922623399wyt9",
"7$$*,:;:,:,::7::<,<24707174,,=;;=;>1::6<::,,:::>,::7,:=:=&<=;<2,",
"7%%%;,,,,,::,8,><,<2,==::04,,:,:,<<<>:44:=,,,<::<:<9,:==%;:&&$;<",
"q-%;;,,,:::,6q<<2,44<;==,r5,,==,<<<<><96::::,11<<129,:,:,<2=&==4",
"8;;,=;:==::<26<,<1674=:=:q7:;;,;>>>,,<44:=:::,>>,1121:::,,<=;,&2",
"7=:3,:;;::><17<,<<2771,,<04;,;;:::&:<<64:,::<,::::27>:::,,<==;=,",
"3-<444<<<24>:6:*==:4<:,,:81;=;-====:>:4<=<11<<1:>>:6:$%=:=%%@%%&",
"5;4<<557<>41>6%Ooo%<;X#;-5<%%%&;=%*$:=6>O#$=::*:1>>7$o.o#==XXo$=",
"380qwwutw9w666<17080734328458907q0tq0873<40770469666<17q70660w87",
",<<<,,7<>1<:;*-;,,;4:<1,;4<;<<<<866674==;;1<<4;,:::*==,2>6:,<1<<",
",:;==22<:,,,::::=%&4;&::;33>:;;<t1<<2<:::;<1<3&&&::::=:1<4====;:",
",,,,;49<&,,,,<,,;&&7;;:=<2<;::;,q1><<24<<<1344==:::>,==,<8:===::",
"::,::18<;,::,<,,;&=92;:;<<<:,;=:q1>>>661<<,<67,=*::<:::,,9<:;:::",
",,2,2194,<<141<,,,,961,,24642<:;t3,<1164,<<:494::::<:<,,<96<,:,,",
",:216,84,,142<,,,<2ww412<3442<;:02;>1461,:<<6y6:&:=167622ww4<,:=",
",&$$$ <<,=441622426ww<=<244<=&%:7=#*%;4446269y2&$&<999727tw<=;<<",
"t7qq99q88wy84ywtuyyuyyq248680878qq6477tttyyyyiy9347yqyyyyyutttq9",
"6&,,:,,2,<2==4<<<<<,,<<;$;=<<<,;<>:,<<13<<2<1,==*%-4<<1<<,,,11;=",
"4=$==:;,====:01;;;;;=;=$$<:=;,;;==:=::65;===;=&:=%;84;==&&=,<,;=",
"6=;;;,,<,:;=;7>;;;,3<,,=*<,=;;;;=,::-:44=,,=;,=&;=;73<,::,,<22<=",
"8=;;:2<,,,:=;9:;;,<42:;&&3,;;;;;-;;;:*64:=:,::&:,=,9<,,<,,,:,1<1",
"8,,:,1:,:::;;0<::;14<;:;=4<;>;;::;;:**66>;:==:==,&;01<<<,,==,,<<",
"8&=;=:;::11;=01,<><3<=-,,84<34533,,<>*44<<:;,>=*%*=91,,,==,=;=:>",
"q%@@.X=-,<<:*4-;--3,,+#<<q5;-;;;-;-*;$1:;;%*,;+Xo**4=;*&,==X++-:"
};
