/* XPM */
static char *result[] = {
/* columns rows colors chars-per-pixel */
"64 64 119 2 ",
"   c #251F15",
".  c #292419",
"X  c #2F281C",
"o  c #30271B",
"O  c #342C1E",
"+  c #342D21",
"@  c #3A2F20",
"#  c #373125",
"$  c #3B3325",
"%  c #3B362A",
"&  c #3E392C",
"*  c #423625",
"=  c #443827",
"-  c #403729",
";  c #443B2C",
":  c #4A3E2E",
">  c #443E31",
",  c #493F30",
"<  c #4E402F",
"1  c #464133",
"2  c #4B4434",
"3  c #4F4937",
"4  c #4C4639",
"5  c #4E493B",
"6  c #514635",
"7  c #524937",
"8  c #504738",
"9  c #534C3C",
"0  c #594E3C",
"q  c #57503F",
"w  c #59513F",
"e  c #544E40",
"r  c #565142",
"t  c #5C5544",
"y  c #5E5847",
"u  c #5C5749",
"i  c #5E594B",
"p  c #5C5B50",
"a  c #605645",
"s  c #625946",
"d  c #635C4B",
"f  c #685F4C",
"g  c #645E51",
"h  c #66604F",
"j  c #69614E",
"k  c #666153",
"l  c #6B6453",
"z  c #6E6857",
"x  c #676458",
"c  c #6C6659",
"v  c #6E695A",
"b  c #706756",
"n  c #716956",
"m  c #736C5C",
"M  c #76705D",
"N  c #78715E",
"B  c #736E61",
"V  c #767163",
"C  c #7A7464",
"Z  c #7E7866",
"A  c #77756A",
"S  c #7A7669",
"D  c #7D796B",
"F  c #7E7D71",
"G  c #807A67",
"H  c #817C6D",
"J  c #837E71",
"K  c #8C866F",
"L  c #8F8A6F",
"P  c #938D6E",
"I  c #858174",
"U  c #8A8673",
"Y  c #8E8974",
"T  c #87857A",
"R  c #8B8679",
"E  c #8D8A7B",
"W  c #928D74",
"Q  c #928E7A",
"!  c #969174",
"~  c #9A9477",
"^  c #96927C",
"/  c #9A957C",
"(  c #9D997E",
")  c #A09A7E",
"_  c #8F8E82",
"`  c #918E82",
"'  c #969383",
"]  c #9A9683",
"[  c #9D9A85",
"{  c #95948A",
"}  c #9A978A",
"|  c #9D9B8B",
" . c #9E9E91",
".. c #A19C85",
"X. c #A19E8C",
"o. c #A19F91",
"O. c #9FA093",
"+. c #A4A18E",
"@. c #A8A28D",
"#. c #A4A294",
"$. c #A9A595",
"%. c #ACA897",
"&. c #A5A59A",
"*. c #A9A69A",
"=. c #A7A89E",
"-. c #AAA99D",
";. c #A7A7A0",
":. c #A7A8A1",
">. c #ACACA3",
",. c #ADAEA9",
"<. c #B0AFA5",
"1. c #AFB0A7",
"2. c #AFB0AA",
"3. c #B1B0A5",
"4. c #B2B2AC",
"5. c #B4B5B1",
"6. c #B6B8B5",
"7. c #B9BAB7",
"8. c #BABBB8",
/* pixels */
"] ^ W [ | | | #.&.o.#.&.-.&.| | X.o.&.&.-.X...@.X.o.X.] [ [ | #. .| [ #.-.>.-.$.| X.X.X.#.&.$.X.....X.X.[ ..( W ~ ~ ^ ~ / ..X.] ",
"' ' W '  .{  .o.|  .o.#. .o.| o.X.X.#.#.%.#.....X.o.$.o.| ] | #. .' ] #.#.$.+.@.[ X.X.] X.o.@.X...] X.X.| @.) ~ ~ ~ ( ( / X.../ ",
"} ] W ` }  .O.#.#.X.X.| X.&.X.| |  .#.#.#.$.....| X.#.X.] ] X.#.#.X.&.#.#.@.) ..X.] } ] | X.X.X.[ [ [ X.+.+.) ~ ~ ~ ....X.X.X.} ",
"X.] ] Q ' [ X.X.o.[ | o.X.o.o.| | | o.o.o.X.@.X.| [ X.| / ] +.X.X.&.>.>.$.*.X.#.o.| | / ^ ] ..X.X.X...X.X...@...X...$.&.%.o.o.X.",
"[ ] ' ' ' ' | [ | | | | X.o.X.o.X.X.*.-.X.....+.X.X.| [ ^ [ [ [ | &.&.&.#.#.#.o.o.o.X.[ [ [ | ..] ..X.....X.#.#.#.o.*.<.-.$.o.%.",
"X.} ' ' ' ' ' } o.&.o.o.o.o.*.$.X.#.-.>.>.#.@...X.| ] / ^ [ ] ] | #.&.>.X.| #.} X.#.X.[ ] } ] X.X.....( ) o.#.X...X.o.<.-.-.o.$.",
"| } { ' ' } }  .&.&.X.o.o.o.o.$.*.&.*.$.#.%.*.*.#.#.| Q / | ..] |  .#.&.#.X.&.o.o.X.X.| ' } } X.X.X...#.X.X.X.X.[ [ o.*.o.*.$.o.",
"]  . . . . . . .&.&.| X.$.-.X.o.&.o.| | X.o.-.>.*.&.#.} o. .| | ]  .-.*.*.#.&.o.#.X.} X.|  .o.X.X.X.| ( X.#.#.&.X.o.o.*.;.>.%.o.",
" .}  . . .O.O.O.>.>.&.+.&.>.#.#.#.#.} #.>.o.#.*.o.=. . .O.O.O.| / #.&.&.*.&.&.&.&.$.o.$.-.&.*.$.#.+.#.X.#. .o.&.&.#.&.;.;.>.*.#.",
"#.#. .&.&.O.=.=.>.>.=.+.#.&.&.#.&.X. .#.2.&.>.#.o.>.;.#.&.&.| | #.&.&.-.&.>.>.:.*.X.X.-.&.&.=.X.| | @.| #.X.X.|  .&.o.&.;.*.$.*.",
"=.#.O.=.&.=.=.:.>.2.=.*.&.=.-.&.>.$.#.&.4.:.>.>.&.>.>.=.=.O.O./ | #.>.*.;.>.>.&.X.X.X.X.| #.#.| ' | X.] | #.| [  .#.&.>.&.#.#.#.",
"&. .#.#.&.>.1.-.>.:.#.>.=.>.-.#.#.$.#.>.,.,.,.2.2.;.&.>.=.=.O./ ] | *.#.o.&. .#.&.*.$...| +.[ o.[ #.+.O.| | } | X.X.o.o.o.#.X.X.",
"| X.| X.*.-.>.#.=.&.&.;.>.-.<.-.#.| #.=.,.:.1.>.-.$.*.-.+.-.@.O.X.#.#.#.#.#.o.&.;.-.>.X.X.o. .| } #.| ] | | #.O.X.[ ......] ..| ",
"X.X.X.#.&.&.#.O.#.&.>.>.4.>.-.-.&.$.*.&.>.2.:.&.-.$.>.<.-.1.*.*.=.#.&.&.#.o.o.#.o.o.$.$.| o. .] } #. .[ | o.#.&.../ [ ) ) ~ ( ..",
"+.#...&.*.#.|  .&.>.>.;.2.4.>.:.>.-.4.=.&.,.&.&.-.-.>.3.3.4.>.&.=.#.#.@.@.#.[ X.X.X.#.#.#.#. .| } o.#.#.=.&.4.>.*.[ [ +.) ( ( ] ",
"| #./ X.+.#.&.=.:.>.>.>.>.5.>.<.<.<.-.>.>.&.-.@.-.<.<.<.-.>.>.,.>.$.>.#.#.X.....X.X.X.@.#.#. .| | | X.#.>.>.4.5.4.#.+.+.@...+.[ ",
"+.#.X...| | &.-.>.2.>.2.6.6.<.<.3.-.*.-.&.o.-.*.=.4.3.$.%.-.>.,.o.&.-.#.%.X.X.o.X...] #. .#.| [ | #.#.$.*.>.,.5.>.=.$.#.....) ..",
"O.+.[ / / ] X.&.1.1.>.>.2.2.>.>.>.$.*.*.-.&.-.<.,.4.-.$.$.3.>.,.&.&.>.>.>.$.o.o.........=.&.#.| o.#.$.=.>.4.5.5.>.>.*.X.....( [ ",
"| X.] / ^ ^ / X.&.-.>.#.&.&.#.$.$.#.&.&.>.$.$.-.;.5.5.>.-.3.4.5.,.;.,.4.>.=.&.o.@.[ X.X.#.#.#.o.#.+.#.#.>.1.2.2.-.>.-.$.@.....X.",
"| / / W ~ ^ / [ #.-.-.#.&.&...#.#.#.o.>.<.<.<.4.4.,.6.4.1.4.5.4.,.,.,.2.>.*.-.$.@.~ ..X.&. .o.#.#.*.#.$.+.*.#.*.#.=.-.#.X.+.X.#.",
"] ] / P ~ / / ^ [ | *.+.| #.X.#.;.;.:.>.4.4.>.4.6.7.6.>.>.>.,.5.,.,.,.>.-.o.o.X.| P ..#.o.} ' #.#.>.-.-.X.+.O.#.&.;.>.$.X.X.X.| ",
"[ X.( ! P ~ / ( / +.+.| | o.| #.2.:.,.4.2.>.3.4.2.4.6.4.4.2.;.>.;.o.X.| o.o.X.o.#.) ..$.o.] / | $.#.@.#.+.| #.#.#.&.*.$.X.[ [ | ",
"| ../ ! P P [ ( [ [  . .#.&.X.X.,.,.,.,.3.>.>.,.>.>.8.6.4.>.-.5.,.-.o.#.o.*.o.#.@.+.+.#.o.X.../ ..+.( ..X.] [ #.#.;.&.#.X.[ [ ] ",
"] [ ! ~ ~ [ X.X.#. .X. .&.&.#.$.;.>.>.&.<.<.3.>.5.<.4.5.2.>.>.5.;.,.,.-.$.o.*.$.#.$.$.#.o.X...X.@.+.| #.#.[ [ &.&.&.#.#.[ [ ] } ",
"X.] ' ] ..O.O.X.O.X.' #.&.X.#.-.&.;.>.o.%.<.<.>.<.<.5.4.,.>.;.>.#...*.-.#.#.o.#.>.-.@.X.X.[ ....| / X.#.+.X.[ #.;.#.o.&.o.| ' | ",
"| / W ^ [ X...O.O.X.O.#.#.=.&.X.o.,.4.<.o.*.$.*.<.-.4.5.,.-.,.,.*...$.%.-.$.#...$.$.@.X...] / ..@.X.#.#. .| ..| ;.&.o.o.o.o. .] ",
"X.^ P W ] ] [ | [ [ ..+.*.4.>.+.;.,.>.>.o.*.*.*.*.-.4.2.,.,.:.,.;.#.$.-.%.$.#.o.$.@.#.@.X.o.X...X.[ ] #.o.] X.X.:.;.*.o. .O.#.O.",
"#.! W Y ^ ^ ' | [ ! ^ ( X.&.#.X.o.o.*.,.<.$.%.*...*.$.<.,.,.;.&.>.>.$.-.%.%.$.$.*.@...~ X.} X...X.[ [ X.#.X.X.&.>.#.*.#.o.#.&.&.",
"| ^ ~ ~ ! ! / ' ^ ' Q ( [ [ +.X.;.;.>.>.>.&.$.$.o.&.o.-.>.2.>.&.>.>.$.$.*.%.X.@...) ..) } X.o.| #.| ^ ^ / | | X.#.O.=.#.| | | | ",
"| ( ~ ~ ^ / ^ ^ / ^ [ +...O.#.#.;.;.>.>.>.>.@.X.X.o.$.$.>.2.<.,.>.>.*.$.>.>.$.$...) ..@.#.X.&.#. .| ^ ^ ! ^ ]  .O.#.-.#. . .| | ",
"( ( ~ ^ ^ ^ / ( ^ ~ ( ( +.+.( @.o.o.*.*.o.*.$.o.#.-.o.&.<.>.2.2.>.,.<.*.-.>.>.%.@.) ~ ..$.#.#.:.:.#.| [ / [ | O.#.O.#.&.O.X.+.] ",
"O...( / ] ( ] ( / ~ ( ..&.@.+.#.X.*.-.*.;.} C C U ' *.X.;.<.<.5.,.,.3.>.4.4.4.<.@.( ) +.*.-.:.>.=. .| | ( / O.( @.X.O.&.O.&.+.X.",
"&.@.X.| ] | [ ( ..X.X.@.o.o.*.o.o.>.,.&.D e t e 0 J o.>.>.>.<.2.&.>.5.5.5.5.-.o.%.@.@.-.%.-.&.#.o.| } } ( [ $...#.#.| | O.O.#.O.",
"[ X.*.o./ ` [ ] ..o.@.%.o.X.$.*.o.o.&.J B C f B f e { 4.4.4.4.6.5.5.8.6.4.>.$.-.%.@.@.3.<.$.&.&.#.[ ( ] ( ..#.=.#.@.| | O.&.#.#.",
"X.X.X.X.] E ` } X.$.o.>.$.o.o.o.o.-.J c G H f C A c B ` >.5.4.8.5.7.8.3.<.<.>.$.#.$.@.$.%.#.#.-.#.[ / [ [ [ +.O.| | | | }  .O.#.",
"X.X.X.X...] ..X.X.#.@.@.o.$.;.;.>.o.V t B C B s c S y 9 A #.2.5.4.8.8.4.4.>.>.-.%.) ..$.#.#.@.#.+.[ ^ ^ ( ( | O.#.| | | | | | +.",
"X.[ ..[ / ..@.X.@.#.@.*.-.o.<.,.4.;.C u g C f ; 6 f g C c c ;.>.&.5.5.>.<.>.*.-.*.+.@.%.$.#.o.E / ' / ' [ | O.#.O.O.} ( | } ] [ ",
"+...[ / ^ X.o.$.#.#.X.*.o.$.o.;.>.;.B d g l , - 7 0 8 6 d b H B S { 4.4.4.<.-.-.*.$.@.%.#.X.J d S / ^ ^ ^ O.X.O. .[ ' ( | | ^ ' ",
"..) ( ] ] [ X.$.%.%.<.>.&.*.o.} o.J $ - > g 8 ; a a 9 6 f t t d w S o.>.4.3.>.2.-.<.*.=.*.Q f d V ' Y U / | O.|  .| [ ^ ^ X.' [ ",
"o.] ^ Q ` X.X.$.$.%.4.4.-.>.>.<.{ g e , , t g a m C m a s 9 0 0 9 t ' #.<.<.4.<.<.-.-.-.' v m f v ^ ^ ^ ' [ X.O.O.O.O.| [ O.X.+.",
"#.| ' Q ' | X.&.*.-.<.*.#.$.5.>.g > 9 u e u g B J H m s l a t d y 0 _ &.4.<.2.2.>.-.-.*.o.B c b c M ^ ( ] [ [ ..X.O.+.+.X.&.O.O.",
"#. .}  .}  .#.o.%.*.-.#...o.-.J g g f c g g A J J C m b l s m B m c v { 4.4.<.>.>.-.-.*.,.&.V l n c E [ +.X...+.X.[ ..@.*.*.O.#.",
"| | &.#. .X.o.o.o.*.-.$.X.@.X.B u g d c d t B D H B M N c l B Z Z D v I ;.5.4.4.4.>.-.&.&.&.Z j k q j ^ [ +...#.O.+.[ X.%.&.%.&.",
"( ] | o.o.o.#.#.X.X...o.X.o.' A e u d V v a v f n C m d f s l m m m V c { 6.4.4.<.>.>.;. .C l f j 1 r C / +...#.+...( ..&.#.#.+.",
"[ / [ #.o. .| | X.[ ] [ X.#.*.o.B u d b f d B H C H J G n c l d l C m l l F >.<.%.#.>.-.] N y s n j l d k Y X.$.#.#.[ &.&.+.#.=.",
"] [ o.#.o.o.o. .*.X.X.X.@.X.#.o.J g B H H H H G D m G C m l Z m Z N d d a y m [ ..#.*.$.-.[ N t 2 9 w - r U #.#.#.-.| #.&.&.+.&.",
"| @.#.&.=.*.&.#.-.$.X.[ ..@.&.o._ D g C H J J C m d e C D G C m N Z C G M n d b W #.-.&.*.@.$.Q 5 1 9 7 x ^ #.X.#.#.[ +.#.O.X.#.",
"#.#.>.&.>.*.*.=.-.o.../ [ #.&.;.;.{ A g B D H H B C l Z J Q J m m l l N N M l d l H V m C m H ` v c E ' #.%.-.#.&.@.] [ [ | [ +.",
"#.#.-.=.;. .&.-.#.#...( X.#.X.=.;. ._ B A D M m c C C m C V C m M l 9 d S Z H V j h z 9 w 2 1 9 I  .O.X.O.T E } =.#.[ ] } O.[ X.",
"| O.*.#.;.O.=.>.>.3.-.#.@.X.@.=.;.o.} F x v e m V C u u l ; 8 m l y 6 3 k D l i m m a 4 7 7 < & M ' #.Y u % % k F _ [ } X.X.+.O.",
"| | O.=.,.>.>.2.1.1.:.&.&...#.#.R D A v x m v g x H C B b a d n m y x h j C h < d k 2 y s j j 3 e { #.I & # & u u m Z V I O.X.&.",
"[ [ | #.:.,.:.2.4.>. . .#.@.#.X.p + + e g l S c a N m l w t c N C m n h y z j ; r q < 1 3 z y 1 # k I } A e 5 x i k k r r U | | ",
"| ' | | >.>.>.7.,.F u c T ] ..H , - 2 s d t c N m l l n n l d c N m d d l n l 7 1 s y 1 q l t 1 % + ; 4 p r & u 5 9 u q 1 t I } ",
"#.| ' O.&.:.=.4.{ 1 9 e V ' ^ d : d f f d ; 8 d l s w c x w 6 y t $ ; 8 3 y y 2 o 6 d - $ 3 r 1 7 O 4 9 + X & A F 1 1 & # 5 k E ",
"O.O.[ |  .#.| { x 2 k p B ' Z y s b H H Z b f 9 4 c t d a 9 w d f : 4 b l s s 2 O : s ; @ < 2 * = * 6 y r & & e A u . # 4 i v } ",
"&.| | ' O.&. ._ u g J k u E v l B v C S H H t , ; 4 d V t d d u d 6 9 4 w t 7 $ @ # 6 : # q 0 1 o O t 7 4 & + # 1 p r M Y ] ' +.",
"| O.| ^ | #.[  .V A  .T B v i c V l l B C m m l j n M N m j a s l l N j f l a : & @ 6 w 2 j B r & + 4 5 r k 5 # & v ^ ( | ] ] X.",
"O.}  .' E D E | E ` } E B g B D J m m b m a f l t j a a a w s j 0 f C a 0 2 , = 1 # X 3 y 1 k u & $ & & & + 1 1 9 5 i Y / ^ ! [ ",
"|  .| _ v & t u e k v d d c C C Z C C C C f a a s y t a w a t s d j b f 2 > 9 ; 3 1 % q h q t 9 9 d d > # 1 & 9 i 9 # 9 M K ! ( ",
" .O.E B 5 # e r 2 4 k m t s f d m m t 8 t d a a 3 < w j 2 < w 9 a t f a f f y 1 3 1 2 y q 5 i h t t u 9 5 & + 5 9 5 4 & 1 M Y E ",
"p B e > & 9 r d m B c d a e 0 d d c t ; w t a t 2 w 0 s t y < d l t s t d c e 6 q h y s q 9 h h j u t d u 1 # & e 4 e k y 5 i 5 ",
"& . X > 0 g B l t u 4 4 7 e 2 d e , : # w d ; = = 7 = 0 * + O * 7 6 : = 8 y 4 O 7 w h s r u q 2 2 9 r d j 5 9 q u e 1 u t 1 & X ",
"& > 1 1 2 0 l c u 4 # 0 4 9 s l l r t y 9 9 6 < = w @ w 7 < * = : d s 0 t 9 2 2 2 3 2 p v B p 9 1 t p p x u k c x i e u p k k r ",
"& r d u t 7 2 d c d - a t 0 e e u c B c ; $ @ : 6 w O @ 7 - O * < : 0 d t 2 3 2 1 3 3 r y y 5 t 5 r t q u r u d r u r 5 k k g k "
};
