/* XPM */
static char *result[] = {
/* columns rows colors chars-per-pixel */
"64 64 93 2 ",
"   c #32252A",
".  c #352A2E",
"X  c #362C32",
"o  c #382E34",
"O  c #3A3236",
"+  c #3C343B",
"@  c #3F393B",
"#  c #40373C",
"$  c #413B3E",
"%  c #423644",
"&  c #433945",
"*  c #463B49",
"=  c #483D4C",
"-  c #4C3F51",
";  c #454342",
":  c #4A4646",
">  c #4F4B46",
",  c #4F4749",
"<  c #4E4B4A",
"1  c #524B45",
"2  c #534D4A",
"3  c #56524D",
"4  c #5A544D",
"5  c #524D51",
"6  c #545351",
"7  c #5B5651",
"8  c #555955",
"9  c #5D5954",
"0  c #5E5E5A",
"q  c #625D55",
"w  c #625F5D",
"e  c #5F615D",
"r  c #64625C",
"t  c #6B655D",
"y  c #6D685F",
"u  c #706A5F",
"i  c #636563",
"p  c #6B6761",
"a  c #666866",
"s  c #6E6A62",
"d  c #666768",
"f  c #676968",
"g  c #6B6C6B",
"h  c #726D64",
"j  c #726F68",
"k  c #6F706E",
"l  c #737067",
"z  c #787267",
"x  c #75736B",
"c  c #7A756D",
"v  c #7B786F",
"b  c #6F7171",
"n  c #737473",
"m  c #7B7770",
"M  c #777876",
"N  c #7D7B73",
"B  c #777A79",
"V  c #7C7D7B",
"C  c #817D76",
"Z  c #827F79",
"A  c #7F8077",
"S  c #7E817E",
"D  c #828077",
"F  c #84837C",
"G  c #88857E",
"H  c #87897F",
"J  c #88887F",
"K  c #7F7F81",
"L  c #7F8081",
"P  c #858582",
"I  c #898781",
"U  c #868984",
"Y  c #8B8A84",
"T  c #898788",
"R  c #878A88",
"E  c #8C8D8A",
"W  c #908E87",
"Q  c #908F8B",
"!  c #879188",
"~  c #8E918D",
"^  c #91928E",
"/  c #8F8F90",
"(  c #908F90",
")  c #8F9291",
"_  c #939592",
"`  c #989797",
"'  c #969894",
"]  c #999A96",
"[  c #969798",
"{  c #989798",
"}  c #979898",
"|  c #9B9B9A",
" . c #9F9EA0",
/* pixels */
"o X   X X         . . . . X . X o o X o X o # X X # . X o o o # + + o # # # @ @ + X . . . . . . X X X X o . O X O X o O & & O O ",
"* = * & ; * % % % % % % & * * * * * - - * % % % % * % % % % & * & % # # # # + + O X + + + % = * * = = = & & * & & & % O @ $ & & ",
"3 : @ O @ $ ; $ ; & : > 4 4 9 2 4 4 4 2 1 1 1 4 4 7 4 4 4 1 3 q r 4 q q 4 7 2 7 2 1 , < < 2 , 5 6 6 3 6 > > > 3 4 7 4 q 4 7 3 4 ",
"t 7 3 0 : : 8 > 3 : 6 3 t t u q t u t q 4 u u z t t z h z h z c C u z C z z c c c x h h w 7 5 5 5 6 4 3 3 0 r y h s q j z u r h ",
"c p r c 9 < 0 7 w 4 r r h h z q h c c j u z z c C C c C C C F J J C C V C C Z m c m c N v p 9 3 3 9 r y r y s l l h t v v c h z ",
"N r r l s y h s t r s h h z l y x m m c z c c C C z C C C C J E Y C Z D Z I Q Z C Z Z Z C l r 9 0 r s s l l l l l l y c N c z c ",
"m s h s s s l l p r g h h l x s h m c z z c c C C C C C Z G I I E F F F D I E I D F F D N l s s h l h x l l l z z l y c c c z x ",
"l s k l y l x l s t l h x z x s j z c c z c C Z C C C C C Z Z F Y G F Z F F Y Y P D F N m l s l x C N N A x l x c l s c v N c z ",
"z l l k y h k l l s l k z x v l x c c v N C D D D D C C Z F D F I F F Z Z Z F I F D D V v c v N N D D N M c l c c x l v A A v c ",
"z s x x y h s c x h x x x v v l c c c v C C G J G F F Z Z F F J I J G Z F F F D D Z D C v C C N N N N N m m c c N v v v A A A c ",
"x l l v v c c m N v c m v N N m N N C C C C Z D Z F J F F F F I I J Z J F F J J C N N C v C C C D D N A N N N N N N N N A A A v ",
"v l x v c c v m v c m N N N N N N N N C v c C C Z F F F F F F F Y I I I C C C C C F F D Z D C C D N v c c v v v N v N N N A A A ",
"c c v N x v v v v c m m c c N c m m v N C N N C C F D Z F F G G I I F C C C C F F F F D D C N v N N N v N N v v v c N v v N A N ",
"N c m N v v N N c v N A N v N v m C N C N N C F D G F G F D F G D F Z C Z C C N F F Z C v v C N N N m N N N N N v v N N N A N A ",
"N c N N N N N N N N N N N m A N N C N C F D C N G G Z Z F F F J F F C D C D N V Z G Z C C v C v N N m N N N N N N N N N N C A F ",
"N N A N M m N N N N N A N N N m N N C D V Z N D D G D Z F Z C F F D Z Z N N F F Z Z C C v N C C N N N N N N N N N C v C C C V N ",
"N N N m N N N A N N N N N N C N N N C C N N Z Z D F D Z Z C F F G Z F F N V F D Z D F D F C N B B N m N N N B N N N N N Z C N N ",
"N N m m N M c m m m N N B V N N N C F Z C V F F H F F Z F F G D Z Z G Z Z F F F J F F D D Z C N N N N V N m N N F N N V F C N N ",
"N N N N N m c N m N N m N V F V C D F F Z D F F I F F F F F F D Z G J F G G I P F F F J F C N N B m D C N N N N Z S D D D C N N ",
"N N N m N m v A N N N N C Z F C D F I F G J I F I F H I I J G G F F F C F F I I F F J F D C C C C N C N N N N N Z Z F F C N m N ",
"N M N N N m N A N N N N N C F P F Z F F F J I I F H I I J J F F F F F Z F I F F J F G F D D F F C C C N N N N C F D F D N C Z m ",
"N N N N N N m N N N D N V Z F F D F I F I I Y F I F F F F J F D Z F Z G F H H H J J J F D F I F F Z V N V D D V F F D D C N N N ",
"N V A N n c x m N N Z F F F F F F I H H I I F I I F F F I I F D Z G G D F I F H D H G G F J I J F G D N D D F F F F F D D D N B ",
"N D A A v m n c V A N D F D I I I I I I I F I F I I F I I F F F G F J G D H F F I H G D I I I F G Z F F D Z F F F I I F N N N m ",
"N D F F B c c x N D D F Z Z I I I F F I J G G G G J J G F F F F G I I Z F I G F I J I F I F F H J D Z F Z F F F F I I F Z C N C ",
"D D F F N v n v N C N F F G I Y P I I I G D D D G G G G F D F I F I G F F G F F F J F F F F H U F Z F F G J F F H I J F Z F Z G ",
"Z G F F F B N N N N D F G Z G Z F I I I G G G G F J G I F V D J F P F J F F I F D F I J I I I I F Z F F G Z G Z F J G F I F I I ",
"F F P I F A N S N V A Z I Z G I F P I I G Z G W Y Y I Y I I D Z F I Y I F I I Y F F I I J F F F Z G I I G G Z G F J J G I F I F ",
"F I I I F D A N N N C D F F G I I H I Y G G Y W Q Y H Y Y I F Z I G Y J G E I Y I F I F J F F D F I F I G F F Z F G I J F F F F ",
"I F F I F F L N N C C Z F Z G I F F I Y G G G W I I I I I Y J J W W W Y F Y I I Y Y H I Y Y D F F F F I G G Z F F F J I I F D F ",
"Z F F I I F P A F V Z F Z G I Y Y W I Y G G W I Y W W Q ^ W Y Y W G Y Y I I J Y Y Y Y Y I Y Y F D Z F I I I Z G G G Y Y I F F F ",
"C F Y I R I F F F P F F I Y Y W ^ ^ W Y I I W W W ^ ^ W ^ ^ W ~ Q W Y Y Y Y W ^ Y W ^ Y I Y Y I F D Y I Y I J J G J Y Y I E Y I ",
"D J I Y R I F F F I I I I I W W ^ ^ _ W W T W Q Q W W W W ^ W ^ ^ W W W ^ W _ ^ ^ ^ ^ J J J J Y G G I Y W I G I I Y Y I I I Y J ",
"J Y Y Y Y R R F F F F I I E Y _ ~ Q Q ( W W W ^ ^ I W ^ ^ ' ^ ^ ^ ^ ^ ^ ^ _ ] ^ ^ ^ ^ ^ W W W ^ W W Y J W I I I I E E Y Y Y Y Y ",
"E W R P I P D F P P I I I I E Q W Q T Q W Q ^ ^ ^ ^ ' ] ] ' _ ^ ^ ^ _ ^ ^ _ _ ] ' ^ ' ' W W ^ ^ ~ E W W Y W Y I Y E _ ^ W ^ ^ ^ ",
"E Y R U F P H D F F I Y F I E Q Q ( ( W W W ^ _ _ ^ W _ ' ' ' _ ' ' ' ^ _ _ ' ' ' ' ^ ^ W W W ^ Q W ^ Q W W E W F Q ` W W W ^ ^ ",
"~ Y ~ Y Y I R I F I Y Y Y Y W _ _ ^ Q _ ^ _ ^ ` ' _ _ _ ] _ ] ' ^ ' ^ ' ' ^ ' ] ' ' ' ^ W ^ ^ ^ _ ^ ^ W ^ W W W Y W _ W W W Q _ ",
"E Y ~ Y Y Y Y Y I J Y E Q Y Q _ _ _ W ^ _ ^ ` ` | _ ` _ ] ] _ ] ' ' _ _ ' ' | | | ' ' ^ ` ' ] _ ^ _ _ ^ ^ _ ^ Q ^ W ^ ^ _ _ ' _ ",
"E Y ~ Y E Q E E I G Y Y W E E Q _ ^ _ _ _ W ` ` ] _ ' ] | | ] ' ' ^ ^ ' ' | | | |  .' ^ Q ` ' ' _ ' _ ' _ ^ ' _ ^ _ _ ^ ' ` _ _ ",
"~ ~ ~ Y E W W E I Y E Q E ^ E ` _ ` ^ ^ W W ' ` ` ' ' ` | '  .| ] ' ^ ^ ' ^ ] | | | | _ _ _ ' ' ' ' _ ' _ ` _ Q ^ ' ` ^ ^ _ _ W ",
"E E ^ Y ^ E ~ ~ Y Y E ~ E E Q ^ _ _ _ _ Q ` ` ` [ ' ' ` [ ] |  .] ^ W ' ] ' ] |  . .' ^ _ ' ' ] ^ ' ' ~ ^ _ _ ^ ^ ' _ ^ _ ' _ ^ ",
"~ Y E E ~ E W Y Y E ~ Y ~ Y E _ ^ _ ` Q _ _ ' [ ] | ] } '  . .| ] ' ^ ]  .| |  .| ] ] ' ' ] ] ] ' ' ] ' _ ^ _ ^ ^ ' ' ' ' ] ' ^ ",
"_ ~ ! ^ ~ ~ E E Q ^ ^ ~ ^ ^ _ _ _ ` _ _ ' ' { ] { | | | ] ' ] | ] ^ _ |  . .' ' ] | | _ ^ _ _ _ ' ' ' ^ ^ ^ _ ^ _ ' ' ' ' ' _ _ ",
"~ ! E ^ ~ Y Y W W ^ ^ ^ ^ ^ ^ ^ ' | ` ` ' ' { | |  . .| ' _ ] | | ' ' ] | ] ' | | ] ] ^ ! _ ~ _ ^ ^ ' ' ~ ' ' ' _ ' ' ^ ~ _ ^ _ ",
"! Y E ) E R F E E E E E E E Q ` ' { { ` _ ' | | | | | ' _ ` ] ] ] ' ^ ' _ ' ' ` | ] ' ~ ) ~ ) E _ _ _ _ _ ~ ' ' ~ _ _ ~ ~ _ ~ ~ ",
"~ ~ R E E R I ~ / E ^ ~ Q E E _ E [ { _ ^ ' ' ' ' ' ' ` ^ ' ' ' ] ~ ~ ~ ~ ^ ' ' ' ] ' ^ _ ~ E E ' ' _ ! ~ ~ ' ' ~ ! ~ ^ _ ^ ~ ~ ",
"~ E E E ~ E Y E / ( ~ E E T W ^ _ { ' ^ _ _ _ ` { ' _ _ _ ' _ ] ' ~ ^ ~ ~ ) _ ' ^ ~ ' ^ _ ~ ~ _ ' ' ~ ~ ~ ~ ] ' ~ ~ ^ _ ^ ~ ! ~ ",
"^ ~ ~ E ) E E ~ E Q _ ( _ E ^ ^ ' | _ _ ' ` ` ` | | ' ` ' ' _ ' ' ^ ^ ~ ~ E ' ' ' ~ _ ' ~ ! E _ ' ^ ! ^ ^ ^ ! ~ ^ ~ _ _ ~ E ~ ^ ",
"~ ~ ~ ~ ) ) ^ ^ E _ _ _ _ Q Q _  . .{ { { { _ [ { | { ' ' ' ` ' _ ) ) ~ E ) ' ' ~ _ _ _ ) ) / _ ) ~ _ ~ _ ^ ! ~ ^ ' ' ! ! ! ' ! ",
"_ ~ E ^ ) E R E E ~ E _ _ ( ( ` { | { { { { ` { { [ { { ' _ _ ) _ _ ) / ~ ` _ ~ R ~ E T E ) _ _ _ ^ ~ ~ _ _ ~ ^ ~ ~ ' ' ' ) ' ) ",
"~ ^ ~ ~ E E R T T / E E / ` _ ` {  .[ [ ' ` ' '  .] | { _ _ _ _ _ _ ) ) E _ _ ) ^ ~ / R E [ [ ` ' ' _ ) ^ ~ ) ^ ! ~ ^ ' ' ! ! ~ ",
") ~ E E / E Y E E T T E ) _ _ _ [ [ ( / _ _ { [ | ] { [ ' ~ _ _ _ ) ) _ _ _ _ ^ _ ~ _ ) [ [ ( _ ^ ~ ~ _ ! ~ ' ^ ' ! ~ ~ ' ' ! ~ ",
"~ E E ) E E R T R E E T / E _ ( _ _ _ [ _ _ _ ) [ ' _ _ _ ) ~ ) _ _ } [ ` _ ` ' ~ _ _ ` | } [ ) E Y ~ E Y ~ _ ! ! ~ ' ) ! ) ) ' ",
"Y ~ ~ ) ) / E R I T Y Y E E _ ( / ` [ _ ' ' ' ' } _ ` ` ' _ ^ ~ _ [ | } _ _ ^ ^ _ ^ _ _ [ [ / _ E ~ ~ R U E ~ ! ! ! ! ) ! ! ! ! ",
"E ~ _ _ [ _ T T U T Y T E E _ E E _ ) _ _ ' [ } ' ) [ _ _ ~ _ _ } _ } ' _ ) _ _ _ _ _ _ ) ) _ [ _ ) ) ~ ! ~ Y ! ! ~ ~ ) _ ! ! ! ",
"! ~ E _ _ / E / E P T T E E _ ) ) ) _ _ ~ ` _ _ ) _ _ ) _ _ _ ^ ) _ ) _ _ ( ) ~ ) ) _ ~ ) _ _ _ _ _ ) _ ~ ! E Y E ~ ) ^ ^ _ ! ! ",
"E E T ) / / E / / T U U T E / / / ) ) ~ T E ~ _ _ _ _ ) _ ) ) ) _ _ ) _ _ _ E ( ) _ _ ) ) _ _ _ _ _ _ ) ~ E ~ T ! ~ ) _ ) _ ! ) ",
"~ R R R / E E E E R I R T E E / / _ ) T R T E ~ _ E E T E E ~ / _ _ _ _ _ ) ` _ _ ' _ ~ ~ _ _ _ ~ _ _ _ ) E E T E ~ ~ ) ) ! R ! ",
"R U F P P P U U U P I U R R E R ~ ) ) E Y E E Y E R R R T T E E ) ~ _ ) E / / _ ~ ~ ~ E ~ ) ) ~ E ~ ~ E T R U U P U U R R U L L ",
"U A B V L L F V P K B K F L P R E E T T E T R R P S L V L P R R R R T Y U E E E R R U P E R R U T R P P P V V V V V L L L ! S L ",
"L L S L K S V n V M n n B V B K P K K P S S S P S B V N K L R R U L R L P P R U U L S L R P S S P P L L V M M n V V P L S S S S ",
"L L S S V V B n g d i d g b n M V B B V M M V V B n n n n B K K B S V A S S L S V V V V K V B A B N V B M n b b b B K V A B B B ",
"k n b k M M g d d i 8 w i g f g g k n n k k k b g a g f g g g b M n k k b n M n n n n b k b n n g f k f i w w i d g g b k k a f ",
"i k f e g f f i 0 0 8 e r i e i i a a a a a i a i a i a e i i i i i i i a d f g g f a f i i a i e i i e 8 0 0 0 0 0 e e a i e e "
};
