/* XPM */
static char *result[] = {
/* columns rows colors chars-per-pixel */
"64 64 70 1 ",
"  c #574F49",
". c #534F50",
"X c #5D5655",
"o c #5F5A55",
"O c #5D5A5B",
"+ c #635D5C",
"@ c #66615E",
"# c #6B635F",
"$ c #625D61",
"% c #656263",
"& c #6A6564",
"* c #6C6966",
"= c #676568",
"- c #69666A",
"; c #6D6B6C",
": c #726C67",
"> c #726D6C",
", c #75716E",
"< c #79726D",
"1 c #6E6E71",
"2 c #716F71",
"3 c #6F7071",
"4 c #747374",
"5 c #797574",
"6 c #7D7976",
"7 c #767679",
"8 c #797779",
"9 c #777879",
"0 c #7C7A7C",
"q c #817777",
"w c #817B76",
"e c #827E7D",
"r c #85817E",
"t c #89827E",
"y c #7E7D81",
"u c #817F81",
"i c #7F8082",
"p c #848284",
"a c #8A8584",
"s c #8D8886",
"d c #868489",
"f c #8A868A",
"g c #87888E",
"h c #8C8A8C",
"j c #908783",
"k c #918986",
"l c #928D8D",
"z c #988F8C",
"x c #95908E",
"c c #99928F",
"v c #8E8C91",
"b c #928E92",
"n c #8F9195",
"m c #959194",
"M c #9A9494",
"N c #9E9997",
"B c #969499",
"V c #9A9699",
"C c #9D999B",
"Z c #A19896",
"A c #A29C9C",
"S c #9E9CA1",
"D c #A29EA1",
"F c #A5A1A3",
"G c #A9A4A4",
"H c #AFA8A7",
"J c #A5A4A8",
"K c #A9A4A9",
"L c #AAA8AC",
"P c #B0A9AB",
/* pixels */
"+**:;<<<:::5<:raaeepseeweqp5wpaajatssttcx5xllksbVVVmcxxs6::::::*",
"statjfjaaq:<,owVMMMMzllskllqrsllzcxxMcMAC6hmbmzxBBCZNVANs5,<656w",
"juajhzklt*&>,@aMzmmVMbzVmllwdkllzxlzMmzMN6shslBmmmCBBmBlw*:6twwp",
"kkaakllbaw&:55lclMMMMMMmcll5dlzzmmzxxllzx5nmBlmBmmCNBBxbpw:papss",
"lbjahbllbs<:trsMbMbMMbMhbmm5acMxmxxxzxlxx<lmhsmlnmCVBxzblj<eapaa",
"lMblllbMmbt5swsczMbbbMMbbzmelZACcccmMmMVVwxmmnmmBnBBmmxBbkeesaaa",
"8Mbbbbbllsp5ewpsfhsuasfassu$5eqqtrprpstdp:bxfhaffhhhlflvfpequaat",
"<q6eue>5uu5<>$>wwq6q;;,,<58&><<26w>,5w6606r<emxVmmmhssmhu*&:::>>",
"ZAZDDMpmDLDVMmZZAMMMw0CMlBmCLJLJGGnshxBBNNNBVCCCauhfsebbM<tMZVND",
"VDmmVlspuhlealmbbbzVr,mbfhmMFCFCBCxlhlxBBNNBmMVBhhbblbVbBqk60abu",
"bVplblfalfuuuklbzbbCa5MmlmVCCCJCmCmnnmmBNMmBMVVmbvBbbVVBBezauwuk",
"lbllllspfkjflvlmMxmCs5mbmmmBCCJCVmfBmBmlBBmBMBbBhlBBMVSBmuMzpajl",
"fllMzbspahfslhvbbMbSswmvfnvnVmSBmBfmmvhhnmmBmmnBbBVVBVVSDazzsklb",
"bbvBVBbhddpufufufhhBerxhhvddnhmhhxpmffhhhhlnnnzxfvMbMVmVVukzkfuv",
",u85>:*:;&%&*X;;*:*:@;0554,>356,45,550edhdsmhfhhkpduupw00:&+++++",
"&<,555>2522>>*:5ww6566wwrw5p<60655<4500rpt6pipdpddflsafu44>:<**:",
"*,0uueuupuu08*>phffafhfhht5r5re00ry50ewaae4puaddfhbvbbhd0eeeje<&",
"-,qeuueueup00*0hfsfsafhhdr0r9pdrdfa000erae0puusbbhbBbhdp0euhbsw>",
"*;queeeee0y04=0shblhfmVhfdpr5rprrppe000par8aupdhgvbmvdiyy00pzpw<",
"<>80808qu0844*0dphlBlllffspd6rhdtrrrpsafsa6dfauydhfady074880epq2",
"%***-:;>;;>>524q0peadppwer0r4wdpiiii0prud66ddyyyepy742****:>>>,;",
"+@@%%*$O&&;*:5--*;:6,:5;556;;5,4550088584=;;1--2524>>2=&*%*+XX#&",
"w055555>0e0eppuffahmapmadpr00e550iye0y0071;9yuyygyy0578872ww046w",
"6<50uu04880aaauvhhhhspnsfippp9490p007yyy9430guggdp80000y0;pwa000",
"065yuse>80udduflhhfbluBvldude099p000i0iy777yuugudu0uuu7yy;daduue",
"r00ruuu50ypaffhfgfhhuubfhhdu0039p0i0pyyiy7yyyyuguuuuuu0up4sdsduu",
"ppp0ee88uushvhhugvdhuuBvddudr0770000i00yy7yyyyyuduuuq0yy97sadddd",
"adapuu85uufduhvhfvfvhuBbvhhbfd57ppi0dd0iy1=1yyygdu00082704hbhdhk",
"%*%2452>2&$*2>2u7782;*u2>21;1$O=4477ey3yuy$=$$y24727y2$11%O+$$&&",
">e470eydfu88f2yBhffvvfuuy05-782yyuygvidduuy1yyyuvnbBbbvfde4>5558",
";e070uudfuuduyvbvbvvvvvgguy;;0yudgvvmvfdguyy2yugbnBBbhudduy82225",
"4pyyuupgvfffuuvnbbBnvbbbbfy11ydupdhvBvvfuuyy21uvnbBnbbvuduu84445",
"$0yyuyyddddguygBnbbbnBBnvvd417yyddhvvvvddip04*igvbvvbbvuuy774727",
".-y77yyuduyuuygnbvbbvbBnvvuy41yypdpydgffiei9-=uugdgvhvguyy772211",
"OOyy77y8yyyuyydguuvvbBnbvdy73447dyp0p0yu09339=4708uudddpy421-;-%",
"72-221%%1--1771422$-21=12111=-=1yy1ye7705;**34075604&722-=-21227",
"242284&>y00807yyyyy77yddggpp0770054idfhhhdpadfhnvbBmfmffp5871;;;",
"70uuy7;5uyuyy780yyyy1uuyyduy970y09,9ddfddadierpdffmsyhdhd0y8yyy0",
"7270uu;4uuuy870yyy2y1udddyddpy009049dddpdddp0ephhvvd0bfhuyyy8yyp",
"uy08uu25u088y70yyyy21ddidddddi9y0y40rpppaddd0rpdfhbfumsfpyy08ppu",
"yuu0y4;4e0877yyy2yu7-dfuddpid934774y459p0epieppiaavvevlsu0y00udd",
"->274-$2857114y728778ugydyyyy73;305y000d005000epppaswza051341;43",
"$%&;==$OO$-%-;$122828272511%=;--309059509455345,5;4>>54;%%=%-%=%",
">;124447877781%47y7222479;45-;;95rfBf0ipfefsreiaaasfhbse41;**=O%",
"640uyyupde80y47ddyy000yu0556933550dspedrstrpr0idhhvhfhhpy41454>2",
"558uuypdgp80y7ygdduuuuudp09050900rrpfllxledar0eedhllafswp94480,4",
"6e8uu8y0iu0y77yddfpyyeupp0000p00dpdhdxBml6thr69rshhfafs6y8789090",
"uf8y08080y0y88upupp0uppur0ruw09edrpaepspprap695rffdfaah0yy0pppdp",
"5aeu0996r09,,900e0dsppdrrpre0pprfarprrw56>pu04555655,,65000dffdp",
"2qe4rie0r4:3%;9ed0dhhshffsmghmmdhdpu905555e4015950e5@,505,,39055",
"BBmbnnBlggrhghCSSSSCCCCBfmmmmmmlnhbvhCfVBmSBVbhbnhms0CvbhlnnmvnB",
"vBmmlnlnhghBBBmBBCBCBBCnhmnmBBmmBhhvmmsmmbSVmmmlllxarCBmmBBSBvnl",
"vbmlmnnlvvaVBCBBBBCVBBmvhVmVVVBMBmmBmBhBVCJCCBBxmnVrwCmzBBBBSnnm",
"mBhBBmmmnhgBSCCBBBBBBvBmhBBBMVBmBCmmxBxCzVKSDBVmfmmt6NmlxnBBnnBm",
"mVMBmBmcnxvmSSBBmnVhahlsaBBCBCCCMBmhhhhCCCJNFVmxhlB05VxxmbmBBBmn",
"BBmmxmmmllxMCCBmxlBsfhhffNCCxsxmMBmxlfdFGAJDGNxmhxmp<xmxBmBBnBCB",
"hlshshlpvhslsxlsualskslMklllu5q<,,:<>**::%@@o *6,>;>:45ephhspmmn",
"tt6w65@wrtr0trttjlkjqaMzzzzMckkash5aDACAZAAk:<cGlszMMNlsktw6#6rw",
"r66wtw@6sssrztccZMzaehAZZMMbMbbbhx6kGNCFGAAAawtcllmMNAVbxsww5ttw",
"pwrtrw*tssktccNZAczj<aVMVMVVDZZVmx6aNxzAGAAFzwwttxMVCANzlskaaaat",
"trtep0#0lsssccNcZccl<jMMMZVVNVVbMbqsCMcFHAZAczs6,hCVMZDMbsassptt",
"reewwr3wfkklzcccmbzl<uMbMbZMNAMMMbusAMcDLAZNNNMs,whmZAAMbjjjptee",
"ewww0r,esslslxMMMblcubAcZVVZZNVVVValDAAGLFSFADSFsrtsAFGAMkueeeee",
"0506,0:6apr0rp0ruwqq><uuuuuuauwuep+*l5skalhhrpp,,6ldpppuau0wuuuw"
};
