/* XPM */
static char *result[] = {
/* columns rows colors chars-per-pixel */
"64 64 26 1 ",
"  c #4C555A",
". c #566268",
"X c #5B666C",
"o c #5D6A6F",
"O c #5E6B71",
"+ c #636E73",
"@ c #657276",
"# c #697477",
"$ c #667379",
"% c #6B767B",
"& c #6D7A7E",
"* c #707A7E",
"= c #6E7C81",
"- c #727E83",
"; c #6F8083",
": c #758185",
"> c #798387",
", c #768488",
"< c #7B868A",
"1 c #7E898D",
"2 c #7F8B90",
"3 c #818B8E",
"4 c #838D91",
"5 c #888F93",
"6 c #869093",
"7 c #889194",
/* pixels */
":=;,==;==;=:21<,3733337676363633<>,<::::--=<53555<3>33#-<-2,;$=<",
":=;==;===-=1::,<333333666636664333:,,=:<==+<555<-<3>-3-3<<<,;;;=",
"$;===;O$==:-:<:31>113136767763434<<:==:<--32<>>>><>#--3<:<1<==;O",
"=;1$Oo$=,,%%&:<41>><3336677764343<11-=%$--<2<->>3>>*<<-34%&;++;O",
"::,&o.Xo&::%#<11>>>><13367773333222242----2--35-<<>>>>>>;$=@;&;;",
":<,,$&$O&&&;::13;>33<11666373763222<4444255<34545333<3>>&@;$%@;,",
",;;;&;;@@@;<<;34;33><116333337332222224<2<-2433335<<3<><1&;;,;,%",
";=&=&;&;&&<11<6<;6>>3>31336333334222<2222<-112443<>5<3331;=;,1&;",
",;o&;&;1:%-<<13:361>3<1133337333114122<2225244443-3333431,:,1,:1",
";;%;=,,<<:&:<11133>16311333337334<<<<552-52342-3353433--111<:1:,",
"$$%,,,,<&:;::<<11<6336363533333322-<<32<2-5224223333333-;:<:*:;o",
";& ;,11:@1:&-&:<:3316361363333332-222<22555554453553353<<2;>::@#",
"%,%:<22:24<<--=%:31<3611344331333--3342525<55255334333<4<3-3:>>@",
"O:31-<214-<431-%;<133111>343333325244422225255555334433-<<33<:>3",
"<1:<<<25<-41134-,,161<>11><33333333444425255355554454331<43<<<34",
"<1112412<2<21<<361111131><341>3324543422255255554544<3444333<341",
"314212<3<2<5<5222<-33<3316611<:>166131364446676655623445443<<43-",
"1<44-2222<2252253<<<343411163>;>111231614467363657423343133-4444",
"14414--3-552222<335333456661111;:32666<1743363645424333<>1<44233",
"5442-34-<2252<5<3553133731116113:>111116446<673:333<3<3<>1<433-3",
"555-5-545<233-2344<331333633633311:<11163<343>61>33<3<3<<<<<-2<1",
"2-2454442<<232333<<33<<33661163<11,11611<4<43;>1<<3<3<3<<3354322",
"--5224--<25<3<3<3<333<34336311<<1>,1116<>1<413<1>331<3>:>2<33<<>",
"-5-4424425<5<522333333336311311111>31<11366<<<3333313331<<5<<32-",
"55254444422-233334446116616>1331163333337444<<4331311111333<33->",
"52224-<42444<233333661331161336316336333434<14111332111333333<35",
"425244224544<13346<3111611613333631631664<4<3341233612<353353353",
"555244654441323344><1111336613633633463443346614462113<133533533",
"2552552444334343<><1><11313163336313413433<443331413113444445553",
"452555543223443336>1116111>:>6366166441444*43<<4141<444544553555",
"455747442<44333366111616311><>3613613641:<>#<3<3<<44446455455455",
"77772452323441353311162166111><<43>:6331#*<:#><<<441466466555455",
"76466654344444341636663363363333<1<<6111,;;&;<>,11:1336736533577",
"77557654346446631>161331>133364<:1331<1<:,,1<11<111<333773333777",
"7766446243<4446633631113366366631><31,,,@:11>1111<3343>63<333735",
"226642243343<41333333>11<63373363<<<,>,:1;11;31::,13344633377755",
"545244223121161333611>3>133663373:::;<:<1,1;:1<:,;11613333777665",
"76644442321466366363111363>6634<1<<&;;;1111,1:;;;;*1133333377736",
"541<<24222223366366311>1>13666<<311&#@#>111,,:,&;*>>61<3>5337533",
"41<--=121212133677633333<166444<><1,;&*;11,;,:&,>;66113>>>333>35",
"11-43---><11163676633111446763333><>&,:<11:&:,:1111131<*>3>>3333",
"-=-4---2>161616633733111146764341>,>:<::,<,,:,,11116111153><5757",
"----<<-2>>3>13133363611136764773<<,<:<:<1,11,:>16111:11>3<377335",
"44432<-2:1>316163333633167467431<1,>%%:3<11,<<>>1111>16133373733",
"411<-2<->>111336333763635466744<,<4<*<<1::*#::*-;11,333111>13333",
"<1132--->:31>>31>367633644566444,>;::<><+&*<>-#>1111>>1;;<>>3763",
"<31441<=>3333333333333634446665411,;:<<=*>*--*>>,,1,;;;3>>>33633",
"3<4311<->11>13136373373335646645661113<-3333*3>>3,1;#>*;;1333463",
"33<36126<<3111,13633633336363444555-5-24<<3><3>31,13&;,111,31313",
"433423331411311<63366336633353442254-=--<<<<3;><11111>;131:33333",
"3343<11326<>611>333636433673335322545423333***<<;1311>>311363:,3",
"144<6<16:<1>,<11>33333<433343333255-5-323>>*>33>31>1113311613>,1",
"111:4211<;1><11<66333<<3331>333>242--5423--->11311:::3<<16:11131",
"11113221>11><63333333>33>>11333322-4554231341134331>3<3>11>13;13",
"1<11311,>33363634443334333633>3342444-22233311>1>1113<3311>>3111",
"14344<1113:6116133343333373133>344-233-234531>16311>3>33136>1331",
"4524-244131>161146444334414<1333-5-422-466113<1631113133333133>>",
"22-42=-43111<1666366444412411143242442-46111166>13111<<333313>33",
"-44--3-5<161111667434334<332<11142-5445413311111133311;33316133>",
"-4---42-11111336663334434443113<222---243>13666133>>;1;;>>1>>3>>",
"---=-,===:,1163643464334311141112<<=-<221>:311311111;,;111>>1*>*",
"--X--<-=$%&:11164647777764<<31114,,,-<<<,1:<1621>1:;1,;1<>1>#*;1",
"==----%%,:@;:,664466777764443112<,2,<2--1,1>16111,11121,<<:*#;*#",
"-5-2=XO$::;;:1311663736746443122<<-,<-<<;1111116163>21,,<>>>;<>*"
};
