/* XPM */
static char *_1852715d3fa44b6bad561903f5896dd7fZvqn5gBuiXVZMa[] = {
/* columns rows colors chars-per-pixel */
"64 64 204 2 ",
"   c #57352E",
".  c #5E372E",
"X  c #5C3C36",
"o  c #5E3E39",
"O  c #5D3630",
"+  c #653A2E",
"@  c #643D35",
"#  c #6A3E33",
"$  c #633F39",
"%  c #6A3F38",
"&  c #5F423C",
"*  c #6C4136",
"=  c #64433C",
"-  c #6C443C",
";  c #6C483F",
":  c #724335",
">  c #7B4736",
",  c #7D4836",
"<  c #73463B",
"1  c #78473A",
"2  c #75493D",
"3  c #7B4B3D",
"4  c #644641",
"5  c #6C4740",
"6  c #654A44",
"7  c #6C4A43",
"8  c #6C4E49",
"9  c #664D49",
"0  c #714740",
"q  c #744C44",
"w  c #7B4D43",
"e  c #744F48",
"r  c #7A4F48",
"t  c #6D514B",
"y  c #6F5147",
"u  c #755046",
"i  c #7C5145",
"p  c #74534B",
"a  c #7B544B",
"s  c #7D584E",
"d  c #735651",
"f  c #7B5750",
"g  c #755953",
"h  c #7C5A53",
"j  c #7C5E59",
"k  c #775F59",
"l  c #7D6057",
"z  c #7D625B",
"x  c #77605A",
"c  c #7D6560",
"v  c #824736",
"b  c #834937",
"n  c #834D3C",
"m  c #8B4D3B",
"M  c #924D3C",
"N  c #81503F",
"B  c #8C513E",
"V  c #94513E",
"C  c #814F41",
"Z  c #835244",
"A  c #8B5544",
"S  c #82554A",
"D  c #895749",
"F  c #84594D",
"G  c #8B5B4C",
"H  c #9A5541",
"J  c #925946",
"K  c #925D4C",
"L  c #815750",
"P  c #835C53",
"I  c #8A5E52",
"U  c #835F58",
"Y  c #915F51",
"T  c #846156",
"R  c #8C6155",
"E  c #84635B",
"W  c #8B655B",
"Q  c #86695F",
"!  c #8C695E",
"~  c #926253",
"^  c #9C6554",
"/  c #94675B",
"(  c #946A5E",
")  c #986A5F",
"_  c #846761",
"`  c #856A62",
"'  c #8C6C63",
"]  c #8B6E69",
"[  c #876B68",
"{  c #926D62",
"}  c #926F69",
"|  c #996C62",
" . c #8D7166",
".. c #8D746C",
"X. c #87716B",
"o. c #947166",
"O. c #9D7565",
"+. c #93756B",
"@. c #9A756B",
"#. c #94786D",
"$. c #9C7A6D",
"%. c #8E7770",
"&. c #937770",
"*. c #957B73",
"=. c #9A7D73",
"-. c #9B7E79",
";. c #977E78",
":. c #A27C6D",
">. c #B17F6F",
",. c #A27E74",
"<. c #9D8175",
"1. c #978078",
"2. c #9C837B",
"3. c #9F887E",
"4. c #A48375",
"5. c #A3867C",
"6. c #AB857B",
"7. c #A4897E",
"8. c #AB8B7D",
"9. c #AA8374",
"0. c #B18E7F",
"q. c #B3907F",
"w. c #9E8680",
"e. c #9F8A83",
"r. c #A28781",
"t. c #A48B83",
"y. c #AA8D83",
"u. c #A58E89",
"i. c #A98F89",
"p. c #B18E81",
"a. c #AC9085",
"s. c #A7928D",
"d. c #AC938C",
"f. c #A49086",
"g. c #B49384",
"h. c #B89787",
"j. c #B2968C",
"k. c #B3988D",
"l. c #BA9B8D",
"z. c #AD9691",
"x. c #AE9A93",
"c. c #B09792",
"v. c #B49B93",
"b. c #BB9D92",
"n. c #B49F99",
"m. c #B99F9A",
"M. c #B7A196",
"N. c #BDA296",
"B. c #B5A29C",
"V. c #BDA49B",
"C. c #BDA89F",
"Z. c #BBA6A0",
"A. c #BEABA3",
"S. c #BEAFAA",
"D. c #BDB1AD",
"F. c #C1A295",
"G. c #C2A59A",
"H. c #C4AA9D",
"J. c #C7AB9B",
"K. c #C3ACA3",
"L. c #C9AEA5",
"P. c #C1AEA9",
"I. c #CAB1A5",
"U. c #C5B2AA",
"Y. c #C4B2AB",
"T. c #CAB4AC",
"R. c #CFB8AE",
"E. c #C7B1A6",
"W. c #D2B9AE",
"Q. c #D0B6AA",
"!. c #C6B6B1",
"~. c #C9B6B1",
"^. c #C5B9B5",
"/. c #CDBBB4",
"(. c #CABDB9",
"). c #D2BDB4",
"_. c #D1BFB9",
"`. c #CEC1BC",
"'. c #D2C3BD",
"]. c #DBC6BE",
"[. c #D4C6C1",
"{. c #D5C9C4",
"}. c #DBCBC5",
"|. c #DCCECA",
" X c #D8CAC4",
".X c #DDD1CC",
"XX c #DDD6D2",
"oX c #E0CEC7",
"OX c #E2D4CE",
"+X c #E2D6D2",
"@X c #E3DAD5",
"#X c #E9DCD6",
"$X c #E5DDDA",
"%X c #E8DFDC",
"&X c #E6E1DE",
"*X c #EBE3DE",
"=X c #EBE5E2",
"-X c #EFE9E6",
";X c #F2EBE7",
":X c #F2EEEB",
">X c #F5F1ED",
",X c #F8F1ED",
"<X c #F6F5F2",
"1X c #FBFAF8",
/* pixels */
"<X+X{.!.v.d.d.x.v.B.Z.Z.P.Y.P.Z.P.+X$X|.[./.~.a.' ' E h j h ] w.r.3.5.w.d.Y.|.@X$X=X;XOX~.d.-.2.r.i.d.t.t.5.-.n.Y.Y.`.{.XXXXXX:X",
"d.t 8 8 $ $ 7 e q e f f e p h U f _ -.i.+XZ.%.8 4 = o X O o 4 4 6 & $ o & 7 p E %.Y.n.[ f a p u r S e e 7 5 7 7 t g d g g k j ^.",
"j 4 = = = 5 0 q 8 q q 7 < % 0 - - - @ = r.d 5 4 5 4 & 4 o $ % @ = o $ X $ $ $ = X j E 7 a u f p 7 U 8 t 9 9 6 6 6 t 9 t t 9 9 [ ",
"` 7 0 7 0 0 < 0 0 q q q w 3 3 # 1 < $ - =.h 8 4 6 4 = 4 = % 7 5 - $ - o = 5 - = $ j _ q e 6 p t 8 p 6 t d 9 9 9 6 g g g d p 8 c ",
"E 7 0 0 r C 1 5 0 0 0 w w 3 3 1 3 0 0 q <.h d q 5 5 5 - 5 5 5 % % - 0 $ = - 0 - @ h _ t 8 8 8 8 d 8 9 t t t d d 8 d d d t 8 8 c ",
"f q q 0 w r r r w 0 0 q w C w C 3 3 0 w =.h f e 5 0 q q w q r 0 5 - q 7 - w w 0 @ j E p u p d p p 8 t d t g g g p d 8 d d 9 9 k ",
"8 q 5 5 % 0 r r w % 0 3 w w 1 1 < 1 * O 5.g f p r e 5 e 0 7 0 5 0 4 q r e r w r q h ` d f g j f t 6 g t t d g g d d d d t 8 9 z ",
"z = 4 $ 5 7 q a f S s h a W o.! E h h j H.2.c _ _ j d d j k k 9 d 6 9 d d h d p e [ r.c *...c z k t j g g t g g g g z g t 8 9 X.",
"u.w.u.w.t.t.z.n.Z.Z.Z.Y._.'.|.%X=X|.$X;X=X+X|.{.{.|./.!.Y.S.c.' +.7.*.#.&.2.+.....u.V.A.Y./.!.!.P.!.`.[.`.^.^.[.^.Z.n.m.x.2.2.u.",
"s a S e 8 f h a f r r ! /.' E &.e.-.i.P.u.E _ [ X.] P p L f e < r +.7 q 7 7 = q r i a a P P E _ ] *.s.n.n.|.XXB.[ t 8 d U h h h ",
"q q r a q q q q 0 % - 7 d.U f q 0 r 7 - - 5 - 5 r 4 @ @ q 5 5 % i #.; @ # # - a s i q 1 < 2 q 1 < : < % 7 2.2.e = = 4 6 a r e q ",
"r r a S Z r r r w 5 5 8 5.r e u a a S 7 r i r a L 5 - * r 0 < 0 F =.q - @ 3 q i q s p q < 1 r r 3 : w 0 e } h q 7 7 e e f S r r ",
"S r w Z S S r q i e q q #.7 q 7 7 r L q F I i S F r - 0 S r 5 q U @.q q = < i F I U s q u q q e r q 0 r e [ h 8 8 7 7 f S S r r ",
"S w r a S r r r a q e q =.a p f f a e q L L L s I 0 < q i r w e R $.i a q q a T Y U p q e q p p r e e r e ] U 7 5 8 e e r a r S ",
"f r e r a S a e q q 7 - =.2 7 5 e a e - r L p 7 q = < 1 S i u i G 9.2 q q q 7 q f a 8 8 = 7 e p d e q 5 @ _ U 0 0 8 8 e e e q q ",
"e e d L h e e t f a p z v.s h p f j h d f P p p p q q u a e u s  .G.7.5.*.' l u f f j h h j f t j h d f k u.-.j _ g d 5 4 5 @ X ",
"..u.[.XXXX[.S.Z.P.K.v.N.b.j.G./.R.I.K.H.T.).[.+X@X&X XL.).).J.K.J.G.J.l.h.g.8.8.0.8.v.R.).'._.).~.~. XoX+X=X$XXX|.'.Z.w.*.*.X...",
"7 _ z.!.:X(.[ f f h h P P P I ( W F a 2 s E [ *.f.{.Y.7.y.5.+.$.#.! s a u ; u u ; ; d X...*.C.V.7.@.} } @...Q P T U f a e 7 q e ",
"0 a e f t.8 8 e e e e i S a q q = & X - - = & 6 6 ` p ; - 5 6 = 7 ; 6 & & = ; 6 6 ; = ; 6 6 Q T S D 0 C N 1 * . 5 0 - 5 q q q q ",
"e r r e E 7 e a a e a s a q 7 7 = X X X X X 4 6 2 ! i ; w S q q 2 y u u u 7 7 q u q q u q p ` u r J w Z Z * X & $ q < q r q q 8 ",
"a q q p z a h s e u a f a e 7 - 7 7 =   & & 7 p y ! i 3 ; 3 : * * + < 3 i 2 2 w 3 N 3 w N 3 #.a r w i 2 Z < + * < q * w i S r q ",
"q q q q j h P s a f f L h P p 7 - q = = 8 8 a s ; ! R Z 3 3 3 1 * * 3 N 1 2 < 3 N B Z Z Z N 4.R 0 w Z 3 B < * * 1 r r Z r r q q ",
"q 3 2 = k f U W P P P P P P p t a a a u P s h s = s G G G N A A G 3 Z i 3 i 1 1 Z n C n , N 8.s < a D A n 1 < 1 3 3 C 3 3 w S q ",
"i q 8 g E p a a f s a p e a q y f h a a u s 6 = & Q W Z F D G K D K G i i i i w i i S D D s j.7.a q i w - i Z i q w i 3 < w r w ",
"K.G.T.}.}.{.`.(.^.!.Y.S.S.S.v.v.C.k.<.*.<.#.#. .$.j.J.E.J.J.'.].].].`.F.l.8.<.q.<.7.7.a.M.M.M.A.E.A.!.{.XX.X|.(.P.A.n.t.*.t.V.K.",
"E z +.=.4.d.S.~.T.Y.K.^.|.V.4.~ / F K G G A Z Z K D D ~ ^ ^ 9.9..XXX4.T T i T h 7 p W h f p f p h E &.t.e.D.|.,./ ! W U r P W W ",
"8 q q i i S I | / W R ' 7.y ; i n N Z 3 i Z 3 Z D J A N B B V m 9...y F i 7 ; 3 = X a a u u u 2 q a r e & z *.S 3 < 2 r < r f r ",
"5 u a i Z F F R { R / ! ! u < 3 , 1 3 1 3 3 Z A N Z Z 3 3 M V m I s - p p u u 3 y 7 7 a p t p p 8 a r f t g E S S w 3 0 0 r f e ",
"p 8 a s P F I ) | R / a a 2 : : > 1 , b 3 1 Z Z 3 3 3 n m 3 B B K P u p 6 u u 7 y p 6 p T f t t 6 t p P h j h F D Z S q w r a a ",
"8 8 f a p a f T U P I s h i 2 3 N N N , N N N J Z Z n m B m V B R ! s u i a y ; = 7 u p h P p t 6 9 t p h g f P D S r 1 w q q q ",
"u a h a u 7 u a s i P p T 3 i Z B B n m V G B V B Z B B m v V m S ! R s s p u 7 = 6 u t p h a d f f d d P E h P L - - w w - 3 r ",
"s p a p u q u p h s f ' 6.i 3 3 N V B B J V B V V J B N v * 3 B R ! R l a p u 7 7 7 8 p y s E ! z '  ...#.2.t.#.+.[ f a p p e p ",
"k.i.v.V.T._./.(./.T.T.Q.W.V.8.,.O.( O.9.9.9.6.8.q.0.p.8.q.g.M.N.J.J._.[.[.(.R.E.N.g.h.h.h.l.J.N.V.H.'.}.]..X@X$X$X-X&X{.[.!.B.z.",
"I S U | c.K.L.G.j.p.,.,.6.p.0.:.( 4.4.<.O.:.$.$.:.:.,.:.@.o.@.o.$.7.Z.Y.Y.=X,XP.+.T R F D R R R D F F G P h s s T c.<X=XS.d.5.! ",
"G S F F G I I R Y G G A G J J G , 4.u ; 2 3 2 w Z 2 2 q 2 ; 2 - ; q i F i ` R.T q - ; u i S F S w D Z i 2 ; = = - p C.u.e P P I ",
"G D F G D D R R F D A Z Z C B J n ( i a a u < r S i a u a s a s - - i i a i 8.R Z w 3 3 q i s a Z S Z w i p y 6 ; ; ` X.e T I D ",
"r G D i i Z G A C C C C N N B B A Q i i S r 1 n C Z C w 3 w q < - w F D s u 9.I i N N N N 3 3 3 Z Z 3 n 3 Z f t p - ] ] q h S w ",
"r r S r 2 w 3 i q w w C Z Z Z J N O.s i F Z n n 3 N Z 3 1 3 1 < 2 w N A s u @.F G Z N N N Z Z N Z r 3 3 C S F f 7 - #.*.5 a r q ",
"e q a r q 2 w C i Z C C Z F A n B <.T 3 S r 3 3 : n A i D N 3 i w 2 i G P i =.F Z 3 i 3 > 3 i S a a i i i w 2 u * @ =.*.  4 7 7 ",
"j E E a a h ! ` U S i L F S D A F q.#.; q q 2 i Z a s a S a q a i 7 q a i u g.! ; 3 i i i i a P a s p i F P E z z X.c.f.d d g g ",
"+.2.2.=.d.B.P.'.[.}.oXR.v.c.K.I.E.W.E.8.7.a.=.o.5.i.y.a.y.v.g.v.N.N.B.b.j.k.L.L.k.j.7.9.9.:.O.o.o.:.+.s L U ] ..#.*.*.2.[ [ _ E ",
"f P p p g h U E ] y.(.2.h P W U F i * : 3 D i G | :.,.y.b.+X>X/.k.y.4.@.' P I ~ I P U I G K ~ G Z S e @ @ @ 0 r q q 5 5 6 o 5 e ",
"a a a f u i a r r w #.u 3 2 3 < , , , , n n b n N n > n A } N.R A a G G a i i G P P D U G G ^ ~ G G p @ % % < w p e p 6 5 4 8 8 ",
"8 r e f u 3 i i r q U - : 3 3 1 , b , 3 b b , n 3 B b N Z I { w A S D S I R S P L D i q a K K K D P p + - q w r r q 5 7 7 7 8 7 ",
"q q e s e w i i i q T q * : : : > , 3 > , 3 3 3 < 3 b , N S +.u Z S F Z i ~ ~ T P P P q G Y G G D P f @ - 5 q r w q q 7 7 0 5 7 ",
"q 8 7 u e q i a i < E e * : : * 3 : : 1 , 3 2 < : 2 3 1 1 a 4.S A S G F < i G T P L P f G I S G D I f @ - e a S w q r e 0 7 e 0 ",
"e 7 * 8 7 q q 2 q = E i u 3 1 3 3 3 1 3 1 i < 2 n i a i w q 4.i A S G F < 3 D a a L L S K D 1 Z Z a y + 0 e e 5 5 % < 5 % 4 7 5 ",
"2.w.2.=.[ T &.u.f.s.B.<.#. .#.! T Q ! R P S s T T W Q ! { o.b.$.T / W T P T T I P F F ! @.$.+.$.<.a.f.*.+.*.-.&.+.] ] ] [ [ e.e.",
"'.y.r.5.5.t.c.~.[.'.'.P.K./.(.T.N.b.8.:.:.7.,.6.y.0.g.l.l.F.G.G.N.T.W.'.OX+XOX.XoX}..X#X%X=X X[.].T.c.N.v.v.m.c.c.i.u.-.&.} m.+X",
"2.a r a h f h f h T h h f P a s s i 3 3 G  .q q q q 3 3 ; 2 2 w i T ! ! +.=.*.c.'.;X1X`.5.#.! U p q < a q r r r L a C r 0 0 7 } ",
"h h s S s a p a a U E u q S S a F D Z D R o.< 2 = e a q 2 u e 6 6 8 u i ; q u a h +.R.` % < < < % - q q r 0 q r r C 1 1 0 q 0 r ",
"f U P P s a f a S f a p s L I D F i i a F W - q * q u X = 7 u 7 = ; q i w 3 3 a q 2 o.q - % - < 0 < 5 7 r f C q 0 % % % q 0 5 r ",
"p g l P S T P h T h p u a F G D F 3 i I S T q ; 7 q 2 @ @ ; i q q 2 3 2 - 3 2 u q 0 ` 7 2 - - 2 w 0 r e 0 w 0 < 1 1 < 2 q 5 e e ",
"a s h a i i F U U s a u a Z D Z i 3 i A Z h u q q q < @ - * q 2 * * * ; - - 7 u q 1 T 0 q q q w r D r r r q w w w r < 2 q q e p ",
"h q p q q u s f a u i q q q i 3 i Z Z B 3 E - q 7 5 - % - * ; * * # + # @ @ ; 8 - 1 ' ; = - 7 y q q r e r a q q u r q r 7 5 7 f ",
"B.d.u.c.x.d.2.=.2.2.<.$. .+.#. .o.( ( ~ o.a.*.$.+.! ! !  .=.=.*.%.o.! P s a P W T $.d.t.#.#.1.1.....+.&.=.5.r.r.2.2.2.2.-.;.w.z.",
"=.$.4.j.V.|.>X,X>X@X`.Y.Z.V.V.T.C.k.M.b.G.F.K. X}.OX$X&X@X$X&X*X=X&X+X XK.F.b.I.oXOXOX#X;X,X-X=X].P.Z.m.N.v.z.d.r.=.*.-.-.&.} } ",
"S w q w a ,.XXS.2._ g p p t e $.p 3 3 u p i Z R ( ` c Q ` E E Q ] [ z 8.$.~ ) | 4.<.$.@.c.*X/.7.{ ' R W U U h h T U P s h P f f ",
"r r i Z a E 7.T g p p p d g a #.; 2 = & y t a S F S a s s h h F i a i ! O.R h f h g g g d f.$.W U P h P a h f h T U U L f f L L ",
"i w i w 3 P $.P h s d p f a a +.< * < * = = p Z G G R R I F G Z F I I R @.R P h f t y f p Q T F U L S P L S T f s P P s f r U L ",
"e i i Z i P %.h f p p e p f s Q 1 < 1 * * - u i i S F a i F F S G I G ! #.P s h h p d z h h Z P P P S L S S U f f p f a e w r P ",
"0 q 2 3 i T #.s a u q i q u s ! a 1 , < = ; p S i = ; 7 ; ; u 2 u 2 2 O.6.h T h h h s P h E S W P S f L s i f f d e a e w - 0 0 ",
"- p 2 2 3 s *.s q 8 - 7 7 q e ' E * i i ; ; u i ; X & & = & & * * * + ! =.a P i a i a f h ] a h h p S f a r d t 8 5 5 - 7 - - * ",
"1.1.1.*.1.2.f.3.%.....#.$.+.*.7.y.$.#. .T l E T T E T l l h i h l f T @.*.E P T T E z E ' <.+.[ ..%.&.*.*.*.;.;.w.&...+.;.*...+."
};
