/* XPM */
static char *result[] = {
/* columns rows colors chars-per-pixel */
"64 64 26 1 ",
"  c #8D7E51",
". c #8E8156",
"X c #8F845B",
"o c #928456",
"O c #92865C",
"+ c #95895E",
"@ c #988B5F",
"# c #918760",
"$ c #968B63",
"% c #998E65",
"& c #978E69",
"* c #998F69",
"= c #979067",
"- c #9B9067",
"; c #97906A",
": c #9C926C",
"> c #9E9571",
", c #9F9874",
"< c #A0956E",
"1 c #A2986F",
"2 c #A09672",
"3 c #A29975",
"4 c #A19778",
"5 c #A49C7A",
"6 c #A89E7C",
"7 c #A7A07F",
/* pixels */
"#O.$##&;>&&>:;$*%:-:3<<<-:%%$$*::$%<:<<%%%%@*%-%%%%%++o o+Oo@@%o",
"##X##&&:*=%&:;%&:*;:-<@@@-:*$$%&:$*%:*%-#%%+$@%%@+%%oO+oo@+o+%%O",
"$#.O&#&;%*%%&2:$*%&:--@<**:%+$*:&::;%@@%%OO$O@%%@@o%%%@ooo@@%#%$",
"=$$O$#$;*%*::&*%&**:<-<%*%$++@%==::2-<%-%%%OO+O%O%O+%%%@++<%%*%%",
"%$##$$&&$$%<<:**--<<---=%%%%O++O@:::-%%*+$%+O+O+O%@O@*:<@%<<<*-<",
"%+XO##$#%;*&::<<-<<22<-%%%OOO@%+%;::%+%$$%+OOOO%%@%@@-<%@#%<---*",
"$####$$=>:***%*:::::<:<<%*&OO$+#%%::*+*$%%%+O$#%%%+--%*O#%@**:%%",
"X#&&$&#&:>%%&<%==*;$*-<2<:&%&&$$#%:**%*%*%#$&$%+@%=@%:*:%%*<<<-*",
"&%&>&&;;>,;%:2:-:*$:2&:<::;&&%=$O;::*%:%&%%-:**-%<%%*%*<**::::*%",
"&$&&*&:>:2:=;;=*=$$;,<2:&>>::=@@&;::::::*+@<&*:@O#oO$*%#****>***",
"::;:>&:>33,:&::::%%:4*2:=:::;;=@*-22-::*O+$%#=%+O%%O$*-**%:>*%%*",
":&:>*>2::>::<<-%***2>>>232>>>>:O%-:::%%*%<%O+%+#o%%*#$$%%%%:*:@*",
"%*@*2::;:;;:<<<:$%%&:>23<*:-@:==**&:%&*&:::%O%$%%%%O#$$&%@%%% %-",
"*%%%:::=;::>22::$***:3><::<2<3:::*::%%*%*%--O$%OO&$#$#&*+ O@@@@%",
"-:%::;%=>>>:25>:2:>:;2:&:122153:<-:-<%@O+@%***%+$%**<:<2:%%%@%@%",
"::$;:;;>;,:::3::::::>*:--1311:>,2:<=%%%@%%$%**$+$%-%<:<22*@-@@%%",
"2::%%%;:25>>24222<<:;&<::23<-<>,**<**%#%%@+%**$$+%*<:236<%%%$%--",
"2:-%%@;:>2>223:<<;::::<223>-:12,*>><2:*%@@%@&&*O#%--<444<-%%%*44",
"*;-=%$$*:222>:*:;=::<:<<:553<3362244<*::%+@@-*%*%--*-224<*<%*<2<",
":12--$+*2:<*::%%:;:235555553<573,244:<<<%O%%*%%-%**-%-<-*2<%%*<<",
"<13--%+$$&<*&*%*3><565367773>22444>:<**%%o@**OO*-<<:%%%::::%%%*%",
"33<-@@@%&>**:**<,>332>5335535523>*&***&*<@@<*#O+%%@-%*%%:%%%%%*:",
"11-%@+-%**>:*:**24575222:25553254222:<**<-<%<%%@%++#* $&&&*$*=:<",
"3<:%%%::>:>>2222442>32:<,3<:224522322*:2%-<-:%@*%++#%%%***-:%:<<",
"552:&:::::>,2>23,,4><:-:2>*:>:>2:*<<<<<:3<%%%%%:&$$%*++%*:&<::2>",
"55,:>>::::2>:>:&*,>2<;113::>2:*24-<223<*<<<%%%%*:%*:**$$>*::*256",
"75,>:::**:::254*>:*432>355,>>>;&222333*:-****<%<:**&$$%%>***:256",
"33333:::**<;>42>>&:55,3653>>>:$%:36<22::%$+$%&%:>>:;=*=:>*2*;,32",
":>223::*:::::::>:&>44,,,,524:&&&&>326<**%#:%$%;:>>>::%$*;;:;*:>>",
":=;>>::222<2<:2:>&;>4,22>>>**&>:*:>><<>*&;&&$%:1:::;;$$*;:>:;::>",
":::22::22>2>::=:;;;:452>2,>:;;::$&:2<%2>::;$+=::=1=<<%*%::>;::::",
">:::>>33332352<::>*>>,5>>>>:::22*%22:**:::;;@$:::2133<2<:;::;<>3",
">,>>2363665442:>:;>2>>>>:2::%*::*$;:222<<::>$$:<<2134>>>**;,>:>>",
",>>,3:23634522**=>::::;&::<<<*;::;;:>>=;<@:;$%;:2<<-:,4**>;>>::>",
":>555223,>2652,>::::%&*>:32:<*;::<22:<<:3<2<;2::2:-<:>>;2:>>>>>,",
">,32<5<2>>>22>,>:<;&%;>>:252*:<::;::;-<<3<23<2:22:*<4,>;>:>;&*>4",
"424222<%::>,454&;;::>>,>;:22:,:::>:::-2222<3,,,>:>::,,44444;;>>,",
"*>>>:2:<:>>,55,:*$%:2,,,232,231<::&:-<332223,4>,,:&;&>&>>:&&>>4;",
":<>*::::>4,42,:*@$%::,422332>2:&:>;<223<45444:,,,*&&;::>;;:;&>>:",
">2:2&:::>,,552<:*$$$=>>32<2=::&>::::2<35554>>4:>>&&*;&&;44:>;:;>",
"22**&%:<2,,>442&*$%+*:2::&<%%;**35555555,3334,>>,*$&&&$>;>>:&*>>",
">2<%%%%*::2>&>>&*$%++$=<**;%%2,,556366552>324>:**$**>&%:;;*::>4;",
":2*%+%%%*:<:>>>::$*%-=::;:::<34,5,<352232*:22:$$>***&:-:4>&**4:;",
"2>*$@@$$*&<;&*$>2:::<::2,:>,>25555312222<%->:&&2>>2<*<*:>;;::444",
"<:%%%$$=2:2;:<-:;::333332355,575,5423552:$%<***2:>:::>2:>><<:4>>",
"-%%%@++*:>2<2:=:::>>22:2>553>557,,,4,242<%%%*<&:***:2222:<*%>>2>",
";%%+@+%*>,>233>2>:>:2:3323:::233:>5,22>*%@%%:>&%%::>22:**<--<-**",
"%:=$$**2,5>>33>33::>>;::133<::2,*:>:>$%$%%$**:*$$*::>*:<<222*%%*",
"&<+*:::;>,;;>3:><::>:><*:221<1>22<2*-*%%%%%***$%%%**::-:1211<%%%",
"=-%::;*%:>>>,5::>:2:;,:&:222252><::****&%%*:<:*%%&>*:::<52<-%%@@",
"=@%%:;:%;::>3:::%$:;:32><-12:3::<%*%*:>><*<<**:%&&:$:<221:--=@@%",
"@%%%>:>::;::>1<,*@*:>>>2:=::%:%%&&%$%&%>>2<<%-<***>2:12221<:-$+=",
"<-::&>:::::<:::=&:*:>><251<3:::$%%<%#%:<<<*<**<#::22:2224>2*<%%%",
":::::&>>33>;:::::&%=2:2:;::::::=*:2<*&*<::**@@*<*,6553222>>2**@<",
"**$:&*>::3:**:==&%%&,>:::2213,,,2:2>**&*4**>:*<<>24<:<:*****:*%%",
"*+*;&&&&:3%%:2:%:&$:2&:237636656>>>22>222<**<: :>42::-*:>*>*:<-%",
"X#%%#&#$>:%%::*--**$&:>352336755333>2>>:*****%@@*--%-***&&*<<<*&",
"$####$$&>,==*%%::::::<<35>232<57553232:::*:%::%@-%%---$+$#%%*-%%",
";$+X$#$#=;=::<<<%<<3<-<<1522232555235222<<::**::%@@%%-<-%+*:*<--",
"$#####$&#$-::=%**:<<:-<-:1<::35523,3,:>:<*****%%+%$+@%-<@%:<<---",
"=#$O##$**%=::*:%&**:<%-%:::-:<:::><2:<%<-*-$+%@%+%O%%%-@@@-----%",
"+O..&$&*%**%*<:$%%*;-<---;%<:;:::::::=@%%O%$$@%%@@O+%%+o O@%#@%#",
".+.#&#$:%%*;&*$*-%--<-@%%::*%$;::$%%<%%%+%%+$$%-@%%%o+O@ %+ @%@ ",
"OO.$$O$:;$&<:&O%%::-<<<<-:=%%%*:&$%<%<<-@%%+%%-%@%%#+@o  @@ @@%#"
};
