/* XPM */
static char *result[] = {
/* columns rows colors chars-per-pixel */
"64 64 187 2 ",
"   c #44302F",
".  c #423031",
"X  c #4B3836",
"o  c #553E3B",
"O  c #5E433E",
"+  c #75493F",
"@  c #4D4649",
"#  c #5D4C4B",
"$  c #544C4E",
"%  c #594F52",
"&  c #5D5254",
"*  c #634642",
"=  c #644A46",
"-  c #6A4F4C",
";  c #794F46",
":  c #6B514D",
">  c #74534B",
",  c #7B544A",
"<  c #655554",
"1  c #6A5551",
"2  c #685856",
"3  c #6A5F5E",
"4  c #625859",
"5  c #7C5B51",
"6  c #725E59",
"7  c #795F59",
"8  c #715751",
"9  c #75615E",
"0  c #7D625A",
"q  c #6A6668",
"w  c #716463",
"e  c #7E6662",
"r  c #736A6B",
"t  c #7C6C69",
"y  c #7C6A66",
"u  c #7B716D",
"i  c #757273",
"p  c #7B7373",
"a  c #787679",
"s  c #7E7D7D",
"d  c #797977",
"f  c #8B5748",
"g  c #815A4E",
"h  c #83564D",
"j  c #905F4F",
"k  c #825E54",
"l  c #856156",
"z  c #84655C",
"x  c #89655B",
"c  c #8D685B",
"v  c #936456",
"b  c #996351",
"n  c #986857",
"m  c #906558",
"M  c #966D5F",
"N  c #986D5D",
"B  c #836561",
"V  c #856B64",
"C  c #8E6E64",
"Z  c #896F68",
"A  c #936E61",
"S  c #8D7167",
"D  c #85716C",
"F  c #8C736D",
"G  c #9B7365",
"H  c #95766C",
"J  c #99766B",
"K  c #9E7A6D",
"L  c #95766B",
"P  c #847572",
"I  c #8B7671",
"U  c #837976",
"Y  c #8B7A75",
"T  c #827B7B",
"R  c #8C7D7B",
"E  c #937C75",
"W  c #997F76",
"Q  c #977C76",
"!  c #A37B6D",
"~  c #A27C72",
"^  c #83807F",
"/  c #8D817D",
"(  c #9D8175",
")  c #96817B",
"_  c #9C837B",
"`  c #A48175",
"'  c #AA8377",
"]  c #A3857B",
"[  c #AA897D",
"{  c #848283",
"}  c #8A8584",
"|  c #8C8987",
" . c #87868A",
".. c #8B8688",
"X. c #87898B",
"o. c #8D8B8C",
"O. c #918684",
"+. c #9D8781",
"@. c #9D8D86",
"#. c #928D8D",
"$. c #9E8E8A",
"%. c #94918E",
"&. c #9E928D",
"*. c #8F8F90",
"=. c #938F90",
"-. c #959393",
";. c #999695",
":. c #9C9996",
">. c #979598",
",. c #9A9799",
"<. c #9D9B9B",
"1. c #979A99",
"2. c #A18B83",
"3. c #A08E88",
"4. c #A4938B",
"5. c #AB948C",
"6. c #AD9086",
"7. c #B09188",
"8. c #B5978A",
"9. c #A19694",
"0. c #A19D9C",
"q. c #AA9D9A",
"w. c #A79A94",
"e. c #B69D94",
"r. c #B69F96",
"t. c #9FA09F",
"y. c #A4A19E",
"u. c #ACA29F",
"i. c #BCA49A",
"p. c #9F9DA0",
"a. c #A29FA1",
"s. c #9FA0A2",
"d. c #A5A3A3",
"f. c #A9A6A4",
"g. c #A7A8A6",
"h. c #ABA9A6",
"j. c #A6A6A9",
"k. c #A9A6A9",
"l. c #A6A8AA",
"z. c #ADABAB",
"x. c #B1ADAD",
"c. c #BAADAA",
"v. c #B3B1AE",
"b. c #ADAEB1",
"n. c #B1AEB1",
"m. c #AFB1B4",
"M. c #B4B3B4",
"N. c #B9B5B5",
"B. c #B6B9B7",
"V. c #BBB9B6",
"C. c #B6B6B9",
"Z. c #BAB7B9",
"A. c #B6B9BC",
"S. c #BCBBBC",
"D. c #C9B6AE",
"F. c #C1BDBD",
"G. c #C0BCB7",
"H. c #BFC0BF",
"J. c #C3C0BE",
"K. c #BDBEC1",
"L. c #C1BEC1",
"P. c #BEC1C4",
"I. c #C4C3C4",
"U. c #C9C6C6",
"Y. c #C6C8C6",
"T. c #CAC8C7",
"R. c #C6C6C9",
"E. c #C9C7C9",
"W. c #C7C8CA",
"Q. c #CCCBCC",
"!. c #D1CECE",
"~. c #CFD0CF",
"^. c #D1D0CF",
"/. c #CECED1",
"(. c #D1CFD1",
"). c #CFD0D2",
"_. c #D3D3D3",
"`. c #D9D6D6",
"'. c #D5D6D8",
"]. c #D9D6D9",
"[. c #DCDBDB",
"{. c #D6D9DA",
"}. c #E1DFDE",
"|. c #E0DFE2",
" X c #DFE0E1",
".X c #E3E3E3",
"XX c #EDECEC",
/* pixels */
"d.y.x.h.g.:.y.t.h.y.u.H.H.T.^.J.y.J.Q.h.;.:.| y.y.u.y.y.t.u.h.&.y.h.y.h.h.h.;.g.J.h.y.:.y.v.x.y.u.g.Y.g.V._._.b.P.z.;.C.Z.<.d.y.",
"y.y.y.u.g.;.:.%.y.h.g.J.T._.J.V.:.c.J.y.w.:.%.;.&.:.w.%.:.u.h.&.y.y.x.x.y.B.y.H.S.v.y.;.g.h.y.u.u.v.A.d.M.Y.Q.Y.Y.S.d.E.z.y.f.y.",
"g.y.y.x.h.t.%.%.y.H.v.H._.[.J.J.:.V.Q.h.%./ t.y.:.:.t.:.y.g.h.;.g.g.g.y.y.h.w.B.V.B.y.:.v.v.h.x.h.P.l.b.z.h.I.z.g.g.M.Y.h.y.u.g.",
":.y.g.B.v.%.o.1.y.y.h.H.^.T.B.H.;.S.H.g.| 4 4 | g.:.y.%.u.x.u.&.y.v.V.y.;.y.y.v.N.V.f.f.v.h.d.f.d.P.*.d.m.A.S.m.0.d.g.S.y.y.y.:.",
"u.y.v.h.v.*.^ %.y.y.g.h.h.x.h.y.} d.g.y.r ( Q Q / &.h.y.c.H.u.;.h.F.G.x.y.u.v.V.F.I.c.0.h.v.:.k.:.I.*.X.A.I.S.M.d.t.d.z.-.;.<.g.",
"g.y.g.v.v.-.d X.t.g.h.v.h.y.y / w 0 L L G H G m c g.V.v.H.J.v.y.v.V.V.0.y.v.x.V.T.F.M.c.V.N.x.v.g.W.{ a -.l.l.V.s.t.1.<.o.%.;.h.",
"y.y.x.H.H.*.d ^ t.y.g.h.h.| 4.e.2 : S , , 0 z H ( v.v.B.J.^.G.v.f.f.M.c.h.U.J.G.U.L.I.U.G.I.c.M.B.M.{ i i *.<.<.d.1.B.-.%.;.y.y.",
"x.y.z.v.m.^ ^ ^ t.y.h.g.y.u / # . _ E S z 0 H _ 4.J.H.H.J.^.c.^.!.V.y.M.c.V.Q.F.G.x.G.U.F.Z.N.F.Y.S.;.*.a  .%.<.s.o.;.-.} ;.y.y.",
"g.f.J.Y.B.-.<.{ t.m.Y.Q.h.I $.g * G ! ' A N G A V L.N.F.L.(.=.!.!.N.z.U.F.L.L.z.c.x.h.G.M.N.L.!.^._.Z.z.;.;.<.-.;.;.-.y.d.<.t.y.",
"x.h.x.V.y.| ;.,.B.Y.V.d.I A y 8 o 8 = * # = > B H Z.M.L.!.(.q.L.S.Z.k.x.Z.R.F.N.F.S.F.Q.S.S.!.'.}.`.Q.I.d.l.g.<.d.<.g.t.<.h.f.h.",
"u.g.9.f.y.#.#.y.d.o.U t D t Y u 3 U Y I A S Z J C &.L.(.`.(.L.!.M.K.a.k.M.M.Z.L.x.k.G.G.S.L.(._.}.[.|.].I.z.d.d.d.%.:.%.t.y.y.y.",
"h.u.u.y.y.#.o.d.%.9 i.O.T ,.{ ;.=.,.,.x.D D 7 , > B q.!.(.Q.n.F.L.Z.z.n.n.Z.L.U.G.Z.Z.n.F.I.!.`.}.[.].[._.V.%.<.d.{ %.t.z.h.u.h.",
"h.x.h.t.V.0.-.;.3.8.9.a.<.k.:.M.a.z.Z.Q.L.,.P q.$.Q +.$.Z.Z.n.L.L.Z.z.n.N.E.U.Q./.(.E.Z.Z.K.U.'.[.[.}..X`.M.:.y.t.:.t.x.V.f.9.t.",
"y.y.v.v.V.:.< e.D.r.+.z.,.:.-.#.} d.I.L.U.:. .L.x.; h B 9.N.F.L.Z.a.z.k.k.c.f.U.E.R.Z.F.L.Q.!.!.[.[.`._.^.H.v.z.y.y.v.v.N.z.v.x.",
":.:.y.B.I.P ` i.r.8.2.q.d.k.-.-.^ n.n.L.Z.;.#.L.I.Q J e a.M.z.F.S.a.x.a.a.x.Z.L.K.I.E.Q.Q./.U._.[.`.U.G.S.c.v.x.x.y.x.x.x.h.u.g.",
"y.y.g.u.M.../ Q ] F 3.z.n.z.-.#.=.k.L.L.Z.0.-.Z.2.6.' Q c.N.a.n.M.a.k.n.n.M.!.Q.R.Q.(.'.R.E.F.U.I.x.F.F.T.v.V.v.v.u.v.v.u.y.y.y.",
"h.t.y.h.^ ) ( ( H C J n.k.k.;.o.=.I.S.S.N.M.0.u.~ E V Y $.x.S.F.z.d.C.n.x.B.Z.I.F.Q.E.L.I.L.R.I.I.x.M.V.V.N.F.J.J.c.w.y.y.:.:.y.",
"h.y.h.^ + b N c 5 b v x.g.x.k.a.=.C.n.S.S.a.w Q ] 2.V x A , R F.z.S.C.L.L.M.S.F.Z.L.S.S.L.I.U.Q.F.c.G.V.G.F.L.J.N.c.N.f.y.;.;.:.",
"y.y.y.) 0 c 6 6 Y r.D.M.k.F.M.,.=.Z.n.V.v.w   m x k ; C G ~ E n.x.x.n.S.Z.M.S.F.L.E.F.Z.R.L.E.(.Q.M.c.I.V.M.!.L.x.M.V.v.y.:.g.x.",
"u.y.v.H.H.g.:./ I G ~ z.h.0.:.o.{ x.Z.x.x.F X k B J B F 7.5.4.T p.j.C.C.S.S.c.f.N.F.S.L.E.Z.F.R.J.n.q.U.F.c.U.I.V.B.k.f.y.y.x.y.",
"h.h.y.B.v.y.v.v.Z f ; $.:.d.j.-.o.C.I.V.h.Q 1 8.3.7.W J ~ ! K H V 3.E Z R d.n.V.V.M.S.I.L.L.(.(.F.c.;.F.F.c.L.U.J.H.v.v.t.u.x.u.",
"u.g.g.h.v.t.t.t.P E W q.} R 9.$.k.L.c.$.! 5 o z k 7 : : 3 1 = < w = = 2 P G.F.T.U.Z.Z.S.Z.L.L.L.N.N.:.E.N.B.U.S.N.v.v.h.t.y.h.h.",
"h.h.y.v.B.g.g.%.6.5.q.:.<.9.n j 5.c.' v , ; O 5 1 r w % @ $ 3 { ,.q i U q.U.Q.R.Z.S.S.Q.L.K.K.Z.S.0.-.S.Z.M.z.x.u.V.B.v.v.t.t.y.",
"x.H.H.t.H.t.t./ ;.b.l.y.J.!.+.5.f.S.Q 9 O.| & 4 ..L.a.i r T #.<.k.:.O.#.M.E.S.I.E./.(.Y.Z.S.S.l.z.a.*.Z.I.S.x.L.I.H.V.H.h.y.y.h.",
"H.y.H.H.z.t.y.s y.B.l.z.N.V.T :.S.I.z.f.n.a.R p a.E.z.../ ..=.,.k.a.=.,.R./.E.E.(.'.E.(.M.k.I.Q._.a.>.L.L.Z.k.a.J.x.L.M.c.Z.k.y.",
"g.X.H.b.z.<.t.s <.z.l.g.f.x.U n.M.L.x.x.n.=.T T z.R.L.<.o.0.<.p.M.p.,.p.n./.K././.R.Q.L.M.z.R.S.L.M.Z.].L.F.a.n.S.z.M.x.`.XX`.0.",
"l.t.g.t.y.d.z.o.d.M.B.z.x.M.U k.n.K.a.k.n.#.^ ..x.S.n.;.=.a.=.z.M.j.k.a.C._./.Q.L.L.R.S.L.S.R.C.a.a.n.L.F.k.a.Z.S.U.L.z.M.}.G.d.",
"1.^ *.*.-.:.g.%.d.x.B.g.E.L.o.M.x.Z.:.0.N.,.T / a.a.x.,.=.,...Z.b.,.p.-.x.R.R.E.R.S.S.S.R.K.L.M.n.k.M.L.L.x.b.Z.U.!.E.0.M.F.v.x.",
"H.H.Y.;.;.-.:. .,.l.n.C./.L.o.l.a.a.=.d.W.k.} s 0.a.Z.a.a.=.0.L.L.z.k.>.M.S.C.K.S.K.Z.S.Z.Z.L.k.j.n.L.E.M.z.n.F.E.E.L.n.`.!.f.!.",
"H.H.W.P.l.;.<.-.,.z.S.n.I.K.;.d.n.f...M.R.n.#...a.a.M.0.x.0.9.Z.Q.M.z.0.b.K.S.L.K.S.n.z.N.Z.Z.a.k.L.L.L.F.M.G.L.L.E.F.n.Z.E.#.F.",
"H.B.Q.~.I.m.z.-.a.b.L.b.R.S.<.d.z.k.;.L.k.d.#.=.-.Z.n.a.>.=.O.x.Q.x.x.n.S.R.K.R.K.n.M.n.N.N.n.z.z.Z.K.L.L.c.F.(.E.!.L.M.!.}.x.U.",
"H.M.Y.).'.W.S.t.k.k.K.d.I.z.d.d.n.f.=.S.z.a.R =.#.z.b.a.9.=.a.].`.F.S.I.R.E.Z.L.I.M.Z.c.M.M.q.9.k.F.L.S.L.G.L.}.Q.N.G.F.(.T.a.G.",
"S.h.S.I.).I.K.-.k.S.S.0.f.h.z.h.k.;.,.G.L.k./ =.X.<.k.k.0.-.:.W._.A.J.Y.R.I.V.G.L.G.a.G.G.D.9.a.k.N.L.D.L.!.}.L.G.L.L.L.L.c.a.G.",
"Y.I.B.P.'.Q.J.-.a.d.M.d.L.S.N.I.F.n.x.L.M.>.#.>.o.a.k.k.k.<.k.'..XY.Q.Y.I.U.S.I.!.G.w.n.E.E.q.k.c.Q.L.L.F.!.c.G.L.Q.!.].L.n.x.(.",
"`.Q.B.I.P.C.k.#.>.a.z.0.N.f.V.T.F.z.x.Z.Z.z.=.;.o.:.d.k.z.:.d.Q.`.Q.I.R.S.I.U.T.Q.!.z.M.a.Z.n.c.U.(.F.L.T.F.F.U.L.!.L.L.M.K.Q.].",
"~.Q.J.I.M.z.d.o.,.a.k.0.f.u.S.J.Z.F.E.E.E.z.-.-.=.d.0.h.f.-.,.W.P.I.Q.Q.I.N.x.U.Q.!.M.E.M.c.x.n.L.}.(.L.L.F.(.E.(.L.G.Z.n.9.!.].",
"~.I.V.Q.F.S.z.#.,.,.k.j.M.Y.`.Y.U.Q.`.Q.(.z.o.;.a.k.f.x.z.-.a.W.I.V.I.F.J.S.J.Y.!.L.c..XL.k.M.F.G.L.L.z.x.f.G.Z.N.Z.L.U.L.F.(.}.",
"S.^.V.V.M.g.f.#.,.;.d.d.z.M.Q.R.Q.`.Y._.I.z.#.a.B.N.0.x.x.;.M./.R.I.I.L.V.V.N.J.!.x.9.!.L.x.c.F.F.E.n.c.F.c.F.F.N.Z.E.L.L.E.Q.L.",
"R.R.v.v.N.x.x.-.#.-.<.v.S.P. X_.{.).Q._.I.k.k.S.L.K.y.B.k.o.M.Q.Y.P.L.Z.S.L.V.!.].E.L.L.n.Z.a.b.F.Z.L.F.N.G.L.F.M.L.L.Z.L.!.N.z.",
"Q._.`.[.I.M.z.-.-.-.;.h.v.B.).)._._.W.I.E.S.z.E._./.,.d.j.{ n.!.E.n.S.L.L.L.Q.|.`.E.G.L.L.n.a.n.z.n.L.N.a.M.N.F.L.(.L.F.L.L.L.(.",
"v.!.).Q.S.S.B.y.:.;.:.d.l.B.P.P._.~.Q.Y.S.z.k.!._.'.K._.z.{ Z.L.L.n.f.L.n.L.E.F.L.k.a.M.S.z.b.b.R.L.Q.Q.Q.E.Z.M.Z.Z.K.Z.Q.L.x.F.",
"v.U.P.I.Q.W.I.z.;.%.y.B.M.M.Q.K.W.I.H.I.z.d.y.R.M.Q.N.B.B.0.'.I.S.z.k.L.n.L.U.L.K.k.L.L.S.a.k.z.c.S.F.Q._.R.S.S.L.E.K.M.E.Z.x.M.",
"`._.W.Q.~.).I.v.:.%.0.m.C.K.'.Q.~.Q.H.H.k.f.d.I.n.I.z.a.;.,.S.L.n.z.n.S.F.Q.(._.'.a.Z.L.k.k.z.0.h.f.M.I.L.K.I.L.Q.R.K.K.F.L.M.G.",
"G.Q.I.Q.).Q.Y.h.<.:.v.Z.K.Q.{.W.T.Q.W.Y.d.z.k.U.R.L.x.z.k.0.R.K.n.z.N.L.E.R.L.L.n.#.b.L.a.f.f.j.x.S._.Y.R.Q.(./._.L.a.C.L.R.F.S.",
"Q._./.`.~.W.Y.m.j.z.N.S.C.S.'.I.M.B.S.B.0.V.n.Q.B.M.d.a.k.k.E.Z.k.z.x.Z.F.F.F.L.E.,.k.L.k.d.A.z.g.M.I.R.L././././.L.a.b.(.(.L.R.",
"S.C.W.Y.Y.S.I.S.V.z.B.Z.S.R.'.I.H.Y.S.B.f.x.M.).S.B.k.j.n.n.M.M.f.n.f.M.Z.L.G.L.L.0.x.R.z.g.C.M.L.K.)./.R./.R.E.L.M.b.L.E.E.x.S.",
"C.j.N.Y.R.B.B.N.j.z.k.M.K.).[._.Q.Q.J.z.z.I.g.C.C.S.S.a.p.j.L.n.9.z.x.a.M.F.n.x.L.>.N.S.d.b.n.A.C.n.W./.Q.R.K.K.L.I.R.L.'.W.a.j.",
"C.d.M.R.S.m.v.d.d.d.j.d.<.C./.S.M.v.N.z.H.I.d.B.n.M.a.=.0.j.k.0.=.n.Z.N.a.k.a.x.L.a.p.z.n.M.b.j.b.l.K.K.R.E.I.K.Z.S.M.R.(./.n.K.",
"K.C.Y.R.P.v.g.s.d.z.d.z.<.>.I.l.s.>.-.1.;.-.-.0.;.d.<.-.{ t.g.-.>.R.L.L.n.k.a.k.L.d.S.Z.b.A.C.K.m.l.P.C.S.S.S.S.n.M.n.L.K.L.S.M.",
"d.l.I.I.J.B.d.d.j.d.l.M.,.C.).K.m.X.X.-.-.1.<.t.<.d.s.1.X.s.B.=.a.L.n.L.n.k.b.b.K.p.C.S.k.s.l.b.C.M.W.K.I.P.C.b.k.z.z.L.n.Z.k.d.",
"g.b.B.V.B.C.<.<.l.z.b.m.s.s.K.K.K.m.s.s.d.d.g.P.m.s.1.<.>.s.M.;.x.K.>.Z.k.a.k.M.S.>.d.k.d.b.n.b.A.K.W.I.S.R.Z.M.z.k.z.M.I.I.b.d.",
"z.z.S.K.S.z.<.s.d.b.l.m.P.K.P.A.P.A.>. .X.*.;.m.m.b.l.-.-.<.v. .a.S.M.M.0.>.p.a.n.<.k.k.k.S.M.d.b.M.I.C.k.V.b.k.a.m.n.L.P.S.n.d.",
"n.C.S.L.I.l.<.d.l.l.l.A.P.m.P.l.;.X.{ r s X.;.b.l.s.d.o.*.,.d.;.Z.L.n.S.k.a.,.d.z.0.b.z.N.V.z.z.M.b.Z.N.x.L.M.d.M.z.z.S.C.C.d.d.",
"z.z.Z.M.x.<.d.z.S.m.b.K.A.K.W.m.d.-.*.{ i X.o.d.p.>.>.,.>.>.<.-.M.M.a.k.d.,.>.p.k.<.d.0.k.B.d.d.Z.M.Z.Z.Z.L.M.g.b.S.A.M.M.M.b.k.",
"d.x.d.a.d.-.#.:.<.d.l.b.P.P.P.P.z.%.o.{ { s.1.g.l.g.p.;.<.;.;.,.n.n.M.L.d.>.<.<.f.a.z.<.z.v.d.<.k.n.F.F.Z.C.k.b.b.S.M.M.C.S.b.p.",
"d.k.d.d.:.#.#.:.p.1.s.m.P.P.K.m.:.T T s { -.:.d.t.<.;.;.d.<.t.-.Z.n.b.Z.a.=.;.-.:.d.0.<.z.h.y.t.f.0.M.n.k.d.z.z.z.l.d.d.d.z.a.<.",
"d.h.z.d.g.t.%.t.d.p.m.A.P.P.C.m.;.^ -.s { { { d.;.#.-.<.<.,.1.;.k.a.<.S.a.=.-.=.9.t.<.;.t.h.t.y.k.n.R.Z.M.b.k.z.b.b.j.p.l.C.j.a.",
"g.z.z.g.v.z.%.;.<.j.b.z.j.m.K.C.<.o.o.{ s s d ;.*.o.:.d.k.:.,.>.C.k.a.Z.g.;.,.-.%.<.u.y.y.g.;.y.a.a.n.m.M.A.M.d.l.l.j.b.K.m.j.a.",
"t.0.g.h.z.d.<.y.d.g.M.d.p.z.K.K.s.<.M.o.X.X.*.t.:.g.z.v.z.z.d.p.C.k.j.L.v.y.:.;.:.y.v.h.v.f.t.h.n.a.b.m.C.K.n.z.b.b.l.K.K.M.k.k.",
"d.y.d.g.z.y.:.;.g.l.M.M.M.I.W.m.<.s.z.s.X.o.{ <.t.d.f.k.k.x.d.<.n.a.d.K.g.z.:.-.t.g.x.y.x.g.y.y.j.k.b.l.b.C.n.b.m.b.j.b.K.n.k.a.",
"y.t.d.d.y.y.:.y.u.x.M.N.S.I.L.M.<.o.k.d.%.-.} y.y.h.v.x.t.g.t.;.M.k.p.g.M.f.;.%.y.y.y.y.f.y.y.0.f.k.n.M.b.C.S.M.n.n.k.K.m.j.p.p.",
"y.d.<.y.u.t.| y.y.f.h.v.V.Z.n.z.y.u.q.-.o.%.#.y.y.;.%.y.:.<.:.1.M.j.Z.M.z.0.9.:.h.x.g.t.y.<.y.y.d.d.x.x.M.S.K.M.b.k.k.M.C.j.p.,.",
"y.y.:.%.t.:.#.<.y.g.x.<.d.Z.M.n.:.0.v.z.-.*.%.y.y.y.:.:.;.-.;.=.b.p.M.B.y.t.y.y.h.y.<.;.y.:.0.y.y.f.k.,.M.L.S.k.n.z.,.S.b.,.,.-.",
"u.y.f.h.g.y.%.t.h.y.d.z.Z.R.I.Z.<.g.Q.H.1.t.y.y.;.x.h.y.:.<.<.>.k.p.g.h.y.h.:.d.y.u.y.:.;.y.y.f.d.f.n.x.S.E.L.a.z.k.;.b.d.#.0.k."
};
