/* XPM */
static char *result[] = {
/* columns rows colors chars-per-pixel */
"64 64 63 1 ",
"  c #7B573E",
". c #7E5A3F",
"X c #7D5B41",
"o c #835E3F",
"O c #8A5F3F",
"+ c #8A623F",
"@ c #845E41",
"# c #895F42",
"$ c #866142",
"% c #8C6343",
"& c #8F6946",
"* c #8D6748",
"= c #8F6849",
"- c #926644",
"; c #946A45",
": c #9A6D46",
"> c #936749",
", c #956B49",
"< c #9A6E49",
"1 c #9E7047",
"2 c #97714C",
"3 c #9D714B",
"4 c #9E7451",
"5 c #A06F48",
"6 c #A27247",
"7 c #A3744C",
"8 c #A9764B",
"9 c #A5794E",
"0 c #AB7A4D",
"q c #B17D4E",
"w c #A37651",
"e c #A57A52",
"r c #AB7C52",
"t c #AF7F58",
"y c #B17E52",
"u c #AF804F",
"i c #B3814F",
"p c #AE8154",
"a c #AD8159",
"s c #B38355",
"d c #BA8555",
"f c #B78857",
"g c #BB8956",
"h c #B58559",
"j c #B98659",
"k c #B6895A",
"l c #BC8A5A",
"z c #BB8C61",
"x c #BF9265",
"c c #C18B56",
"v c #C28D5C",
"b c #C88F5C",
"n c #C5915E",
"m c #CA935E",
"M c #C18F60",
"N c #C49262",
"B c #CA9461",
"V c #CE9965",
"C c #C69769",
"Z c #C99768",
"A c #C79A6B",
"S c #D09A64",
"D c #D0A273",
/* pixels */
"<32<:<,;3;1::-+-$$&:618:::%::::;-0r6;-%6q:;---8-o;;8uu011;967637",
",73<,,;:218--%-1$X%-6663%%-,:-:;690u7:-0875-:-60%-+:1:;+7;;+6999",
"re343,;-:72;&&1-+ %%-----%+;-::598s9::6<066:-:0d%%;;8916;&+8868y",
"777<,2-&,9;:-;&1,$+X%%$%#%+;::760q6::<:;657-:668o%%+891111;69980",
"5we,;-&&&329%+&1- @@%%%%%#+656:508-%--:;--::<:17-#1:;600570q80yd",
"rr7<=-;-%272*,:2% X*%%&-&%O%;O:+6;;+:7--::::;-186%68-60006yyr70q",
"qr:,;&;&,4,43,-&,+@&%%&;%%#;;:-:;:++r066<:;;::66:-:8:8q886q0e6qq",
"57:-2,;&2w39,,-<-@@%o.+%##%;56-O16:2r8886:::63:&;:68186800ry07ss",
"3191,*&&2p33332p2,+%$$%+O%-OO5++::1-;:813:;;-:-:+:98-1680879077w",
"7672,*&&2w4p9p934*$%%&%%%-O%-O:5:63=;::181+&-;%11;0811860623w68<",
"61,-,&&*39epup23u&%;%&;3--O#;::5-:6&,%:66,:6-:11::691;:;+::;7<6y",
"2<;;22&&9224p4p9p9&;,%&2-;O:;++-%;:;-;5:::13;6;%++681;;;58:%%-:<",
"o%%;&&222&2p&1fpp42,w>>;<>%%-+;:-::-O;;::1-;371:-%681,,,,13*%=#<",
"%%%&&u2&22pp4uflpu279-76--#O+;+5::-:-#-,6860h:171&%:,-:1&30>@$#&",
"#&%>2222uppppulkpp293---#--#%-:5-6;+--:-68i08081;:--<7-,31<#X*#&",
"&<<,&pppppu221fxafse9--;--#--:-::+:-<;+%1is9&:,;2:%&&,,3<<<&X$>-",
"#%;<weeppup2u3ufpff91+1+%-#-#-:-:+6:-&%:700912%;;81:;-3,2-2-$*%@",
"#%<24eppuppuppif4uuuu21;-%-;,6:;:688;-,:,;1:i0:88881622379e,%$&$",
"-;,24uppupsffffgpufff7-+----5--:::;6&&<;1868706808113;9rsspe>=--",
">22942pufffgflfxffggg3368-+;67888+-;:%-:6q006-7308,&;1999rpk4w72",
"2324p4uplllgfzlvfllgnuprp:-%+d86++-:5%%::80i6<::861,-1372reaep94",
"33p42upplhgldvcnfllnmgs0gi;-6i80::-:7,---63:;-3&:+6;&,321ppe4uep",
"pup2pppkfjhssnvSnvmvns7sl0:66fsq62;:r<&;;:9:8--#:8++&-&;29p3949f",
"fpp4apkplfpppNlvmgmmBdpgsss9:0sg7;869;&;;;1,:--%:66;-&-,22hppepk",
"f9pusakphydyydvlmvnnbbMMvMq86pp60r797<>>,:>:;;%=7:r<$&3;2efkpapk",
"lfffrwhpescldgvvvgdjytyBMBcy0ldgs:<<7,&%:>3<:-%%77ye,rk;,pxlpapp",
"fppkhtfs0igvdmbmcjddvBvMbByyyrNbq868w,>%>:<7:--<6wejhsn,=efhfkpp",
"gesklhksqggmgmmBNcvcmNNjccdblvbdgidsr<:&,::73,-89ewyhhlp3eflklpp",
"lpsgfss0<yscgcbbbcvlvMtr8MjvjylMvdjyr83>-,<4,66e78rrpfzxufVNgflk",
"nflls0p0<0sjgccvvjyjyjjrwNlMcbBBcjvje94>>7<wrp39wwrappfkufxNlfxl",
"lsngfhsy7wsysfMgcyytjjvyhyvvdSMyjjjvr8re<79rryrephahpkffuxVnxgnn",
"clnffsr9<3rhddjgjyyyjtjzs0vldVjylvvMt8ew<wrrryjhshazpppfkxBlflng",
"VBvvhyr7<weryeyje69erzzyqdjztlj8jyyvy8wrrhhrhhjrdzflrehlxNMfjzlM",
"vVvvjr9w<<7w:<0re,3pkzlrrjryr8870drrt7wwrrrwhjlslBnlfflZMnMffjkN",
"vvvvhyww<<<4<<<57<wzhkhdtywrydjh8yyhj7reseryjhksfVNNlvNZvvdvvjhv",
"vvvjtre<><677-:r<<rlrzjrjy8yljllyyvvl8yrysdssphsslnndslllhslvvjv",
"vnNzae<>--:<<-<5734rshsyhjyyvljVCMNhzhs7ps09kgnngnvdsfddss0dvvcm",
"mBNze,,,>%=:><75e62wryyrljtyNvyZDBMzZNhrs30hllnlcmnssssry9djvcbB",
"NNkh44<>,,,,<<<507<wrr08shjjNljlNNNZBSNNlssmnnlmlnmlsssdr79yggvm",
"vMaearw42,<<7<><,6,ere5qMjlfvlvsvSSVBNvBlflnzlkfsllnldgss79yvgvv",
"jjhte4e42>>>:<<<7<2wwrwqjlvlvlngNbBSnlvvjfflgkppppulpfss7,sjzjkM",
"sshr4e443*>><<<<1,,,:ryskskdsjvlNBvcvmNstahhpeup990fp0p037ykkllv",
"sre4<3>=<>><:7w76-;<rshhhahrrflvhNjMSvle4pppfpssplfkepggs72hhstj",
"rre3,3,2,=>3,<<w3<<<7rspeethsjjkshlvSMhrpphpgfgklllnglglf3ewrwey",
"ere33<,<,><>3w<440737rrrshkkssssdhlvvvllaphslggfllnfsnslvhhwwr8t",
"97733<,>>223w<47e8:2eppffheksrlvldvvvvMhklhknzkhllglvvjvllyewewr",
"09rs<<:,,<we<77e7072azhkkjflrrllvcvvvjjhnklkBNssfkzmmvNvvMh3476r",
"rg0r97<<,><8wrerephheaagjhzkssvlllvvlsvvnBvvlfhssklnZlMMMMa44<7s",
"is86<793<;2rhhttett<,tyqsdrsthhhcjtyjyyBbMBvyyyyssvNMNMztzze4,,8",
"y0r91,999:<rtrt8yrvr<ry8qgsreetrjty0yjymvMBmBvMyfhvlltjttxr3,2wr",
"139s98qq6778jyerteMr4rwy0vdswet88yyyyvjyjbMjtybMjvvjlthhzt34<6<<",
"06s888sq7777ssvr8yMt,rwe0rs0<rh97dccyvbcjyyytcjMvnvstje<ee,,<738",
"080;799s93,7ysdsryMM24w3rhzCrrr80dcybbbMvcddbjjjvvdy78w<p7:,43<0",
"0i0:6:0087<wrhyhrjyjwtCCNNjhtrd0qqccjbbbbdbdMjyyjsyy8<7779r>=7:8",
"72;-7237r8<30hpswyhzjhzMzzt8wwr<<iccbbbBbcdjyye5rsr867rrrp3626;:",
"09:7,,309333787yw5wye3etrwrr5rs0:ydgjSBbbyyyytt4sr807ere8e;,4w%%",
"<5-::3w8077<58r8rqyy08rtrrwwrrs0:qgcmSbccyyyyyrwryr0w5w8w::%4,*#",
"-;->>3wtrr5:5e0w00880ytyttww6y8<:8qvgvyjyyyq8yt5<tyy77ws:%r7;@4,",
"<8:<<<wrryw50ye33:70r07tsrrr38he560gjcyvyyy088yytrre7r37,69%%@4&",
"<98wwr8wryr87w737787yy0tr9s83787<5ydyyytt8008wtth7>8rjp>%;::%$%#",
"977w8r54788575>53<:<q0l8qr735rw<550ty83ww777r0rr4wre8zr:;;6+0:;,",
"55<7wew5w755<555<::<dq09<6<9088::5;558<09:<00y7w<are993r760867<<",
"337rre87575:<55>--,6807r<9e88y7w::<<5>57-655:61;>::8q907060q5<6<",
"4w443<757:::88q:%;<-,<8sy0ygyr885w85:>788r8;#:->&:;qq80-16803<,4"
};
