/* XPM */
static char *result[] = {
/* columns rows colors chars-per-pixel */
"64 64 207 2 ",
"   c #5C544B",
".  c #64594E",
"X  c #75624C",
"o  c #6B6156",
"O  c #66615C",
"+  c #68645C",
"@  c #746659",
"#  c #7D6B5C",
"$  c #7B6856",
"%  c #7E705A",
"&  c #6E6D63",
"*  c #6B6F6B",
"=  c #666B66",
"-  c #736D64",
";  c #7C6E63",
":  c #756F69",
">  c #7E6E68",
",  c #6C726B",
"<  c #6E7164",
"1  c #717166",
"2  c #7A7266",
"3  c #75746B",
"4  c #7C736C",
"5  c #7A7A6A",
"6  c #7C7673",
"7  c #7D7A74",
"8  c #767D7B",
"9  c #7C7D7B",
"0  c #757673",
"q  c #6F7572",
"w  c #89745D",
"e  c #917C5F",
"r  c #866F5C",
"t  c #816F62",
"y  c #837365",
"u  c #8B7663",
"i  c #8C7A64",
"p  c #83746B",
"a  c #837A6D",
"s  c #8C7D6C",
"d  c #887867",
"f  c #927C65",
"g  c #917E6B",
"h  c #837671",
"j  c #847B74",
"k  c #8A7C73",
"l  c #837E7A",
"z  c #8B7E7B",
"x  c #887772",
"c  c #917E76",
"v  c #7C827D",
"b  c #8D836C",
"n  c #948365",
"m  c #94826C",
"M  c #99846E",
"N  c #94896E",
"B  c #9B8C6E",
"V  c #9C906E",
"C  c #858376",
"Z  c #8C8274",
"A  c #84827D",
"S  c #8B837C",
"D  c #8C8A7D",
"F  c #8E8976",
"G  c #938474",
"H  c #998573",
"J  c #958A76",
"K  c #9B8B75",
"L  c #93857C",
"P  c #99867A",
"I  c #948A7D",
"U  c #9B8C7C",
"Y  c #9D9272",
"T  c #9E937E",
"R  c #A18D74",
"E  c #A28D7D",
"W  c #A59175",
"Q  c #A3917D",
"!  c #A9957C",
"~  c #AC997F",
"^  c #A5997C",
"/  c #7A7E82",
"(  c #7E8484",
")  c #858483",
"_  c #8C8582",
"`  c #858985",
"'  c #8D8A84",
"]  c #89878A",
"[  c #858B8B",
"{  c #8B8C8B",
"}  c #82868A",
"|  c #928683",
" . c #948B84",
".. c #9A8D83",
"X. c #948D8A",
"o. c #9A8E8A",
"O. c #988783",
"+. c #8C918C",
"@. c #8E9186",
"#. c #949184",
"$. c #9C9285",
"%. c #94928C",
"&. c #9C938C",
"*. c #9D9A8D",
"=. c #99998A",
"-. c #8B8E92",
";. c #8D9293",
":. c #939493",
">. c #9B9592",
",. c #959995",
"<. c #9C9A95",
"1. c #939699",
"2. c #969B9A",
"3. c #9B9C9B",
"4. c #9A9798",
"5. c #968E90",
"6. c #A18E83",
"7. c #A08F8A",
"8. c #A39485",
"9. c #A99584",
"0. c #A59886",
"q. c #AB9A84",
"w. c #A3958B",
"e. c #AB968A",
"r. c #A4998D",
"t. c #AB9C8C",
"y. c #B29D86",
"u. c #B29E8B",
"i. c #A29692",
"p. c #A49B93",
"a. c #AA9D93",
"s. c #A29D9A",
"d. c #A99F9B",
"f. c #9CA195",
"g. c #9DA19C",
"h. c #ACA18E",
"j. c #B4A28C",
"k. c #B9A58E",
"l. c #B5A48B",
"z. c #A5A295",
"x. c #ACA295",
"c. c #A4A29C",
"v. c #ABA49B",
"b. c #ADA99F",
"n. c #B3A494",
"m. c #BBA793",
"M. c #B5A995",
"N. c #BBAA94",
"B. c #B2A69B",
"V. c #B4A99D",
"C. c #BAAC9C",
"Z. c #BDB19E",
"A. c #9C9EA1",
"S. c #A19FA1",
"D. c #9DA1A3",
"F. c #A3A4A3",
"G. c #AAA6A3",
"H. c #A5A8A4",
"J. c #ACAAA3",
"K. c #A3A5AA",
"L. c #A7A9AB",
"P. c #ABACAC",
"I. c #A9A7AA",
"U. c #B1A6A1",
"Y. c #B3ACA4",
"T. c #BAADA3",
"R. c #B3ADAA",
"E. c #BAAEAA",
"W. c #AEB0AD",
"Q. c #B3B0A5",
"!. c #BCB2A5",
"~. c #B4B1AB",
"^. c #BBB3AC",
"/. c #BDB9AE",
"(. c #ACAEB1",
"). c #AFB1B4",
"_. c #B4B4B4",
"`. c #BBB5B3",
"'. c #B5B8B6",
"]. c #BCB9B5",
"[. c #B4B5B9",
"{. c #B8B7BA",
"}. c #B6B9BB",
"|. c #BBBCBC",
" X c #C0AD98",
".X c #C1B29E",
"XX c #C1B3A5",
"oX c #C1B7AB",
"OX c #C4BAAE",
"+X c #C1B8A7",
"@X c #C1B7B3",
"#X c #C2BBB4",
"$X c #C2BDBB",
"%X c #BEC1BE",
"&X c #C3C1BE",
"*X c #C8C0B5",
"=X c #BCBEC1",
"-X c #C1BDC0",
";X c #BEC1C3",
":X c #C3C3C4",
">X c #C9C5C4",
",X c #C3C5C9",
"<X c #C8C7C9",
"1X c #CBCACB",
"2X c #C5C8C8",
"3X c #CED1CF",
"4X c #CBCED1",
/* pixels */
"* j S A A S A A A S D _ ' ' #.#. .#.k 2 a S F G G G F g m I 0.0.w.r.p.h.r.p.*.A ' o   . @ v A ' _ A D C 3 7  .C & + + + 1 5 Z a ",
"o P T I I J J J F I #.I $.$.I I P d $ r # J W W ^ J g e f R q.q.0.t.x.^ Y J J Z A % X X b I #.#.#.I I T C 7 $.$.5 < - a b s Z d ",
"2 U T T I J m T G F $.$.*.$.T J g g i J S T q.h.h.a.E M M W q.t.h.x.q.W W Y K P D d e i b *.r.r.*.$.*.r.$.T $.r.C 3 2 Z b G Z a ",
"7 8.$.*.*.U s 8.J U r.8.t.U P J H J P w. .0.M.v.V.v.u.E R ! y.n.q.! ! q.W B Q r.' J N K N *.z.z.p.z.z.p.z.h.t.r.D 7 7 C L $.U F ",
"C r.x.v.t.$...x.h.0.x.a.r.0...M M U E r.$.x.Y.E.^.Y.v.a.0.u.y.j.! ! q.^ W V R U X.U m R 8.8.8.a.z.z.c.c.z.p.t.z.' j j Z F $.J $.",
"&.v.b.Y.v.x.0.b.z.r.p.r...t.e.M u g 8.r.X.i.!.`.!.Y.Y.V.B.n.y.n.~ ~ M.q.Q V K m D &.P U E T 0.t.t.t.a.p.p.t.e.P j ; y a L $.T $.",
">.!.!.R.^.Q.x.Y.v.x.V.B.r.M.B.U f R t.z.' r..X X^.^.^.!.!.n.t.! ! u.!.^.n.q.0.J  .z.B.u.M.0.0.n.b.x.t.&.z.B.0...I Z m P U 0.0.z.",
"3.&X].]./.~.Q.V.Y.B.!.B.a.Y.B.H M r.x.v.%.J.@XoXOX/.*XOXN.l.l.u.y.l.N.V.t.x.x.p.S d.U.B.B.n.e.oX*XXXC.V.V.V.a.n.r.J J P 8.t.t.V.",
"%.~.R.W.P.~.Y.v.p.r.v.v.v.J.v.8.i.v.G.F._ <.G.G.G.U.E.E.T.T.M.C.M.j.^ 9.t.a.r.<.l o.v.B.d.w.o.v.R.B.B.v.t...x.v.t...J I $.$.8.z.",
"$.r.$.=.I $.L ..' %.' '  .k k z L O... .>.S.S.S.s.d.G.S.S.G.s.) _  .O.| F L G L X.U U s.p.d.a.a.i.J ..$.0.0.p.v.G.a.r.$.0.0.8.*.",
"N.N.l.M.k.M.N.Z.C.#XV.G.`.Y.a.d.U.v.a.z.U.B.B.B.T.B.C.B.B.U.T.<.G.a.w.8.T U U I p.o.P $.a.N.XX.X.X.Xm.9.N.k.n.n.b.n.j.t.9.l.k.l.",
"N.N.k.k.N. X.X^.^.OXY.v.`.$X:X$X&X@XR.R.R.E.Y.XXE.Y.T.T.XXT.E.<.a.x.p.&...U J G 7.i.P U e.e. XOXOXXXN.m.k.l.M.x.n.v.z.u.9.l.h.j.",
"k.k.l.k.l.m.V.N.n.m.Y.G.{.-X$X>X:X2X&X$X|.$X$X$XoX^.XX!.T.T.Y.p.8.$.=.$.$.T U P O.a.w.E q.u.9.u.XXXX.X.X X~ t.v.a.t.t.9.e.h.q.k.",
"0.q.9.9.y.0.q.9.~ q.a.P.=X:X:X&X%X2X2X|.|.].=X=X'.].`.$X@X_./.i.8.Y Y =.*.$.U $.6.w.i.6.9.t.q.E u.C.+XZ.k.l.M.B.a.w.0.E U 9.8.Q ",
"8.8.e.0.0.0.q.q.q.q.v._.;X{.].|.%X%X,X;X|.}.|.|.'.].|.1X:X=X,Xs.T I B J I $.$...w.w.i.i.8.q.y.! W q.V..XC.N.n.n.e.9.9.6.U 8.Q E ",
"8.r.e.e.0.0.0.! 9.Q ..L.;X|.].|.|.;X;X,X=X}.:X|.{.$X|.-X].~.R.:.$.^ J J J $.&.U I ..i.8...E ! q.W Q q.C.XXT.B.a.y.8.E R U Q 8.0.",
"=.#.&.%.$.$.8...L L p ] F.A.S.s.A.L.F.K.D.S.D.F.S.s.3.S.r.U ..l ' k F k 5 j j - = : S _ | D #.L L L z L >.d.:.>.i.&.&.$.%.&.*.i.",
"R.G.<.(.{._.~.;X]._.[._._._._.E.R._.R.G.>.' >.4.>.| X.s.p.p.d.o.&.o.o...z z h h z O.U a.z.x.R.W.P.I.3.G.R.[.L.=X}.}.}.}._.}.|.].",
"^.E.s.^.#XI.J.$X$X:X:X:X:X>X:X&X$XR.E.E.G. .d.a.&.d.d.w.i.o.E 6.x.p.$.w.8...L Z _ e.y.N..XXX/.].$X#X>X1X$X:X<X,X%X;X;X;X}.}._.].",
"`.`.G.E.E.R.].].].$X$X-X&X$X#X#XE.E.Y.E.R.| a.o.i.B.e...e.6.U w.i.i.&.&.&.X. ._ _ 8.y.m..XT.^.*X$X$X>X1X:X,X<X1X;X;X;X|.}.%X|.|.",
"|.=XG.U.^.`.@X].#X@X$X$X-X@XE.^.E.E.E.E.`.X.0...i.v.8.U E 6.i.i.r.w.i.&.o.O.' _ l 0.q.N.C.XX#X].$X$X#X3X>X1X1X<X:X}.;X=X;X2X%X:X",
"-X=XU.U.`.T.E.].$X#X].@X`.^.E.@X@XE.E.`.`.] U c a.a.7.6.E 7.w.r.r.i.e.&.L L L j k 6.e.N.!.!./.&X:X&X&X3X>X<X,X=X;X).;X=X;X2X:X|.",
"-X-XS.@XE.Y.U.T.T.U.T.E.^.`.@X$X@XE.E.`.[.X.R g a.a.6.U E w.w.8.w.w...I L z L k S ..a.B.C.^./.|.:X:X>X4X1X<X:X,X2X:X}.;X:X2X:X:X",
"=X=XS.`.oXB.Y.T.E.Y.E.E.E.E.E.@X@X_.{.|.[.o...g e.e.6.E U i.i.o.i.w.6...G L L x Z U e.M.M.!./.%X:X:X:X2X1X1X<X<X,X=X%X2X:X;X;X&X",
"-X;XK.{.oXU.U.U.U.E.E.E.E.E.`.].@X=X-X{.{.X.6.g u.x.w.6.R w.i.8.w.e.6...P L L G j U e.x.Z./.].$X=X=X-X,X:X-X{.{._._.;X:X&X&X;X:X",
"-X,XS.@X`.T.U.B.U.@XE.^.E.`.`.^.`.=X=X=X[.:.E g u.B.e.6.9.9.a.e.w.r.0.w.7...P S 7 ..t.x.V.Q.~.].{.=X`.=X=X|.|.'._.'.;X;X|.%X:X,X",
"=X[.1.I.I.d.G.Y.U.R.E.R.U.U.R._.).).=X[.(.] 6.E a.s.r.| ..U i.i.r.&.$.&.$. .o._ : j ..r.x.F.G.P.(.(.(.).[.).[.).W.{.=X|.[._.}.}.",
">.s.i.i.v.i.s.v.d.s.5.' :.S.I.I.I.S.4.4.s.&.O.7.<.F.S.A.:.j a y y h k s x j h Z 5 S j _ C ) %.4.S.3.S.S.K.(.K.A.:.8.&.>.z.3.F.F.",
"v.w.t.V.V.T.E.N.V.z.r.i.c.[.=X'.@XR.a.e.a.r.w.d.Y._.}.=XL.F f i f f m m m U W ^ q.n.x.T.a.5.p.i.p.e.p.d.S.`.`.{.s.U ..8.p.c.c.v.",
"G.a.t.V.B.C.!.C.Z.a.w.a.G.[.|.^.R.E.a.e.6.e.0.B.~._.).[.K.' G b f f e g m M W y.n.B.B.V.d.5.p.w.&.o.U ..U O.o.p.>.&.8.0.r.z.c.c.",
"R.R.Y.Y.x.C.T.C.V.e.a.v.F.L.Y.~.R.d.7.6.8.w.i.G.).L.).[.K.D I s s d e i g m U E 9.8.R ! r.>.i.s.p.w.L t r r X # X.8.0.0.$.p.c.z.",
"Y.L._.^.B.B.C.C.T.u.w.a.c.I.v.Y.d.6.6.w.i.s.R.).W.L.L.W.K.F J k Z s a s b g G H K R R R &.>.r...7.7.z # r u d P %...$.&. .&.p.v.",
"b.R.J.Y.v.n.n.x.x.0.&.i.s.i.x.a...U w.&.c.P.R.L.P.(.L.G.D.A F Z G b s d s s H K K K U M P X. .L O.c z k G m 0.a.&...8.0.i.p.p.v.",
"=.>.3.p.p.z.=.=.$. .&.=.:.X.X.L O. .X.{ { } { ] 1.{ ) ) +.v ) ( ) C / 8 7 A Z C L Z a d ; 0 6 6 h j h p x c L  .X.L L O.&. ...=.",
"o.%.P.H.H.J.J.W.(.F.F.P.D.:.,.<.%.{ %.,.1.3.:.;.:.9 8 / { ;.A.1.1.1.1.A.-.-.;.;.{ ) X.X.| $.>.o...d.p...z O.7.i.4.s.i.p.p.w.&.w.",
"v.&.H.]._.Q.V.Q./.~.J.J.H.J.c.b.c.F.c.F.L.P.(.).W.F.F.<.#.<.(.K.(.(.K.D.D.D.A.1.) k o...U e.r...V.B.a.e.e.a.a.a.d.v.p.a.e.i.n.a.",
"p.<.P.`.^.J.Q.W.~.~.J.~.J.P.W.J.P.J.P.L.L.P.P.(.P.L.J.&.$.g.(.K.K.L.L.D.L.S.A.1. .S L P 8.w.| r.G.a.i.e.7.e.p.d.s.s.d.p.d.i.t.a.",
"t.p.R.^.Q.J.Q.^.b.Q.P.Q.J.P.L.c.J.J.H.J.J.L.I.F.F.v.&.#.D ` -.A.A.K.L.A.K.A.A.1._ S c &.o.L 8.d.i.a.p.w.i.p.p.s.p.p.p.i.i.o.6.e.",
"t.z.~.`.Q.W.~.Q.M.R.~.~.P.J.c.t.c.c.F.s.L.D.c.D.L.P.c.3.&.] 1.A.A.K.2.F.K.S.1.{ _ z ..8.o.w.S.i.&.w.i.i.p.p.i.i.i.>.i.7.7.o...w.",
"e.p.~.R.Y.W.J.Y.J.P.J.g.<.:.r.%.i.z.3.3.3.3.F.3.F.K.g.>.3.>.:.>.A.A.3.D.S.<.:.:.A L ..O.w.G.i.o.o.o.5.5.7.i.>.7.7.7.7.7.w.w.e.e.",
"e.v.Y.a.c.H.b.J.G.G.c.F.3. .'  .:.,.%.+.{ D.2.%.&.<.:.:.<.>.:.:.1.A.A.3.,.&.X.{ S L L  .S.p.i.5.&.o.>.o.o.o.7.o.7.>.i.i.i.a.e.6.",
"i.r.n.a.c.c.v.c.G.3.F.F.>.+.D %.%. .{ :.' :.3.:.,.,.:.<.:.3.<.3.A.1.>.:.:.%.S D A k L s.i.o.>.X.o.5.&.i.7.O.o.&.7.i.p.i.7.e.e.6.",
"0.&.z.p.c.c.s.<.=.:.>.4.=.$. .%.=.' %.=.X.&.<.g.F.3.2.>.:.<.3.3.>.&.$.X.' '  .X.l l >.&.>.5.X.X.X.o.5.o.o.o.X.>.i.i.i.i.w.7.7.w.",
"i.$.z.d.c.F.p.w.$.<.S.F.,.z.,.$. .&.%.r.*.,.%.*.<.>.A.3.3.3.3.3.>.X._ 4.X._ ' ] 6 A X.o.4.:.5.X.| X.5.| | O.| X.>.i.4.i.i.i.6.w.",
"z : : 6 6 A 6 k 6 j 0 6 6 | X.X.l z S l _ z ) h l ) ] ] ) l v ] ] { ) ] ` [ { %.) A ) { ;.-.[ [ } ' ] ' C S A | X.5.:.X.X.O._ | ",
"l - @ @ 4 6 6 O   o - > ; h z z x h x h k k x 4 > h S D S S S  ._ { ] A -.3.,.<.3.%.-.3.1.%.:.:.:.i.*.%.&.&.*.<.&. ._ _ | z z | ",
"O...g u p S | k a a Z P d z _ _ _ z k x k h h p t k S S _ S k | | ] ] @.3.<.>.<.c.=.;.2.g.3.g.D.f.c.*.p.x.p.p.>.i.&.O..... .| O.",
" ...H u p | O.c H c G s s z _ | z z z k k x k x a s D D ..| |  .| ' ] { g.3.c.s.G.c.,.3.H.F.g.2.g.c.r.z.z.z.p.>.i.>.%.o.X.X.O.| ",
" .>.$.s d k L z c s k g y Z _ _ _ z l z x x h k y k P F | ..O.X._  .' &.D.c.c.F.c.c.c.H.L.F.H.2.c.c.z.v.p.r.<.&.>.r.o...X.5.| | ",
"| O.X.| u t c | x t p y y A ) _ z h k j h h p p u k Z z j j D X.X.{ X.:.g.g.b.b.J.v.b.F.H.L.D.D.c.J.c.v.v.c.z. .&.>.O.X.o.$.| L ",
"L S O.X.k r t _ k > t y p j l _ z x j j h p p t j : - O O 4 _ X._ :.+.+.:.:.2.g.f.<.p.g.F.g.c.H.g.c.G.J.b.v.z.X.o.>.o.O. . .| S ",
"L _ _ &.X.k > k z t d t t j _ | _ S l l k x x c _ l 3 - j S ] ) X.:.%.+.;.,.f.g.c.H.c.D.D.g.F.g.g.J.G.J.J.b.c.X.X.$. ...o.X.|  .",
"z z S S | 5.d 4 k ; # y @ - _ | ' S j j p ; p S ) D _ D X.>.:.X.>.3.5.+.,.f.g.f.f.g.z.f.D.2.3.,.<.D.G.c.G.v.z.X.O.X.#.| _ | X. .",
") / ) ` 5.:._ j l A j 7 a 4 0 l ) C 7 3 : 1 3 v 8 7 C 7 A ) ) A ] { ` @.#.+.+.%.@.#.@.+.[ ;.1.;.;.2.3.3.,.:.+.A A _ ) v 9 ] X.] ",
"D.2.;.2.L.1.-.2.;.1.;.+.+.` 8 ) v , * * * * * = : & 3 5 1 < 1 3 & 5 3 7 7 l j ) j l ) v l ) ;.+.2.2.3.c.c.c.3.=.:.,.@.v +.%.<.;.",
"K.A.:.;.;.1.1.1.A.F.2.g.D.2.;.{ [ ( ( v ( ( ( / * j ` ) A C a 5 5 a j l z ] ] z z l _ _ %.@.2.H.F.c.G.J.J.J.J.R.~.J.J.b.H.b.F.<.",
"P.A.1.1.] 1.3.A.A.A.3.F.3.3.A.2.-.A.D.A.A.1.1.;.7 9 j j 7 a a j j x a j Z Z )  .| D  .o.&.X.c.H.c.c.J.J.J.Q.W.Q.~.b.Q.Y.v.v.c.:.",
"_.S.F.F.F.<.<.g.A.1.4.:.:.{ 2.A.A.A.D.D.2.2.A.1.] x p j 2 4 p h j a j S A j z X.| |  .o.%. .D.L.b.c.b.Q.Q.J.Q.Q.Y.Y.Q.J.c.f.X.#.",
"_.F.H.F.A.F.H.P.A.A.1.} ( q ) 4.A.A.A.A.D.2.1.1.' ' %.] j a k C A j k S D j S X. . .X.X.o.X.F.H.c.J.b.c.R.J.b.Y.Q.Q.Q.V.v.*...I ",
"|._.P.W.J.~.H.W.F.F.3.;.v v [ { ;.1.1.1.1.A.A.A.' ' -.1.:.,.Z z C k k j _ _  .o. .O...&.X. .D.c.J.J.J.J.J.b.J.J.J.v.r.$.K s n b ",
"`.`.|.].Q.Q.W.J.D.D.g.f.;.2.:.;.;.1.;.-.-.;.;.f.' C ) ) ] :.' F S  .=.&.X._  . .| O.#.&.#.+.f.2.g.g.c.c.z.z.*.r.w.#.I J i e w i ",
"W.P.}.{./.W.L.D.D.g.( ;.1.+.+.} ( -.-.( / ( ( ` D ' A A S | %.X.%.:.>.&. . .o.$. .O.X. .D ;.2.2.g.f.F.F.g.c.<.<.=.T b n e n N N ",
"f.g.c.F.g.D.,.+.[ ;.[ +.;.;.[ [ ( [ [ [ ( / v v D F I  .=.*.=.$.I #.#.$. .X.X.| |  .X. .D %.f.f.g.g.f.f.z.f.<.$.^ b N V Y Y Y F ",
"@.` ' ' [ +.[ [ [ +.[ +.+.+.+.+.+.[ -.[ 8 ( C v v v C C C C C D D D L D _ 5.{ A 9 _ ' _ A =.f.f.f.c.f.=.f.=.T m Y B V Y Y N n 5 "
};
