/* XPM */
static char *result[] = {
/* columns rows colors chars-per-pixel */
"64 64 82 1 ",
"  c #271A1C",
". c #2A1D1F",
"X c #2C2325",
"o c #2C282B",
"O c #332325",
"+ c #3A2627",
"@ c #332629",
"# c #3D2729",
"$ c #35292C",
"% c #3C2A2D",
"& c #362E30",
"* c #3D2E31",
"= c #373134",
"- c #3D3235",
"; c #3E3639",
": c #3D393B",
"> c #432B2E",
", c #492D2F",
"< c #442E31",
"1 c #4A2F31",
"2 c #443235",
"3 c #4B3335",
"4 c #453639",
"5 c #4C3639",
"6 c #443A3D",
"7 c #4C3A3D",
"8 c #533435",
"9 c #513639",
"0 c #583638",
"q c #523A3D",
"w c #5A3C3E",
"e c #453E41",
"r c #4C3E41",
"t c #533E41",
"y c #593E41",
"u c #464144",
"i c #4C4244",
"p c #474548",
"a c #4C4649",
"s c #4E4A4C",
"d c #534245",
"f c #5B4245",
"g c #534649",
"h c #5B4549",
"j c #544A4D",
"k c #5A4A4D",
"l c #4F4E51",
"z c #544E51",
"x c #5A4E51",
"c c #565154",
"v c #5B5255",
"b c #575759",
"n c #5D5659",
"m c #5D595C",
"M c #614446",
"N c #634749",
"B c #634A4C",
"V c #694D4F",
"C c #644D51",
"Z c #625255",
"A c #6A5255",
"S c #625659",
"D c #6A565A",
"F c #625A5D",
"G c #6B5B5E",
"H c #705A5B",
"J c #5F5D60",
"K c #635E61",
"L c #695E60",
"P c #656164",
"I c #696365",
"U c #676668",
"Y c #6B6669",
"T c #6D6A6C",
"R c #726062",
"E c #726B6E",
"W c #6F6D70",
"Q c #716E71",
"! c #747275",
"~ c #787476",
"^ c #767679",
"/ c #7A7A7D",
/* pixels */
"ju77tt766djigsvj-6gxjidcvidsjkijikvvFjjZcidjdi6c-7tit727jiiggsie",
"7+<53q55&,qtq932.,3599q4+48qdq6926rfq79sj80q9,<2O,585ttii%559935",
"k%397dwqd6yMdqd5 23qq7q4oqqwMw8q-qjkj79sd8qyq993*2qdydtre3yyy996",
"g$*5tqt76,wdq976+%23q87;@qqqdq,6-2ffw84dv2yq97ii2<9q73,7i<rqq534",
"I-%24467i4qq442-+@+%**%;&&323>2f-24td66FcgjdkdruleirgyvKp&iiiiiJ",
"~KLms:sbFLULjFc6isaaruiuiisuuscPssixFFczissjmcl6eivcmcbl66vggsjc",
"6idggediddiiid%fNNBkdq7<%-&-&ri9q7tiigdwtddqq3-yddfdtt59d537<$X>",
"399qwqwfffydtd%fBNVVVBNdwiq92ji89wkNVVkffNyyh92hNNBhffdtfyqq52X>",
",37888qqqqqq89&wMwMfMNNMqqdwqt:,qqkfVVVNfMyNM2&dyyythyhyhhq556@#",
"+,68:%,,>>2222-qqq733q3q4955,5-,2,<<<66545qdy7@2*4r2<<er74*%%-:7",
"ccscs&:&-&:::&cPsUUmbFPbbFSjlusEcie;6l66uIITJWsbseJzazarueejeumc",
"fj7;32i662i6i96r477i766656676i7itiiidu6ssvnvjvjjzzjrec5tq7qgrrdt",
"3q2,,>4%7386fdqqq8q833%98dwq7widffkww<%#,35755q55t41<vrtghftqdht",
"4q3>,>d*3wiwwfffdqqq59-3wqwwwwwyfBNNf56#23qhhhhq9y51<zrthhthtdgt",
"432++>6&-88888qq836833&#,133438qqydwwqi#,,8q95953r3>>k4t9rtr4rr5",
"r&2--46-+666sdi-644iiu6&66;6,ijs-jkiugs4eieiirirrrzaaszLKL!j=zze",
"s,696qd64qqiqddiv6ir64q47qq7if77KtrtSjrttzxnnxva452rt5rtrjktrjte",
"&3f7q8qwf93wwfwqiqq987q33333q88iTtr5rtrrr5ttq744>1><11398rtyttr*",
"%2wwfqqqw38qffMi378277724q977qqfLt55rrrtr5trrre42<1339t9ttyytt53",
"%,q83,38,2,,7378-,33,2,,3,337937L<3<<1*22<424<&&2333335593t9943r",
"j6fjjd>;2424q426vvvSvvZcddjivccv^YYYLKSzzskpiaee**44e5r;txrkxtgz",
"IFFUUTFsdsjsF!bskvjjjFFscjkijkkztvxxkkEzvvvxjjzgertre4sjvLzLKSJj",
"337,,qc,33336di3333*>,j,93,q83891ttr34v*>1t53235ttr1>>t455r9tytt",
"9q983fv2q689qiiqqi9-,3b,wq698q991yt59tK531rttdyttttr4rr5ttytyhhy",
"3qq88jZ,q87qqq6qq43>,4c,qq8833855t5553L41535qhdd9tt5<2t35qtyyfyy",
"27998kv47674,632qq226vz--2444q77rtrtr5Qn*2575t54<<<22*j29995qt3r",
"PTUTE~TTETEUjPLibUFbJFUciszvvIWLLETYLKWTIPUUmmTmncvKneKe-mm;izaz",
"efrrdd767766:=u;,>383,i67q8q3iU6<<54rtgrrr7572nett7r5ttqqt9535g4",
"8qq8963,,332-$e;,,,83,3qq85333kq55555rt955757<i5thq99w9yyq991>t2",
"qqqwq83,,274*&&+83388888343,,,gyq953t5533333>%4<q9q919wyyy9tytr3",
",,,,,,++*%2>&+e:2-3>-26,,,,,<,j7011>3<1>>><>##r%333q<111985tCNg5",
"SFFSFbkczsbFFEUbvisvs6ivlscbcmQ!LxKnxzxggvx6iiFgige4jjvigrxesKmz",
"GQTpagrrdiUPvSnnjdz6rtrtrtKmhkCDnhxu7r66rijlczxnvtKjrrretxLszSZx",
"Sxc4<25774vjhhfhhdS2>1111>L531tt91d2<<>#<<e@rrrr4rTk1><<4tZ:rLDC",
"RDv35qtr77jqdMBBBBG5399911Lr5yyyq0k4>>23><e&rtttt5Lt3>**25xaeLGD",
"GDv5qq99qqg79qdytqZ1>1111>C31yyt0wC*%>>%><x*5rr9hrzet1><<5xe2CDC",
"kkU4rr5gddg7d7rrikn75r5r3tT4rtrtqqze7466raYe46u4Lna=-*$2*rze@rjr",
"FvPmnzjzmncjcmUPYEncKKnSKLKnnYnFmSnnJmIPPKmnblnnKjlraaatzzzzzzzt",
"33723r737335*ee>232%<<<3313<rtr,<115ttt<3<+<6-222*rrr5trrtykyer1",
"79q5t9qqq7qq34->23323355t7951C1><1131t5373<<%4%><4r545ttt3tytrr1",
"15999r9973552=2>3735537trrt1rCr,1181393359>>%4##1trrryrtttrrtr>1",
"25r22<256--6;u4<3d572447ertrtvrr3313353395>>+77+<<1reyre<><errtt",
"zaabvjalPcsccKKKYFKTPj;pe^YxnWJUP!jgncjYPIPKFUImxFlJz;:etcbm^Q^Q",
"grrgtered746-6ei7e4jJ;7rrrtttyrykgghKujkhkddfhkdyyttneyCmttzrySC",
"3951e<<5313<<35313<<p%1<r#181t11318qZ@3831,,8,88t81yt*twNyy>rrt,",
"333<<313331138qq7q934293t<tty1tt3999Gp#888,883,,1381e$tyCMytrr,,",
"11<<<>11<1>>13391351g<111>#,,,r11181SsO803,8881,88yy#$tyytr,1r,,",
"-22er42r47454rdgdtggFa56tr<rt>redd%<P!u2>>d3<5dkykSCneeyrr<errrt",
"xxkxykkyzkyyKzvSCCFCnKhyCCttKrtbSYyxYYLytrvnKSYIKQ^KTLY/^Q/!/KKK",
"958r8tyttt8,r-<>11<t1ytyyhtrttyytBChytttCytyeyywyMByyMyytthCrrtt",
"1ttytyyyttt,ree>101t1ttyttr1ytt1tyyyyttrtt8y*ty0Mwy0808090yMr358",
"18888r8988,>r>53t00ttyy811,,y,,rtytt1r3113ty#ryyMwwy0088y0MMy1tt",
"3<e3<312r1<<x*<<55<r3rrttttttett1tr1r1rr<<r<*e1r88<991,8ytyykr8r",
"vKKJvJJJSnKnTnzrretrx;=zFSYQyetnrrSKKJ!/eornPDKDKtejKvjKmr;rnzxt",
"jSJzserrrrrrertt<45rro4ttttttryyyttyxxDZCCyChhChhxLCCrskyntztzkS",
"yryke*r31r>1,>et<%<%rO5tttttttttttrtryyVCCNyyyCyttyBB@ryttxyyytB",
"ttyre*rttee<1>,<2<5<;Otytttt9ttrrtttr1wBGDNMyMDCytyCxXttyzyttttt",
"*rtee#<r3>*<<e1<%255* 55t8rt139t,,1rterttCCyyyDytrtttotyretrrerr",
"rrrrterrtreblteJnrenn:rgtrrzDnDnnJreezyKeeee;u:eSxKnzelnPntmceee",
"=eeerrrerbeeeertgr4rggrgztnlrrtrtree-rrrrrzxttrrtrtzrrznSPJJJtee",
"@@*%<***$%$>e<r1552<rr4<*ryr<<<3r<%%*#%<*rtrtyttr<rtetytetxt-e%%",
"%@%**%**=*ee>errr5trtt*42<tlr2rr3er>ee1e*<rrttttrtrytCSDytxz=***",
"*$*$$e**%ee@>rrtrrrrtretrrxgr<<rrrrrrrr>eerrrtytttthttyyttynee**",
"$@=--$-**<-.#ee>eztrzzzrtere=ete*@tee*rrrtcm*ertytttrrjrertz$r=;"
};
