/* XPM */
static char *result[] = {
/* columns rows colors chars-per-pixel */
"64 64 118 2 ",
"   c #575858",
".  c #595A5A",
"X  c #646364",
"o  c #67676A",
"O  c #6C6B6E",
"+  c #6E6D71",
"@  c #726F71",
"#  c #747273",
"$  c #7A7574",
"%  c #7B7977",
"&  c #787779",
"*  c #7C7B7B",
"=  c #827B77",
"-  c #837E7A",
";  c #897E7A",
":  c #84807E",
">  c #8C827D",
",  c #848383",
"<  c #8B8684",
"1  c #868986",
"2  c #8C8986",
"3  c #87878A",
"4  c #8A8788",
"5  c #8D8B8B",
"6  c #948A85",
"7  c #928E8C",
"8  c #95918E",
"9  c #9A928E",
"0  c #8F8F90",
"q  c #938F91",
"w  c #8F9192",
"e  c #959393",
"r  c #9A9693",
"t  c #979894",
"y  c #9C9996",
"u  c #979699",
"i  c #999699",
"p  c #979998",
"a  c #9D9B9B",
"s  c #A19694",
"d  c #A29B96",
"f  c #A19E9B",
"g  c #AA9F9B",
"h  c #9FA09C",
"j  c #A4A19E",
"k  c #A9A29E",
"l  c #AAA89E",
"z  c #9F9EA1",
"x  c #A19FA1",
"c  c #9FA0A2",
"v  c #A5A3A3",
"b  c #AAA6A3",
"n  c #A7A8A5",
"m  c #ABA9A6",
"M  c #A6A6A9",
"N  c #A9A6A9",
"B  c #A7A9AB",
"V  c #ADABAB",
"C  c #B1A7A4",
"Z  c #B2ACA7",
"A  c #B1AEAC",
"S  c #B9AEA9",
"D  c #AFB0AE",
"F  c #B4B1AE",
"G  c #B9B2AE",
"H  c #AEAEB1",
"J  c #B1AEB1",
"K  c #B9AFB0",
"L  c #AEB0B2",
"P  c #B4B3B4",
"I  c #B9B5B5",
"U  c #B7B8B7",
"Y  c #BBB9B6",
"T  c #B6B6B9",
"R  c #B9B6B9",
"E  c #B6B9BB",
"W  c #BCBBBB",
"Q  c #C1BEBD",
"!  c #BFC1BE",
"~  c #C4C1BE",
"^  c #BDBEC1",
"/  c #C1BEC1",
"(  c #BEC1C3",
")  c #C4C3C3",
"_  c #C9C5C5",
"`  c #C7C8C7",
"'  c #CBC8C6",
"]  c #C6C6C8",
"[  c #C9C7C9",
"{  c #C6C8CA",
"}  c #CCCBCB",
"|  c #D1CDCD",
" . c #CFD0CF",
".. c #D2D1CF",
"X. c #CECED1",
"o. c #D1CFD1",
"O. c #CFD0D2",
"+. c #D4D3D3",
"@. c #D8D6D5",
"#. c #D6D8D6",
"$. c #DAD9D7",
"%. c #D5D7D9",
"&. c #D9D7D9",
"*. c #D6DADB",
"=. c #DCDBDB",
"-. c #E1DFDD",
";. c #DEE0DE",
":. c #E1E0DE",
">. c #DEDFE0",
",. c #E1DEE1",
"<. c #DFE1E0",
"1. c #E4E4E3",
"2. c #E8E7E6",
"3. c #E9E9E6",
"4. c #E6E5E9",
"5. c #E9E7E9",
"6. c #E7E9E9",
"7. c #EBEAEA",
/* pixels */
"v j Z m m y k h b k m I ~ ' } ) k ~ } V t y 2 y k l k f d l m 9 k b b n n m r n ! m j t j Z D k v m ) N E +.O.H ( V e R I f n k ",
"j j k k n t y 8 j m v ) } +.' U y Z ~ k y t 8 r t y d 7 y b b 9 k v V m k P k Y ! Z h t n m j k n F E v P ` } ] } W v _ A f v v ",
"l j h D D y 8 t v Y P ) +.=.~ ~ y Y } m 9 t 9 y 9 y y 8 d l b 7 v v v v j n a Y ! D j 9 Z V m Z b ( V H V V ) V n b H [ V v k n ",
"y n n U D 8 5 8 h v m W  .' F U t Y Y f y t r y 8 8 t 7 d l k < r F ~ n t d f F F U y 7 m m k v x ( w z A E E L f n V E h k f t ",
"k j D m D 8 : 8 v j k V m m P D 8 P ! n j t 5 > > > d 9 j k b 4 t U ~ P y a f F ~ Y t 2 b l 7 j t ( 5 5 L ( E P v h c V e t y b ",
"n h m F F t % 1 h n m F n F U n < j P j y t 2 $ # > 9 y k j d 7 y F U f r j y P Y m t > b n j k a ) & @ w B V U v c a i 5 8 t m ",
"v l V W U w # * p k v m n D Y ! f ~ ~ k j 8 7 < : 6 8 9 s h l k y l V n y 9 9 m I F y 2 k k a v v c X   X 5 y a c a T e q t k k ",
"m v V P P , 1 1 p n m n m D D P t ` W j j 8 8 m F ! G m m l y v F F V k b v F Y W n y k a j f f V h X o   & 5 z v 5 u e 3 t a j ",
"m n ! ` E e a , a T ` } U D D V r A V l k 8 8 ~ 1.#.' W ) Y E / } O.P W _ Q [ ....~ W :.Y r v f u v O + o * u 5 e u u x x a f v ",
"V V V I f 2 r i E ( Y }  .I n v a m m F v 8 9 } =.#.#.I I Y ) } =.X.Y ..| _ | ..=.=.} :.I r b n V - $ O o 5 v a v a n a j n n m ",
"l n d b k 7 7 f a a P W I y v v y Z F m n 8 6 ..:.;.@.F Y ) | } =.+.) +.-.+.@.$.#.=.#.1.#.e v v t % $ # # , t y a 8 y r f j l d ",
"m b l j j 7 7 f V h b A A V v k y m m m k r 7 ' 3.:.$.E _ | =.=.2.=.o.=.1.@.+.-.=.:.3.:.=.i J J A , & # # : $ 5 x , 7 a V V v b ",
"m m V y Y y 8 y l m Z D A V Z n j n G F k 9 9 I :.;.@.! +.[ @.-.1.} @.+.1.+.@...$.:.3.;.3.n F Z N y = , # % # q t t y D I b f y ",
"k k Z P P n t f n V F G F m m l h Z U Z A l j F 1.1.#.I ) ) @.=.-.) Q ,.1.| ' +.:.-.1.3.7.F A m b V < , , , 1 t r a F F P F P Z ",
"y y l P W k k a D D U G F Z m l y m I I k r F ~ 1.2.@.W _ #.[ } [ _ Y ' +.| ..$.+.:.:.2.2.k m n b V , = , , : , k j m V m b b n ",
"v j l n F y t d n F G G U P j a t Z G G C 9 F _ 7.1.1.} Y _ ,.,.=._ / | +.' ..-.@.-.1.:.7.A r k h y 4 < 5 r 8 t v j A F v j k f ",
"n j j n F d t j k A F Z V P ~ G h l S S G k Q ~ 2.1.<.=.+.*.@.@.&.[ _ ' :.| | ' @.@.2.:.3.$.2 8 2 y 2 2 : 8 2 t n y 5 9 a y y j ",
"l j j l D 8 8 j b m F d F I U m j y S s k k l ' 1.<.<.#.;.6.=.1.,.o.| +.-.' @.@.=.-.:.2.1.@.: 8 < j t y 5 y t y k f k f y t y y ",
"k j j k Y 8 8 y m l A l k ' ' ~ Z s S Q g C l @.1.1.1.=.=.1.=.:.-.$...-.$.' +.@.:.1.:.:.3.$.7 V 0 l y 5 < 8 a d y j m l t t k D ",
"v v A F Y j t k n t d Z F j y ~ Z > 9 9 s S Q -.1.2.1.=.=.=.@.=.-.=.-.$.:.=.-.$.:.:.3.2.1.1.r b h G n y 2 8 8 8 k v b j y h V b ",
"n m n P F h h j A k 9 9 8 9 9 C 9 > g d Y ' / -.2.6.1.=.$.-.=.$.-.| _ +.| @.-.2.1.:.2.1.1.2.r f l m m y 8 t t 8 t y h j 8 j V n ",
"k n l m F y y k Z n 2 F $ ; 9 Y g > 9 C S _ | ,.4.2.1.1.$...@.=.$._ Q @.Q Q ' -...2.3.2.-.+.b k v m m a 2 7 7 y j j k j 8 j m m ",
"n n n V D h t y n ; r f 6 b F k g 9 s s s g -.1.2.3.2.1.:.+.@.:.2...| $.[ ' | $.$.2.2.2.&._ f u h D F l r r i h l n l n l y f v ",
"D W W p L k 9 y t f j k ' =._ _ ~ ~ ' ' C S | 1.:.:.:.2.@.| +.+.$._ I | ' @.$.-.=.2.3.3.-.x y s n D Z n 7 r v i y l j D a y j m ",
") v ) L n r 2 8 y d b b I Q 9 g s > d S S Y [ 5.1.;.2.1.-.@.@.$.-...' @.+.$.-.-.1.1.2.1.7.S 9 6 P S b k x N A K b Z R N Z Y N x ",
"n 1 ! h h j = - 8 r g r g G 9 6 g k g k f S _ 2.7.1.2.2.:.@.=.=.$.[ | $.+.$.$.-.:.2.1.7.7.g s 7 b C S [ -.o.+.+.b y 9 b o.7.@.g ",
"V p v * e 5 : $ > ; 9 g b Q r d g C g l I d Y -.3.1.2.2.=.:.2.=.1.@.@.-.@.@.-.1.,.-.1.-.-.f 9 r b g G Y +.-.2.+.' =.K d A -.Q x ",
"p , 0 1 a j k t ; < g x | | ' Y C g | :.| | 7.7.:.2.1.1.1.=.>.5.1.@.o.,.' +.=.1.-.-.-.-.@.S r 9 f b $.| @.-.-.-.[ &.o.e K ~ I S ",
"E ( { p B U c D A m P } *.*.=.Q Y Y _ Y S 1.$.1.$.;.3.2.;.:.1.5.+.} &.,.-.1.-.-.| | +.-.&.Y 9 6 r W | ' | +.+.,.&.&./ K +.' b | ",
"( ! } } ( ( c c f k 7 ~ =.+...~ _ Y Q b I Y ) 1.1.:.:.2.:.@.+.=.&.-.-.1...$.| -.-.| -.-.=.-.C 6 C ,.o._ | | [ ,.%.o.W J Y } q Q ",
"! W } O.O.%.*.{ F P P ..=.X.} F ~ Q ~ Q S Y R Y :.:.2.1.$.} ~ ~ Y _ o.' C Q S @.-.| +.-.-.' 9 ; Q | _ / } / / 4.+.} / I | @.K _ ",
"W U ) +.;.*.%.{ I F Q ..) I ..Q S Q S I W +.Z N  .=.:.@.S I ~ _ Q Q _ Q K A Q @.-.| +.Q Q Q ; 6 Q / } / } / } 4.o.R Q / o._ N R ",
"~ n W ` %.( { P K V _ Q n I } I N S Z Q ' -.I Q ' =.=.[ V S I Y Q / ' | Q / Q | $._ x | [ Q s k S Q [ K ' | -./ R / | Q / K x K ",
"_ ) U ! %.X.} U W R / I o.X.=.=.1.+.I I W W ) ^ #.#.@._ b Q I Y Q _ Q Q S ' Q _ o._ s S @.+.s N K | _ Q / | S Q / | | o.Q V A o.",
"+. .Y ( ( L M V x H I Z I F ' =.%.) W ) o.o.E [ &.=.=.+.I S Q Q I _ _ I I Q | | | @.C S s Q K A | | Q / ' Q Q _ / | [ / R R } &.",
" .{ ) ( T D k b a v b d Z l ' _ _ } +.| o./ K W [ O.Q Q Q f Q ) S Q _ Q Q A b ' o.o.K [ K S V K Q -.| / / Q +.' o./ Q K A f o.&.",
" .) I } Q E m V Y V J J P X.=.O.} +.=.+.*.Q a I &.>.@._ S 9 P _ A W ) _ Y W ) [ | _ A 4./ N K Q Q Q / N S b Y Y R R / _ / Q +.=.",
"W  .Y Y P n m I W P I V L U +.} O.*. .O.[ ^ r ^ #.#.A I Q f / W A _ Y Q K Y Q _ o.C a [ / V P W Q / I A Y K Q Q I W _ W / _ [ ) ",
"_ _ U F P F W } ) U ' ) } ) <.*.<.O.} O.) I E } +.} V W V 3 R W P J V V K _ I | @.[ / / K T x H Q R / Q R R / / K ] ) R / [ E Z ",
"X.+.#.@._ V T U L T W W U U O.%.+.O.` ) [ o./ X.1.O.a v N 3 J ] Q J R ] / / o.,.+.[ Q / / P z K V K / R b K I W / X./ Y [ ) Q +.",
"F } O.{ ! U ! ` / E W L H L ( ( %.O.} ` ! W R #.*.*.( +.P e W / W J a / K ^ [ W / V x P Q N J H [ / } } X.[ E P R R ^ R [ / A Q ",
"F ' ( ) {  .} ` E R ^ ) L T } ( } ) W _ V P V } W } I P E H +.) R N x / J ] ) ) / V / / W b N A P Y W } X.[ Y ^ / ] ^ R [ W Z K ",
"%.+.] } O.%. .+.H z P ^ ^ ( %.} O.} ( ( b P J [ P ) H v a V W W K N P ^ W } o.o.} N T ^ N N N x b b I ) ^ / ) / [ ] ^ ^ ^ / P W ",
"W } ) } O.` X.) J v ^ ^ ( X.%.} } } { ) N P J [ } ^ V N V V } W H H K / [ ) / ) J q H / x x N V J W o.[ ] } X.X.+./ M J ] [ Q W ",
"} +.} +.} } X.W P R ) ^ E ^ +.` U I W P x W E ..T P v z H R ] T N N V R W / W [ / z V ) n v T B N P ) { / X.X.X.[ ] x H X.o.Q ) ",
"W E { { ` W ( ) / J R W W ] %.` ( ` W P V P Y +.) U N v T W E P x K N K Y / Y / / a V ) V B E H / W X.X.[ X.] [ / T A / ] [ H W ",
"P M T } ) W E P V V N T ^ o.*.%. .} ~ P H ) P U P W R M x J ^ K f Z J b K / J A / u P W v H P ^ E J [ X.X.] ^ ^ ^ ) ] / %.{ v M ",
"E v T ) W P A V v v v x z E } ) P D P V E _ F E H K v q x J N x q J R P N N x N / x x A H J H M H B ^ ^ / } ) ^ R R E ) X.X.P E ",
"^ H { { ( D n v x V v B a u ) H z u u p p t i f u v a e 1 M N r i ) / ^ K N M x / x ^ R H P T E H B ^ ^ W ^ R R J P J / / / ^ P ",
"M V ) ) ! E n v M v V L u T X.^ H 3 0 w e a c a a n v u 0 H P q x ^ J / K x H J ^ z T R N M B H P P ^ ^ ) / ^ H N V V W J R H x ",
"V H T R T P a i M V H L c c ^ ^ ^ T M z v v H ( L z p p p B P r H W u R B x V P R a N b x H H H ^ ^ X.^ W ] T P V M H T / / J v ",
"N V W ^ ^ V h v M V V L ^ ^ ^ ^ ( P 0 3 5 e a L L H B u e M L 4 x ^ K R x i z x H z N N V R T M H T / T N R H N x K J W ) ^ J x ",
"J E W ^ ^ V a v B c B ^ ^ L ^ B u 4 , + * 5 u B M c z 0 u z v r R / H R N f i x V x A C P W A A P H ^ P J W P v H H H W T E M M ",
"N V R P A a v V ^ ^ B ^ ^ ^ ( ^ M q 0 , # e 3 v z u i i y i i t R K x N M u u x x x v x b I v x T P R R R ) P B H W R E P H H N ",
"b A N x v t 7 u u c c B ( ( ( ( V 7 5 , , c i V N N z t a i r i J L R R v r a a b x V a b P v a N K Q W R E b H H W K H T R H x ",
"v b v v r q q t c u c ^ ( ( ^ H a - - * , t t n a a i r j a h e R P H R x q u e a v f a V V v x x x K J N b V V B V v v v V f a ",
"v b V v n a e f c c L ^ ( ( ^ L i , e , , , , v r 5 e a a r u e N x a W x q q q a f y e f n f v x J / T P H B V H H M z B T M z ",
"n V V N A V e t z B L B c L ^ T a 3 2 , * % & y e 7 u n b f a u P N x R V e i t t i v k v n r f x x P T T R P M B B B H ^ L M x ",
"f f n N V n a x M B L v z H ^ ^ v a H 0 3 3 w a r M A V N A v z T B M / A f i r a j V n F b f n R x H L P ^ J B H H M ^ ^ T B N ",
"v x n v J f y t c V P F T ( { H a f A x 3 5 1 a a n b M b H v a H x x / V A y e f m V v V n v v x N H B H T H H L H x L T J M x ",
"v a n v v j y k v V P I W ) / P x 7 v v q t 1 j v m F V f n f u J V z V L b y t j k n k m v j a N V K T J T W T J H N ^ P B x z ",
"j v a j b a 5 a k b Z A R R J V x b f e 5 t 2 v j r 9 j a a a u P v E P V f y r m V n a k a f k N x N H T R W K J N M K ^ x z z ",
"j k y 8 j t 8 a k n V f v R K H a f F V e e e f j j y y r t t q H z P P v y j j b f f t a y f f x N N d K ^ W B J V i W B z i q ",
"b k b m n j 8 a n v v J R ] ) T d N [ W u a h k t V m j y a a u B x B n k V t j l n j y y a f N b x K H ^ [ / x V N i H x q d N "
};
