/* XPM */
static char *_c828e09eac14bf1e059a7b8a6312e5f7JpLwAdVQr1typjF[] = {
/* columns rows colors chars-per-pixel */
"64 64 145 2 ",
"   c #000000",
".  c #0B0703",
"X  c #0F0B05",
"o  c gray5",
"O  c #130D06",
"+  c #141107",
"@  c #14110D",
"#  c #1C120A",
"$  c #1B1A0C",
"%  c #121212",
"&  c #1A1713",
"*  c #1D1C17",
"=  c #1C1C1C",
"-  c #24160B",
";  c #261E0D",
":  c #2A1D0F",
">  c #241E13",
",  c #2A1F12",
"<  c #211F1B",
"1  c #1D201A",
"2  c #24230F",
"3  c #29210F",
"4  c #252014",
"5  c #2C2513",
"6  c #2D2817",
"7  c #25221B",
"8  c #2A261B",
"9  c #2D291D",
"0  c #332515",
"q  c #3A2616",
"w  c #332A13",
"e  c #3B2A16",
"r  c #34261A",
"t  c #332B1B",
"y  c #3C2C1A",
"u  c #33331C",
"i  c #3D301C",
"p  c #242423",
"a  c #282621",
"s  c #262923",
"d  c #2C2A24",
"f  c #2B2B2B",
"g  c #332E23",
"h  c #3D2E21",
"j  c #302E29",
"k  c #2F3327",
"l  c #333224",
"z  c #3B3324",
"x  c #34342B",
"c  c #3D342B",
"v  c #393E2A",
"b  c #313230",
"n  c #393631",
"m  c #3B3A34",
"M  c #3B3B3B",
"N  c #412B17",
"B  c #422E1D",
"V  c #433017",
"C  c #43301B",
"Z  c #43311D",
"A  c #43331D",
"S  c #44301C",
"D  c #44321E",
"F  c #46321F",
"G  c #45351D",
"H  c #4A341D",
"J  c #4A371D",
"K  c #46381F",
"L  c #4C381E",
"P  c #4D391E",
"I  c #523A1E",
"U  c #453121",
"Y  c #443320",
"T  c #443321",
"R  c #473323",
"E  c #493622",
"W  c #4B3723",
"Q  c #4C3721",
"!  c #493524",
"~  c #493525",
"^  c #4A3624",
"/  c #4A3626",
"(  c #4B3727",
")  c #453B24",
"_  c #4E3821",
"`  c #4D3922",
"'  c #4E3B22",
"]  c #4B3A24",
"[  c #4C3827",
"{  c #43362A",
"}  c #4F3B29",
"|  c #4F3B2B",
" . c #503A25",
".. c #523D24",
"X. c #523E25",
"o. c #553D24",
"O. c #5A3D23",
"+. c #523D2B",
"@. c #553F2B",
"#. c #513D2D",
"$. c #423830",
"%. c #493D34",
"&. c #3F4234",
"*. c #3E403A",
"=. c #544024",
"-. c #554026",
";. c #5A4225",
":. c #54402B",
">. c #56412C",
",. c #55412F",
"<. c #58422B",
"1. c #5A442B",
"2. c #5B422C",
"3. c #5D482C",
"4. c #44413A",
"5. c #45493B",
"6. c #494E39",
"7. c #554130",
"8. c #564231",
"9. c #5A4632",
"0. c #5D4931",
"q. c #5C4D3D",
"w. c #634526",
"e. c #65472D",
"r. c #664B2F",
"t. c #6D4B29",
"y. c #674E36",
"u. c #684B30",
"i. c gray25",
"p. c #4D4741",
"a. c #534D44",
"s. c #5D4E41",
"d. c gray32",
"f. c #5D5D5D",
"g. c #635547",
"h. c #695B4C",
"j. c #786F55",
"k. c #80775D",
"l. c #897D71",
"z. c #918579",
"x. c #95887D",
"c. c #AA927A",
"v. c #8D8781",
"b. c #B59C85",
"n. c #B9A189",
/* pixels */
"@ @ % @ % % @ % % @ @ @ @ @ % @ % @ @ % % @ % % % % % @ @ @ @ @ % @ % % # % % % % & @ @ % @ + % @ @ o @ % % % @ % @ + % @ @ % % ",
"7 * < < 7 > > s p > p > = 7 < < 7 > > s s > = p p = 7 7 > 7 > s p > = 7 > > 5 7 4 7 > s p > p > < < < 7 7 4 > s p > p > 1 * < > ",
"9 t 9 4 9 8 9 9 d 9 r e 8 5 7 5 8 8 9 9 p 9 r 5 8 5 3 w 9 7 t 9 d 8 t 8 9 9 w 3 p 5 9 6 d 8 r e 9 9 t 7 9 8 t 9 f 9 t y 9 9 9 7 ",
"9 5 d w 9 t u n f j g t 9 9 9 5 r u u n f j g p s 9 f 7 s u e m f j g 8 5 9 d d a g u m f j g g 9 8 d d 8 i t c f d g t 9 w a w ",
"5 w w 5 9 8 ; o o 5 8 w 3 9 d 9 8 8 2 o o 5 7 5 d g a t f 8 ; o o 5 7 6 w y 7 7 s 5 4 o o 5 7 e 5 t a w 5 7 2 o o 5 8 w w w w 5 ",
"6 a 8 w 5 6 2 7 7 5 8 9 w 6 w 5 d 6 4 7 7 5 9 9 8 w g d 8 6 2 7 7 5 9 9 9 8 d 6 d 8 4 7 7 5 8 9 6 7 8 w 5 6 2 7 7 5 8 9 5 a 8 w ",
"6 d r 6 5 2 w 4 = 8 5 6 6 8 6 5 t 8 w > = a 8 9 8 w i d s 8 w > = 8 3 9 d 7 8 8 w 7 w 4 = a 5 t 6 d 6 r 5 2 w 4 = a 5 5 r d 6 6 ",
"3 7 7 5 4 8 4 ; 4 7 7 7 3 7 2 5 > > > ; 5 7 p 7 8 1 7 7 7 4 7 ; 4 7 7 9 7 p 1 4 7 7 > ; 4 7 > = 5 < 7 5 4 8 > ; 2 8 7 7 4 7 7 5 ",
". y w t , r t y : 0 y r 0 t y O . e r r , t 0 q 5 e 0 y q t e   . y w t 0 r y Z r e 5 , 0 r r # . y 0 0 : t e # D , r y t e r   ",
"X [ H / d  ./ Y Y y R ..| R +.# X [ B R B / B +.e / / ..Y / /   O  .H ( l Y [ ..[ A r y ( / ( 8 X  .B R B W ( q o.t r | y [ /   ",
"X  .| ( e / [ Y L y ..W | R ,.# O | B / , Y H @.T R [ ( W ( [   O [ | W e Y ] ' -.G e q  .( / r X | Y / 0 D L B L t y / 5 [ [   ",
"X | ,.y y R } / +.y | | [ Y | # O ( R R 5 N  .@.U ..| / R ..[   O [ A y Z R ..} >.C B y #.Y B 9 X ( Y D 5 N W Z H e y | e ..[   ",
"X W <.Z W / +.Q 8.R ( Q [ R #.# O / B R e B 8.[ W @.[ W R o.c   X / R Z C C } ` ` L C y [ Y D > X ( Y R H B ( / R h e ( e o.h   ",
"X | 8.-.+./ [ / o.Y o. .W Y ( # O ( R R B H ,.[ [ Q r Y Y +.{   X } e =.r Z / -.I ;.G y Y W [ - X ( R R ` W H E B h > T B +.{   ",
"X R ` ..W B ( / +. ./ o.R Y / # . Y | Y Y [  .(  .( 0 ` o...+.  X / B [ Z C E ..o.3.C e R R [ # X  .( / o.| e Q y y 5 ../ ..+.  ",
"X / / | W R ( Y +.T R H @.D +.# O / W [ D / ;.W o.+.B Y | [ [   X / B } C e W ` >.=.V y ,.D +.# X / / / o.| Y ( e z e Y [ / |   ",
"X [ W | Y Y / T @.[ Y ,.;.D ,.# X / / R R ..} Z / / q / Y ( /   + ( B ( B B T +.=.-.e z ;.Z @.# X @./ T o. .R U r t q R R | /   ",
"X / } [ B | R Y / +.( ..1.W 9.# X +.R W W [ } Z R / B L / o.|   . T #.#.B N D +.,.,.y Y 1./ 8.# X +./ R O.| U T e B B Q R ..[   ",
"+ +.8.| ( ( | D  .W  .Q 1.1.,.# + / B Z W [ [ T W / W W / Q  .  + #.#.#.( e / | ;.;.e e 1.1.8.@ + ( B B O.o.R U 0 ( B W N Q +.  ",
"O / +.+.R U y N L B R R [ ;.E # O / Z R R Q T Y | / Y ..T | |   O / #.#.( q W Q >...t y [ ;.#.# O ( q Y Q B , R e ( B o.| [ [   ",
"O | ` / H T U B L R R Y / } >.# X / B | R ( +./ ` W Y W W [ +.  O | Q ( L N / +...-.y i ( @.o.- O ( 0 ( R q , U Z Y Z / [ / ..  ",
"O ( o.R e +.R R D D ` | ..W 2.# @ ..B Y / W / W ;.` B [ / o.[   O ( o.R e e +.9.<...e A o.Y +.# + | e R Q ( U U H y B ( W ..[   ",
"@ Y (  .( R R ( D N +.[ ' Y 3.# + B B W Q D D L >.../ ../ +.+.  O / R o.| q ` 1.;.` t D o.T  .# + U q Y o.( q Y H r B ....+.@.  ",
"+ / ( @.( Y ( Q } Z O.| / [ +.# + 8.R B [ R / L } } / / | ..[   @ R / | / e ` ,.<.H r Z R Y W # + 8.B B o.B e e 4 r R o.o...[   ",
"# R Q ,./ Y B  .o.y #. .R R / # # B R e / D W D 2. .Y ( / | { s { +.T 8.( q H  .o.G e B W / q # # Y 5 B ;.B Z q I r Z ` o./ R   ",
"O R >.( | B H R ( U ( +.} R [ # # R B B Y / ( D e.( W | s.d.z.M p.x.d.a.| r o.( Q W e N U U | # @ Y N B ;.e r Y I 0 h  .1.T R   ",
"O ( <.[ Y Y B | ( e | Q [ Y | # O R B R [ L / / ../ T f.4.b b 4.M x b %.f.5 2.8.+.D q T e T | # O R y R | [ 0 T I 0 B o.r.W ,.  ",
"X D 1.o./ { B / R Y o.Q [ y [ # X Y R R +.W [ Z +.R p % d.1 l f M l = d.% s +.9...` q Y / B 8.# O B y Y / O.B T O.0 q w.t.W +.  ",
"X / ,.<./ / Y T ( B | +.8.Z | # X T R W | Z [ / } B n M *.4.j.c.v.j.4.4.M m ` W | C e T / B +.# O R R ( i +.y e ` 0 y -.w./ /   ",
"X W [ ] A E R [ B e A E } / 8.# O ( Y R } Z } Y ,.z &.p b l.b.n.n.b.l.n 1 &./ / | Z q Z R ( #.# . ( B W T [ B q } q Z ..;.+.Y   ",
"Z x y R c z m ) Y c B E c z n / B c y D c z n A i g d 7 7 %.h.g.q.h.4.5 = s d W Y c i D c z x / D c e Y c z n / i c i Z c c x Y ",
"9 5 w m f 8 8 t d 5 w n f 9 9 t 9 5 w n f 9 8 g d 2 = 1 x 5.s v.v.d 5.b 1 = > g 9 2 w m f 8 9 g 9 5 w m f 9 8 u 9 5 w m f p p d ",
"w p 6 o o w 8 w w 9 7 % o 0 t w 5 9 8 o o w 9 w w 7 = 1 = 6.j.m m j.a.= 1 p * e 5 t 5 o o 9 8 e 5 t 6 o o t p e 5 9 6 o o 9 a w ",
"5 8 > ; 2 7 7 7 3 7 ; ; ; 7 > 7 4 7 4 ; > > 7 7 3 7 f 1 = s 1 7 7 $ s = 1 f & 4 : < > : 2 7 > 7 3 7 > 2 ; 7 4 7 2 8 ; ; 2 7 7 4 ",
"X e e t e 0 r r r 0 e t r 0 y % O y 0 0 y e 0 r 0 : 1 f * * %   . % 1 1 f = 4 e 0 0 5 t r 0 0 @ X e 0 > y e > 0 : 0 0 e r e y   ",
"@ R ../ ..T / | W D [ ( ( T  .# + W / / / D Y o.W y = p 1 % b @ & b @ 1 p & t [ B ( e y W Y B # + W / Z B B B o.> q e H I W [   ",
"+ Y +.T +.+.( / B y ..E R U #.# + R G / R D R / ..y > * = = &.a.a.6.= & 1 @ i [ H B y 0 Y U B # + / Z q q R e [ D B Z A L ` [   ",
"O W / R +.R | / C B +.:.T Y ( # O H L Y / Y R / / y 4 & * * 7 f = 7 = = = # K /  .B D y R Y / # X / I D r R B W B B G [ H ..[   ",
"X / [ y } R +./ o.A ` +.Y / [ # X W Y ( Y D E Y ..Z 5 $ * 4.* & = & v * & ; A / u.D D B U R +.# X / Y W B R ` D B B B H H +./   ",
"X ..,.y +.R [ ` } D [ [ W D [ # X +.R Q [ W [ C ` q - q 2 4 f d d f 7 $ w w A ' e.D R B / R ( # O +.R / N R W B H q - I ` [ R   ",
"X 8.+.R ,.Z / I B / e o./ Y | # X ( ( ( R | [ R L q - B 0 - < % o 7 # 0 e y y L [ / D ../ Y  .# O 9.W R W #.| D H 0 - 8.[ W Y   ",
"X @.[ | 1.A E ' / W | o./ ` ,.# O 9.R ( o.9.R B [ R q B D 0 0   . r y D | y e [ W R ` I / ` +.# O 9.Y D ;.#.W B / 8.T / ` G +.  ",
"X 2./ / ,.Y | | W / / ` / W +.# O 8.( T e.D Y R ..R N D W B B   . } R } o.y y +.W ` V ` ( W ,.# X 9.( B r.D W R Z E Z D / Y (   ",
"X ,.` ,.I Z | L B ../ H H / 8.# O  .R Y y.R ( ( ..R B B Y D ..  X +.` +.[ t i H Z ` w L Q ( <.# O ( R R u.R [ [ B H Z B B T ..  ",
"O [ [ +.[ E } Z D ( W W T / @.- O +.Y Y 1.B $.;.Q B B R R R 8.  O } [ +.+.y i B B [ B L R R 8.# O { D R 1.B $.<.( B U Y w R +.  ",
"+ ,...[ 1.A [ / t ( ` Z Q T 9.# + #./ O.1.B D -.( Y R B R R +.  + ,...Z >.e z [ t / e Y H Y 9.# O ( R o.3.e B o.| B U B : R @.  ",
"+ >.;...} R } / h +.R W Y / #.# + 2./ Q 9.B B ;.( W B B B ( (   + >.O.i L r y [ h +.e W H / +.# O +.R Y 0.y N ;. .D B Y e / o.  ",
"O +.>.[ W R } R R +.Q W ( / #.# O +.( ( 3.e B <...R B e B B |   X +.+.T W e T R Y +.B / ( ( ,.# O @.( B 9.e B 1.o.D B y q B /   ",
"X [ .. .( R @./ D <.` Y D L 2.# X ( ( D 2.0 B t.O.B B e e T (   O ( +.L Q q Q / D ,.B Y H ` ,.# O ( ( 0 ,.0 N t.o.B B q y R |   ",
"X | ..R H T @./ D +./ W  .( +.# O @./ B 2., e O.<.e B R B R (   X +.+.B W 0 R R H +.B W ` / } # X @./ N 2.0 0 w.O.q B R e Y 9.  ",
"X } ..R Q W +.q B @.2.D  .( ,.# X +.R B ,.> B  . .( D B R B |   X | ..H Q q B q H ....Z [ [ ,.# O +./ e @.> e o.| W C D B B +.  ",
"X / H / H B  .O N 2.( W B B +.# X +./ W ( 5 D ( / O.R / D R (   O / D ( H q B O e 2.W / D G :.# X +./ B | > R ( W W Y Y B Y +.  ",
"X [ / R ..A / q N >.[ W Y Q 8.# X / / ( ` q A L B +.Z / T B +.  X [ [ W [ e Y q B ,.+.Y [ A ,.# X W / R  .q N ` y T D q R B #.  ",
"X [ ,.[ +.L Y e B W / / o./ 0.# X +.e / [ D Z E Y / D H / B +.  . [ >.[ o.q B q B / ( / ' 9 3.- X +.B R | B B Q Y Z Z q R B /   ",
"X [ / ` +.| Y R B G D [ / / 8.- . / N / [ H y O.R Y B H / Y +.  X R W L +.q B R B W R Q [ Z 2.# X / e ( Q D B o.R i B R R Y +.  ",
"X Y / R D B Y R e i B ` z Y [ # X D B e ` t i E e q y B D B T   X / [ R Y 0 B R e e B W / y | # . Y B q ( 0 N H y e y e q B R   ",
"x l k x x x d k x l 9 u x l l l x l d k k l 9 u l z k l 9 g d l k l l u l z k k l l f k k l k u x l g x x x d l l l u u x z x x ",
"9 d 7 a w p t 8 m a 9 9 9 d a s d 6 t 8 m 8 9 6 9 a d 9 w d t 9 m 8 8 6 9 d t 9 t w w 8 m a 9 6 9 d p d 6 a t 9 m a 9 9 9 p 8 p ",
"y 8 t f 5 a 5 l a m 6 w e 8 5 s 5 p 5 l 8 m 5 e u 8 w 5 d w 3 l p m 6 e u 8 e 5 9 d 5 l a m 8 w y 7 t s w a 5 l a m 6 w e 8 y s ",
"d 6 6 9 6 9 6 5 i.a a e s 6 d 5 t 8 6 6 i.p d t d 8 9 f a 6 9 6 i.7 d t s 6 d 9 a a 9 6 i.8 d e a 9 s d 9 6 9 5 i.a a e s 6 9 s ",
"6 5 w 5 9 8 % 1 o * = t w w f 9 8 t % 1 % * = t w w 9 l 9 8 % 1 % * = t w w 7 6 s 8 @ = o * = t w w 8 9 3 6 % 1 % 1 = e w w w 5 ",
"w 6 9 9 w 6 + 1 9 p $ 8 w 8 5 6 8 9 + = 9 7 $ a 5 8 9 l p 8 + = 9 7 $ 8 w 8 s 8 w d + 1 d 7 $ 8 w 8 8 8 9 5 + 1 y = $ 8 6 8 8 9 ",
"6 6 d 6 5 3 4 = t p 3 9 6 w 6 6 5 8 4 = 6 p 3 6 5 w e d s f 4 = 6 p 3 9 6 6 s s 5 8 4 = w p 5 9 6 6 d 6 5 5 4 = 9 p 3 9 6 6 d 6 ",
"7 4 8 5 4 5 7 = 4 * 4 7 4 2 7 4 8 5 4 = > < 2 7 7 4 1 7 4 8 > = > < 7 7 > 4 7 p : 1 7 = 4 = 4 7 4 4 a 6 4 5 4 = 4 1 2 7 7 4 8 5 "
};
